<svg xmlns="http://www.w3.org/2000/svg" width="143.416" height="143.417" viewBox="0 0 143.416 143.417">
  <g id="Grupo_9995" data-name="Grupo 9995" transform="translate(-244.936 -61.686)">
    <g id="Layer_4" data-name="Layer 4">
      <circle id="Elipse_607" data-name="Elipse 607" cx="71.029" cy="71.029" r="71.029" transform="translate(244.936 203.736) rotate(-89.449)" fill="#35459d"/>
    </g>
    <g id="Layer_3" data-name="Layer 3">
      <g id="Grupo_9994" data-name="Grupo 9994">
        <path id="Trazado_19410" data-name="Trazado 19410" d="M330.172,203.061a71.1,71.1,0,0,0,53.021-44.988l-46.855-46.856a25.109,25.109,0,0,0-44.952,15.388c0,.82.589,12.413,10.063,24.606,2.738,3.657,2.256,10.987,2.227,11.063H303.2a1.286,1.286,0,0,0-.922,2.182l-.006.005,1.469,1.471v.632H303.2a1.285,1.285,0,0,0-.89,2.213l-.038.037,1.469,1.468v.572H303.2a1.286,1.286,0,0,0-1.286,1.286,1.27,1.27,0,0,0,.472.987l-.04.041,1.395,1.4v.859a1.625,1.625,0,0,0,1.069,1.524,1.589,1.589,0,0,0,.359.925l-.094.092Z" fill="#232f6e"/>
        <g id="Grupo_9993" data-name="Grupo 9993">
          <path id="Trazado_19411" data-name="Trazado 19411" d="M326.583,178.476H306.416a1.614,1.614,0,0,1,0-3.228h20.167a1.614,1.614,0,0,1,0,3.228Z" fill="#2c5871"/>
          <g id="Grupo_9992" data-name="Grupo 9992">
            <g id="Grupo_9978" data-name="Grupo 9978">
              <path id="Trazado_19412" data-name="Trazado 19412" d="M291.386,126.605a25.111,25.111,0,1,1,50.221,0c0,.82-.6,12.428-10.06,24.606-2.77,3.677-2.313,11.07-2.288,11.07H303.676c.023,0,.527-7.393-2.227-11.07C291.975,139.018,291.386,127.425,291.386,126.605Z" fill="#a6dae9"/>
              <path id="Trazado_19413" data-name="Trazado 19413" d="M316.5,162.281h-12.82c.023,0,.527-7.393-2.227-11.07-9.474-12.193-10.063-23.786-10.063-24.606a25.1,25.1,0,0,1,25.11-25.112" fill="#fff"/>
              <g id="Grupo_9968" data-name="Grupo 9968">
                <path id="Trazado_19414" data-name="Trazado 19414" d="M336.275,126.6h-2.2A17.592,17.592,0,0,0,316.5,109.03v-2.2A19.8,19.8,0,0,1,336.275,126.6Z" fill="#fff"/>
              </g>
              <g id="Grupo_9973" data-name="Grupo 9973">
                <g id="Grupo_9971" data-name="Grupo 9971">
                  <g id="Grupo_9969" data-name="Grupo 9969">
                    <path id="Trazado_19415" data-name="Trazado 19415" d="M321.982,164.243l-2.174-.36,4.291-25.959,2.174.359-4.291,25.961Z" fill="#0e303f"/>
                  </g>
                  <g id="Grupo_9970" data-name="Grupo 9970">
                    <path id="Trazado_19416" data-name="Trazado 19416" d="M311.01,164.243l-4.291-25.961,2.174-.359,4.291,25.959-2.174.36Z" fill="#0e303f"/>
                  </g>
                </g>
                <g id="Grupo_9972" data-name="Grupo 9972">
                  <path id="Trazado_19417" data-name="Trazado 19417" d="M325.043,141.579c-.9,0-1.292-.878-1.578-1.52-.117-.268-.366-.826-.506-.826s-.385.558-.5.826c-.285.642-.674,1.52-1.575,1.52s-1.292-.878-1.577-1.52c-.119-.266-.367-.826-.507-.826s-.387.558-.505.826c-.285.642-.676,1.52-1.578,1.52s-1.293-.878-1.578-1.52c-.119-.266-.367-.826-.507-.826s-.389.558-.507.826c-.287.642-.676,1.52-1.58,1.52s-1.293-.878-1.579-1.519c-.119-.267-.368-.827-.511-.827s-.389.56-.508.826c-.285.642-.677,1.52-1.58,1.52v-1.172c.142,0,.391-.557.509-.825.286-.642.677-1.518,1.579-1.518s1.3.876,1.582,1.518c.119.268.367.825.508.825s.389-.557.508-.825c.286-.642.676-1.518,1.579-1.518s1.292.876,1.578,1.518c.118.268.366.825.507.825s.389-.557.506-.825c.286-.642.675-1.518,1.577-1.518s1.294.878,1.578,1.52c.118.268.366.823.506.823s.384-.555.5-.823c.285-.642.675-1.52,1.576-1.52s1.293.878,1.578,1.52c.118.268.365.823.506.823v1.172Z" fill="#0e303f"/>
                </g>
              </g>
              <path id="Trazado_19418" data-name="Trazado 19418" d="M329.284,162.293v13.129a1.63,1.63,0,0,1-1.63,1.63H305.365a1.631,1.631,0,0,1-1.625-1.63V162.293Z" fill="#0e303f"/>
              <g id="Grupo_9977" data-name="Grupo 9977">
                <g id="Grupo_9974" data-name="Grupo 9974">
                  <line id="Línea_1" data-name="Línea 1" x1="26.6" transform="translate(303.199 163.561)" fill="#0e303f"/>
                  <path id="Trazado_19419" data-name="Trazado 19419" d="M329.8,164.848H303.2a1.288,1.288,0,0,1,0-2.575h26.6a1.288,1.288,0,0,1,0,2.575Z" fill="#5a99bc"/>
                </g>
                <g id="Grupo_9975" data-name="Grupo 9975">
                  <line id="Línea_2" data-name="Línea 2" x1="26.6" transform="translate(303.199 167.851)" fill="#0e303f"/>
                  <path id="Trazado_19420" data-name="Trazado 19420" d="M329.8,169.138H303.2a1.287,1.287,0,0,1,0-2.574h26.6a1.287,1.287,0,0,1,0,2.574Z" fill="#5a99bc"/>
                </g>
                <g id="Grupo_9976" data-name="Grupo 9976">
                  <line id="Línea_3" data-name="Línea 3" x1="26.6" transform="translate(303.199 172.14)" fill="#0e303f"/>
                  <path id="Trazado_19421" data-name="Trazado 19421" d="M329.8,173.427H303.2a1.286,1.286,0,0,1,0-2.573h26.6a1.286,1.286,0,1,1,0,2.573Z" fill="#5a99bc"/>
                </g>
              </g>
            </g>
            <g id="Grupo_9991" data-name="Grupo 9991">
              <g id="Grupo_9979" data-name="Grupo 9979">
                <path id="Trazado_19422" data-name="Trazado 19422" d="M316.487,93.3a.655.655,0,0,1-.655-.654v-13.8a.656.656,0,0,1,1.311,0v13.8a.655.655,0,0,1-.656.654Z" fill="#a6dae9"/>
              </g>
              <g id="Grupo_9980" data-name="Grupo 9980">
                <path id="Trazado_19423" data-name="Trazado 19423" d="M298.9,98.021a.653.653,0,0,1-.566-.328l-6.9-11.948a.654.654,0,0,1,1.133-.655l6.9,11.949a.654.654,0,0,1-.239.9.667.667,0,0,1-.328.086Z" fill="#a6dae9"/>
              </g>
              <g id="Grupo_9981" data-name="Grupo 9981">
                <path id="Trazado_19424" data-name="Trazado 19424" d="M286.033,110.9a.649.649,0,0,1-.327-.089l-11.946-6.9a.655.655,0,1,1,.654-1.134l11.947,6.9a.655.655,0,0,1,.241.895.662.662,0,0,1-.569.328Z" fill="#a6dae9"/>
              </g>
              <g id="Grupo_9982" data-name="Grupo 9982">
                <path id="Trazado_19425" data-name="Trazado 19425" d="M281.328,128.484h-13.8a.655.655,0,1,1,0-1.311h13.8a.655.655,0,0,1,0,1.311Z" fill="#a6dae9"/>
              </g>
              <g id="Grupo_9983" data-name="Grupo 9983">
                <path id="Trazado_19426" data-name="Trazado 19426" d="M274.1,152.967a.656.656,0,0,1-.329-1.223l11.949-6.9a.654.654,0,1,1,.654,1.133l-11.948,6.9a.65.65,0,0,1-.326.088Z" fill="#a6dae9"/>
              </g>
              <g id="Grupo_9984" data-name="Grupo 9984">
                <path id="Trazado_19427" data-name="Trazado 19427" d="M292.023,170.887a.662.662,0,0,1-.326-.088.656.656,0,0,1-.242-.895l6.9-11.948a.654.654,0,1,1,1.133.654l-6.9,11.949a.651.651,0,0,1-.567.328Z" fill="#a6dae9"/>
              </g>
              <g id="Grupo_9985" data-name="Grupo 9985">
                <path id="Trazado_19428" data-name="Trazado 19428" d="M340.992,170.876a.651.651,0,0,1-.568-.328l-6.9-11.948a.655.655,0,0,1,1.134-.655l6.9,11.95a.654.654,0,0,1-.565.981Z" fill="#a6dae9"/>
              </g>
              <g id="Grupo_9986" data-name="Grupo 9986">
                <path id="Trazado_19429" data-name="Trazado 19429" d="M358.909,152.947a.642.642,0,0,1-.328-.088l-11.947-6.9a.654.654,0,0,1,.653-1.134l11.949,6.9a.654.654,0,0,1-.327,1.221Z" fill="#a6dae9"/>
              </g>
              <g id="Grupo_9987" data-name="Grupo 9987">
                <path id="Trazado_19430" data-name="Trazado 19430" d="M365.467,128.462h-13.8a.655.655,0,0,1,0-1.31h13.8a.655.655,0,0,1,0,1.31Z" fill="#a6dae9"/>
              </g>
              <g id="Grupo_9988" data-name="Grupo 9988">
                <path id="Trazado_19431" data-name="Trazado 19431" d="M346.95,110.879a.655.655,0,0,1-.327-1.222l11.949-6.9a.654.654,0,1,1,.654,1.133l-11.95,6.9a.652.652,0,0,1-.326.088Z" fill="#a6dae9"/>
              </g>
              <g id="Grupo_9989" data-name="Grupo 9989">
                <path id="Trazado_19432" data-name="Trazado 19432" d="M334.072,98.012a.642.642,0,0,1-.326-.09.652.652,0,0,1-.24-.892l6.9-11.952a.655.655,0,1,1,1.134.654l-6.9,11.952a.659.659,0,0,1-.569.328Z" fill="#a6dae9"/>
              </g>
              <g id="Grupo_9990" data-name="Grupo 9990">
                <path id="Trazado_19433" data-name="Trazado 19433" d="M316.487,93.3a.655.655,0,0,1-.655-.654v-13.8a.656.656,0,0,1,1.311,0v13.8a.655.655,0,0,1-.656.654Z" fill="#a6dae9"/>
              </g>
            </g>
          </g>
        </g>
      </g>
    </g>
  </g>
</svg>
