<svg xmlns="http://www.w3.org/2000/svg" width="353.94" height="294.885" viewBox="0 0 353.94 294.885">
  <g id="Grupo_10179" data-name="Grupo 10179" transform="translate(-235.541 -949.59)" opacity="0.798">
    <path id="Trazado_19540" data-name="Trazado 19540" d="M235.542,1369.877l14.585,51.737s2.228,11.089,10.069,13.153l99.306.437s11.429-2.038,11.645-13.539l-15.025-51.155s-2.229-12.049-14.155-12.049H241.373A13.189,13.189,0,0,0,235.542,1369.877Z" transform="translate(0 -198.508)" fill="#f44"/>
    <path id="Trazado_19541" data-name="Trazado 19541" d="M515.052,1476.709h31.681a19.135,19.135,0,0,1,1.64-3.97,4.945,4.945,0,0,0-.327-6.211c-2.181-2.483-3.018-2.763-8.869-3.153s-14.991.336-16.385,1.172-3.733,1.782-4.96,5.182S515.052,1476.709,515.052,1476.709Z" transform="translate(-135.703 -249.391)" fill="#fff"/>
    <path id="Trazado_19543" data-name="Trazado 19543" d="M518.9,1317.757c-5.574-17.388-17.165-31.1-21.624-38.121s-29.629-34.229-56.947-33.165c0,0-1.515,14.414-11.575,14.872s-10.522-11.184-10.522-11.184-16.931-1.341-38.553,17.579-24.507,30.438-24.507,30.438l51.706.407s9.5-1.437,13.666,12.27,15.134,52.936,15.134,52.936-.417,6.716-2.013,7.65h3.761s3.036-10.782,6.941-11.707a63.62,63.62,0,0,1,15.01-1.657c4.451.217,11.035.595,12.151,5.384s-2.784,4.482-2.4,7.98h13.424s3.717,1.776,2.705,3.825c0,0,15.645-.628,24.642-12.014S524.477,1335.146,518.9,1317.757Zm-34.777,6.467c-3.786,10.318-17.054,15.515-17.054,15.515l9.24-42.478S488.5,1312.3,484.128,1324.224Z" transform="translate(-58.083 -144.122)" fill="#35459d"/>
    <path id="Trazado_19544" data-name="Trazado 19544" d="M790.176,1353.105s3.006-3.278.274-11.473.272-16.939,10.653-18.031,15.572,8.742,14.205,15.3-1.911,8.471,0,14.753.821,24.04-17.21,23.5C781.9,1376.656,783.892,1359.934,790.176,1353.105Z" transform="translate(-267.034 -181.543)" fill="#fff"/>
    <path id="Trazado_19545" data-name="Trazado 19545" d="M831.282,1294.627c0,4.149-2.2,7.511-4.919,7.511s-4.917-3.361-4.917-7.511,2.2-7.513,4.917-7.513S831.282,1290.478,831.282,1294.627Z" transform="translate(-284.458 -163.869)" fill="#fff"/>
    <path id="Trazado_19546" data-name="Trazado 19546" d="M771,1456.689c-14.188-.414-16.187-3.052-16.187-3.052V1455c-2.77-.25-14.592-.506-14.874,13.147-.32,15.467,14.874,16.172,14.874,16.172v1.942s2.583,2.294,16.712,2.294,15.647-2.552,15.647-2.552v-32.368S785.187,1457.1,771,1456.689Zm-26.1,10.036c.708-7.439,9.712-6.674,9.712-6.674l.205-1.3v20.458C750.817,1478.14,744.189,1474.158,744.9,1466.725Z" transform="translate(-244.884 -244.716)" fill="#1a1a1a"/>
    <path id="Trazado_19547" data-name="Trazado 19547" d="M801.211,1450.045c0,1.823-7.243,3.3-16.179,3.3s-16.179-1.475-16.179-3.3,7.244-3.3,16.179-3.3S801.211,1448.221,801.211,1450.045Z" transform="translate(-258.924 -241.371)" fill="#fff"/>
    <path id="Trazado_19548" data-name="Trazado 19548" d="M367.841,1423.209c1.19,4.033-.6,8.111-3.994,9.114s-7.112-1.452-8.3-5.482.6-8.108,3.994-9.113S366.651,1419.181,367.841,1423.209Z" transform="translate(-58.084 -227.173)" fill="#fff"/>
    <path id="Trazado_19549" data-name="Trazado 19549" d="M434.1,1146.3l27.179-6.778s-1.15-8.409-.317-9.947l10,12.208s4.021-2.427,8.128,4.634c0,0,2.357,5.4-.887,9.319,0,0,3.755,4.343.741,11.63s-3.372,7.5-3.372,7.5,13.051-5.458,14.288-10.547c0,0-3.9-14.617-4.485-21.957a96.472,96.472,0,0,1-.333-11.761s-3.232-12.147-16.218-13.486a59.481,59.481,0,0,0-29.939,4.857S428,1127.07,434.1,1146.3Z" transform="translate(-95.5 -81.193)" opacity="0.2"/>
    <path id="Trazado_19550" data-name="Trazado 19550" d="M429.174,1161.517l30.616-8.123s-1.48-7.368-.815-7.99l7.233,13.073s2.445-3.061,4.469-3.18,6.166,1.073,7.346,6.439-1.072,8.772-6.216,9.536c0,0,3.128,3.5,1.166,9.991a54.759,54.759,0,0,1-3.76,9.732l3.95-1.505,3.1,7.927S474.6,1209.4,466.747,1212s-11.487-5.625-12.585-10.89l-1.515-7.947s-10.767,2.323-15.846-7.293C431.859,1176.508,429.174,1161.517,429.174,1161.517Z" transform="translate(-94.009 -95.068)" fill="#fff"/>
    <path id="Trazado_19551" data-name="Trazado 19551" d="M447.932,1231.509l-.439-.669-1.715,4.7,4.612-2.216Z" transform="translate(-102.07 -136.547)" opacity="0.2"/>
    <path id="Trazado_19552" data-name="Trazado 19552" d="M562.8,1484.092h2.717v-5.619S562.427,1481.04,562.8,1484.092Z" transform="translate(-158.872 -256.774)" fill="#3a3a3a"/>
    <path id="Trazado_19553" data-name="Trazado 19553" d="M469.914,969.826l-4.366-19.013,48.117,14.625-36.233,31.08-5.815-22.2,39.457-8.528Z" transform="translate(-111.668 -0.594)" fill="#f44"/>
    <path id="Trazado_19554" data-name="Trazado 19554" d="M470.92,995.123l-10.756,1.371,7.136-12.862,42.5-4.381L469,988.127Z" transform="translate(-109.055 -14.4)" fill="#f44"/>
    <g id="Grupo_10083" data-name="Grupo 10083" transform="translate(272.547 1084.637)">
      <g id="Grupo_10080" data-name="Grupo 10080" transform="translate(7.318 8.93)">
        <path id="Trazado_19558" data-name="Trazado 19558" d="M322.322,1236.419a.624.624,0,0,1-.447-.184.631.631,0,0,1,0-.893l5.724-5.726a.631.631,0,0,1,.893.893l-5.724,5.726A.622.622,0,0,1,322.322,1236.419Z" transform="translate(-321.691 -1229.429)" fill="#1a1a1a"/>
      </g>
      <g id="Grupo_10081" data-name="Grupo 10081" transform="translate(7.318 8.93)">
        <path id="Trazado_19559" data-name="Trazado 19559" d="M328.046,1236.419a.623.623,0,0,1-.447-.184l-5.724-5.726a.631.631,0,1,1,.893-.893l5.724,5.726a.631.631,0,0,1,0,.893A.622.622,0,0,1,328.046,1236.419Z" transform="translate(-321.691 -1229.429)" fill="#1a1a1a"/>
      </g>
      <g id="Grupo_10082" data-name="Grupo 10082">
        <path id="Trazado_19560" data-name="Trazado 19560" d="M310.238,1217.615a2.771,2.771,0,1,1,2.771-2.772A2.775,2.775,0,0,1,310.238,1217.615Zm0-4.28a1.51,1.51,0,1,0,1.506,1.508A1.509,1.509,0,0,0,310.238,1213.334Z" transform="translate(-307.467 -1212.073)" fill="#1a1a1a"/>
      </g>
    </g>
    <g id="Grupo_10085" data-name="Grupo 10085" transform="translate(570.782 1172.112)">
      <g id="Grupo_10084" data-name="Grupo 10084" transform="translate(0)">
        <path id="Trazado_19561" data-name="Trazado 19561" d="M889.4,1386.624a2.265,2.265,0,1,1,2.267-2.266A2.27,2.27,0,0,1,889.4,1386.624Zm0-3.269a1,1,0,1,0,1,1A1,1,0,0,0,889.4,1383.355Z" transform="translate(-887.13 -1382.094)" fill="#1a1a1a"/>
      </g>
    </g>
    <g id="Grupo_10090" data-name="Grupo 10090" transform="translate(350.302 949.59)">
      <g id="Grupo_10086" data-name="Grupo 10086" transform="translate(0 14.62)">
        <path id="Trazado_19562" data-name="Trazado 19562" d="M459.228,996.436a.638.638,0,0,1-.3-.074.63.63,0,0,1-.254-.857l6.934-12.781a.631.631,0,0,1,.492-.327l44.127-4.385a.64.64,0,0,1,.69.565.628.628,0,0,1-.565.69l-43.794,4.352-6.775,12.487A.63.63,0,0,1,459.228,996.436Z" transform="translate(-458.596 -978.006)" fill="#1a1a1a"/>
      </g>
      <g id="Grupo_10087" data-name="Grupo 10087" transform="translate(0.176 23.447)">
        <path id="Trazado_19563" data-name="Trazado 19563" d="M459.569,1004.85a.632.632,0,0,1-.433-1.092l8.949-8.423a.632.632,0,0,1,.866.922l-7.534,7.091,8.828-1.127a.633.633,0,0,1,.161,1.255l-10.756,1.372A.679.679,0,0,1,459.569,1004.85Z" transform="translate(-458.938 -995.163)" fill="#1a1a1a"/>
      </g>
      <g id="Grupo_10088" data-name="Grupo 10088" transform="translate(2.944)">
        <path id="Trazado_19564" data-name="Trazado 19564" d="M469.317,969.862a.631.631,0,0,1-.616-.488l-4.367-19.012a.632.632,0,0,1,.8-.747l48.494,14.631a.63.63,0,0,1-.12,1.231L469.38,969.86A.509.509,0,0,1,469.317,969.862Zm-3.508-18.724,4,17.409,40.409-4.013Z" transform="translate(-464.319 -949.59)" fill="#1a1a1a"/>
      </g>
      <g id="Grupo_10089" data-name="Grupo 10089" transform="translate(9.124 14.631)">
        <path id="Trazado_19565" data-name="Trazado 19565" d="M482.666,1010.361a.6.6,0,0,1-.192-.03.625.625,0,0,1-.419-.443l-5.705-22.255a.624.624,0,0,1,.076-.491.635.635,0,0,1,.406-.286l42.314-8.819a.641.641,0,0,1,.7.342.629.629,0,0,1-.158.758l-36.609,31.074A.633.633,0,0,1,482.666,1010.361Zm-4.928-22.4,5.29,20.64,33.948-28.816Z" transform="translate(-476.33 -978.028)" fill="#1a1a1a"/>
      </g>
    </g>
    <g id="Grupo_10091" data-name="Grupo 10091" transform="translate(239.131 981.546)">
      <path id="Trazado_19566" data-name="Trazado 19566" d="M259.511,1175.566a.632.632,0,0,1-.467-.205c-.829-.913-2.13-2.415-3.608-4.4a.632.632,0,0,1,1.014-.756c1.446,1.948,2.718,3.418,3.528,4.307a.63.63,0,0,1-.467,1.056Zm-6.728-9.009a.626.626,0,0,1-.537-.3c-1-1.612-1.931-3.278-2.781-4.953a.632.632,0,0,1,1.127-.571c.835,1.646,1.752,3.278,2.727,4.858a.63.63,0,0,1-.537.964Zm-5.083-10.018a.629.629,0,0,1-.584-.393c-.71-1.752-1.347-3.551-1.9-5.354a.632.632,0,0,1,1.208-.369c.538,1.767,1.163,3.531,1.857,5.247a.633.633,0,0,1-.348.824A.672.672,0,0,1,247.7,1156.538Zm-3.272-10.746a.633.633,0,0,1-.618-.5c-.384-1.85-.686-3.735-.9-5.6a.631.631,0,0,1,.556-.7.645.645,0,0,1,.7.556c.206,1.83.5,3.677.88,5.491a.632.632,0,0,1-.491.747A.642.642,0,0,1,244.427,1145.792Zm-1.265-11.157a.63.63,0,0,1-.631-.618c-.009-.429-.013-.863-.013-1.3,0-1.443.05-2.915.153-4.375a.631.631,0,1,1,1.258.09c-.1,1.427-.149,2.87-.149,4.286,0,.428,0,.851.012,1.273a.628.628,0,0,1-.617.642Zm.776-11.2a.648.648,0,0,1-.625-.729c.291-1.844.669-3.715,1.124-5.566a.642.642,0,0,1,.764-.46.631.631,0,0,1,.463.764c-.446,1.815-.816,3.65-1.1,5.458A.629.629,0,0,1,243.939,1123.436Zm2.664-10.914a.66.66,0,0,1-.2-.029.631.631,0,0,1-.4-.8c.584-1.773,1.246-3.56,1.967-5.315a.632.632,0,0,1,1.169.482c-.711,1.726-1.362,3.484-1.938,5.229A.632.632,0,0,1,246.6,1112.522Zm4.265-10.392a.656.656,0,0,1-.278-.063.634.634,0,0,1-.289-.847c.662-1.348,1.38-2.722,2.133-4.082.173-.312.35-.622.533-.925a.631.631,0,1,1,1.083.648c-.174.291-.345.589-.512.89-.742,1.341-1.45,2.695-2.1,4.027A.631.631,0,0,1,250.867,1102.13Zm52.506-5.833a.63.63,0,0,1-.224-1.22,9.3,9.3,0,0,0,3.389-2.368c.268-.282.518-.565.748-.844a.632.632,0,0,1,.972.809c-.249.3-.516.6-.8.9a10.518,10.518,0,0,1-3.858,2.677A.6.6,0,0,1,303.373,1096.3Zm-5.5-.012a.647.647,0,0,1-.211-.036,14.51,14.51,0,0,1-4.926-3.126.632.632,0,0,1,.857-.928,13.252,13.252,0,0,0,4.491,2.864.631.631,0,0,1-.211,1.226Zm-41.093-3.674a.618.618,0,0,1-.41-.152.632.632,0,0,1-.07-.89,35.5,35.5,0,0,1,4.057-4.027.631.631,0,1,1,.814.964,34.308,34.308,0,0,0-3.911,3.885A.633.633,0,0,1,256.783,1092.612Zm32.755-3.6a.632.632,0,0,1-.522-.274,37.31,37.31,0,0,1-2.833-4.967.631.631,0,1,1,1.139-.542,36.187,36.187,0,0,0,2.738,4.8.633.633,0,0,1-.522.988Zm20.607-1.113a.642.642,0,0,1-.63-.687c.014-.149.02-.292.02-.437a5.424,5.424,0,0,0-1.944-4.018.631.631,0,0,1-.032-.893.642.642,0,0,1,.892-.03,6.627,6.627,0,0,1,2.348,4.941c0,.182-.009.366-.025.551A.632.632,0,0,1,310.145,1087.9Zm-44.833-2.543a.63.63,0,0,1-.333-1.166,43.627,43.627,0,0,1,5.028-2.686.631.631,0,0,1,.524,1.148,42.706,42.706,0,0,0-4.886,2.608A.618.618,0,0,1,265.312,1085.357Zm10.206-4.661a.631.631,0,0,1-.192-1.232,52.35,52.35,0,0,1,5.509-1.425.631.631,0,0,1,.25,1.237,52.01,52.01,0,0,0-5.375,1.389A.606.606,0,0,1,275.518,1080.7Zm27.662-.559a.627.627,0,0,1-.219-.039,28.452,28.452,0,0,0-5.325-1.344.633.633,0,0,1-.523-.723.65.65,0,0,1,.723-.526,29.708,29.708,0,0,1,5.562,1.41.631.631,0,0,1-.218,1.222Zm-18.516-1.225a.631.631,0,0,1-.6-.431,50.611,50.611,0,0,1-1.477-5.5.632.632,0,1,1,1.237-.256,48.859,48.859,0,0,0,1.438,5.357.632.632,0,0,1-.4.8A.644.644,0,0,1,284.665,1078.911Zm1.856-.437a.63.63,0,0,1-.058-1.258,48.874,48.874,0,0,1,5.691-.2.63.63,0,0,1,.614.648.678.678,0,0,1-.647.613,49.174,49.174,0,0,0-5.543.2A.381.381,0,0,1,286.52,1078.474Zm-4.158-10.544a.631.631,0,0,1-.628-.571c-.15-1.591-.227-3.2-.227-4.78,0-.3,0-.607.009-.913a.631.631,0,1,1,1.261.024c-.006.294-.007.592-.006.886,0,1.543.074,3.111.221,4.663a.63.63,0,0,1-.57.687A.39.39,0,0,1,282.362,1067.93Zm.222-11.223a.645.645,0,0,1-.626-.717,45.159,45.159,0,0,1,1.136-5.586.626.626,0,0,1,.775-.443.634.634,0,0,1,.445.776,44.016,44.016,0,0,0-1.107,5.425A.629.629,0,0,1,282.584,1056.707Zm2.952-10.821a.653.653,0,0,1-.245-.047.635.635,0,0,1-.336-.83,40.9,40.9,0,0,1,2.579-5.086.631.631,0,1,1,1.082.648,39.672,39.672,0,0,0-2.5,4.931A.629.629,0,0,1,285.536,1045.886Zm5.732-9.631a.63.63,0,0,1-.5-1.017c1.163-1.505,2.4-2.959,3.676-4.325a.631.631,0,1,1,.922.863c-1.249,1.336-2.461,2.76-3.6,4.235A.63.63,0,0,1,291.268,1036.255Zm7.667-8.194a.631.631,0,0,1-.418-1.1c1.417-1.246,2.912-2.439,4.445-3.54a.631.631,0,1,1,.738,1.023c-1.5,1.08-2.963,2.243-4.348,3.463A.624.624,0,0,1,298.934,1028.061Zm9.115-6.553a.631.631,0,0,1-.317-1.178c1.621-.94,3.318-1.821,5.04-2.615a.632.632,0,1,1,.529,1.148c-1.688.776-3.347,1.639-4.936,2.561A.637.637,0,0,1,308.05,1021.508Zm10.2-4.7a.631.631,0,0,1-.211-1.225c1.755-.622,3.583-1.181,5.43-1.657a.63.63,0,1,1,.315,1.22c-1.811.47-3.6,1.017-5.322,1.627A.658.658,0,0,1,318.247,1016.808Zm10.872-2.829a.63.63,0,0,1-.105-1.252c1.853-.322,3.746-.571,5.626-.741a.6.6,0,0,1,.687.571.631.631,0,0,1-.571.684c-1.848.169-3.708.414-5.528.729A.644.644,0,0,1,329.119,1013.979Zm16.813-.776a47.253,47.253,0,0,0-5.089-.241l-.518,0a.631.631,0,1,1-.021-1.261l.539,0a45.841,45.841,0,0,1,5.168.244.631.631,0,0,1-.079,1.258Z" transform="translate(-242.518 -1011.701)" fill="#1a1a1a"/>
    </g>
    <g id="Grupo_10092" data-name="Grupo 10092" transform="translate(499.379 1214.7)">
      <path id="Trazado_19567" data-name="Trazado 19567" d="M758.9,1485.3c-.235-.036-9.948-2.308-10.527-11.752a7.581,7.581,0,0,1,2.113-6.252c3.049-2.915,8.2-2.395,8.428-2.371a.631.631,0,0,1-.136,1.255c-.049,0-4.8-.476-7.426,2.032a6.386,6.386,0,0,0-1.719,5.259c.519,8.483,9.041,10.5,9.4,10.583a.631.631,0,0,1-.138,1.246Z" transform="translate(-748.348 -1464.87)" fill="#1a1a1a"/>
    </g>
    <g id="Grupo_10093" data-name="Grupo 10093" transform="translate(494.373 1209.719)">
      <path id="Trazado_19568" data-name="Trazado 19568" d="M753.817,1485.706c-.224-.018-16.221-1.77-15.146-16.847.333-4.667,1.945-8.227,4.793-10.583,4.478-3.7,10.333-3.052,10.579-3.028a.631.631,0,0,1,.552.7.648.648,0,0,1-.7.553c-.058-.012-5.582-.607-9.635,2.754-2.566,2.127-4.023,5.387-4.331,9.691-.989,13.867,13.337,15.44,13.949,15.5a.631.631,0,0,1-.061,1.258Z" transform="translate(-738.619 -1455.189)" fill="#1a1a1a"/>
    </g>
    <g id="Grupo_10094" data-name="Grupo 10094" transform="translate(509.309 1240.62)">
      <path id="Trazado_19569" data-name="Trazado 19569" d="M784.544,1519.1c-1.73,0-16.9-.089-16.9-3.186a.632.632,0,0,1,1.264,0c.473.738,6.328,1.924,15.631,1.924,9.985,0,15.074-1.323,15.467-2a.593.593,0,0,1,.623-.595.659.659,0,0,1,.625.669C801.259,1519.014,786.254,1519.1,784.544,1519.1Z" transform="translate(-767.649 -1515.248)" fill="#1a1a1a"/>
    </g>
    <g id="Grupo_10095" data-name="Grupo 10095" transform="translate(513.422 1138.433)">
      <path id="Trazado_19570" data-name="Trazado 19570" d="M789.634,1371.532c-.273,0-.547,0-.827-.012-7.678-.232-10.84-3.965-12.14-7.055-2.519-5.988-.06-13.876,3.775-18.043.022-.024,2.7-3.171.138-10.844-1.617-4.851-1.238-9.661,1.036-13.192,2.079-3.227,5.589-5.187,10.153-5.666a15.378,15.378,0,0,1,1.633-.086,12.924,12.924,0,0,1,10.219,4.831,14.17,14.17,0,0,1,3.037,11.309l-.176.836c-1.212,5.8-1.621,7.751.161,13.6,1.16,3.81,1.361,12.068-3.037,18C800.5,1369.409,795.8,1371.532,789.634,1371.532Zm3.767-53.638a14.407,14.407,0,0,0-1.5.081c-4.168.437-7.357,2.2-9.222,5.1-2.066,3.209-2.394,7.62-.9,12.109,2.817,8.451-.275,11.954-.407,12.1-3.487,3.792-5.832,11.252-3.541,16.7,1.659,3.944,5.469,6.116,11.016,6.285,6.162.211,10.761-1.77,13.745-5.794,3.9-5.268,4.013-13.043,2.844-16.883-1.875-6.166-1.417-8.361-.189-14.23l.174-.836a12.867,12.867,0,0,0-2.78-10.259A11.55,11.55,0,0,0,793.4,1317.894Z" transform="translate(-775.642 -1316.633)" fill="#1a1a1a"/>
    </g>
    <g id="Grupo_10096" data-name="Grupo 10096" transform="translate(536.356 1119.941)">
      <path id="Trazado_19571" data-name="Trazado 19571" d="M825.767,1296.976c-3.059,0-5.549-3.652-5.549-8.144s2.49-8.141,5.549-8.141,5.55,3.653,5.55,8.141S828.828,1296.976,825.767,1296.976Zm0-15.024c-2.364,0-4.285,3.087-4.285,6.88s1.921,6.883,4.285,6.883,4.286-3.087,4.286-6.883S828.13,1281.952,825.767,1281.952Z" transform="translate(-820.218 -1280.691)" fill="#1a1a1a"/>
    </g>
    <g id="Grupo_10097" data-name="Grupo 10097" transform="translate(541.655 1208.291)">
      <path id="Trazado_19572" data-name="Trazado 19572" d="M831.149,1486.041a.632.632,0,0,1-.632-.63v-32.368a.632.632,0,0,1,1.264,0v32.368A.632.632,0,0,1,831.149,1486.041Z" transform="translate(-830.517 -1452.412)" fill="#1a1a1a"/>
    </g>
    <g id="Grupo_10098" data-name="Grupo 10098" transform="translate(509.296 1208.019)">
      <path id="Trazado_19573" data-name="Trazado 19573" d="M768.255,1486.044a.633.633,0,0,1-.632-.631v-32.9a.632.632,0,0,1,1.264,0v32.9A.632.632,0,0,1,768.255,1486.044Z" transform="translate(-767.623 -1451.885)" fill="#1a1a1a"/>
    </g>
    <g id="Grupo_10099" data-name="Grupo 10099" transform="translate(509.296 1205.235)">
      <path id="Trazado_19574" data-name="Trazado 19574" d="M784.435,1453.842c-6.243,0-16.812-.776-16.812-3.682s10.568-3.685,16.812-3.685,16.811.776,16.811,3.685S790.678,1453.842,784.435,1453.842Zm0-6.106c-9.832,0-15.349,1.583-15.549,2.43.2.832,5.718,2.415,15.549,2.415s15.348-1.58,15.549-2.427C799.783,1449.318,794.266,1447.735,784.435,1447.735Z" transform="translate(-767.623 -1446.474)" fill="#1a1a1a"/>
    </g>
    <g id="Grupo_10148" data-name="Grupo 10148" transform="translate(404.744 985.565)">
      <g id="Grupo_10100" data-name="Grupo 10100" transform="translate(48.391 154.222)">
        <path id="Trazado_19575" data-name="Trazado 19575" d="M723.445,1320.525H659.1a.631.631,0,1,1,0-1.261h64.348a.631.631,0,1,1,0,1.261Z" transform="translate(-658.467 -1319.264)" fill="#1a1a1a"/>
      </g>
      <g id="Grupo_10147" data-name="Grupo 10147">
        <g id="Grupo_10121" data-name="Grupo 10121" transform="translate(35.037 29.592)">
          <g id="Grupo_10116" data-name="Grupo 10116">
            <path id="Trazado_19593" data-name="Trazado 19593" d="M672.765,1092.389H634.132a1.622,1.622,0,0,1-1.62-1.621v-12.121a1.621,1.621,0,0,1,1.62-1.618h38.634a1.62,1.62,0,0,1,1.618,1.618v12.121A1.62,1.62,0,0,1,672.765,1092.389Zm-38.634-14.1a.357.357,0,0,0-.356.357v12.121a.364.364,0,0,0,.356.36h38.634a.363.363,0,0,0,.354-.36v-12.121a.355.355,0,0,0-.354-.357Z" transform="translate(-632.512 -1077.029)"/>
          </g>
          <g id="Grupo_10120" data-name="Grupo 10120" transform="translate(4.618 3.608)">
            <g id="Grupo_10117" data-name="Grupo 10117" transform="translate(0 3.712)">
              <path id="Trazado_19594" data-name="Trazado 19594" d="M664.012,1092.269H641.993a.506.506,0,0,1,0-1.012h22.018a.506.506,0,1,1,0,1.012Z" transform="translate(-641.488 -1091.257)"/>
            </g>
            <g id="Grupo_10118" data-name="Grupo 10118">
              <path id="Trazado_19595" data-name="Trazado 19595" d="M667.984,1085.053H641.993a.505.505,0,0,1,0-1.011h25.991a.505.505,0,1,1,0,1.011Z" transform="translate(-641.488 -1084.042)"/>
            </g>
            <g id="Grupo_10119" data-name="Grupo 10119" transform="translate(0 7.65)">
              <path id="Trazado_19596" data-name="Trazado 19596" d="M659.715,1099.922H641.993a.506.506,0,0,1,0-1.011h17.722a.506.506,0,0,1,0,1.011Z" transform="translate(-641.488 -1098.911)"/>
            </g>
          </g>
        </g>
        <g id="Grupo_10127" data-name="Grupo 10127" transform="translate(35.037 77.341)">
          <g id="Grupo_10122" data-name="Grupo 10122">
            <path id="Trazado_19597" data-name="Trazado 19597" d="M672.765,1185.193H634.132a1.618,1.618,0,0,1-1.62-1.615v-12.124a1.621,1.621,0,0,1,1.62-1.618h38.634a1.62,1.62,0,0,1,1.618,1.618v12.124A1.617,1.617,0,0,1,672.765,1185.193Zm-38.634-14.1a.361.361,0,0,0-.356.357v12.124a.36.36,0,0,0,.356.354h38.634a.36.36,0,0,0,.354-.354v-12.124a.36.36,0,0,0-.354-.357Z" transform="translate(-632.512 -1169.836)"/>
          </g>
          <g id="Grupo_10126" data-name="Grupo 10126" transform="translate(4.618 3.349)">
            <g id="Grupo_10123" data-name="Grupo 10123" transform="translate(0 3.715)">
              <path id="Trazado_19598" data-name="Trazado 19598" d="M664.012,1184.577H641.993a.505.505,0,0,1,0-1.011h22.018a.505.505,0,1,1,0,1.011Z" transform="translate(-641.488 -1183.566)"/>
            </g>
            <g id="Grupo_10124" data-name="Grupo 10124">
              <path id="Trazado_19599" data-name="Trazado 19599" d="M667.984,1177.356H641.993a.506.506,0,0,1,0-1.011h25.991a.506.506,0,0,1,0,1.011Z" transform="translate(-641.488 -1176.345)"/>
            </g>
            <g id="Grupo_10125" data-name="Grupo 10125" transform="translate(0 7.651)">
              <path id="Trazado_19600" data-name="Trazado 19600" d="M659.715,1192.226H641.993a.505.505,0,0,1,0-1.011h17.722a.505.505,0,1,1,0,1.011Z" transform="translate(-641.488 -1191.215)"/>
            </g>
          </g>
        </g>
        <g id="Grupo_10133" data-name="Grupo 10133" transform="translate(11.081 53.403)">
          <g id="Grupo_10128" data-name="Grupo 10128">
            <path id="Trazado_19601" data-name="Trazado 19601" d="M626.2,1138.665H587.568a1.62,1.62,0,0,1-1.618-1.619v-12.121a1.621,1.621,0,0,1,1.62-1.618H626.2a1.621,1.621,0,0,1,1.62,1.618v12.121A1.621,1.621,0,0,1,626.2,1138.665Zm-38.632-14.1a.356.356,0,0,0-.356.356v12.121a.36.36,0,0,0,.354.357H626.2a.361.361,0,0,0,.356-.357v-12.121a.357.357,0,0,0-.356-.356Z" transform="translate(-585.95 -1123.308)"/>
          </g>
          <g id="Grupo_10132" data-name="Grupo 10132" transform="translate(4.565 3.346)">
            <g id="Grupo_10129" data-name="Grupo 10129" transform="translate(0 3.715)">
              <path id="Trazado_19602" data-name="Trazado 19602" d="M617.346,1138.044H595.327a.505.505,0,0,1,0-1.011h22.018a.505.505,0,1,1,0,1.011Z" transform="translate(-594.822 -1137.033)"/>
            </g>
            <g id="Grupo_10130" data-name="Grupo 10130">
              <path id="Trazado_19603" data-name="Trazado 19603" d="M621.318,1130.823H595.327a.506.506,0,0,1,0-1.011h25.991a.506.506,0,0,1,0,1.011Z" transform="translate(-594.822 -1129.812)"/>
            </g>
            <g id="Grupo_10131" data-name="Grupo 10131" transform="translate(0 7.651)">
              <path id="Trazado_19604" data-name="Trazado 19604" d="M613.048,1145.693h-17.72a.505.505,0,0,1,0-1.011h17.72a.505.505,0,1,1,0,1.011Z" transform="translate(-594.822 -1144.682)"/>
            </g>
          </g>
        </g>
        <g id="Grupo_10139" data-name="Grupo 10139" transform="translate(35.037 124.959)">
          <g id="Grupo_10134" data-name="Grupo 10134">
            <path id="Trazado_19605" data-name="Trazado 19605" d="M672.765,1277.748H634.132a1.621,1.621,0,0,1-1.62-1.618v-12.121a1.622,1.622,0,0,1,1.62-1.621h38.634a1.619,1.619,0,0,1,1.618,1.618v12.124A1.619,1.619,0,0,1,672.765,1277.748Zm-38.634-14.1a.364.364,0,0,0-.356.36v12.121a.361.361,0,0,0,.356.357h38.634a.36.36,0,0,0,.354-.357v-12.124a.36.36,0,0,0-.354-.357Z" transform="translate(-632.512 -1262.388)"/>
          </g>
          <g id="Grupo_10138" data-name="Grupo 10138" transform="translate(4.618 3.349)">
            <g id="Grupo_10135" data-name="Grupo 10135" transform="translate(0 3.715)">
              <path id="Trazado_19606" data-name="Trazado 19606" d="M664.012,1277.13H641.993a.506.506,0,0,1,0-1.011h22.018a.506.506,0,1,1,0,1.011Z" transform="translate(-641.488 -1276.118)"/>
            </g>
            <g id="Grupo_10136" data-name="Grupo 10136">
              <path id="Trazado_19607" data-name="Trazado 19607" d="M667.984,1269.909H641.993a.505.505,0,0,1,0-1.011h25.991a.505.505,0,1,1,0,1.011Z" transform="translate(-641.488 -1268.898)"/>
            </g>
            <g id="Grupo_10137" data-name="Grupo 10137" transform="translate(0 7.65)">
              <path id="Trazado_19608" data-name="Trazado 19608" d="M659.715,1284.778H641.993a.506.506,0,0,1,0-1.011h17.722a.506.506,0,1,1,0,1.011Z" transform="translate(-641.488 -1283.767)"/>
            </g>
          </g>
        </g>
        <g id="Grupo_10145" data-name="Grupo 10145" transform="translate(11.081 101.021)">
          <g id="Grupo_10140" data-name="Grupo 10140">
            <path id="Trazado_19609" data-name="Trazado 19609" d="M626.2,1231.217H587.568a1.62,1.62,0,0,1-1.618-1.618v-12.121a1.621,1.621,0,0,1,1.62-1.618H626.2a1.621,1.621,0,0,1,1.62,1.618V1229.6A1.621,1.621,0,0,1,626.2,1231.217Zm-38.632-14.1a.356.356,0,0,0-.356.356V1229.6a.356.356,0,0,0,.354.357H626.2a.357.357,0,0,0,.356-.357v-12.121a.357.357,0,0,0-.356-.356Z" transform="translate(-585.95 -1215.86)"/>
          </g>
          <g id="Grupo_10144" data-name="Grupo 10144" transform="translate(4.565 3.349)">
            <g id="Grupo_10141" data-name="Grupo 10141" transform="translate(0 3.715)">
              <path id="Trazado_19610" data-name="Trazado 19610" d="M617.346,1230.6H595.327a.506.506,0,0,1,0-1.012h22.018a.506.506,0,0,1,0,1.012Z" transform="translate(-594.822 -1229.59)"/>
            </g>
            <g id="Grupo_10142" data-name="Grupo 10142">
              <path id="Trazado_19611" data-name="Trazado 19611" d="M621.318,1223.381H595.327a.505.505,0,0,1,0-1.011h25.991a.505.505,0,1,1,0,1.011Z" transform="translate(-594.822 -1222.37)"/>
            </g>
            <g id="Grupo_10143" data-name="Grupo 10143" transform="translate(0 7.65)">
              <path id="Trazado_19612" data-name="Trazado 19612" d="M613.048,1238.25h-17.72a.506.506,0,0,1,0-1.011h17.72a.506.506,0,1,1,0,1.011Z" transform="translate(-594.822 -1237.239)"/>
            </g>
          </g>
        </g>
      </g>
    </g>
    <g id="Grupo_10151" data-name="Grupo 10151" transform="translate(357.042 1233.448)">
      <g id="Grupo_10150" data-name="Grupo 10150" transform="translate(0 0)" opacity="0.2">
        <g id="Grupo_10149" data-name="Grupo 10149">
          <path id="Trazado_19614" data-name="Trazado 19614" d="M472.332,1502.8a.634.634,0,0,1-.635-.613c-.007-.327-.012-.481.629-.589a2.8,2.8,0,0,1,.969-.1c.655-.05,1.575-.1,2.869-.169l.646-.012a.636.636,0,0,1,.654.624.629.629,0,0,1-.618.636C472.475,1502.8,472.378,1502.8,472.332,1502.8Z" transform="translate(-471.695 -1501.31)" fill="#1a1a1a"/>
        </g>
      </g>
    </g>
    <g id="Grupo_10152" data-name="Grupo 10152" transform="translate(345.852 1067.018)">
      <path id="Trazado_19615" data-name="Trazado 19615" d="M454.471,1197.065a.654.654,0,0,1-.277-.062,23.841,23.841,0,0,1-4.039-2.971A.633.633,0,0,1,450.3,1193l3.27-1.636a43.868,43.868,0,0,0-1.914-12.721.631.631,0,1,1,1.21-.357,42.651,42.651,0,0,1,1.952,13.513.636.636,0,0,1-.348.527l-2.759,1.38a17.993,17.993,0,0,0,3.04,2.165.631.631,0,0,1-.276,1.2Z" transform="translate(-449.947 -1177.828)" fill="#1a1a1a"/>
    </g>
    <path id="Trazado_19616" data-name="Trazado 19616" d="M443.211,1192.217a.991.991,0,0,1-1.227-.669l-.785-2.668a.988.988,0,1,1,1.9-.559l.786,2.668A.991.991,0,0,1,443.211,1192.217Z" transform="translate(-99.828 -115.56)"/>
    <path id="Trazado_19617" data-name="Trazado 19617" d="M473.993,1184.083a.994.994,0,0,1-1.228-.669l-.784-2.668a.989.989,0,1,1,1.9-.559l.784,2.668A.991.991,0,0,1,473.993,1184.083Z" transform="translate(-114.772 -111.611)"/>
    <g id="Grupo_10153" data-name="Grupo 10153" transform="translate(333.065 1049.703)">
      <path id="Trazado_19618" data-name="Trazado 19618" d="M425.725,1161.872a.63.63,0,0,1-.161-1.24l31.49-8.29c-.371-1.657-1.245-5.978-.661-7.733a.636.636,0,0,1,.525-.428.617.617,0,0,1,.611.295c.035.059,3.69,5.958,7.261,13.123a.632.632,0,0,1-1.13.565c-2.41-4.839-4.858-9.1-6.188-11.338a38.187,38.187,0,0,0,.949,5.823.63.63,0,0,1-.452.759l-32.084,8.444A.6.6,0,0,1,425.725,1161.872Z" transform="translate(-425.093 -1144.175)" fill="#1a1a1a"/>
    </g>
    <g id="Grupo_10154" data-name="Grupo 10154" transform="translate(374.429 1075.773)">
      <path id="Trazado_19619" data-name="Trazado 19619" d="M506.122,1215.693a.614.614,0,0,1-.3-.077.628.628,0,0,1-.253-.854c7.376-13.569,3.1-18.822,3.05-18.873a.632.632,0,0,1,.949-.836c.205.232,4.963,5.863-2.89,20.309A.629.629,0,0,1,506.122,1215.693Z" transform="translate(-505.491 -1194.845)" fill="#1a1a1a"/>
    </g>
    <g id="Grupo_10155" data-name="Grupo 10155" transform="translate(331.294 1034.896)">
      <path id="Trazado_19620" data-name="Trazado 19620" d="M465.417,1177.119a.631.631,0,0,1-.248-1.211c8.263-3.545,19.587-9.724,18.891-12.356-6.113-23.07-5.094-32.57-4.9-33.9a16.588,16.588,0,0,0-10.725-11.279c-13.093-4.836-33.908,1.583-39.53,5.274-.439.253-9.861,5.878-4.252,23.43a.631.631,0,0,1-1.2.386c-5.938-18.584,4.69-24.83,4.8-24.893,5.742-3.769,27.145-10.366,40.625-5.381a17.8,17.8,0,0,1,11.539,12.246.637.637,0,0,1,.015.285c-.016.092-1.541,9.387,4.852,33.513,1.227,4.634-16.123,12.341-19.614,13.837A.612.612,0,0,1,465.417,1177.119Z" transform="translate(-421.65 -1115.394)" fill="#1a1a1a"/>
    </g>
    <g id="Grupo_10156" data-name="Grupo 10156" transform="translate(340.381 1092.691)">
      <path id="Trazado_19621" data-name="Trazado 19621" d="M439.944,1235.572a.617.617,0,0,1-.3-.077.628.628,0,0,1-.253-.854l.4-.732a26.53,26.53,0,0,0,2.613-5.72.631.631,0,0,1,1.214.345,27.853,27.853,0,0,1-2.718,5.981l-.4.726A.63.63,0,0,1,439.944,1235.572Z" transform="translate(-439.312 -1227.728)" fill="#1a1a1a"/>
    </g>
    <g id="Grupo_10157" data-name="Grupo 10157" transform="translate(340.381 1096.144)">
      <path id="Trazado_19622" data-name="Trazado 19622" d="M439.944,1238.83a.63.63,0,0,1-.18-1.234,46.434,46.434,0,0,0,7.2-3.081.63.63,0,1,1,.58,1.119,46.272,46.272,0,0,1-7.417,3.17A.63.63,0,0,1,439.944,1238.83Z" transform="translate(-439.312 -1234.439)" fill="#1a1a1a"/>
    </g>
    <g id="Grupo_10158" data-name="Grupo 10158" transform="translate(236.953 1154.004)">
      <path id="Trazado_19623" data-name="Trazado 19623" d="M364.8,1427.726H267.5c-9.125,0-12.57-7.368-14.737-14.578l-4.328-15.366a.632.632,0,0,1,.437-.78.623.623,0,0,1,.779.434l4.325,15.357c2.917,9.706,6.835,13.67,13.523,13.67h97.3a13.513,13.513,0,0,0,13.5-13.411l-14.428-51.22c-2.955-9.45-7.127-13.674-13.523-13.674h-97.3a13.515,13.515,0,0,0-13.5,13.415l6.128,21.749a.632.632,0,0,1-.438.78.624.624,0,0,1-.779-.434l-6.151-21.835a.688.688,0,0,1-.024-.173,14.778,14.778,0,0,1,14.762-14.762h97.3c9.121,0,12.778,8.316,14.734,14.575l14.457,51.321a.685.685,0,0,1,.022.172A14.777,14.777,0,0,1,364.8,1427.726Z" transform="translate(-238.286 -1346.898)" fill="#1a1a1a"/>
    </g>
    <g id="Grupo_10159" data-name="Grupo 10159" transform="translate(242.785 1156.72)">
      <path id="Trazado_19624" data-name="Trazado 19624" d="M365.894,1430.289a.631.631,0,1,1,0-1.262,13.282,13.282,0,0,0,13.5-12.927l-14.426-49.468c-2.952-9.12-7.125-13.195-13.525-13.195H250.252a.63.63,0,1,1,0-1.26H351.441c9.116,0,12.773,8.04,14.733,14.087l14.457,49.572a.626.626,0,0,1,.025.176A14.542,14.542,0,0,1,365.894,1430.289Z" transform="translate(-249.62 -1352.177)" fill="#1a1a1a"/>
    </g>
    <g id="Grupo_10160" data-name="Grupo 10160" transform="translate(363.679 1226.687)">
      <path id="Trazado_19625" data-name="Trazado 19625" d="M544.659,1496.313H485.228a.631.631,0,1,1,0-1.261h59.431a2.811,2.811,0,0,0,0-5.621H496.5a.631.631,0,1,1,0-1.262h48.155a4.072,4.072,0,1,1,0,8.145Z" transform="translate(-484.596 -1488.168)" fill="#1a1a1a"/>
    </g>
    <g id="Grupo_10161" data-name="Grupo 10161" transform="translate(378.889 1213.32)">
      <path id="Trazado_19626" data-name="Trazado 19626" d="M514.789,1476.816c-.488-.1-.7-.443-.612-.78.11-.455,2.77-11.109,8.075-12.492,5.161-1.348,15.622-1.787,20.728-.88a10.357,10.357,0,0,1,4.173,2.043,5.912,5.912,0,0,1,1.256,8.127,7.833,7.833,0,0,0-1.46,3.447.651.651,0,0,1-.72.53.633.633,0,0,1-.529-.72,9.07,9.07,0,0,1,1.69-4,4.641,4.641,0,0,0-1-6.377,9.2,9.2,0,0,0-3.629-1.805c-4.878-.875-15.253-.428-20.186.856-4.584,1.2-7.143,11.47-7.169,11.571A.631.631,0,0,1,514.789,1476.816Z" transform="translate(-514.159 -1462.187)" fill="#1a1a1a"/>
    </g>
    <g id="Grupo_10162" data-name="Grupo 10162" transform="translate(352.296 1061.136)">
      <path id="Trazado_19627" data-name="Trazado 19627" d="M471.419,1184.287a8.946,8.946,0,1,1,8.947-8.941A8.892,8.892,0,0,1,471.419,1184.287Zm.007-16.63a7.685,7.685,0,1,0-.013,15.369l.006.63v-.63a7.685,7.685,0,0,0,.007-15.369Z" transform="translate(-462.472 -1166.396)" fill="#1a1a1a"/>
    </g>
    <g id="Grupo_10163" data-name="Grupo 10163" transform="translate(331.814 1065.625)">
      <path id="Trazado_19628" data-name="Trazado 19628" d="M431.608,1193.014a8.947,8.947,0,1,1,8.949-8.941A8.961,8.961,0,0,1,431.608,1193.014Zm.008-16.633a7.686,7.686,0,0,0-.012,15.372l0,.631v-.631a7.686,7.686,0,0,0,.008-15.372Z" transform="translate(-422.661 -1175.12)" fill="#1a1a1a"/>
    </g>
    <g id="Grupo_10164" data-name="Grupo 10164" transform="translate(348.412 1070.608)">
      <path id="Trazado_19629" data-name="Trazado 19629" d="M455.554,1187.553c-.479-.1-.69-.426-.617-.761a2.646,2.646,0,0,1,1.321-1.677,3.953,3.953,0,0,1,3.427.19.63.63,0,1,1-.494,1.16,2.923,2.923,0,0,0-2.341-.235,1.366,1.366,0,0,0-.68.839A.637.637,0,0,1,455.554,1187.553Z" transform="translate(-454.923 -1184.806)" fill="#1a1a1a"/>
    </g>
    <g id="Grupo_10165" data-name="Grupo 10165" transform="translate(378.717 1093.79)">
      <path id="Trazado_19630" data-name="Trazado 19630" d="M562.291,1367.848a.632.632,0,0,1-.049-1.262,34.919,34.919,0,0,0,23.464-10.987c13.516-14.12,14.2-37.761,7.063-52.461-32.925-67.8-74.929-64.15-75.344-64.087a.614.614,0,0,1-.662-.41l-2.9-7.927a.632.632,0,0,1,1.186-.435l2.738,7.484c4.871-.185,44.714.163,76.117,64.822,7.331,15.089,6.609,39.37-7.286,53.888a36.631,36.631,0,0,1-24.279,11.375Z" transform="translate(-513.824 -1229.864)" fill="#1a1a1a"/>
    </g>
    <g id="Grupo_10166" data-name="Grupo 10166" transform="translate(327.811 1131.389)">
      <path id="Trazado_19631" data-name="Trazado 19631" d="M415.513,1326.819a.638.638,0,0,1-.631-.669c.651-10.624,5.144-22.674,5.19-22.8a.627.627,0,0,1,.812-.369.633.633,0,0,1,.369.815c-.045.119-4.471,12-5.11,22.427A.63.63,0,0,1,415.513,1326.819Z" transform="translate(-414.881 -1302.943)" fill="#1a1a1a"/>
    </g>
    <g id="Grupo_10167" data-name="Grupo 10167" transform="translate(382.667 1145.629)">
      <path id="Trazado_19632" data-name="Trazado 19632" d="M522.346,1403.772a.632.632,0,0,1-.624-.53c-1.811-11.05,7.8-15.324,18.921-20.274,6.349-2.823,12.914-5.744,18.185-10.238a16.609,16.609,0,0,0,6.195-12.24c.613-13.655-13.916-28.647-14.063-28.8a.632.632,0,1,1,.9-.886c.616.631,15.06,15.541,14.423,29.738a17.829,17.829,0,0,1-6.637,13.147c-5.411,4.61-12.06,7.567-18.491,10.428-10.646,4.735-19.841,8.825-18.187,18.917a.631.631,0,0,1-.521.723A.605.605,0,0,1,522.346,1403.772Z" transform="translate(-521.502 -1330.619)" fill="#1a1a1a"/>
    </g>
    <g id="Grupo_10168" data-name="Grupo 10168" transform="translate(408.036 1152.501)">
      <path id="Trazado_19633" data-name="Trazado 19633" d="M571.442,1387.723c-.479-.092-.694-.428-.616-.77l9.563-42.478a.614.614,0,0,1,.754-.476.631.631,0,0,1,.477.756l-9.563,42.478A.63.63,0,0,1,571.442,1387.723Z" transform="translate(-570.811 -1343.978)" fill="#1a1a1a"/>
    </g>
    <g id="Grupo_10169" data-name="Grupo 10169" transform="translate(403.301 1221.07)">
      <path id="Trazado_19634" data-name="Trazado 19634" d="M564.955,1484.129a.633.633,0,0,1-.632-.631v-4.236a11.379,11.379,0,0,0-1.466,3.745.631.631,0,1,1-1.237-.256c.1-.467,1-4.593,3.095-5.455a.643.643,0,0,1,.592.06.627.627,0,0,1,.281.523v5.619A.633.633,0,0,1,564.955,1484.129Z" transform="translate(-561.607 -1477.251)" fill="#1a1a1a"/>
    </g>
    <g id="Grupo_10170" data-name="Grupo 10170" transform="translate(293.673 1186.265)">
      <path id="Trazado_19635" data-name="Trazado 19635" d="M356.278,1425.911c-3.26,0-6.285-2.534-7.356-6.16-1.287-4.358.7-8.8,4.42-9.9a6.187,6.187,0,0,1,1.731-.25c3.26,0,6.284,2.534,7.355,6.16,1.286,4.358-.7,8.8-4.418,9.9A6.19,6.19,0,0,1,356.278,1425.911Zm-1.2-15.045a4.789,4.789,0,0,0-1.374.2c-3.056.9-4.655,4.637-3.566,8.328.913,3.094,3.44,5.253,6.145,5.253a4.782,4.782,0,0,0,1.374-.2c3.055-.9,4.653-4.637,3.565-8.329C360.3,1413.025,357.776,1410.866,355.073,1410.866Z" transform="translate(-348.529 -1409.602)" fill="#1a1a1a"/>
    </g>
    <g id="Grupo_10171" data-name="Grupo 10171" transform="translate(353.509 1082.96)">
      <path id="Trazado_19636" data-name="Trazado 19636" d="M471.93,1217.281a.594.594,0,0,1-.161-.021l-6.469-1.708a.63.63,0,1,1,.321-1.219l5.905,1.558,2.332-6.656a.632.632,0,0,1,1.193.416l-2.525,7.207A.632.632,0,0,1,471.93,1217.281Z" transform="translate(-464.829 -1208.814)" fill="#1a1a1a"/>
    </g>
    <g id="Grupo_10172" data-name="Grupo 10172" transform="translate(334.59 1065.836)">
      <path id="Trazado_19637" data-name="Trazado 19637" d="M448.631,1208.568c-10.933,0-14.011-9.387-15.146-12.844-.1-.318-.192-.586-.269-.8-1.084-2.939-4.973-17.963-5.138-18.6a.631.631,0,0,1,1.222-.315c.165.636,4.038,15.6,5.1,18.483.083.223.175.506.286.839,1.388,4.233,5.073,15.479,20.716,10.9a.632.632,0,0,1,.353,1.214A25.554,25.554,0,0,1,448.631,1208.568Z" transform="translate(-428.057 -1175.531)" fill="#1a1a1a"/>
    </g>
    <g id="Grupo_10173" data-name="Grupo 10173" transform="translate(296.462 1097.664)">
      <path id="Trazado_19638" data-name="Trazado 19638" d="M354.581,1294.414a.625.625,0,0,1-.321-.087.633.633,0,0,1-.223-.865c26.424-44.795,57.5-48.085,62.83-48.311l-1.459-7a.634.634,0,0,1,.489-.747.622.622,0,0,1,.748.491l1.613,7.74a.637.637,0,0,1-.135.536.732.732,0,0,1-.5.223c-.385-.021-34.053-.514-62.494,47.707A.632.632,0,0,1,354.581,1294.414Z" transform="translate(-353.949 -1237.393)" fill="#1a1a1a"/>
    </g>
    <g id="Grupo_10174" data-name="Grupo 10174" transform="translate(371.567 1059.594)">
      <path id="Trazado_19639" data-name="Trazado 19639" d="M505.729,1180.64a.631.631,0,0,1-.022-1.261c2.475-.089,4.27-.949,5.336-2.552a8.2,8.2,0,0,0,.473-7.058c-.584-1.541-2.851-6.452-7.539-4.762-2.786,1-2.788,4.5-2.788,4.533a.631.631,0,0,1-1.262.012c0-.182,0-4.438,3.624-5.734,4.573-1.627,7.726,1.769,9.145,5.505.812,2.141,1.142,5.574-.6,8.2-.9,1.35-2.723,2.983-6.343,3.114Z" transform="translate(-499.928 -1163.399)" fill="#1a1a1a"/>
    </g>
    <g id="Grupo_10175" data-name="Grupo 10175" transform="translate(374.43 1062.703)">
      <path id="Trazado_19640" data-name="Trazado 19640" d="M511.6,1178.613c-.073,0-5.547-.625-5.547-.625a.631.631,0,0,1-.518-.854l2.811-7.284a.631.631,0,1,1,1.178.452l-2.516,6.523,4.662.529a.631.631,0,0,1-.07,1.259Z" transform="translate(-505.492 -1169.442)" fill="#1a1a1a"/>
    </g>
    <g id="Grupo_10176" data-name="Grupo 10176" transform="translate(359.522 1101.723)">
      <path id="Trazado_19641" data-name="Trazado 19641" d="M487.47,1261.415c-9.567,0-10.937-11.63-10.95-11.749a.631.631,0,0,1,.559-.7.62.62,0,0,1,.7.559c.048.437,1.266,10.622,9.7,10.622h.187c8.651-.152,10.939-14.2,10.961-14.34a.663.663,0,0,1,.72-.526.635.635,0,0,1,.528.723c-.1.621-2.473,15.235-12.188,15.4C487.609,1261.415,487.54,1261.415,487.47,1261.415Z" transform="translate(-476.516 -1245.283)" fill="#1a1a1a"/>
    </g>
    <g id="Grupo_10177" data-name="Grupo 10177" transform="translate(541.655 1233.561)">
      <path id="Trazado_19642" data-name="Trazado 19642" d="M877.712,1502.79H831.149a.63.63,0,1,1,0-1.261h46.563a.63.63,0,1,1,0,1.261Z" transform="translate(-830.517 -1501.529)" fill="#1a1a1a"/>
    </g>
    <g id="Grupo_10178" data-name="Grupo 10178" transform="translate(423.272 1233.561)">
      <path id="Trazado_19643" data-name="Trazado 19643" d="M675.56,1502.79h-74.5a.63.63,0,1,1,0-1.261h74.5a.63.63,0,1,1,0,1.261Z" transform="translate(-600.424 -1501.529)" fill="#1a1a1a"/>
    </g>
  </g>
</svg>
