<svg xmlns="http://www.w3.org/2000/svg" width="330.484" height="291.416" viewBox="0 0 330.484 291.416">
  <g id="Grupo_10079" data-name="Grupo 10079" transform="translate(-1417.448 -338.028)" opacity="0.805">
    <path id="Trazado_19464" data-name="Trazado 19464" d="M1500.995,735.743l13.914,3.463,3.618-6.034,80.4-138.365,49.142,143.347,69.268-21.4-55.089,91.1s-58.15,3.419-89.5,3.427c-33.321.01-82.18-3.427-82.18-3.427l-73.126-94.182Z" transform="translate(0 -199.226)" fill="#ffed00"/>
    <path id="Trazado_19465" data-name="Trazado 19465" d="M1756.524,541.271l.131,21.232s-22.157-5.855-33.721-12.453a215.326,215.326,0,0,1-20.579-13.4s6.412-20.357,7.725-31.82c1.032-9.014,1.479-8.081,1.479-8.081a32.326,32.326,0,0,1-19.388,4.12c-10.9-1.284-16.533-7.178-18.807-15.813a74.2,74.2,0,0,1-2.1-21.272c.239-3.45.334-4.369.334-4.369l14.236-1.425s-2.278,22.266,7.829,23.593c0,0,3.733,2.1,13.3-4.292s20.463-12.421,23.8-13.507L1725.3,520.77l19.113-56.074,5.991,4.727s15.5,4.236,24.055,15.356,11.23,25.064,10.7,34.95-5.185,26.945-17.647,38.372l-10.619-16.608s10.624-13.723,12.173-23.166-3.207-13.646-7.486-14.9Z" transform="translate(-196.857 -93.076)" fill="#35459d"/>
    <path id="Trazado_19466" data-name="Trazado 19466" d="M1906.543,379.8l1.888.084a4.8,4.8,0,0,0,.55-1.966,1.455,1.455,0,0,0-.5-1.22l-1.8-.084.055-1.166,1.284-5.207s2.389-2.594,7.135-2.153a37.883,37.883,0,0,1,7.362,1.284,23.858,23.858,0,0,1,.917,8.51s2.224-3.08,4.732-1.724,2.829,5.792-1.431,7.55l-.1,10.92-1.486,4.028s-4.691,1.61-7.838,1.314a5.867,5.867,0,0,1-4.454-2.562l.154-3.4s-4.1.448-6.187-2.577S1906.543,379.8,1906.543,379.8Z" transform="translate(-378.916 -23.28)" fill="#fff"/>
    <path id="Trazado_19467" data-name="Trazado 19467" d="M2013.235,836.514l-5.8-9.035s-4.31-1.462-5.639-1.334-2.382.106-3.442,2.39a20.282,20.282,0,0,0-1.447,4.571s-3.366,2.936-3.019,3.586,3,.022,4.847-.531,3.75.921,6.708,1.283S2011.545,838.01,2013.235,836.514Z" transform="translate(-447.219 -378.706)" fill="#fff"/>
    <path id="Trazado_19468" data-name="Trazado 19468" d="M1629.689,1144.66l-.9,6.545-3.289-.482-.514-1.49-1.628,1.244-22.823-1.506,12.394-5.578Z" transform="translate(-142.051 -624.854)" fill="#3a3a3a"/>
    <path id="Trazado_19469" data-name="Trazado 19469" d="M1917.551,340.639c4.564-1.391,10.373-1.034,13.559,3.25a5.034,5.034,0,0,1,3.686,4.832,11.337,11.337,0,0,1-1.686,6.495s-1.99-2.576-4.2-.628l-.792.412s.909-4.712-.344-6.889a15.52,15.52,0,0,0-7.56-1.993,19.552,19.552,0,0,0-8.126,1.9l-1.233,3.1s.057-2.151.333-4.165C1911.57,344.131,1912.989,342.031,1917.551,340.639Z" transform="translate(-382.816 -1.461)" fill="#fff"/>
    <path id="Trazado_19470" data-name="Trazado 19470" d="M1724.438,832.661l4.4,76.493-26.975-6.462-11.487-65.474s-13.635-3.634-20.408-3.2-8.705,3.589-9.2,7.476c-.3,2.382-.139,42.471-.139,42.471l-27.478-1.892,1.6-50.073s-1.82-12.639,10.091-18.084c12.469-5.7,27.578-6.723,27.578-6.723a94.217,94.217,0,0,0,28.828,17.035C1719.049,830.917,1724.438,832.661,1724.438,832.661Z" transform="translate(-167.351 -364.008)" fill="#fff"/>
    <path id="Trazado_19471" data-name="Trazado 19471" d="M1646.7,406.836c.019-2.268-.287-2.564-.287-2.564l36.281.056.377,1.156,23.474.373c.795,1.172-.392,3.317-.392,3.317l-22.965.34-.661,1.225-37.376-.207A5.072,5.072,0,0,0,1646.7,406.836Z" transform="translate(-176.664 -51.396)" fill="#f44"/>
    <path id="Trazado_19472" data-name="Trazado 19472" d="M1679.862,391.413s-.222-2.2,4.847-2.452,6.226.218,6.911.6,2.876.738,2.705,4.476l1.008,3.566s-1.665,5.352-4.963,6.837l-9.4.786-1.278-7.648,11.412-.074-.717-2.336a2.033,2.033,0,0,1-2.162,1.283c-1.74-.086-2.115-2.518-2.115-2.518s-.467,2.641-2.731,2.518-2.224-1.383-2.224-1.383,1.535-2.263.061-3.491Z" transform="translate(-203.466 -39.463)" fill="#fff"/>
    <path id="Trazado_19473" data-name="Trazado 19473" d="M1639.119,404.761c0,1.792.5,3.244,1.119,3.244s1.119-1.452,1.119-3.244-.5-3.245-1.119-3.245S1639.119,402.97,1639.119,404.761Z" transform="translate(-171.987 -49.258)" fill="#fff"/>
    <g id="Grupo_10010" data-name="Grupo 10010" transform="translate(1467.879 519.451)">
      <path id="Trazado_19474" data-name="Trazado 19474" d="M1649.1,1148.625c-.027,0-6.374-.559-6.374-.559a.3.3,0,0,1-.275-.328.3.3,0,0,1,.328-.275l6.348.558a.3.3,0,0,1-.027.6Z" transform="translate(-1642.449 -1147.462)" fill="#fff"/>
    </g>
    <g id="Grupo_10011" data-name="Grupo 10011" transform="translate(1465.111 520.73)">
      <path id="Trazado_19475" data-name="Trazado 19475" d="M1636.749,1154.331c-.027,0-6.373-.559-6.373-.559a.3.3,0,0,1-.275-.328.3.3,0,0,1,.328-.275l6.346.558a.3.3,0,0,1-.027.6Z" transform="translate(-1630.1 -1153.169)" fill="#fff"/>
    </g>
    <path id="Trazado_19476" data-name="Trazado 19476" d="M1932.508,526.095l-1.837,2.838-2.1,14.37-6.788,19.535,2.65-25.445,2.912-9.346-.247-3.8,3.8-4.291Z" transform="translate(-391.294 -141.152)" fill="#f44"/>
    <path id="Trazado_19477" data-name="Trazado 19477" d="M2119.4,412.614H2221.5l-15.3-1.6s1.3-6.841-7.625-8.665-10.595,5.13-10.595,5.13,4.668-10.831-15.23-11.515-17.945,11.172-17.945,11.172.915-2.536-5.537-2.864-7.008,5.145-7.008,5.145Z" transform="translate(-544.623 -44.932)" fill="#fff"/>
    <path id="Trazado_19478" data-name="Trazado 19478" d="M2516.077,690.319h41.967l-13.906-3.108s-.135-4.138-7.968-4.353-7.2,5.221-7.2,5.221Z" transform="translate(-852.388 -267.536)" fill="#fff"/>
    <path id="Trazado_19479" data-name="Trazado 19479" d="M1560.034,706.743l-10.445-1.26s3.385-8.786-8.461-10.707-15.229,8.735-15.229,8.735-.423-2.969-8.039-2.969-9.731,6.04-9.731,6.04l-25.523,3.02,76.34.212Z" transform="translate(-50.554 -276.608)" fill="#fff"/>
    <g id="Grupo_10015" data-name="Grupo 10015" transform="translate(1664.488 456.109)">
      <g id="Grupo_10012" data-name="Grupo 10012" transform="translate(7.438 6.013)">
        <path id="Trazado_19480" data-name="Trazado 19480" d="M2553.314,897.718a.491.491,0,0,1-.347-.837l5.052-5.052a.491.491,0,1,1,.694.693l-5.052,5.052A.49.49,0,0,1,2553.314,897.718Z" transform="translate(-2552.824 -891.684)"/>
      </g>
      <g id="Grupo_10013" data-name="Grupo 10013" transform="translate(7.438 6.013)">
        <path id="Trazado_19481" data-name="Trazado 19481" d="M2558.367,897.718a.49.49,0,0,1-.347-.144l-5.052-5.052a.491.491,0,0,1,.695-.693l5.052,5.052a.491.491,0,0,1-.347.837Z" transform="translate(-2552.824 -891.684)"/>
      </g>
      <g id="Grupo_10014" data-name="Grupo 10014" transform="translate(0)">
        <path id="Trazado_19482" data-name="Trazado 19482" d="M2521.572,868.725a1.934,1.934,0,1,1,1.933-1.934A1.936,1.936,0,0,1,2521.572,868.725Zm0-2.887a.953.953,0,1,0,.953.953A.954.954,0,0,0,2521.572,865.839Z" transform="translate(-2519.639 -864.857)"/>
      </g>
    </g>
    <g id="Grupo_10017" data-name="Grupo 10017" transform="translate(1439.002 374.693)">
      <g id="Grupo_10016" data-name="Grupo 10016" transform="translate(0)">
        <path id="Trazado_19483" data-name="Trazado 19483" d="M1515.547,505.48a1.934,1.934,0,1,1,1.935-1.934A1.937,1.937,0,0,1,1515.547,505.48Zm0-2.887a.953.953,0,1,0,.953.953A.954.954,0,0,0,1515.547,502.594Z" transform="translate(-1513.613 -501.612)"/>
      </g>
    </g>
    <g id="Grupo_10018" data-name="Grupo 10018" transform="translate(1443.63 496.411)">
      <path id="Trazado_19484" data-name="Trazado 19484" d="M1556.942,1045.647h-22.189a.49.49,0,0,1,0-.98h22.189a.49.49,0,0,1,0,.98Z" transform="translate(-1534.263 -1044.667)"/>
    </g>
    <g id="Grupo_10019" data-name="Grupo 10019" transform="translate(1432.838 511.706)">
      <path id="Trazado_19485" data-name="Trazado 19485" d="M1638.907,1217.934c-32.107,0-78.75-3.4-79.218-3.438a.49.49,0,0,1-.368-.211l-.326-.474L1486.2,1113.687a.49.49,0,0,1-.008-.566.5.5,0,0,1,.531-.2l32.3,8.6a.49.49,0,1,1-.251.948l-30.97-8.242L1560,1213.534c3.631.263,48.016,3.419,78.91,3.419,37.955,0,88.185-3.162,92.213-3.419l54.333-89.855-129.4,33.6a.489.489,0,0,1-.24,0L1534.449,1127.3a.491.491,0,0,1,.235-.953l121.238,29.95,130.45-33.872a.5.5,0,0,1,.516.183.486.486,0,0,1,.027.546l-55.088,91.1a.489.489,0,0,1-.387.236C1730.912,1214.53,1678.307,1217.934,1638.907,1217.934Z" transform="translate(-1486.11 -1112.909)"/>
    </g>
    <g id="Grupo_10020" data-name="Grupo 10020" transform="translate(1558.188 399.258)">
      <path id="Trazado_19486" data-name="Trazado 19486" d="M2150.067,752.4a.488.488,0,0,1-.463-.331l-47.722-139.2-55.593,95.671a.491.491,0,0,1-.849-.494l56.134-96.6a.5.5,0,0,1,.473-.242.488.488,0,0,1,.415.329l48.069,140.215a.489.489,0,0,1-.3.622A.476.476,0,0,1,2150.067,752.4Z" transform="translate(-2045.374 -611.21)"/>
    </g>
    <g id="Grupo_10021" data-name="Grupo 10021" transform="translate(1565.909 448.405)">
      <path id="Trazado_19487" data-name="Trazado 19487" d="M2105.157,935.328a.414.414,0,0,1-.08-.007.489.489,0,0,1-.4-.564l16.611-99.892-40.521,93.975a.49.49,0,0,1-.9-.387l42.115-97.674a.49.49,0,0,1,.933.275L2105.64,934.918A.49.49,0,0,1,2105.157,935.328Z" transform="translate(-2079.823 -830.484)"/>
    </g>
    <g id="Grupo_10022" data-name="Grupo 10022" transform="translate(1588.057 555.112)">
      <path id="Trazado_19488" data-name="Trazado 19488" d="M2179.128,1368.188a.527.527,0,0,1-.111-.012.49.49,0,0,1-.367-.589l14.1-60.638a.491.491,0,0,1,.956.222l-14.1,60.639A.491.491,0,0,1,2179.128,1368.188Z" transform="translate(-2178.637 -1306.57)"/>
    </g>
    <g id="Grupo_10023" data-name="Grupo 10023" transform="translate(1647.63 496.411)">
      <path id="Trazado_19489" data-name="Trazado 19489" d="M2516.507,1045.647h-71.591a.49.49,0,0,1,0-.98h71.591a.49.49,0,0,1,0,.98Z" transform="translate(-2444.426 -1044.667)"/>
    </g>
    <g id="Grupo_10024" data-name="Grupo 10024" transform="translate(1492.602 496.411)">
      <path id="Trazado_19490" data-name="Trazado 19490" d="M1787.508,1045.647h-34.263a.49.49,0,0,1,0-.98h34.263a.49.49,0,1,1,0,.98Z" transform="translate(-1752.755 -1044.667)"/>
    </g>
    <g id="Grupo_10063" data-name="Grupo 10063" transform="translate(1457.98 338.028)">
      <g id="Grupo_10025" data-name="Grupo 10025" transform="translate(17.891 10.978)">
        <path id="Trazado_19491" data-name="Trazado 19491" d="M1693.2,394.184a.5.5,0,0,1-.49-.521,5.385,5.385,0,0,0-1.119-4.141c-.905-.972-2.335-1.453-4.37-1.471-.2,0-.465-.011-.769-.021-2.111-.074-7.05-.239-7.374,1.822a.491.491,0,0,1-.969-.152c.461-2.92,5.806-2.739,8.377-2.65.3.01.549.019.744.02,2.319.021,3.982.6,5.08,1.785a6.313,6.313,0,0,1,1.381,4.871A.492.492,0,0,1,1693.2,394.184Z" transform="translate(-1678.105 -387.01)"/>
      </g>
      <g id="Grupo_10026" data-name="Grupo 10026" transform="translate(19.108 13.432)">
        <path id="Trazado_19492" data-name="Trazado 19492" d="M1686.6,403.973c-2.642,0-2.764-1.826-2.765-1.845a.5.5,0,0,1,.084-.3c.051-.073,1.2-1.81-.207-3.008a.49.49,0,1,1,.635-.746,3.156,3.156,0,0,1,.5,4.129c.092.268.469.86,1.969.786a1.762,1.762,0,0,0,1.319-.534,2.066,2.066,0,0,0,.4-1.376.489.489,0,0,1,.417-.536.483.483,0,0,1,.553.4c.016.083.4,2.049,1.941,2.049a1.455,1.455,0,0,0,1.621-1.177.491.491,0,0,1,.974.119,2.435,2.435,0,0,1-2.581,2.04,2.687,2.687,0,0,1-2.29-1.3,2.421,2.421,0,0,1-.295.431,2.7,2.7,0,0,1-2.022.873C1686.764,403.97,1686.68,403.973,1686.6,403.973Z" transform="translate(-1683.538 -397.955)"/>
      </g>
      <g id="Grupo_10028" data-name="Grupo 10028" transform="translate(0 180.02)">
        <g id="Grupo_10027" data-name="Grupo 10027">
          <path id="Trazado_19493" data-name="Trazado 19493" d="M1627.029,1150a.649.649,0,0,1-.087-.007l-3.27-.585a.494.494,0,0,1-.388-.362l-.2-.784-1.188.909a.474.474,0,0,1-.33.1l-22.825-1.506a.49.49,0,0,1-.169-.936l12.4-5.578a.491.491,0,1,1,.4.895l-10.6,4.77,20.678,1.365,1.632-1.247a.481.481,0,0,1,.458-.073.49.49,0,0,1,.315.342l.3,1.2,2.458.439.843-6.04a.491.491,0,0,1,.972.136l-.913,6.545a.49.49,0,0,1-.486.422Z" transform="translate(-1598.284 -1141.204)"/>
        </g>
      </g>
      <g id="Grupo_10029" data-name="Grupo 10029" transform="translate(68.472 18.332)">
        <path id="Trazado_19494" data-name="Trazado 19494" d="M1911.043,434.647a7.276,7.276,0,0,1-5.055-1.607c-2.724-2.449-2.312-7.175-1.948-11.343.043-.483.084-.959.12-1.425a.49.49,0,0,1,.978.076c-.036.469-.078.948-.12,1.433-.344,3.941-.734,8.407,1.626,10.529,1.553,1.394,4.144,1.711,7.918.971a.491.491,0,0,1,.19.963A19.442,19.442,0,0,1,1911.043,434.647Z" transform="translate(-1903.778 -419.819)"/>
      </g>
      <g id="Grupo_10030" data-name="Grupo 10030" transform="translate(69.301 8.357)">
        <path id="Trazado_19495" data-name="Trazado 19495" d="M1907.967,382.75a.49.49,0,0,1-.49-.491,19.423,19.423,0,0,1,1.378-6.642.491.491,0,0,1,.906.379,18.732,18.732,0,0,0-1.3,6.263A.49.49,0,0,1,1907.967,382.75Z" transform="translate(-1907.477 -375.315)"/>
      </g>
      <g id="Grupo_10031" data-name="Grupo 10031" transform="translate(85.974 13.982)">
        <path id="Trazado_19496" data-name="Trazado 19496" d="M1985.821,409.314a3.353,3.353,0,0,1-2.29-.945.491.491,0,1,1,.673-.714,2.344,2.344,0,0,0,1.616.678,2.456,2.456,0,0,0,1.9-.99,3.95,3.95,0,0,0,.818-2.5c-.011-1.909-1.238-3.456-2.736-3.456a3.58,3.58,0,0,0-2.995,1.865.49.49,0,1,1-.905-.378,4.54,4.54,0,0,1,3.884-2.469c2.053,0,3.718,1.984,3.732,4.432a4.919,4.919,0,0,1-1.035,3.116,3.412,3.412,0,0,1-2.648,1.356Z" transform="translate(-1981.866 -400.409)"/>
      </g>
      <g id="Grupo_10032" data-name="Grupo 10032" transform="translate(87.459 15.775)">
        <path id="Trazado_19497" data-name="Trazado 19497" d="M1991.316,413.507a.493.493,0,0,1-.306-.107l-2.334-1.856a.492.492,0,0,1-.184-.367.486.486,0,0,1,.16-.379l2.484-2.261a.49.49,0,1,1,.659.725l-2.058,1.873,1.884,1.5a.491.491,0,0,1-.305.875Z" transform="translate(-1988.491 -408.408)"/>
      </g>
      <g id="Grupo_10033" data-name="Grupo 10033" transform="translate(72.56 14.306)">
        <path id="Trazado_19498" data-name="Trazado 19498" d="M1922.7,409.534a.729.729,0,0,1-.466-.21c-.3-.344-.45-1.067.64-6.454.056-.28.095-.469.1-.526a.447.447,0,0,1,.443-.484.5.5,0,0,1,.533.493,2.644,2.644,0,0,1-.118.712,32.941,32.941,0,0,0-.844,5.416,7.428,7.428,0,0,0,1.429-.738.491.491,0,1,1,.539.82,6.063,6.063,0,0,1-2.243.972Z" transform="translate(-1922.018 -401.858)"/>
      </g>
      <g id="Grupo_10034" data-name="Grupo 10034" transform="translate(71.349 23.433)">
        <path id="Trazado_19499" data-name="Trazado 19499" d="M1921.237,443.867c-.081-.007-2.582-.294-4.138-.311a.49.49,0,0,1-.485-.5.529.529,0,0,1,.5-.485c1.606.018,4.079.3,4.183.314a.491.491,0,0,1-.056.978Z" transform="translate(-1916.615 -442.575)"/>
      </g>
      <path id="Trazado_19500" data-name="Trazado 19500" d="M1950.268,410.705a.534.534,0,0,1-.5-.561l.077-1.5a.533.533,0,0,1,1.066.055l-.078,1.5A.537.537,0,0,1,1950.268,410.705Z" transform="translate(-1870.984 -392.425)"/>
      <g id="Grupo_10037" data-name="Grupo 10037" transform="translate(68.189)">
        <g id="Grupo_10035" data-name="Grupo 10035">
          <path id="Trazado_19501" data-name="Trazado 19501" d="M1926.646,354.326a.491.491,0,0,1-.443-.7c1.7-3.608,2.083-6.524,1.1-8.433a4.276,4.276,0,0,0-2.836-2.18.492.492,0,0,1-.343-.245c-2.269-4.1-8.974-4.43-14.615-2.936-3.139.831-5.071,2.185-5.743,4.025-.964,2.641,1,5.486,1.019,5.514a.49.49,0,0,1-.8.565c-.094-.132-2.278-3.282-1.142-6.409.786-2.162,2.945-3.724,6.416-4.643,5.494-1.453,12.83-1.463,15.613,3.217a5.284,5.284,0,0,1,3.3,2.626c1.154,2.222.791,5.357-1.077,9.316A.49.49,0,0,1,1926.646,354.326Z" transform="translate(-1902.516 -338.028)"/>
        </g>
        <g id="Grupo_10036" data-name="Grupo 10036" transform="translate(2.452 6.263)">
          <path id="Trazado_19502" data-name="Trazado 19502" d="M1929.379,376.382a.5.5,0,0,1-.489-.535,21.041,21.041,0,0,0-.821-7.679c-1.572-.449-10.76-2.874-13.746.7a.491.491,0,0,1-.753-.629c3.669-4.393,14.556-1.086,15.018-.943a.494.494,0,0,1,.313.292,21.3,21.3,0,0,1,.967,8.347A.491.491,0,0,1,1929.379,376.382Z" transform="translate(-1913.456 -365.97)"/>
        </g>
      </g>
      <g id="Grupo_10039" data-name="Grupo 10039" transform="translate(69.887 33.101)">
        <g id="Grupo_10038" data-name="Grupo 10038">
          <path id="Trazado_19503" data-name="Trazado 19503" d="M1910.58,543.591a.48.48,0,0,1-.223-.054.491.491,0,0,1-.242-.595l19.372-56.9a.491.491,0,0,1,.777-.219l5.721,4.727a.494.494,0,0,1,.167.273l2.371,10.84a.491.491,0,0,1-.353.579l-5.716,1.521,1.887,6.361a.49.49,0,0,1-.069.423l-23.292,32.834A.491.491,0,0,1,1910.58,543.591Zm19.607-56.557-18.056,53.032,21.2-29.889-1.961-6.616a.492.492,0,0,1,.343-.613l5.749-1.531L1935.23,491.2Z" transform="translate(-1910.09 -485.713)"/>
        </g>
      </g>
      <g id="Grupo_10041" data-name="Grupo 10041" transform="translate(62.239 32.462)">
        <g id="Grupo_10040" data-name="Grupo 10040">
          <path id="Trazado_19504" data-name="Trazado 19504" d="M1884.106,541.377a.49.49,0,0,1-.481-.4l-7.018-35.47a.491.491,0,0,1,.063-.352l3.45-5.628-3.947-2.812a.491.491,0,0,1-.118-.681l7.031-10.021a.491.491,0,0,1,.2-.163l6.342-2.948a.489.489,0,0,1,.694.493l-5.725,57.536a.491.491,0,0,1-.463.441Zm-6.5-35.868,6.34,32.038,5.313-53.39-5.444,2.53-6.676,9.515,3.923,2.8a.49.49,0,0,1,.134.656Z" transform="translate(-1875.967 -482.86)"/>
        </g>
      </g>
      <g id="Grupo_10042" data-name="Grupo 10042" transform="translate(46.773 52.325)">
        <path id="Trazado_19505" data-name="Trazado 19505" d="M1862.19,651.044a.479.479,0,0,1-.127-.017,229.951,229.951,0,0,1-31.717-11.492,94.667,94.667,0,0,1-23.224-14.867.49.49,0,0,1-.107-.567c.05-.1,4.9-10.492,7.966-30.455.029-.165,2.743-15.451,4.22-21.787a.485.485,0,0,1,.589-.366.49.49,0,0,1,.367.589c-1.473,6.309-4.182,21.57-4.208,21.723-2.782,18.129-7.048,28.449-7.9,30.383a95.486,95.486,0,0,0,22.706,14.456,228.573,228.573,0,0,0,30.921,11.258l-.311-9.807a.49.49,0,0,1,.474-.505.5.5,0,0,1,.506.475l.333,10.473a.491.491,0,0,1-.49.506Z" transform="translate(-1806.968 -571.48)"/>
      </g>
      <g id="Grupo_10043" data-name="Grupo 10043" transform="translate(94.98 37.828)">
        <path id="Trazado_19506" data-name="Trazado 19506" d="M2039.918,596.459a.52.52,0,0,1-.412-.226l-10.535-16.4a.49.49,0,0,1-.776-.461l5.127-38.146a.491.491,0,0,1,.68-.385c4.19,1.806,6.784,4.67,7.711,8.513,2.749,11.4-9.887,27.68-11.826,30.09L2040,595.2c2.948-2.965,20.255-21.625,16.64-47.392-3.73-26.6-20.271-35.374-34.263-40.049a.49.49,0,0,1,.31-.931c14.261,4.765,31.119,13.712,34.926,40.843,4,28.519-17.152,48.461-17.367,48.659A.487.487,0,0,1,2039.918,596.459Zm-5.712-54.446-4.92,36.608c2.294-2.918,14.012-18.506,11.473-29.036A11.174,11.174,0,0,0,2034.206,542.012Z" transform="translate(-2022.046 -506.8)"/>
      </g>
      <g id="Grupo_10044" data-name="Grupo 10044" transform="translate(30.513 26.398)">
        <path id="Trazado_19507" data-name="Trazado 19507" d="M1744.828,480.715q-.618,0-1.256-.06c-10.951-1.045-9.061-23.452-8.975-24.4a.491.491,0,0,1,.977.088c-.02.224-1.9,22.388,8.091,23.341,5.187.493,9.352-2.429,14.632-6.129a70.571,70.571,0,0,1,15.19-8.7.49.49,0,1,1,.36.912,69.789,69.789,0,0,0-14.989,8.591C1753.833,477.876,1749.782,480.715,1744.828,480.715Z" transform="translate(-1734.421 -455.803)"/>
      </g>
      <g id="Grupo_10045" data-name="Grupo 10045" transform="translate(15.994 26.398)">
        <path id="Trazado_19508" data-name="Trazado 19508" d="M1694.379,499.83a31.509,31.509,0,0,1-10.77-1.913c-17.469-6.355-13.674-38.876-13.5-40.257a.491.491,0,0,1,.438-.428l14.234-1.425a.482.482,0,0,1,.537.439.489.489,0,0,1-.438.537l-13.839,1.385c-.38,3.735-2.838,33.1,12.909,38.827,5.848,2.128,15.072,3.492,25.778-2.106.657-.345.836-.439,1.108-.244a.506.506,0,0,1,.2.482.49.49,0,0,1-.438.414c-.09.042-.23.117-.419.217A33.8,33.8,0,0,1,1694.379,499.83Z" transform="translate(-1669.644 -455.806)"/>
      </g>
      <g id="Grupo_10046" data-name="Grupo 10046" transform="translate(7.343 104.666)">
        <path id="Trazado_19509" data-name="Trazado 19509" d="M1700.487,901.485a.492.492,0,0,1-.483-.4c-.11-.626-10.605-60.052-11.5-65.128-1.271-.2-2.872-.566-4.7-.979-8.433-1.906-21.177-4.786-23.8,2.764a15.278,15.278,0,0,0-.553,5.05l0,12.852q0,13.362.031,26.727a.486.486,0,0,1-.155.359.456.456,0,0,1-.37.131L1631.5,880.9a.489.489,0,0,1-.455-.5c.005-.413.606-41.428,1.953-55.708,1.374-14.54,22.484-17.517,37.9-19.69a.49.49,0,1,1,.136.971c-15.09,2.128-35.758,5.042-37.058,18.811-1.267,13.419-1.873,50.579-1.944,55.166l26.469,1.884q-.044-13.1-.029-26.2l0-12.851a16.274,16.274,0,0,1,.606-5.373c2.907-8.377,16.166-5.383,24.94-3.4,1.981.448,3.693.834,4.976,1.019a.486.486,0,0,1,.15.047c.223.111.223.111,11.828,65.828a.491.491,0,0,1-.4.569A.622.622,0,0,1,1700.487,901.485Z" transform="translate(-1631.047 -805.006)"/>
      </g>
      <g id="Grupo_10047" data-name="Grupo 10047" transform="translate(98.794 130.133)">
        <path id="Trazado_19510" data-name="Trazado 19510" d="M2043.967,996.348a.491.491,0,0,1-.49-.462l-4.411-76.738a.49.49,0,0,1,.462-.517.483.483,0,0,1,.518.461l4.411,76.738a.492.492,0,0,1-.462.518Z" transform="translate(-2039.065 -918.629)"/>
      </g>
      <g id="Grupo_10048" data-name="Grupo 10048" transform="translate(49.44 14.731)">
        <path id="Trazado_19511" data-name="Trazado 19511" d="M1819.233,408.483a.368.368,0,0,1-.008-.736l21.468-.433c.075-.02.327-.277.327-1.2,0-1.061-.407-1.209-.411-1.21l-21.2-.415a.367.367,0,0,1-.359-.375.409.409,0,0,1,.375-.361l21.28.427c.164.027,1.046.252,1.046,1.934,0,1.881-.945,1.935-1.054,1.935l-21.46.433Z" transform="translate(-1818.866 -403.753)"/>
      </g>
      <g id="Grupo_10049" data-name="Grupo 10049" transform="translate(11.195 13.554)">
        <path id="Trazado_19512" data-name="Trazado 19512" d="M1656.636,399.238H1648.6a.368.368,0,0,1,0-.736h8.036a.368.368,0,0,1,0,.736Z" transform="translate(-1648.233 -398.502)"/>
      </g>
      <g id="Grupo_10050" data-name="Grupo 10050" transform="translate(31.995 13.554)">
        <path id="Trazado_19513" data-name="Trazado 19513" d="M1758.539,405.458H1742.95a.368.368,0,0,1,0-.736h15.337a8.718,8.718,0,0,0,.378-2.743,7.879,7.879,0,0,0-.36-2.743H1741.4a.368.368,0,0,1,0-.736h17.141a.368.368,0,0,1,.308.168,6.568,6.568,0,0,1,.551,3.31,8.207,8.207,0,0,1-.527,3.268A.369.369,0,0,1,1758.539,405.458Z" transform="translate(-1741.031 -398.502)"/>
      </g>
      <g id="Grupo_10051" data-name="Grupo 10051" transform="translate(11.195 19.775)">
        <path id="Trazado_19514" data-name="Trazado 19514" d="M1666.816,426.992H1648.6a.368.368,0,0,1,0-.736h18.216a.368.368,0,0,1,0,.736Z" transform="translate(-1648.233 -426.256)"/>
      </g>
      <g id="Grupo_10052" data-name="Grupo 10052" transform="translate(10.137 13.554)">
        <path id="Trazado_19515" data-name="Trazado 19515" d="M1644.935,405.458c-.98,0-1.426-1.8-1.426-3.478s.446-3.478,1.426-3.478,1.425,1.8,1.425,3.478S1645.914,405.458,1644.935,405.458Zm0-6.221c-.178,0-.692.943-.692,2.743s.514,2.743.692,2.743.69-.943.69-2.743S1645.113,399.243,1644.935,399.238Z" transform="translate(-1643.509 -398.502)"/>
      </g>
      <g id="Grupo_10053" data-name="Grupo 10053" transform="translate(63.519 125.04)">
        <path id="Trazado_19516" data-name="Trazado 19516" d="M1883.383,906.539a.49.49,0,0,1-.486-.43l-1.211-9.651a.49.49,0,1,1,.972-.122l1.211,9.651a.491.491,0,0,1-.486.551Z" transform="translate(-1881.682 -895.906)"/>
      </g>
      <g id="Grupo_10054" data-name="Grupo 10054" transform="translate(89.259 21.905)">
        <path id="Trazado_19517" data-name="Trazado 19517" d="M1997.012,447.938a.492.492,0,0,1-.49-.5l.193-11.2a.49.49,0,1,1,.98.017l-.194,11.2A.49.49,0,0,1,1997.012,447.938Z" transform="translate(-1996.522 -435.761)"/>
      </g>
      <g id="Grupo_10055" data-name="Grupo 10055" transform="translate(75.345 32.204)">
        <path id="Trazado_19518" data-name="Trazado 19518" d="M1940.824,488.671c-.187,0-.363-.006-.527-.02-4.293-.335-5.73-2.794-5.791-2.9a.5.5,0,0,1-.061-.284l.29-3.31a.469.469,0,0,1,.531-.446.491.491,0,0,1,.446.531l-.275,3.142c.319.449,1.665,2.032,4.938,2.288a19.25,19.25,0,0,0,6.927-1.342.491.491,0,0,1,.47.861A20.36,20.36,0,0,1,1940.824,488.671Z" transform="translate(-1934.443 -481.71)"/>
      </g>
      <g id="Grupo_10056" data-name="Grupo 10056" transform="translate(28.632 14.06)">
        <path id="Trazado_19519" data-name="Trazado 19519" d="M1726.792,414.076a.49.49,0,0,1-.215-.931c2.462-1.2,3.933-5.471,4.2-6.3-.561-1.715-1.654-4.481-2.37-5.042-.085-.066-.17-.109-.362.021a3.189,3.189,0,0,0-1,2.593c.34,1.168.71,2.264.712,2.268a.49.49,0,1,1-.929.314s-.377-1.116-.725-2.307a4.108,4.108,0,0,1,1.4-3.681,1.225,1.225,0,0,1,1.515.019c1.215.952,2.594,5.182,2.748,5.662a.5.5,0,0,1,0,.287c-.067.225-1.648,5.53-4.756,7.048A.486.486,0,0,1,1726.792,414.076Z" transform="translate(-1726.027 -400.756)"/>
      </g>
      <g id="Grupo_10057" data-name="Grupo 10057" transform="translate(17.926 19.842)">
        <path id="Trazado_19520" data-name="Trazado 19520" d="M1679.869,435.084a.49.49,0,0,1-.484-.418l-1.118-7.548a.491.491,0,0,1,.413-.557.484.484,0,0,1,.557.413l1.118,7.548a.491.491,0,0,1-.413.557A.533.533,0,0,1,1679.869,435.084Z" transform="translate(-1678.262 -426.553)"/>
      </g>
      <g id="Grupo_10058" data-name="Grupo 10058" transform="translate(77.775 13.982)">
        <path id="Trazado_19521" data-name="Trazado 19521" d="M1948.21,401.39h-2.434a.491.491,0,0,1,0-.981h2.434a.491.491,0,0,1,0,.981Z" transform="translate(-1945.286 -400.409)"/>
      </g>
      <g id="Grupo_10059" data-name="Grupo 10059" transform="translate(69.738 13.982)">
        <path id="Trazado_19522" data-name="Trazado 19522" d="M1912.35,401.39h-2.436a.491.491,0,0,1,0-.981h2.436a.491.491,0,0,1,0,.981Z" transform="translate(-1909.425 -400.409)"/>
      </g>
      <g id="Grupo_10060" data-name="Grupo 10060" transform="translate(88.365 108.926)">
        <path id="Trazado_19523" data-name="Trazado 19523" d="M2007.8,836.644a24.623,24.623,0,0,1-6.594-1.216,11.326,11.326,0,0,0-2.166-.509,11.75,11.75,0,0,0-2.323.515c-1.7.483-3.174.9-3.893.224a.914.914,0,0,1-.286-.718c.04-1.131,2.06-2.917,2.857-3.578.3-1.048,1.727-5.789,3.465-6.935,1.9-1.254,7.287.717,7.9.945a.49.49,0,0,1-.344.919c-2.119-.8-5.892-1.786-7.013-1.045-1.3.861-2.681,5-3.1,6.528a.487.487,0,0,1-.163.25c-1.423,1.161-2.67,2.573-2.616,2.963.291.254,1.943-.213,2.929-.494a11.968,11.968,0,0,1,2.56-.552,10.241,10.241,0,0,1,2.469.547c2.752.792,7.358,2.12,10.121.149a.49.49,0,1,1,.569.8A7.382,7.382,0,0,1,2007.8,836.644Z" transform="translate(-1992.534 -824.012)"/>
      </g>
      <g id="Grupo_10061" data-name="Grupo 10061" transform="translate(34.801 158.383)">
        <path id="Trazado_19524" data-name="Trazado 19524" d="M1788.306,1045.647h-34.263a.49.49,0,1,1,0-.98h34.263a.49.49,0,0,1,0,.98Z" transform="translate(-1753.553 -1044.667)"/>
      </g>
      <g id="Grupo_10062" data-name="Grupo 10062" transform="translate(74.441 38.232)">
        <path id="Trazado_19525" data-name="Trazado 19525" d="M1940.078,520.506a.367.367,0,0,1-.351-.26l-3.212-10.461-5.439,7.521a.368.368,0,0,1-.6-.431l5.872-8.119a.378.378,0,0,1,.358-.147.367.367,0,0,1,.291.255l3.429,11.167a.368.368,0,0,1-.243.46A.375.375,0,0,1,1940.078,520.506Z" transform="translate(-1930.409 -508.604)"/>
      </g>
    </g>
    <g id="Grupo_10064" data-name="Grupo 10064" transform="translate(1666.795 511.705)">
      <path id="Trazado_19526" data-name="Trazado 19526" d="M2546.237,1113.885h-15.814a.49.49,0,0,1,0-.98h15.814a.49.49,0,0,1,0,.98Z" transform="translate(-2529.933 -1112.905)"/>
    </g>
    <g id="Grupo_10065" data-name="Grupo 10065" transform="translate(1425.907 583.609)">
      <path id="Trazado_19527" data-name="Trazado 19527" d="M1490.088,1434.689H1455.68a.49.49,0,1,1,0-.98h34.408a.49.49,0,1,1,0,.98Z" transform="translate(-1455.189 -1433.709)"/>
    </g>
    <g id="Grupo_10066" data-name="Grupo 10066" transform="translate(1427.559 593.052)">
      <path id="Trazado_19528" data-name="Trazado 19528" d="M1474.558,1476.823h-11.509a.49.49,0,1,1,0-.98h11.509a.49.49,0,1,1,0,.98Z" transform="translate(-1462.558 -1475.843)"/>
    </g>
    <g id="Grupo_10067" data-name="Grupo 10067" transform="translate(1695.958 624.038)">
      <path id="Trazado_19529" data-name="Trazado 19529" d="M2689.75,1615.068h-29.214a.49.49,0,1,1,0-.98h29.214a.49.49,0,0,1,0,.98Z" transform="translate(-2660.046 -1614.088)"/>
    </g>
    <g id="Grupo_10068" data-name="Grupo 10068" transform="translate(1487.148 628.464)">
      <path id="Trazado_19530" data-name="Trazado 19530" d="M1758.127,1634.815H1728.91a.49.49,0,1,1,0-.98h29.217a.49.49,0,0,1,0,.98Z" transform="translate(-1728.42 -1633.835)"/>
    </g>
    <g id="Grupo_10069" data-name="Grupo 10069" transform="translate(1729.888 575.695)">
      <path id="Trazado_19531" data-name="Trazado 19531" d="M2828.981,1399.382h-17.064a.49.49,0,1,1,0-.98h17.064a.49.49,0,1,1,0,.98Z" transform="translate(-2811.427 -1398.402)"/>
    </g>
    <g id="Grupo_10070" data-name="Grupo 10070" transform="translate(1725.172 584.298)">
      <path id="Trazado_19532" data-name="Trazado 19532" d="M2798.437,1437.763h-7.561a.49.49,0,1,1,0-.98h7.561a.49.49,0,1,1,0,.98Z" transform="translate(-2790.386 -1436.783)"/>
    </g>
    <g id="Grupo_10071" data-name="Grupo 10071" transform="translate(1534.5 382.737)">
      <path id="Trazado_19533" data-name="Trazado 19533" d="M1940.053,564.526a.377.377,0,0,1-.363-.422l3.33-22.5a.343.343,0,0,1,.055-.145l2.453-3.791a.367.367,0,1,1,.616.4l-2.409,3.725-3.319,22.42A.367.367,0,0,1,1940.053,564.526Z" transform="translate(-1939.686 -537.501)"/>
    </g>
    <g id="Grupo_10072" data-name="Grupo 10072" transform="translate(1531.148 381.844)">
      <path id="Trazado_19534" data-name="Trazado 19534" d="M1925.1,548.811a.368.368,0,0,1-.351-.477l3.331-10.695-.242-3.731a.368.368,0,0,1,.735-.048l.246,3.8a.375.375,0,0,1-.016.134l-3.351,10.76A.368.368,0,0,1,1925.1,548.811Z" transform="translate(-1924.732 -533.517)"/>
    </g>
    <g id="Grupo_10073" data-name="Grupo 10073" transform="translate(1534.5 385.642)">
      <path id="Trazado_19535" data-name="Trazado 19535" d="M1943.382,552.083a.357.357,0,0,1-.094-.013l-3.33-.885a.368.368,0,0,1,.19-.71l3.33.885a.368.368,0,0,1-.095.723Z" transform="translate(-1939.685 -550.462)"/>
    </g>
    <g id="Grupo_10074" data-name="Grupo 10074" transform="translate(1549.265 453.42)">
      <path id="Trazado_19536" data-name="Trazado 19536" d="M2006.055,854.476a.49.49,0,0,1-.26-.907,5.736,5.736,0,0,1,1.7-.653,8.236,8.236,0,0,1,2.8.224.49.49,0,1,1-.227.953,7.416,7.416,0,0,0-2.369-.218,4.808,4.808,0,0,0-1.379.527A.486.486,0,0,1,2006.055,854.476Z" transform="translate(-2005.563 -852.858)"/>
    </g>
    <g id="Grupo_10075" data-name="Grupo 10075" transform="translate(1577.243 347.635)">
      <path id="Trazado_19537" data-name="Trazado 19537" d="M2232.972,398.545H2130.879a.491.491,0,0,1-.068-.977l22.506-3.143c.284-1.312,1.634-5.508,7.453-5.2,2.379.122,4.07.548,5.053,1.274a9.243,9.243,0,0,1,2.655-5.344c2.823-2.832,7.576-4.268,14.127-4.268q.8,0,1.64.029c7.521.258,12.5,1.982,14.8,5.123a7.058,7.058,0,0,1,1.366,4.008A8.219,8.219,0,0,1,2207.23,387a14.684,14.684,0,0,1,2.92.315c7.812,1.6,8.158,6.993,8.062,8.708l14.811,1.545a.491.491,0,0,1-.051.979Zm-95.037-.981h85.613l-5.923-.618a.492.492,0,0,1-.432-.578c.048-.26,1.078-6.393-7.242-8.094a13.658,13.658,0,0,0-2.723-.3,7.164,7.164,0,0,0-7.119,4.535,4.9,4.9,0,0,1-.2.6.49.49,0,0,1-.927-.309,5.464,5.464,0,0,1,.218-.655,6.4,6.4,0,0,0-.94-5.532c-2.115-2.886-6.841-4.475-14.047-4.723-.552-.019-1.085-.028-1.605-.028-6.28,0-10.8,1.339-13.433,3.98a8.294,8.294,0,0,0-2.453,5.822,1.734,1.734,0,0,1,.024,1.076.491.491,0,0,1-.946-.087,5.825,5.825,0,0,1-.059-.8c-.239-.485-1.2-1.46-5.02-1.654-5.868-.306-6.473,4.508-6.5,4.705a.492.492,0,0,1-.419.435Z" transform="translate(-2130.389 -380.89)"/>
    </g>
    <g id="Grupo_10076" data-name="Grupo 10076" transform="translate(1666.151 411.941)">
      <path id="Trazado_19538" data-name="Trazado 19538" d="M2569.517,676.247h-41.966a.491.491,0,0,1-.084-.974l12.476-2.168a5.06,5.06,0,0,1,1.25-3.215c1.3-1.464,3.439-2.17,6.465-2.086,6.87.19,8.151,3.319,8.39,4.439l13.576,3.034a.491.491,0,0,1-.107.969Zm-36.281-.982h31.839l-9.569-2.138a.489.489,0,0,1-.383-.463c-.008-.146-.274-3.68-7.491-3.88l-.434-.006c-2.457,0-4.23.594-5.271,1.763a4.071,4.071,0,0,0-.993,2.917.491.491,0,0,1-.4.54Z" transform="translate(-2527.06 -667.798)"/>
    </g>
    <g id="Grupo_10077" data-name="Grupo 10077" transform="translate(1435.005 415.677)">
      <path id="Trazado_19539" data-name="Trazado 19539" d="M1569.835,700.5h-73.562a.49.49,0,0,1-.058-.977l25.238-2.986a10.618,10.618,0,0,1,10.073-6.078c5.084,0,7.143,1.331,7.972,2.326a13.7,13.7,0,0,1,15.375-8.085c4.147.673,6.958,2.248,8.354,4.681a8.218,8.218,0,0,1,.668,6.1l7.095.969a.491.491,0,0,1,.419.552.483.483,0,0,1-.553.42l-7.668-1.048a.491.491,0,0,1-.391-.662,7.508,7.508,0,0,0-.426-5.855c-1.244-2.16-3.82-3.57-7.656-4.193-11.282-1.826-14.652,8.3-14.684,8.4a.479.479,0,0,1-.508.34.492.492,0,0,1-.446-.419c0-.015-.572-2.548-7.552-2.548-7.183,0-9.247,5.655-9.267,5.712a.491.491,0,0,1-.406.324l-17.261,2.042h65.243a.491.491,0,0,1,0,.981Z" transform="translate(-1495.782 -684.466)"/>
    </g>
  </g>
</svg>
