<svg xmlns="http://www.w3.org/2000/svg" width="755" height="381.578" viewBox="0 0 755 381.578">
  <g id="Grupo_10192" data-name="Grupo 10192" transform="translate(-583 -4245.422)">
    <rect id="Rectángulo_2151" data-name="Rectángulo 2151" width="755" height="42" transform="translate(583 4585)" fill="rgba(255,237,0,0.55)"/>
    <g id="Grupo_9873" data-name="Grupo 9873" transform="translate(-665.619 4064.517)" opacity="0.617">
      <circle id="Elipse_595" data-name="Elipse 595" cx="74.39" cy="74.39" r="74.39" transform="translate(1638.012 286.108) rotate(-45)" fill="#fff"/>
      <rect id="Rectángulo_2152" data-name="Rectángulo 2152" width="254.791" height="190.811" transform="translate(1449.411 288.527)" fill="#fff"/>
      <rect id="Rectángulo_2153" data-name="Rectángulo 2153" width="18.15" height="18.149" transform="translate(1679.238 347.808)" fill="#1c55ff" opacity="0.24"/>
      <rect id="Rectángulo_2154" data-name="Rectángulo 2154" width="18.146" height="18.148" transform="translate(1531.806 316.551)" fill="#1c55ff" opacity="0.24"/>
      <rect id="Rectángulo_2155" data-name="Rectángulo 2155" width="18.146" height="18.149" transform="translate(1572.135 311.257)" fill="#1c55ff" opacity="0.24"/>
      <rect id="Rectángulo_2156" data-name="Rectángulo 2156" width="18.148" height="18.148" transform="translate(1536.503 354.553)" fill="#1c55ff" opacity="0.24"/>
      <rect id="Rectángulo_2157" data-name="Rectángulo 2157" width="18.148" height="18.149" transform="translate(1569.747 351.896)" fill="#f4d4d7"/>
      <rect id="Rectángulo_2158" data-name="Rectángulo 2158" width="18.146" height="18.148" transform="translate(1531.806 394.304)" fill="#1c55ff" opacity="0.24"/>
      <rect id="Rectángulo_2159" data-name="Rectángulo 2159" width="18.148" height="18.15" transform="translate(1573.649 391.996)" fill="#1c55ff" opacity="0.24"/>
      <path id="Trazado_19101" data-name="Trazado 19101" d="M2568.4,521.081a9.891,9.891,0,1,1-9.892-9.891A9.89,9.89,0,0,1,2568.4,521.081Z" transform="translate(-815.297 -234.974)" fill="#1c55ff" opacity="0.24"/>
      <path id="Trazado_19102" data-name="Trazado 19102" d="M1793.793,453.661s.019-6.422.019-6.482c.007-3.07.98-8.8,3.294-8.8.574,0,2.245,2.047,2.97,7.114.089.622.153,1.245.2,1.862.488,6.077-.894,11.725-3.191,12.369a2.194,2.194,0,0,0-1.54,2.72,2.245,2.245,0,0,0,2.157,1.6,2.283,2.283,0,0,0,.62-.087c5.57-1.563,6.886-10.027,6.454-16.6-.055-.863-.141-1.695-.253-2.473-.994-6.929-3.7-10.9-7.419-10.9-7.567,0-7.785,11.845-7.785,13.2,0,.061.019,6.483.019,6.483Z" transform="translate(-275.11 -180.045)" fill="#1a1a1a"/>
      <path id="Trazado_19103" data-name="Trazado 19103" d="M1931.3,453.661s.019-6.422.021-6.482c.005-3.07.977-8.8,3.292-8.8.574,0,2.243,2.047,2.971,7.114.09.622.151,1.245.2,1.862.487,6.077-.894,11.725-3.191,12.369a2.194,2.194,0,0,0-1.54,2.72,2.255,2.255,0,0,0,2.776,1.509c5.57-1.563,6.888-10.027,6.455-16.6-.056-.863-.143-1.695-.253-2.473-1-6.929-3.7-10.9-7.419-10.9-7.567,0-7.785,11.845-7.785,13.2,0,.061.017,6.483.017,6.483Z" transform="translate(-372.935 -180.045)" fill="#1a1a1a"/>
      <path id="Trazado_19104" data-name="Trazado 19104" d="M2068.277,453.661s.019-6.422.019-6.482c.007-3.07.982-8.8,3.294-8.8.574,0,2.243,2.047,2.971,7.114.088.622.153,1.245.2,1.862.486,6.077-.894,11.725-3.191,12.369a2.192,2.192,0,0,0-1.54,2.72,2.255,2.255,0,0,0,2.776,1.509c5.571-1.563,6.888-10.027,6.457-16.6-.057-.863-.145-1.695-.255-2.473-.993-6.929-3.7-10.9-7.419-10.9-7.567,0-7.787,11.845-7.787,13.2,0,.061.021,6.483.021,6.483Z" transform="translate(-470.384 -180.045)" fill="#1a1a1a"/>
      <path id="Trazado_19105" data-name="Trazado 19105" d="M2205.467,453.661s.019-6.422.019-6.482c.007-3.07.98-8.8,3.293-8.8.574,0,2.243,2.047,2.969,7.114.09.622.154,1.245.2,1.862.488,6.077-.892,11.725-3.189,12.369a2.192,2.192,0,0,0-1.54,2.72,2.242,2.242,0,0,0,2.157,1.6,2.285,2.285,0,0,0,.62-.087c5.568-1.563,6.885-10.027,6.453-16.6-.057-.863-.143-1.695-.254-2.473-.994-6.929-3.7-10.9-7.418-10.9-7.567,0-7.787,11.845-7.787,13.2,0,.061.019,6.483.019,6.483Z" transform="translate(-567.984 -180.045)" fill="#1a1a1a"/>
      <path id="Trazado_19106" data-name="Trazado 19106" d="M2343.283,453.661s.019-6.422.019-6.482c.007-3.07.979-8.8,3.294-8.8.574,0,2.243,2.047,2.97,7.114.089.622.151,1.245.2,1.862.487,6.077-.9,11.725-3.19,12.369a2.194,2.194,0,0,0-1.542,2.72,2.256,2.256,0,0,0,2.778,1.509c5.572-1.563,6.889-10.027,6.455-16.6-.057-.863-.141-1.695-.253-2.473-.994-6.929-3.7-10.9-7.419-10.9-7.567,0-7.788,11.845-7.788,13.2,0,.061.019,6.483.019,6.483Z" transform="translate(-666.03 -180.045)" fill="#1a1a1a"/>
      <path id="Trazado_19107" data-name="Trazado 19107" d="M1655.341,453.661s.019-6.422.019-6.482c.009-3.07.98-8.8,3.3-8.8.571,0,2.242,2.047,2.969,7.114.089.622.151,1.245.2,1.862.485,6.077-.894,11.725-3.19,12.369a2.192,2.192,0,0,0-1.54,2.72,2.242,2.242,0,0,0,2.157,1.6,2.274,2.274,0,0,0,.62-.087c5.57-1.563,6.887-10.027,6.453-16.6-.055-.863-.141-1.695-.254-2.473-.99-6.929-3.694-10.9-7.416-10.9-7.569,0-7.789,11.845-7.789,13.2,0,.061.021,6.483.021,6.483Z" transform="translate(-176.61 -180.045)" fill="#1a1a1a"/>
      <path id="Trazado_19108" data-name="Trazado 19108" d="M2387.341,616.8s-6.324,24.5-4.719,34.125,3.863,12.484,7.38,16.55l.282,2.927s1.475,9.422,12.731,9.8,18.965-6.351,21.411-9.8c0,0,.559-12.469,2.965-20.3,0,0,4.27,3.27,7.779.756s4.9-5.283,5.061-8.337-1.055-9.391-5.5-10.282a10.365,10.365,0,0,0-7.983,2.07l.648-6.539s-.538-9.781-18.354-12.639C2392.9,612.538,2387.341,616.8,2387.341,616.8Z" transform="translate(-697.015 -308.324)" fill="#fff"/>
      <path id="Trazado_19109" data-name="Trazado 19109" d="M2370.778,571.788s5.3-5.028,16.27-6.333,16.947,1.272,20.324,2.784,10.213,4.982,11.279,10.439l-.648,6.539a8.987,8.987,0,0,1,6.067-2.484c3.864-.095,4.9,2.484,4.9,2.484l7.584-17.953-5.059,4.026-.407-10.9-2.863,3.477s-7.684-17.207-25.657-18.457-28.19,7.438-32.488,13.547l9.931-2.387S2371.381,569.72,2370.778,571.788Z" transform="translate(-688.275 -259.236)" fill="#1c55ff"/>
      <path id="Trazado_19110" data-name="Trazado 19110" d="M2032.839,758.733s-20.79,3.863-34.933,6.047-28.1,2.266-45.437-7.494c-16-9-22.234-27.473-22.234-27.473l-32.223,7.563s8.246,23.777,20.84,39.793,27.006,28.139,47.3,30.5,26.827,2.328,30.007,1.882l-8.635,101.006,118.021.719,2.362-88.8s16.326,8.222,21.833,38.921,5.418,49.875,5.418,49.875h34.888s6.577-31.493-3.8-70.208-28.507-57.288-47-69.451-28.867-10.96-28.867-10.96l-10.53-8.068-36.889,104.885,2.465-107.813Z" transform="translate(-352.435 -390.509)" fill="#1a1a1a"/>
      <path id="Trazado_19111" data-name="Trazado 19111" d="M2402.83,801.039s-.729,10.752,12.944,12.019a23.117,23.117,0,0,0,20.675-9.171L2400.3,908.144Z" transform="translate(-709.774 -441.18)" fill="#fff"/>
      <path id="Trazado_19112" data-name="Trazado 19112" d="M2427.717,853.005l-5.639,7.815,1.7,7.97-8.569,38.539-.6,25.306,11.971-33.793,4.253-28.591,3.59-5.9Z" transform="translate(-719.959 -478.15)" fill="#1c55ff"/>
      <path id="Trazado_19113" data-name="Trazado 19113" d="M1439.926,502.309l-6.763,191.319H1411.13V683.562h-8.511Z" transform="translate(0 -228.655)" fill="#ffed00"/>
      <path id="Trazado_19114" data-name="Trazado 19114" d="M2461.012,733.579s-3.2,1.632-2.933,4.6a8.222,8.222,0,0,0-1.836,1.761c-.956,1.21-2.609,3.119-4.329,1.4s.076-4.536,1.119-5.737S2457.954,732.05,2461.012,733.579Z" transform="translate(-745.99 -392.832)" fill="#1a1a1a"/>
      <rect id="Rectángulo_2160" data-name="Rectángulo 2160" width="18.148" height="18.148" transform="translate(1465.178 317.07)" fill="#1c55ff" opacity="0.24"/>
      <rect id="Rectángulo_2161" data-name="Rectángulo 2161" width="18.148" height="18.149" transform="translate(1495.761 314.143)" fill="#1c55ff" opacity="0.24"/>
      <rect id="Rectángulo_2162" data-name="Rectángulo 2162" width="18.15" height="18.148" transform="translate(1607.836 316.908)" fill="#1c55ff" opacity="0.24"/>
      <rect id="Rectángulo_2163" data-name="Rectángulo 2163" width="18.146" height="18.149" transform="translate(1638.332 311.257)" fill="#1c55ff" opacity="0.24"/>
      <rect id="Rectángulo_2164" data-name="Rectángulo 2164" width="18.146" height="18.149" transform="translate(1458.781 350.077)" fill="#1c55ff" opacity="0.24"/>
      <rect id="Rectángulo_2165" data-name="Rectángulo 2165" width="18.148" height="18.149" transform="translate(1503.27 347.808)" fill="#1c55ff" opacity="0.24"/>
      <rect id="Rectángulo_2166" data-name="Rectángulo 2166" width="18.148" height="18.147" transform="translate(1609.909 350.377)" fill="#1c55ff" opacity="0.24"/>
      <rect id="Rectángulo_2167" data-name="Rectángulo 2167" width="18.146" height="18.148" transform="translate(1638.332 354.553)" fill="#1c55ff" opacity="0.24"/>
      <rect id="Rectángulo_2168" data-name="Rectángulo 2168" width="18.148" height="18.148" transform="translate(1467.855 394.304)" fill="#1c55ff" opacity="0.24"/>
      <rect id="Rectángulo_2169" data-name="Rectángulo 2169" width="18.148" height="18.148" transform="translate(1504.836 390.289)" fill="#1c55ff" opacity="0.24"/>
      <rect id="Rectángulo_2170" data-name="Rectángulo 2170" width="18.148" height="18.15" transform="translate(1465.335 431.97)" fill="#1c55ff" opacity="0.24"/>
      <rect id="Rectángulo_2171" data-name="Rectángulo 2171" width="18.148" height="18.15" transform="translate(1495.761 426.155)" fill="#1c55ff" opacity="0.24"/>
      <rect id="Rectángulo_2172" data-name="Rectángulo 2172" width="18.146" height="18.15" transform="translate(1529.745 431.97)" fill="#1c55ff" opacity="0.24"/>
      <rect id="Rectángulo_2173" data-name="Rectángulo 2173" width="18.15" height="18.15" transform="translate(1565.527 424.64)" fill="#1c55ff" opacity="0.24"/>
      <rect id="Rectángulo_2174" data-name="Rectángulo 2174" width="18.148" height="18.148" transform="translate(1609.909 430.048)" fill="#1c55ff" opacity="0.24"/>
      <path id="Trazado_19115" data-name="Trazado 19115" d="M2111.98,647.32l-5.85-5.635-1.647.542-.471,1.655,6.7,6.874,1.265.56,1.344-.823,14.194-14.058v-2.227l-2.291-.281Z" transform="translate(-498.99 -322.291)" fill="#3a3a3a"/>
      <path id="Trazado_19116" data-name="Trazado 19116" d="M1903.595,644.916l-5.584-23.012s-.034-4.511,2.792-4.977,4.918.169,6.211,2.764,1.294,3.166,1.294,2.594-1.145-5.824,2.577-7.161,5.348.192,5.824,2.386l.725-.918s-5.159-12.25,2.166-14.878c0,0,2.36-.719,4.557,5.773a69.067,69.067,0,0,1,2.768,10.12,11.774,11.774,0,0,0,2.96,1.528,5.84,5.84,0,0,1,3.723,4.963c0,2.388-3.375,14.565-3.375,14.565Z" transform="translate(-352.435 -299.358)" fill="#fff"/>
      <path id="Trazado_19117" data-name="Trazado 19117" d="M2152.755,339.32a.63.63,0,0,1-.447-.186l-7.011-7.01a.632.632,0,0,1,.894-.892l7.01,7.01a.632.632,0,0,1-.447,1.078Z" transform="translate(-528.231 -106.815)" fill="#1a1a1a"/>
      <path id="Trazado_19118" data-name="Trazado 19118" d="M2145.745,339.32a.632.632,0,0,1-.447-1.078l7.011-7.01a.631.631,0,1,1,.894.892l-7.01,7.01A.631.631,0,0,1,2145.745,339.32Z" transform="translate(-528.231 -106.815)" fill="#1a1a1a"/>
      <path id="Trazado_19119" data-name="Trazado 19119" d="M2193.924,307.408a2.634,2.634,0,1,1,2.632-2.635A2.638,2.638,0,0,1,2193.924,307.408Zm0-4a1.37,1.37,0,1,0,1.37,1.37A1.373,1.373,0,0,0,2193.924,303.4Z" transform="translate(-561.081 -86.25)" fill="#1a1a1a"/>
      <path id="Trazado_19120" data-name="Trazado 19120" d="M2827.254,827.458a2.633,2.633,0,1,1,2.634-2.632A2.635,2.635,0,0,1,2827.254,827.458Zm0-4a1.37,1.37,0,1,0,1.372,1.371A1.372,1.372,0,0,0,2827.254,823.456Z" transform="translate(-1011.652 -456.229)" fill="#1a1a1a"/>
      <path id="Trazado_19121" data-name="Trazado 19121" d="M1969.284,617.18a.631.631,0,0,1-.619-.51c-1.542-7.824-4.335-16.061-6.19-15.814a3.9,3.9,0,0,0-2.975,1.913c-2.276,3.888.742,12.025.773,12.106a.632.632,0,0,1-1.182.445c-.134-.357-3.258-8.787-.679-13.189a5.151,5.151,0,0,1,3.875-2.522c3.818-.6,6.811,12.723,7.617,16.818a.631.631,0,0,1-.5.742A.665.665,0,0,1,1969.284,617.18Z" transform="translate(-394.683 -297.863)" fill="#1a1a1a"/>
      <path id="Trazado_19122" data-name="Trazado 19122" d="M2422.76,812.278a21.851,21.851,0,0,1-2.537-.15c-13.7-1.6-13.573-12.552-13.57-12.663a.676.676,0,0,1,.646-.615.632.632,0,0,1,.615.646c-.009.4-.073,9.91,12.456,11.376,12.74,1.508,20.744-9.429,20.823-9.539a.632.632,0,0,1,1.028.735C2442.142,802.179,2434.768,812.278,2422.76,812.278Z" transform="translate(-714.297 -439.623)" fill="#1a1a1a"/>
      <path id="Trazado_19123" data-name="Trazado 19123" d="M2452.118,741.1a2.581,2.581,0,0,1-2.288-1.409,4.7,4.7,0,0,1,.236-4,7.86,7.86,0,0,1,5.257-4.593,7.689,7.689,0,0,1,7.342,2.12,4.507,4.507,0,0,1,1.427,3.086,2.654,2.654,0,0,1-2.807,2.6,4.345,4.345,0,0,1-2.167-.614,4.977,4.977,0,0,0-1.888-.832,1.7,1.7,0,0,0-.382.063c-.457.108-.665.157-1.681,1.706A3.823,3.823,0,0,1,2452.118,741.1Zm5.061-8.958a6.8,6.8,0,0,0-1.564.187,6.588,6.588,0,0,0-4.39,3.868,3.626,3.626,0,0,0-.3,2.871c.7,1.222,2.3.827,3.182-.53,1.181-1.8,1.609-2.046,2.446-2.244.76-.18,1.363-.155,3.194.907a3.14,3.14,0,0,0,1.535.444,1.408,1.408,0,0,0,1.546-1.4,3.379,3.379,0,0,0-1.08-2.151A6.345,6.345,0,0,0,2457.178,732.138Z" transform="translate(-744.768 -391.269)" fill="#1a1a1a"/>
      <path id="Trazado_19124" data-name="Trazado 19124" d="M2473.452,739.452a.633.633,0,0,1-.631-.6,4.276,4.276,0,0,1,3.835-4.877.6.6,0,0,1,.679.579.633.633,0,0,1-.576.68c-.292.027-2.854.352-2.677,3.55a.631.631,0,0,1-.6.664Z" transform="translate(-761.363 -393.468)" fill="#1a1a1a"/>
      <path id="Trazado_19125" data-name="Trazado 19125" d="M2399.392,676.486c-6.663-.221-11.653-2.7-14.854-7.381-10-14.611.639-45.422,1.1-46.726a.632.632,0,0,1,1.193.418c-.11.314-10.885,31.514-1.246,45.6,2.96,4.326,7.614,6.624,13.831,6.831a.631.631,0,0,1-.021,1.263Z" transform="translate(-695.527 -313.775)" fill="#1a1a1a"/>
      <path id="Trazado_19126" data-name="Trazado 19126" d="M2536.32,694.023q-.332,0-.67-.032a7.728,7.728,0,0,1-5.143-2.728.631.631,0,1,1,.949-.832,6.494,6.494,0,0,0,4.312,2.3c4.105.385,7.824-3.485,8.3-8.614s-2.477-9.609-6.575-9.988c-2.747-.259-5.451,1.408-7.033,4.344a.631.631,0,1,1-1.11-.6c1.826-3.391,4.982-5.32,8.26-5,4.791.443,8.253,5.54,7.717,11.361C2544.807,689.786,2540.841,694.023,2536.32,694.023Z" transform="translate(-801.53 -349.977)" fill="#1a1a1a"/>
      <path id="Trazado_19127" data-name="Trazado 19127" d="M2526.355,757.743a.632.632,0,0,1-.627-.565c-.7-6.658,2.831-19.972,2.982-20.536a.632.632,0,1,1,1.22.327c-.036.136-3.624,13.651-2.948,20.077a.632.632,0,0,1-.562.695Z" transform="translate(-798.945 -395.033)" fill="#1a1a1a"/>
      <path id="Trazado_19128" data-name="Trazado 19128" d="M2415.549,584.576a.646.646,0,0,1-.625-.711l.812-6.419c-.194-.841-2.412-8.606-18.052-12.21a35.7,35.7,0,0,0-28.868,5.758.631.631,0,0,1-.942-.812l8.375-14.02-8.949,2.524a.624.624,0,0,1-.663-.212.634.634,0,0,1-.066-.694c.274-.513,6.95-12.592,28.622-14.39,19.1-1.6,28.574,14,30.635,17.935l2.424-2.851a.632.632,0,0,1,1.112.419l-.158,9.946,4.774-3.8a.632.632,0,0,1,.969.754l-8.15,18.039a.632.632,0,0,1-1.152-.519l7.075-15.659-3.777,3a.634.634,0,0,1-.672.072.627.627,0,0,1-.353-.577l.151-9.521-1.9,2.24a.647.647,0,0,1-.572.216.633.633,0,0,1-.487-.371c-.088-.2-8.94-19.8-29.815-18.07-16.63,1.38-24.221,9.151-26.673,12.351l8.81-2.485a.631.631,0,0,1,.713.932l-7.734,12.947a37.294,37.294,0,0,1,27.553-4.389c17.381,4.006,18.973,12.941,19.033,13.319a.6.6,0,0,1,0,.177l-.825,6.522A.631.631,0,0,1,2415.549,584.576Z" transform="translate(-685.728 -257.8)" fill="#1a1a1a"/>
      <path id="Trazado_19129" data-name="Trazado 19129" d="M2206.638,1106.919a.641.641,0,0,1-.629-.684l8.635-101.724a.611.611,0,0,1,.682-.576.632.632,0,0,1,.576.682l-8.635,101.724A.631.631,0,0,1,2206.638,1106.919Z" transform="translate(-571.552 -585.523)" fill="#1a1a1a"/>
      <path id="Trazado_19130" data-name="Trazado 19130" d="M2645.232,1138.8a.631.631,0,0,1-.631-.6c-2.965-64.139-14.161-80.5-26.019-87.736l-2.333,86.757a.631.631,0,0,1-1.262-.034l2.362-87.828a.631.631,0,0,1,.944-.531c14.452,8.26,24.67,26.611,27.57,89.314a.631.631,0,0,1-.6.66Z" transform="translate(-862.512 -617.4)" fill="#1a1a1a"/>
      <path id="Trazado_19131" data-name="Trazado 19131" d="M2642.733,986.367a.669.669,0,0,1-.115-.01.632.632,0,0,1-.505-.736c5.267-28.4-.605-63.871-8.291-84.8-21.814-59.419-70.331-65.023-70.819-65.072a.629.629,0,0,1-.564-.691.594.594,0,0,1,.691-.564c.495.05,49.78,5.7,71.878,65.891,7.743,21.091,13.658,56.833,8.346,85.471A.631.631,0,0,1,2642.733,986.367Z" transform="translate(-825.125 -464.971)" fill="#1a1a1a"/>
      <path id="Trazado_19132" data-name="Trazado 19132" d="M1986.04,809.1a113.874,113.874,0,0,1-28.6-4.012c-43.734-11.375-61.413-68.5-61.586-69.08a.632.632,0,0,1,.46-.8l32.223-7.563a.631.631,0,0,1,.729.377c16.63,40.961,57.528,36.464,69.666,34.106,23.1-4.482,32.19-5.565,32.28-5.577a.624.624,0,0,1,.7.555.632.632,0,0,1-.553.7c-.09.01-9.151,1.091-32.187,5.563-12.324,2.391-53.749,6.943-70.871-34.372l-31.034,7.284c2.075,6.311,19.938,57.036,60.488,67.584,20.24,5.262,34.106,4.339,42.178,2.633a.621.621,0,0,1,.748.487.631.631,0,0,1-.486.748A68.451,68.451,0,0,1,1986.04,809.1Z" transform="translate(-350.879 -388.954)" fill="#1a1a1a"/>
      <path id="Trazado_19133" data-name="Trazado 19133" d="M2398.061,913.5a.625.625,0,0,1-.3-.076.634.634,0,0,1-.3-.765l37.085-105.691a.631.631,0,0,1,.98-.292l10.531,8.067a.638.638,0,0,1,.222.325l8.121,27.685a.628.628,0,0,1-.09.541.64.64,0,0,1-.48.267l-17.876,1,3.818,14.23a.637.637,0,0,1-.108.547l-41.1,53.914A.629.629,0,0,1,2398.061,913.5Zm37.393-105.292-35.476,101.106,38.5-50.495-3.938-14.681a.632.632,0,0,1,.574-.794l17.857-1-7.839-26.722Z" transform="translate(-707.735 -445.099)" fill="#1a1a1a"/>
      <path id="Trazado_19134" data-name="Trazado 19134" d="M2347.492,906.282a.632.632,0,0,1-.614-.485l-13.441-56.312a.626.626,0,0,1,.031-.388l5.7-13.725-12.412-4.751a.633.633,0,0,1-.352-.846l10.59-23.925a.632.632,0,0,1,.208-.257l12.584-9.073a.631.631,0,0,1,1,.528l-2.661,108.619a.631.631,0,0,1-.566.612A.406.406,0,0,1,2347.492,906.282Zm-12.779-56.89,12.267,51.392,2.511-102.5-11.413,8.23-10.252,23.161,12.4,4.746a.632.632,0,0,1,.357.832Z" transform="translate(-657.166 -437.88)" fill="#1a1a1a"/>
      <path id="Trazado_19135" data-name="Trazado 19135" d="M2545.73,702.721a.63.63,0,0,1-.468-.207l-3.883-4.28a.632.632,0,0,1,.127-.957l5.893-3.771a.631.631,0,0,1,.68,1.064l-5.264,3.369,3.382,3.727a.632.632,0,0,1-.467,1.056Z" transform="translate(-810.028 -364.607)" fill="#1a1a1a"/>
      <path id="Trazado_19136" data-name="Trazado 19136" d="M2437.169,682.442c-.052,0-.1,0-.15,0a.889.889,0,0,1-.689-.388c-.613-.876-.293-3.839,3.263-15.458.227-.74.38-1.233.407-1.355a.581.581,0,0,1,.626-.576.676.676,0,0,1,.626.687,7.6,7.6,0,0,1-.45,1.615c-3.067,10.013-3.619,13.308-3.471,14.212a15.8,15.8,0,0,0,4.652-1.668.631.631,0,0,1,.588,1.118C2442.207,680.815,2439.053,682.442,2437.169,682.442Z" transform="translate(-735.233 -344.157)" fill="#1a1a1a"/>
      <path id="Trazado_19137" data-name="Trazado 19137" d="M2481,682.964a2.073,2.073,0,0,1-.861-.191c-2.912-1.325-1.208-7.155-1-7.816a.632.632,0,0,1,1.207.373c-.432,1.4-1.3,5.558.32,6.293a.8.8,0,0,0,.7-.006c1.187-.531,2.412-3.246,2.907-4.832a.632.632,0,0,1,1.207.376c-.15.476-1.511,4.673-3.6,5.608A2.149,2.149,0,0,1,2481,682.964Z" transform="translate(-765.378 -351.167)" fill="#1a1a1a"/>
      <path id="Trazado_19138" data-name="Trazado 19138" d="M2409.181,671.739a2.067,2.067,0,0,1-.861-.191c-2.912-1.324-1.209-7.154-1-7.815a.632.632,0,0,1,1.207.373c-.432,1.4-1.3,5.557.319,6.292a.791.791,0,0,0,.7-.006c1.183-.53,2.412-3.245,2.909-4.833a.632.632,0,0,1,1.207.377c-.15.475-1.513,4.674-3.6,5.608A2.145,2.145,0,0,1,2409.181,671.739Z" transform="translate(-714.285 -343.181)" fill="#1a1a1a"/>
      <path id="Trazado_19139" data-name="Trazado 19139" d="M2431.575,860.842a.63.63,0,0,1-.543-.309l-10.794-18.26L2407.79,859.1a.631.631,0,0,1-1.014-.749l13.013-17.593a.682.682,0,0,1,.54-.256.632.632,0,0,1,.51.309l11.279,19.08a.63.63,0,0,1-.543.952Z" transform="translate(-714.296 -469.254)" fill="#1a1a1a"/>
      <path id="Trazado_19140" data-name="Trazado 19140" d="M2434.526,887.72a.818.818,0,0,1-.091-.005l-7.184-1.038a.632.632,0,0,1-.526-.493l-1.831-8.6a.631.631,0,0,1,1.234-.265l1.74,8.167,6.326.914,5.056-8.7a.633.633,0,0,1,1.094.636l-5.271,9.064A.633.633,0,0,1,2434.526,887.72Z" transform="translate(-727.265 -495.094)" fill="#1a1a1a"/>
      <path id="Trazado_19141" data-name="Trazado 19141" d="M2435.549,956.43a.647.647,0,0,1-.626-.717l6.118-44.948a.632.632,0,0,1,1.252.172l-6.119,44.948A.631.631,0,0,1,2435.549,956.43Z" transform="translate(-734.405 -518.856)" fill="#1a1a1a"/>
      <path id="Trazado_19142" data-name="Trazado 19142" d="M2401.266,946.973a.665.665,0,0,1-.139-.016.629.629,0,0,1-.476-.755l8.827-39.091a.631.631,0,0,1,1.231.278l-8.827,39.091A.63.63,0,0,1,2401.266,946.973Z" transform="translate(-710.016 -516.294)" fill="#1a1a1a"/>
      <path id="Trazado_19143" data-name="Trazado 19143" d="M1973.764,674.125a.632.632,0,0,1-.609-.8l2.286-8.265c1.791-5.619,1.408-8.414-1.363-9.994-1.571-.895-10.24-4.544-12.867-2.585-.742.555-.935,1.625-.571,3.178a10.7,10.7,0,0,0,9.108,8.659.631.631,0,0,1,.586.673.6.6,0,0,1-.672.587,12,12,0,0,1-10.252-9.632c-.488-2.087-.136-3.593,1.046-4.476,3.741-2.8,14.148,2.442,14.248,2.5,4.163,2.375,3.4,6.908,1.947,11.451l-2.279,8.241A.632.632,0,0,1,1973.764,674.125Z" transform="translate(-395.965 -334.188)" fill="#1a1a1a"/>
      <path id="Trazado_19144" data-name="Trazado 19144" d="M1902,680.018a.633.633,0,0,1-.607-.456c-.024-.086-2.477-8.6-4.031-15.683-1.545-7.04-2.477-11.288,2.519-12.553,3.18-.806,5.755,1.07,7.251,5.271.536,1.5,2.161,6.649.542,9.695a4.1,4.1,0,0,1-2.711,2.1,7.4,7.4,0,0,1-5.29-.192c1.4,5.674,2.916,10.943,2.935,11.009a.632.632,0,0,1-.431.782A.659.659,0,0,1,1902,680.018Zm-2.909-14.237c.033.124.755,2.622,5.558,1.388a2.84,2.84,0,0,0,1.908-1.471c1.095-2.057.4-5.832-.616-8.678-.882-2.481-2.611-5.257-5.752-4.47-3.514.89-3.268,3.43-1.594,11.057.155.7.318,1.422.487,2.144C1899.09,665.76,1899.091,665.77,1899.095,665.781Z" transform="translate(-351.1 -334.539)" fill="#1a1a1a"/>
      <path id="Trazado_19145" data-name="Trazado 19145" d="M1937.7,661.543c-4.818,0-5.747-4.25-6.324-6.891-.127-.585-.246-1.127-.388-1.577-.817-2.568-.808-4.548.026-6.054a5.584,5.584,0,0,1,3.717-2.576,4.643,4.643,0,0,1,3.927.444,4.591,4.591,0,0,1,1.771,3.013.632.632,0,0,1-1.255.149,3.33,3.33,0,0,0-1.238-2.126,3.486,3.486,0,0,0-2.888-.258,4.386,4.386,0,0,0-2.927,1.965c-.657,1.186-.633,2.841.072,5.06.153.482.282,1.062.419,1.69.679,3.112,1.446,6.644,6.563,5.763a3.576,3.576,0,0,0,2.833-2.846.631.631,0,0,1,1.244.209,4.825,4.825,0,0,1-3.864,3.882A9.966,9.966,0,0,1,1937.7,661.543Z" transform="translate(-375.467 -329.615)" fill="#1a1a1a"/>
      <path id="Trazado_19146" data-name="Trazado 19146" d="M2495.591,657.5a.631.631,0,0,1-.54-.3,11.309,11.309,0,0,0-2.7-3.256.631.631,0,1,1,.564-1.129c1.346.671,3.032,3.421,3.22,3.732a.632.632,0,0,1-.213.867A.639.639,0,0,1,2495.591,657.5Z" transform="translate(-775.013 -335.68)" fill="#1a1a1a"/>
      <path id="Trazado_19147" data-name="Trazado 19147" d="M2418.2,643.908a.632.632,0,0,1-.249-1.212c.335-.144,3.313-1.4,4.792-1.159a.631.631,0,0,1,.524.722.624.624,0,0,1-.724.525,11.313,11.313,0,0,0-4.095,1.073A.623.623,0,0,1,2418.2,643.908Z" transform="translate(-722.06 -327.685)" fill="#1a1a1a"/>
      <path id="Trazado_19148" data-name="Trazado 19148" d="M2384.372,410.49a.631.631,0,0,1-.131-1.248,89.524,89.524,0,1,0-105.66-109.221.631.631,0,1,1-1.224-.3A90.84,90.84,0,1,1,2384.5,410.476.561.561,0,0,1,2384.372,410.49Z" transform="translate(-622.298 -35.587)" fill="#1a1a1a"/>
      <path id="Trazado_19149" data-name="Trazado 19149" d="M2453.541,453.823c-.847,0-1.674-.027-2.5-.064-1.2-.046-2.429-.13-3.655-.249a.632.632,0,0,1-.569-.689.625.625,0,0,1,.689-.567q1.782.171,3.588.244c.809.037,1.619.061,2.432.061a61.371,61.371,0,0,0,61.339-61.276c0-.941-.028-1.869-.07-2.793l-.038-.735c-.048-.855-.11-1.71-.194-2.557l-.026-.283c-.09-.855-.2-1.7-.323-2.541l-.137-.888c-.11-.682-.229-1.359-.361-2.033l-.21-1.018q-.209-.972-.447-1.932c-.094-.385-.194-.766-.3-1.148q-.188-.695-.4-1.387c-.194-.669-.4-1.326-.619-1.98-.124-.375-.248-.748-.38-1.117-.169-.478-.344-.953-.524-1.423l-.311-.792q-.57-1.43-1.209-2.828l-.17-.375c-.251-.54-.512-1.074-.779-1.606l-.191-.377c-.567-1.106-1.164-2.194-1.771-3.223a61.353,61.353,0,0,0-104.184-2.537.631.631,0,1,1-1.055-.693,62.613,62.613,0,0,1,106.326,2.589c.617,1.043,1.226,2.154,1.814,3.3l.189.373c.273.543.538,1.088.8,1.64l.17.374c.438.959.849,1.923,1.238,2.9l.316.8c.184.479.362.964.534,1.451.136.378.263.762.389,1.144q.332,1,.632,2.018.209.7.4,1.417c.1.392.206.78.3,1.174q.24.979.454,1.968c.074.346.145.691.213,1.038.136.689.258,1.381.371,2.077q.073.454.139.908c.126.856.239,1.719.329,2.589l.019.206c.094.949.156,1.82.208,2.7l.038.75c.043.94.07,1.888.07,2.842A62.635,62.635,0,0,1,2453.541,453.823Z" transform="translate(-710.325 -105.174)" fill="#1a1a1a"/>
      <path id="Trazado_19150" data-name="Trazado 19150" d="M2565.051,534.862a7.235,7.235,0,1,1,7.239-7.234A7.245,7.245,0,0,1,2565.051,534.862Zm0-13.207a5.972,5.972,0,1,0,5.977,5.973A5.982,5.982,0,0,0,2565.051,521.655Z" transform="translate(-821.836 -241.519)" fill="#1a1a1a"/>
      <path id="Trazado_19151" data-name="Trazado 19151" d="M2552.055,568.173a.631.631,0,0,1-.483-1.038l3.39-4.025a.631.631,0,1,1,.966.813l-3.39,4.025A.632.632,0,0,1,2552.055,568.173Z" transform="translate(-817.29 -271.751)" fill="#1a1a1a"/>
      <path id="Trazado_19152" data-name="Trazado 19152" d="M2588.852,412.652a.633.633,0,0,1-.614-.779l10.435-43.441a.631.631,0,1,1,1.227.3l-10.435,43.441A.632.632,0,0,1,2588.852,412.652Z" transform="translate(-843.469 -133.067)" fill="#1a1a1a"/>
      <path id="Trazado_19153" data-name="Trazado 19153" d="M2581.342,361.046a.631.631,0,0,1-.631-.632v-14.24a.631.631,0,1,1,1.262,0v14.24A.631.631,0,0,1,2581.342,361.046Z" transform="translate(-838.127 -117.128)" fill="#1a1a1a"/>
      <path id="Trazado_19154" data-name="Trazado 19154" d="M2743.966,544.541h-14.24a.632.632,0,0,1,0-1.263h14.24a.632.632,0,0,1,0,1.263Z" transform="translate(-943.691 -257.802)" fill="#1a1a1a"/>
      <path id="Trazado_19155" data-name="Trazado 19155" d="M2152.755,339.32a.63.63,0,0,1-.447-.186l-7.011-7.01a.632.632,0,0,1,.894-.892l7.01,7.01a.632.632,0,0,1-.447,1.078Z" transform="translate(-528.231 -106.815)" fill="#1a1a1a"/>
      <path id="Trazado_19156" data-name="Trazado 19156" d="M2145.745,339.32a.632.632,0,0,1-.447-1.078l7.011-7.01a.631.631,0,1,1,.894.892l-7.01,7.01A.631.631,0,0,1,2145.745,339.32Z" transform="translate(-528.231 -106.815)" fill="#1a1a1a"/>
      <path id="Trazado_19157" data-name="Trazado 19157" d="M2193.924,307.408a2.634,2.634,0,1,1,2.632-2.635A2.638,2.638,0,0,1,2193.924,307.408Zm0-4a1.37,1.37,0,1,0,1.37,1.37A1.373,1.373,0,0,0,2193.924,303.4Z" transform="translate(-561.081 -86.25)" fill="#1a1a1a"/>
      <path id="Trazado_19158" data-name="Trazado 19158" d="M1433.586,676.131h-9.1a.633.633,0,0,1-.622-.739l30.546-174.478a.639.639,0,0,1,.731-.513.632.632,0,0,1,.514.732l-30.417,173.737h8.344a.631.631,0,1,1,0,1.262Z" transform="translate(-15.111 -227.292)" fill="#1a1a1a"/>
      <path id="Trazado_19159" data-name="Trazado 19159" d="M1476.02,686.194h-22.035a.63.63,0,0,1-.626-.706l22.035-184.542a.622.622,0,0,1,.7-.552.631.631,0,0,1,.552.7L1454.7,684.932h21.324a.631.631,0,1,1,0,1.262Z" transform="translate(-36.095 -227.29)" fill="#1a1a1a"/>
      <path id="Trazado_19160" data-name="Trazado 19160" d="M1720.852,719.937H1530.341a.631.631,0,0,1-.632-.631V501.019a.632.632,0,0,1,.632-.632h45.044a.632.632,0,0,1,0,1.264h-44.413V718.675h189.88a.631.631,0,0,1,0,1.262Z" transform="translate(-90.416 -227.288)" fill="#1a1a1a"/>
      <path id="Trazado_19161" data-name="Trazado 19161" d="M1737.759,501.651h-35.127a.632.632,0,0,1,0-1.264h35.127a.632.632,0,0,1,0,1.264Z" transform="translate(-212.989 -227.288)" fill="#1a1a1a"/>
      <path id="Trazado_19162" data-name="Trazado 19162" d="M1875.469,501.651H1840.55a.632.632,0,0,1,0-1.264h34.919a.632.632,0,0,1,0,1.264Z" transform="translate(-311.107 -227.288)" fill="#1a1a1a"/>
      <path id="Trazado_19163" data-name="Trazado 19163" d="M2012.231,501.651h-35.349a.632.632,0,0,1,0-1.264h35.349a.632.632,0,0,1,0,1.264Z" transform="translate(-408.098 -227.288)" fill="#1a1a1a"/>
      <path id="Trazado_19164" data-name="Trazado 19164" d="M2150.068,501.651h-35.084a.632.632,0,0,1,0-1.264h35.084a.632.632,0,0,1,0,1.264Z" transform="translate(-506.347 -227.288)" fill="#1a1a1a"/>
      <path id="Trazado_19165" data-name="Trazado 19165" d="M2287.235,501.651h-35.347a.632.632,0,0,1,0-1.264h35.347a.632.632,0,0,1,0,1.264Z" transform="translate(-603.744 -227.288)" fill="#1a1a1a"/>
      <path id="Trazado_19166" data-name="Trazado 19166" d="M2421.731,510.214a.631.631,0,0,1-.631-.631v-7.932h-31.389a.632.632,0,0,1,0-1.264h32.02a.631.631,0,0,1,.631.632v8.563A.631.631,0,0,1,2421.731,510.214Z" transform="translate(-701.795 -227.288)" fill="#1a1a1a"/>
      <path id="Trazado_19167" data-name="Trazado 19167" d="M1747.706,743.736H1563.214a.63.63,0,0,1-.631-.631V552.295a.631.631,0,0,1,.631-.632h235.991a.632.632,0,0,1,0,1.263h-235.36V742.474h183.861a.631.631,0,1,1,0,1.262Z" transform="translate(-113.803 -263.767)" fill="#1a1a1a"/>
      <path id="Trazado_19168" data-name="Trazado 19168" d="M1658.062,463.157a2.834,2.834,0,0,1-.779-5.559c1.662-.477,3.17-5.411,2.673-11.729-.05-.607-.108-1.217-.194-1.827-.677-4.834-2.137-6.477-2.4-6.6-1.319.019-2.481,4.495-2.489,8.2,0,.059-.019,6.492-.019,6.492l-1.262,0,.019-6.49c.005-2.451.727-9.444,3.863-9.444,1.209,0,2.862,2.869,3.536,7.669.089.634.151,1.271.2,1.9.447,5.7-.657,12.2-3.584,13.043a1.576,1.576,0,0,0-1.078,1.944,1.6,1.6,0,0,0,1.946,1.077c5-1.433,6.288-9.5,5.871-15.973-.055-.847-.136-1.666-.244-2.43-.925-6.593-3.349-10.373-6.648-10.373-6.807,0-7.005,11.295-7.005,12.582l.017,6.492-1.262,0s-.017-6.434-.017-6.5c0-1.417.232-13.846,8.267-13.846,4,0,6.876,4.177,7.9,11.461.112.793.2,1.643.253,2.524.469,7.274-1.069,15.631-6.785,17.27A2.878,2.878,0,0,1,1658.062,463.157Z" transform="translate(-175.432 -178.488)" fill="#1a1a1a"/>
      <path id="Trazado_19169" data-name="Trazado 19169" d="M1795.985,463.157a2.843,2.843,0,0,1-2.721-2.055,2.834,2.834,0,0,1,1.942-3.5c1.663-.476,3.17-5.411,2.675-11.73-.05-.606-.108-1.216-.194-1.826-.679-4.835-2.139-6.477-2.4-6.6-1.318.019-2.48,4.495-2.489,8.2,0,.059-.019,6.477-.019,6.477l-1.262,0,.019-6.476c.005-2.451.727-9.444,3.863-9.444,1.208,0,2.862,2.869,3.538,7.669.09.634.151,1.271.2,1.9.447,5.7-.658,12.2-3.586,13.043a1.57,1.57,0,0,0-1.076,1.942,1.593,1.593,0,0,0,1.946,1.079c5-1.434,6.286-9.5,5.869-15.973-.053-.848-.137-1.667-.244-2.431-.925-6.592-3.347-10.372-6.647-10.372-6.807,0-7.005,11.295-7.005,12.582l.019,6.477-1.262,0s-.019-6.42-.019-6.481c0-1.417.232-13.846,8.267-13.846,4,0,6.878,4.177,7.9,11.461.11.794.2,1.644.255,2.525.469,7.273-1.067,15.63-6.785,17.269A2.881,2.881,0,0,1,1795.985,463.157Z" transform="translate(-273.554 -178.488)" fill="#1a1a1a"/>
      <path id="Trazado_19170" data-name="Trazado 19170" d="M1933.175,463.157a2.835,2.835,0,0,1-.779-5.559c1.66-.476,3.168-5.411,2.673-11.73-.048-.607-.108-1.217-.194-1.826-.677-4.834-2.139-6.477-2.4-6.6-1.317.019-2.479,4.495-2.487,8.2,0,.059-.019,6.508-.019,6.508l-1.262,0,.019-6.506c.005-2.451.726-9.444,3.861-9.444,1.21,0,2.864,2.869,3.538,7.669.09.635.153,1.271.2,1.9.447,5.7-.658,12.2-3.584,13.041a1.574,1.574,0,0,0-1.078,1.943,1.593,1.593,0,0,0,1.946,1.078c5-1.433,6.288-9.5,5.871-15.973-.053-.848-.136-1.667-.243-2.431-.927-6.592-3.352-10.372-6.651-10.372-6.806,0-7,11.295-7,12.582l.017,6.463-1.262,0s-.017-6.405-.017-6.466c0-1.417.232-13.846,8.265-13.846,4,0,6.876,4.177,7.9,11.461.11.794.2,1.644.252,2.525.468,7.273-1.071,15.63-6.787,17.269A2.845,2.845,0,0,1,1933.175,463.157Z" transform="translate(-371.155 -178.488)" fill="#1a1a1a"/>
      <path id="Trazado_19171" data-name="Trazado 19171" d="M2071,463.157a2.835,2.835,0,0,1-.779-5.559c1.661-.476,3.168-5.411,2.673-11.73-.048-.605-.107-1.215-.194-1.825-.677-4.836-2.138-6.479-2.4-6.6-1.317.019-2.479,4.495-2.488,8.2,0,.059-.019,6.523-.019,6.523l-1.262,0,.019-6.521c.005-2.451.725-9.444,3.861-9.444,1.21,0,2.864,2.869,3.538,7.669.091.634.149,1.27.2,1.9.447,5.7-.659,12.2-3.584,13.043a1.573,1.573,0,0,0-1.076,1.943,1.592,1.592,0,0,0,1.944,1.078c5-1.433,6.288-9.5,5.871-15.973-.053-.848-.136-1.667-.244-2.43-.925-6.593-3.349-10.373-6.649-10.373-6.806,0-7,11.295-7,12.582l.017,6.579-1.262,0s-.017-6.521-.017-6.582c0-1.417.232-13.846,8.265-13.846,4,0,6.878,4.177,7.9,11.461.112.794.2,1.644.254,2.525.468,7.273-1.071,15.63-6.787,17.269A2.876,2.876,0,0,1,2071,463.157Z" transform="translate(-469.205 -178.488)" fill="#1a1a1a"/>
      <path id="Trazado_19172" data-name="Trazado 19172" d="M2208.183,463.157a2.835,2.835,0,0,1-.779-5.559c1.663-.476,3.168-5.411,2.671-11.729-.048-.607-.106-1.218-.192-1.827-.679-4.835-2.138-6.477-2.4-6.6-1.322.019-2.482,4.495-2.487,8.2,0,.06-.019,6.58-.019,6.58l-1.262,0,.019-6.577c0-2.451.717-9.444,3.861-9.444,1.209,0,2.863,2.869,3.538,7.669.09.635.151,1.271.2,1.9.447,5.7-.655,12.2-3.582,13.041a1.574,1.574,0,0,0-1.078,1.943,1.6,1.6,0,0,0,1.944,1.078c5-1.433,6.29-9.5,5.872-15.973-.055-.847-.137-1.667-.244-2.431-.925-6.592-3.349-10.372-6.65-10.372-6.807,0-7,11.295-7,12.582l.017,6.579-1.262,0s-.017-6.521-.017-6.582c0-1.417.232-13.846,8.266-13.846,4,0,6.878,4.177,7.9,11.461.11.794.2,1.643.253,2.524.469,7.274-1.069,15.631-6.787,17.27A2.847,2.847,0,0,1,2208.183,463.157Z" transform="translate(-566.802 -178.488)" fill="#1a1a1a"/>
      <path id="Trazado_19173" data-name="Trazado 19173" d="M2346,463.157a2.835,2.835,0,0,1-.781-5.559c1.661-.476,3.168-5.411,2.673-11.73-.048-.607-.107-1.217-.193-1.826-.679-4.837-2.138-6.477-2.4-6.6-1.32.019-2.481,4.495-2.487,8.2,0,.065,0,.874,0,1.9-.01,4.472-.012,4.488-.016,4.537a.619.619,0,0,1-.684.573.633.633,0,0,1-.576-.654c0-.188.009-2.656.012-4.458,0-1.058.005-1.89.005-1.913,0-2.432.722-9.425,3.86-9.425,1.21,0,2.864,2.869,3.539,7.669.09.635.151,1.271.2,1.9.447,5.7-.659,12.2-3.584,13.041a1.575,1.575,0,0,0-1.078,1.944,1.6,1.6,0,0,0,1.946,1.077c5-1.434,6.29-9.5,5.872-15.973-.056-.846-.137-1.667-.244-2.431-.925-6.592-3.35-10.372-6.65-10.372-6.806,0-7,11.295-7,12.582,0,1.07,0,6.147,0,6.36a.635.635,0,0,1-.6.647.69.69,0,0,1-.662-.574c0-.043-.007-.083,0-6.289,0-1.561.232-13.99,8.266-13.99,4,0,6.879,4.177,7.9,11.461.11.794.194,1.643.253,2.523.468,7.276-1.069,15.632-6.787,17.271A2.848,2.848,0,0,1,2346,463.157Z" transform="translate(-664.846 -178.488)" fill="#1a1a1a"/>
      <path id="Trazado_19174" data-name="Trazado 19174" d="M1629.348,660.728h-17.787a.631.631,0,0,1-.631-.632V642.308a.631.631,0,0,1,.631-.632h17.787a.631.631,0,0,1,.631.632V660.1A.631.631,0,0,1,1629.348,660.728Zm-17.156-1.263h16.525V642.94h-16.525Z" transform="translate(-148.198 -327.805)" fill="#1a1a1a"/>
      <path id="Trazado_19175" data-name="Trazado 19175" d="M1753.576,660.728h-17.787a.631.631,0,0,1-.631-.632V642.308a.631.631,0,0,1,.631-.632h17.787a.631.631,0,0,1,.631.632V660.1A.631.631,0,0,1,1753.576,660.728Zm-17.156-1.263h16.525V642.94H1736.42Z" transform="translate(-236.577 -327.805)" fill="#1a1a1a"/>
      <path id="Trazado_19176" data-name="Trazado 19176" d="M1871.54,660.728H1858.6a.631.631,0,0,1-.631-.632V642.308a.631.631,0,0,1,.631-.632h17.787a.631.631,0,0,1,.631.632v3.141a.631.631,0,1,1-1.262,0V642.94H1859.23v16.525h12.31a.632.632,0,0,1,0,1.263Z" transform="translate(-323.948 -327.805)" fill="#1a1a1a"/>
      <path id="Trazado_19177" data-name="Trazado 19177" d="M2008.288,660.728h-8.456a.632.632,0,0,1,0-1.263h7.825V642.94h-13.916a.632.632,0,0,1,0-1.264h14.547a.631.631,0,0,1,.631.632V660.1A.631.631,0,0,1,2008.288,660.728Z" transform="translate(-420.092 -327.805)" fill="#1a1a1a"/>
      <path id="Trazado_19178" data-name="Trazado 19178" d="M2248.439,660.728h-17.787a.631.631,0,0,1-.631-.632V642.308a.631.631,0,0,1,.631-.632h17.787a.631.631,0,0,1,.631.632V660.1A.631.631,0,0,1,2248.439,660.728Zm-17.156-1.263h16.525V642.94h-16.525Z" transform="translate(-588.636 -327.805)" fill="#1a1a1a"/>
      <path id="Trazado_19179" data-name="Trazado 19179" d="M1629.348,924.2h-17.787a.63.63,0,0,1-.631-.631V905.784a.63.63,0,0,1,.631-.631h17.787a.63.63,0,0,1,.631.631v17.787A.63.63,0,0,1,1629.348,924.2Zm-17.156-1.262h16.525V906.415h-16.525Z" transform="translate(-148.198 -515.25)" fill="#1a1a1a"/>
      <path id="Trazado_19180" data-name="Trazado 19180" d="M1753.576,924.2h-17.787a.63.63,0,0,1-.631-.631V905.784a.63.63,0,0,1,.631-.631h17.787a.63.63,0,0,1,.631.631v17.787A.63.63,0,0,1,1753.576,924.2Zm-17.156-1.262h16.525V906.415H1736.42Z" transform="translate(-236.577 -515.25)" fill="#1a1a1a"/>
      <path id="Trazado_19181" data-name="Trazado 19181" d="M1876.386,924.2H1858.6a.631.631,0,0,1-.631-.631V905.784a.63.63,0,0,1,.631-.631h17.787a.63.63,0,0,1,.631.631v17.787A.63.63,0,0,1,1876.386,924.2Zm-17.156-1.262h16.525V906.415H1859.23Z" transform="translate(-323.948 -515.25)" fill="#1a1a1a"/>
      <path id="Trazado_19182" data-name="Trazado 19182" d="M2000.3,926.749h-17.787a.63.63,0,0,1-.631-.631V909.364a.631.631,0,1,1,1.261,0v16.123H2000.3a.631.631,0,0,1,0,1.262Z" transform="translate(-412.103 -517.796)" fill="#1a1a1a"/>
      <path id="Trazado_19183" data-name="Trazado 19183" d="M2044.149,965.522a.631.631,0,0,1-.631-.631v-1.026a.631.631,0,0,1,1.262,0v1.026A.631.631,0,0,1,2044.149,965.522Z" transform="translate(-455.953 -556.57)" fill="#1a1a1a"/>
      <path id="Trazado_19184" data-name="Trazado 19184" d="M1629.348,1057.754h-17.787a.63.63,0,0,1-.631-.631v-17.789a.63.63,0,0,1,.631-.631h17.787a.63.63,0,0,1,.631.631v17.789A.63.63,0,0,1,1629.348,1057.754Zm-17.156-1.262h16.525v-16.527h-16.525Z" transform="translate(-148.198 -610.261)" fill="#1a1a1a"/>
      <path id="Trazado_19185" data-name="Trazado 19185" d="M1753.576,1057.754h-17.787a.63.63,0,0,1-.631-.631v-17.789a.63.63,0,0,1,.631-.631h17.787a.63.63,0,0,1,.631.631v17.789A.63.63,0,0,1,1753.576,1057.754Zm-17.156-1.262h16.525v-16.527H1736.42Z" transform="translate(-236.577 -610.261)" fill="#1a1a1a"/>
      <path id="Trazado_19186" data-name="Trazado 19186" d="M1876.386,1057.754H1858.6a.63.63,0,0,1-.631-.631v-17.789a.63.63,0,0,1,.631-.631h17.787a.63.63,0,0,1,.631.631v17.789A.63.63,0,0,1,1876.386,1057.754Zm-17.156-1.262h16.525v-16.527H1859.23Z" transform="translate(-323.948 -610.261)" fill="#1a1a1a"/>
      <path id="Trazado_19187" data-name="Trazado 19187" d="M2000.3,1057.754h-17.787a.63.63,0,0,1-.631-.631v-17.789a.63.63,0,0,1,.631-.631H2000.3a.63.63,0,0,1,.631.631v17.789A.63.63,0,0,1,2000.3,1057.754Zm-17.156-1.262h16.525v-16.527h-16.525Z" transform="translate(-412.103 -610.261)" fill="#1a1a1a"/>
      <path id="Trazado_19188" data-name="Trazado 19188" d="M2124.372,1057.754h-17.787a.63.63,0,0,1-.631-.631v-17.789a.63.63,0,0,1,.631-.631h17.787a.63.63,0,0,1,.631.631v17.789A.63.63,0,0,1,2124.372,1057.754Zm-17.156-1.262h16.525v-16.527h-16.525Z" transform="translate(-500.372 -610.261)" fill="#1a1a1a"/>
      <path id="Trazado_19189" data-name="Trazado 19189" d="M1629.348,791.447h-17.787a.63.63,0,0,1-.631-.631V773.029a.631.631,0,0,1,.631-.632h17.787a.631.631,0,0,1,.631.632v17.787A.63.63,0,0,1,1629.348,791.447Zm-17.156-1.262h16.525V773.661h-16.525Z" transform="translate(-148.198 -420.803)" fill="#1a1a1a"/>
      <path id="Trazado_19190" data-name="Trazado 19190" d="M1753.576,791.447h-17.787a.63.63,0,0,1-.631-.631V773.029a.631.631,0,0,1,.631-.632h17.787a.631.631,0,0,1,.631.632v17.787A.63.63,0,0,1,1753.576,791.447Zm-17.156-1.262h16.525V773.661H1736.42Z" transform="translate(-236.577 -420.803)" fill="#1a1a1a"/>
      <path id="Trazado_19191" data-name="Trazado 19191" d="M1876.386,791.447H1858.6a.63.63,0,0,1-.631-.631V773.029a.631.631,0,0,1,.631-.632H1871.4a.632.632,0,0,1,0,1.264H1859.23v16.524h16.525V784.54a.631.631,0,1,1,1.262,0v6.276A.63.63,0,0,1,1876.386,791.447Z" transform="translate(-323.948 -420.803)" fill="#1a1a1a"/>
      <path id="Trazado_19192" data-name="Trazado 19192" d="M2123.813,671.715h-17.789a.631.631,0,0,1-.631-.632v-9.333a.631.631,0,1,1,1.262,0v8.7h16.527v-12.7a.631.631,0,1,1,1.262,0v13.332A.631.631,0,0,1,2123.813,671.715Z" transform="translate(-499.973 -338.792)" fill="#1a1a1a"/>
      <path id="Trazado_19193" data-name="Trazado 19193" d="M2106.025,647.83a.631.631,0,0,1-.631-.632v-4.891a.631.631,0,0,1,.631-.632h17.385a.632.632,0,0,1,0,1.264h-16.754V647.2A.631.631,0,0,1,2106.025,647.83Z" transform="translate(-499.973 -327.805)" fill="#1a1a1a"/>
      <path id="Trazado_19194" data-name="Trazado 19194" d="M2123.813,791.447h-17.789a.63.63,0,0,1-.631-.631V773.029a.631.631,0,0,1,.631-.632h17.789a.631.631,0,0,1,.631.632v17.787A.63.63,0,0,1,2123.813,791.447Zm-17.158-1.262h16.527V773.661h-16.527Z" transform="translate(-499.973 -420.803)" fill="#1a1a1a"/>
      <path id="Trazado_19195" data-name="Trazado 19195" d="M2246.62,791.447h-17.785a.63.63,0,0,1-.631-.631V773.029a.631.631,0,0,1,.631-.632h17.785a.631.631,0,0,1,.631.632v17.787A.63.63,0,0,1,2246.62,791.447Zm-17.154-1.262h16.523V773.661h-16.523Z" transform="translate(-587.344 -420.803)" fill="#1a1a1a"/>
      <path id="Trazado_19196" data-name="Trazado 19196" d="M2248.439,660.728h-17.787a.631.631,0,0,1-.631-.632V642.308a.631.631,0,0,1,.631-.632h17.787a.631.631,0,0,1,.631.632V660.1A.631.631,0,0,1,2248.439,660.728Zm-17.156-1.263h16.525V642.94h-16.525Z" transform="translate(-588.636 -327.805)" fill="#1a1a1a"/>
      <path id="Trazado_19197" data-name="Trazado 19197" d="M2035.869,778.316a.631.631,0,0,1-.631-.632v-4.024h-3.015a.632.632,0,0,1,0-1.264h3.646a.631.631,0,0,1,.631.632v4.656A.631.631,0,0,1,2035.869,778.316Z" transform="translate(-447.469 -420.803)" fill="#1a1a1a"/>
      <path id="Trazado_19198" data-name="Trazado 19198" d="M2351.883,789.733a.63.63,0,0,1-.631-.631V773.029a.631.631,0,0,1,.631-.632h10.985a.632.632,0,0,1,0,1.264h-10.354V789.1A.63.63,0,0,1,2351.883,789.733Z" transform="translate(-674.883 -420.803)" fill="#1a1a1a"/>
      <path id="Trazado_19199" data-name="Trazado 19199" d="M2127.3,634.415a1.677,1.677,0,0,0-2.365,0L2112.055,647.3l-5.187-5.186a1.672,1.672,0,0,0-2.363,2.366l6.357,6.357a1.676,1.676,0,0,0,2.1.212,1.712,1.712,0,0,0,.308-.237l14.031-14.031A1.678,1.678,0,0,0,2127.3,634.415Z" transform="translate(-498.993 -322.292)" fill="#1c55ff"/>
      <path id="Trazado_19200" data-name="Trazado 19200" d="M2111.125,650.826a2.023,2.023,0,0,1-1.444-.6l-6.357-6.356a2.047,2.047,0,0,1,0-2.891,2.1,2.1,0,0,1,2.89,0l4.923,4.923,12.621-12.621a2.1,2.1,0,0,1,2.892,0,2.045,2.045,0,0,1,0,2.89L2112.618,650.2a2.1,2.1,0,0,1-.376.292A2.034,2.034,0,0,1,2111.125,650.826Zm-6.357-9.7a1.3,1.3,0,0,0-.918,2.218l6.357,6.357a1.284,1.284,0,0,0,.918.379,1.306,1.306,0,0,0,.718-.214,1.346,1.346,0,0,0,.253-.193l14.027-14.028a1.3,1.3,0,0,0,0-1.839,1.335,1.335,0,0,0-1.84,0L2111.4,646.693a.374.374,0,0,1-.526,0l-5.186-5.186A1.292,1.292,0,0,0,2104.768,641.128Z" transform="translate(-498.075 -321.423)" fill="#1c55ff"/>
      <path id="Trazado_19201" data-name="Trazado 19201" d="M2134.758,1357.707h-310.4a.631.631,0,1,1,0-1.262h310.4a.631.631,0,0,1,0,1.262Z" transform="translate(-299.588 -836.311)" fill="#1a1a1a"/>
    </g>
  </g>
</svg>
