<svg xmlns="http://www.w3.org/2000/svg" width="755" height="347.215" viewBox="0 0 755 347.215">
  <g id="Grupo_10193" data-name="Grupo 10193" transform="translate(-583 -5023.785)">
    <rect id="Rectángulo_2175" data-name="Rectángulo 2175" width="755" height="42" transform="translate(583 5329)" fill="rgba(255,237,0,0.55)"/>
    <g id="Grupo_9900" data-name="Grupo 9900" transform="translate(-869.728 4782.119)" opacity="0.646">
      <path id="Trazado_19202" data-name="Trazado 19202" d="M1747.492,588.314c40.614,5.841,89.981,6.854,135.186,9.429,40.816,2.324,87.927,9.987,112.672-18.739,15.133-17.569,21.681-103.37,19.322-186.805-1.329-47.014-4.071-78.1-31.229-82.266-66.932-10.256-126.914-4.185-182.076-8.366-61.121-4.634-97.093,9.709-98.766,35.946-3.957,62.1-16.326,163.9-2.607,211.319C1706.057,569.79,1726.209,585.253,1747.492,588.314Z" transform="translate(-28.35 -45.279)" fill="#ffce1e" fill-rule="evenodd"/>
      <path id="Trazado_19203" data-name="Trazado 19203" d="M1870.645,581.771a1.8,1.8,0,0,1-.441-.055,1.828,1.828,0,0,1-1.339-2.207l.017-.074a1.831,1.831,0,0,1,3.577.786l-.036.16A1.837,1.837,0,0,1,1870.645,581.771Zm112.633-3.8a1.831,1.831,0,0,1-.563-3.574l.12-.039a1.832,1.832,0,1,1,1.113,3.49l-.105.033A1.822,1.822,0,0,1,1983.278,577.97Zm6.518-2.166a1.832,1.832,0,0,1-.579-3.569l.081-.028a1.831,1.831,0,1,1,1.219,3.454l-.143.049A1.826,1.826,0,0,1,1989.8,575.8Zm-118.53-.844h-.052a1.832,1.832,0,0,1-1.78-1.882l0-.093a1.853,1.853,0,0,1,1.857-1.806,1.831,1.831,0,0,1,1.806,1.857l0,.143A1.832,1.832,0,0,1,1871.265,574.959Zm124.991-1.471a1.832,1.832,0,0,1-.641-3.548l.119-.044a1.831,1.831,0,1,1,1.264,3.438l-.1.038A1.824,1.824,0,0,1,1996.257,573.489Zm6.406-2.458a1.832,1.832,0,0,1-.663-3.539l.088-.035a1.831,1.831,0,1,1,1.369,3.4l-.132.052A1.818,1.818,0,0,1,2002.663,571.031Zm6.348-2.6a1.832,1.832,0,0,1-.729-3.513l.121-.052a1.831,1.831,0,1,1,1.43,3.372l-.1.041A1.824,1.824,0,0,1,2009.011,568.426Zm-137.82-.317a1.831,1.831,0,0,1-1.829-1.755l0-.118a1.831,1.831,0,0,1,3.66-.152l0,.118a1.831,1.831,0,0,1-1.754,1.906Zm144.1-2.445a1.832,1.832,0,0,1-.769-3.495l.117-.054a1.831,1.831,0,0,1,1.516,3.335l-.1.045A1.824,1.824,0,0,1,2015.289,565.664Zm6.2-2.936a1.832,1.832,0,0,1-.821-3.47l.116-.058a1.832,1.832,0,1,1,1.618,3.286l-.1.047A1.82,1.82,0,0,1,2021.49,562.729Zm-150.732-1.459a1.832,1.832,0,0,1-1.823-1.679l-.009-.115a1.831,1.831,0,0,1,3.65-.308l.01.12a1.832,1.832,0,0,1-1.673,1.977C1870.861,561.268,1870.809,561.27,1870.758,561.27Zm156.837-1.67a1.832,1.832,0,0,1-.871-3.443l.115-.062a1.832,1.832,0,0,1,1.719,3.235l-.094.05A1.825,1.825,0,0,1,2027.595,559.6Zm5.987-3.347a1.832,1.832,0,0,1-.94-3.4l.121-.071a1.831,1.831,0,1,1,1.839,3.167l-.083.049A1.824,1.824,0,0,1,2033.582,556.254Zm-163.51-1.807a1.826,1.826,0,0,1-1.815-1.621v-.011l-.01-.081a1.832,1.832,0,1,1,3.634-.46l.016.132a1.837,1.837,0,0,1-1.614,2.03A1.8,1.8,0,0,1,1870.072,554.447Zm169.346-1.795a1.832,1.832,0,0,1-1.006-3.364l.1-.068a1.832,1.832,0,1,1,2,3.071l-.093.061A1.825,1.825,0,0,1,2039.418,552.652Zm5.64-3.9a1.831,1.831,0,0,1-1.076-3.314l.079-.058a1.831,1.831,0,1,1,2.181,2.942l-.112.082A1.823,1.823,0,0,1,2045.057,548.749ZM1869.2,547.657a1.832,1.832,0,0,1-1.811-1.577l-.017-.12a1.831,1.831,0,0,1,3.628-.5l.016.114a1.831,1.831,0,0,1-1.558,2.069A1.786,1.786,0,0,1,1869.2,547.657Zm181.225-3.173a1.832,1.832,0,0,1-1.2-3.211l.092-.079a1.831,1.831,0,1,1,2.4,2.763l-.087.076A1.824,1.824,0,0,1,2050.42,544.484Zm-181.483-3.665-.077,0a1.831,1.831,0,0,1-1.754-1.906l0-.118a1.831,1.831,0,0,1,3.659.152l0,.118A1.831,1.831,0,0,1,1868.938,540.819Zm186.438-1.059a1.831,1.831,0,0,1-1.344-3.074l.106-.112a1.832,1.832,0,0,1,2.641,2.539l-.057.059A1.827,1.827,0,0,1,2055.376,539.76Zm4.453-5.2a1.831,1.831,0,0,1-1.469-2.922l.093-.123a1.831,1.831,0,1,1,2.9,2.238l-.05.065A1.828,1.828,0,0,1,2059.829,534.558Zm-190.424-.577c-.051,0-.1,0-.154-.006a1.832,1.832,0,0,1-1.673-1.977l.01-.12a1.831,1.831,0,1,1,3.65.308l-.009.115A1.832,1.832,0,0,1,1869.405,533.981Zm194.288-5.076a1.832,1.832,0,0,1-1.564-2.781l.053-.09a1.832,1.832,0,0,1,3.146,1.877l-.068.112A1.831,1.831,0,0,1,2063.693,528.905Zm-193.715-1.756c-.051,0-.1,0-.154-.006a1.832,1.832,0,0,1-1.674-1.977l.008-.094a1.832,1.832,0,1,1,3.654.257l-.011.141A1.832,1.832,0,0,1,1869.979,527.149Zm196.919-4.294a1.832,1.832,0,0,1-1.662-2.6l.045-.1a1.831,1.831,0,1,1,3.335,1.515l-.053.118A1.833,1.833,0,0,1,2066.9,522.855Zm-196.479-2.544-.077,0a1.831,1.831,0,0,1-1.754-1.906l.006-.144a1.832,1.832,0,1,1,3.657.206l0,.091A1.831,1.831,0,0,1,1870.419,520.311Zm198.987-3.83a1.833,1.833,0,0,1-1.738-2.411l.031-.1a1.831,1.831,0,1,1,3.485,1.127l-.042.128A1.832,1.832,0,0,1,2069.406,516.481Zm-198.849-3.022a1.831,1.831,0,0,1-1.831-1.806v-.143a1.831,1.831,0,0,1,3.663,0v.093a1.831,1.831,0,0,1-1.806,1.857Zm200.652-3.584a1.834,1.834,0,0,1-1.788-2.234l.021-.1a1.832,1.832,0,0,1,3.582.767l-.03.134A1.832,1.832,0,0,1,2071.209,509.876Zm-200.991-3.262a1.831,1.831,0,0,1-1.82-1.654l-.013-.141a1.831,1.831,0,0,1,3.65-.308l.009.095a1.831,1.831,0,0,1-1.645,2C1870.337,506.611,1870.277,506.614,1870.218,506.614Zm202.12-3.494a1.874,1.874,0,0,1-.232-.015,1.832,1.832,0,0,1-1.587-2.047l.01-.089a1.832,1.832,0,0,1,3.641.4l-.017.145A1.832,1.832,0,0,1,2072.337,503.12Zm-203.151-3.277a1.832,1.832,0,0,1-1.789-1.448l1.791-.384-1.8.343-.018-.08a1.832,1.832,0,0,1,3.584-.757s.023.107.024.11a1.832,1.832,0,0,1-1.407,2.175A1.875,1.875,0,0,1,1869.186,499.843Zm203.655-3.556h-.052a1.832,1.832,0,0,1-1.78-1.882l0-.118a1.832,1.832,0,0,1,3.662.1l0,.118A1.832,1.832,0,0,1,2072.842,496.287ZM1867.182,493.3a1.832,1.832,0,0,1-1.7-1.147l-.045-.11a1.831,1.831,0,1,1,3.4-1.369l.045.11a1.833,1.833,0,0,1-1.7,2.516Zm205.6-3.865a1.831,1.831,0,0,1-1.827-1.73l-.007-.144a1.831,1.831,0,0,1,3.659-.152l0,.092a1.832,1.832,0,0,1-1.727,1.93C2072.853,489.434,2072.818,489.434,2072.783,489.434ZM1863.906,487.3a1.828,1.828,0,0,1-1.485-.757l-.089-.125a1.831,1.831,0,1,1,3.008-2.09l.047.067a1.831,1.831,0,0,1-1.482,2.906Zm208.329-4.7a1.832,1.832,0,0,1-1.815-1.6l-.017-.145a1.832,1.832,0,1,1,3.641-.4l.011.09a1.832,1.832,0,0,1-1.587,2.047A1.868,1.868,0,0,1,2072.235,482.6Zm-213.008-.272a1.82,1.82,0,0,1-1.146-.4l-.107-.086a1.831,1.831,0,0,1,2.325-2.831l.077.062a1.831,1.831,0,0,1-1.148,3.259Zm-5.824-3.56a1.823,1.823,0,0,1-.757-.165l-.1-.044a1.831,1.831,0,0,1,1.493-3.345l.119.054a1.832,1.832,0,0,1-.759,3.5Zm-6.486-2.15a1.854,1.854,0,0,1-.434-.052l-.115-.028a1.831,1.831,0,1,1,.865-3.559l.115.027a1.832,1.832,0,0,1-.431,3.612Zm224.341-.8a1.832,1.832,0,0,1-1.8-1.5l-.025-.141a1.831,1.831,0,1,1,3.611-.61l.016.092a1.831,1.831,0,0,1-1.472,2.131A1.812,1.812,0,0,1,2071.258,475.82ZM1840.315,474.8a1.83,1.83,0,0,1-.534-.08l-.137-.042a1.832,1.832,0,1,1,1.113-3.49l.089.028a1.832,1.832,0,0,1-.532,3.584Zm-6.467-2.259a1.825,1.825,0,0,1-.662-.125l-.132-.052a1.831,1.831,0,0,1,1.369-3.4l.088.034a1.832,1.832,0,0,1-.663,3.539Zm-6.272-2.75a1.826,1.826,0,0,1-.807-.189l-.1-.047a1.831,1.831,0,1,1,1.6-3.3l.117.057a1.832,1.832,0,0,1-.811,3.475Zm242.333-.687a1.832,1.832,0,0,1-1.785-1.43l-.025-.11a1.832,1.832,0,0,1,3.571-.816l.027.121a1.833,1.833,0,0,1-1.788,2.234Zm-248.333-2.61a1.823,1.823,0,0,1-.967-.277l-.071-.044a1.832,1.832,0,0,1,1.877-3.146l.13.08a1.832,1.832,0,0,1-.97,3.387Zm-5.63-3.9a1.823,1.823,0,0,1-1.118-.382l-.109-.085a1.831,1.831,0,0,1,2.27-2.875l.078.061a1.831,1.831,0,0,1-1.12,3.281Zm252.293-.141a1.832,1.832,0,0,1-1.766-1.352l-.029-.108a1.831,1.831,0,1,1,3.531-.972l.033.12a1.833,1.833,0,0,1-1.769,2.312Zm-257.427-4.386a1.827,1.827,0,0,1-1.3-.536l-.083-.084a1.831,1.831,0,1,1,2.59-2.59l.083.084a1.831,1.831,0,0,1-1.3,3.126Zm255.481-2.183a1.832,1.832,0,0,1-1.752-1.3l-.026-.081a1.832,1.832,0,0,1,3.485-1.127l.045.143a1.833,1.833,0,0,1-1.752,2.365Zm-259.979-2.974a1.829,1.829,0,0,1-1.451-.712l-.067-.089a1.841,1.841,0,0,1,.346-2.575,1.822,1.822,0,0,1,2.558.343l.062.082a1.831,1.831,0,0,1-1.449,2.95Zm136.079-.451a1.831,1.831,0,0,1-.2-3.651l.12-.014a1.832,1.832,0,0,1,.4,3.641l-.115.013A1.949,1.949,0,0,1,1942.394,452.461Zm-6.712-.069a1.788,1.788,0,0,1-.257-.019l-.089-.012a1.831,1.831,0,0,1,.455-3.634l.145.02a1.832,1.832,0,0,1-.253,3.645Zm13.4-1.368a1.832,1.832,0,0,1-.587-3.567l.143-.047a1.832,1.832,0,0,1,1.113,3.49l-.083.027A1.826,1.826,0,0,1,1949.083,451.023Zm-19.971-.5a1.827,1.827,0,0,1-.756-.165l-.118-.054a1.832,1.832,0,0,1,1.535-3.326l.1.045a1.832,1.832,0,0,1-.759,3.5Zm135-1.127a1.832,1.832,0,0,1-1.727-1.222l-.04-.112a1.831,1.831,0,0,1,3.454-1.219l.039.112a1.832,1.832,0,0,1-1.727,2.441ZM1955.4,448.38a1.832,1.832,0,0,1-.861-3.45l.125-.065a1.832,1.832,0,1,1,1.678,3.256l-.085.044A1.825,1.825,0,0,1,1955.4,448.38Zm-152.812-1.205a1.832,1.832,0,0,1-1.6-.942l-.067-.123a1.831,1.831,0,0,1,3.223-1.74l.046.084a1.832,1.832,0,0,1-1.6,2.721Zm120.785-.351a1.825,1.825,0,0,1-1.2-.45l-.106-.093a1.831,1.831,0,1,1,2.437-2.734l.073.064a1.831,1.831,0,0,1-1.2,3.213Zm37.851-2.049a1.831,1.831,0,0,1-1.08-3.311l.1-.073a1.831,1.831,0,0,1,2.149,2.966l-.091.066A1.823,1.823,0,0,1,1961.225,444.775Zm100.5-1.809a1.831,1.831,0,0,1-1.708-1.169l-.043-.11a1.831,1.831,0,0,1,3.415-1.325l.042.11a1.832,1.832,0,0,1-1.707,2.494Zm-142.884-1.252a1.831,1.831,0,0,1-1.506-.786l-.067-.1a1.831,1.831,0,0,1,3.008-2.091l.067.1a1.831,1.831,0,0,1-1.5,2.877Zm-119.1-.763a1.831,1.831,0,0,1-1.719-1.2l-.033-.09a1.831,1.831,0,1,1,3.421-1.307l.05.133a1.833,1.833,0,0,1-1.719,2.464Zm166.731-.585a1.831,1.831,0,0,1-1.3-3.126l.11-.108a1.831,1.831,0,0,1,2.539,2.64l-.059.058A1.827,1.827,0,0,1,1966.47,440.366Zm92.7-3.76a1.832,1.832,0,0,1-1.7-1.139l-.036-.087a1.831,1.831,0,0,1,3.372-1.43l.055.131a1.832,1.832,0,0,1-1.695,2.525Zm-143.644-.877a1.832,1.832,0,0,1-1.678-1.1l-.051-.118a1.831,1.831,0,0,1,3.361-1.455l.044.1a1.832,1.832,0,0,1-1.676,2.569Zm55.516-.466a1.831,1.831,0,0,1-1.449-2.95l.072-.093a1.832,1.832,0,1,1,2.9,2.238l-.072.093A1.828,1.828,0,0,1,1971.041,435.263Zm-173.219-.887a1.832,1.832,0,0,1-1.79-1.454l-.019-.086a1.831,1.831,0,0,1,3.571-.816l.032.145a1.833,1.833,0,0,1-1.794,2.211Zm258.62-4.055a1.832,1.832,0,0,1-1.664-1.065l-.054-.117a1.831,1.831,0,0,1,3.335-1.515l.045.1a1.832,1.832,0,0,1-1.662,2.6Zm-81.631-.771a1.832,1.832,0,0,1-1.61-2.7l.067-.123a1.832,1.832,0,1,1,3.2,1.779l-.047.084A1.83,1.83,0,0,1,1974.812,429.55Zm-61.434-.319a1.832,1.832,0,0,1-1.784-1.424l-.027-.12a1.831,1.831,0,0,1,3.573-.806l.025.11a1.832,1.832,0,0,1-1.377,2.194A1.853,1.853,0,0,1,1913.378,429.231Zm-116.541-1.653a1.81,1.81,0,0,1-1.817-1.657l-.005-.069a1.852,1.852,0,0,1,1.669-2,1.81,1.81,0,0,1,1.978,1.648l.006.075a1.851,1.851,0,0,1-1.671,2C1796.942,427.575,1796.889,427.578,1796.837,427.578Zm256.64-3.433a1.832,1.832,0,0,1-1.645-1.023l-.038-.076a1.832,1.832,0,1,1,3.256-1.678l.069.136a1.832,1.832,0,0,1-1.642,2.641Zm-75.864-.86a1.779,1.779,0,0,1-.574-.095,1.812,1.812,0,0,1-1.156-2.3l.023-.067a1.85,1.85,0,0,1,2.329-1.17,1.812,1.812,0,0,1,1.156,2.3l-.023.067A1.865,1.865,0,0,1,1977.613,423.285Zm-65.082-.844a1.831,1.831,0,0,1-1.83-1.781l0-.118a1.831,1.831,0,1,1,3.661-.1l0,.118a1.831,1.831,0,0,1-1.78,1.882Zm-115.775-1.71-.076,0a1.812,1.812,0,0,1-1.754-1.883l0-.072a1.843,1.843,0,0,1,1.907-1.777,1.812,1.812,0,0,1,1.754,1.883l0,.072A1.854,1.854,0,0,1,1796.756,420.731ZM2050.2,418.1a1.788,1.788,0,0,1-1.556-.9l-.033-.056a1.854,1.854,0,0,1,.651-2.526,1.808,1.808,0,0,1,2.49.641l.033.056a1.842,1.842,0,0,1-1.585,2.78Zm-70.952-1.428a1.835,1.835,0,0,1-1.816-2.084l.017-.12a1.831,1.831,0,1,1,3.626.511l-.016.114A1.832,1.832,0,0,1,1979.247,416.668Zm-66.252-1.071a1.831,1.831,0,0,1-1.809-2.089l.011-.071a1.86,1.86,0,0,1,2.094-1.553,1.812,1.812,0,0,1,1.533,2.068l-.011.07A1.859,1.859,0,0,1,1912.995,415.6Zm-115.506-1.651a1.835,1.835,0,0,1-1.808-2.137l.015-.092a1.832,1.832,0,1,1,3.62.561l-.023.141A1.832,1.832,0,0,1,1797.489,413.945Zm249.173-1.679a1.829,1.829,0,0,1-1.526-.816l-.076-.116a1.832,1.832,0,0,1,3.071-2l.053.081a1.833,1.833,0,0,1-1.522,2.848Zm-67.17-2.432a1.831,1.831,0,0,1-1.823-1.679l-.01-.143a1.831,1.831,0,0,1,3.654-.254l.007.093a1.832,1.832,0,0,1-1.673,1.977C1979.594,409.832,1979.543,409.834,1979.491,409.834Zm-64.833-.851a1.832,1.832,0,0,1-1.735-2.419l.044-.127a1.831,1.831,0,0,1,3.459,1.2l-.033.1A1.833,1.833,0,0,1,1914.658,408.984Zm-115.691-1.726a1.833,1.833,0,0,1-1.767-2.318l.037-.131a1.831,1.831,0,1,1,3.522,1.006l-.027.1A1.832,1.832,0,0,1,1798.967,407.257Zm243.778-.606a1.827,1.827,0,0,1-1.463-.728l-.08-.107a1.831,1.831,0,0,1,2.942-2.181l.061.082a1.831,1.831,0,0,1-1.46,2.935Zm-64.474-3.548a1.831,1.831,0,0,1-1.76-1.329l-.037-.131a1.831,1.831,0,1,1,3.531-.972l.027.1a1.833,1.833,0,0,1-1.762,2.335Zm-60.932-.418a1.832,1.832,0,0,1-1.626-2.671l.054-.1a1.831,1.831,0,1,1,3.256,1.678l-.054.1A1.831,1.831,0,0,1,1917.339,402.686Zm121.119-1.377a1.829,1.829,0,0,1-1.369-.614l-.1-.117a1.831,1.831,0,0,1,2.785-2.379l.054.062a1.831,1.831,0,0,1-1.368,3.048Zm-237.329-.554a1.833,1.833,0,0,1-1.707-2.495l.039-.1a1.831,1.831,0,0,1,3.421,1.308l-.046.119A1.832,1.832,0,0,1,1801.129,400.754Zm119.734-3.942a1.831,1.831,0,0,1-1.5-2.877l.059-.085a1.831,1.831,0,0,1,3.024,2.066l-.076.109A1.83,1.83,0,0,1,1920.863,396.812Zm55.094-.14a1.832,1.832,0,0,1-1.673-1.086l-.044-.1a1.831,1.831,0,1,1,3.335-1.515l.054.119a1.833,1.833,0,0,1-1.671,2.578Zm57.842-.388a1.826,1.826,0,0,1-1.295-.536l-.084-.084a1.831,1.831,0,0,1,2.59-2.59l.084.084a1.831,1.831,0,0,1-1.3,3.126Zm-229.883-1.807a1.8,1.8,0,0,1-.819-.2,1.818,1.818,0,0,1-.81-2.448l.015-.029.029-.057a1.832,1.832,0,1,1,3.286,1.618l-.051.1A1.854,1.854,0,0,1,1803.917,394.477Zm224.849-2.869a1.785,1.785,0,0,1-1.164-.433l-.052-.044a1.854,1.854,0,0,1-.222-2.6,1.809,1.809,0,0,1,2.563-.219l.051.044a1.841,1.841,0,0,1-1.177,3.251Zm-103.69-.2a1.831,1.831,0,0,1-1.381-3.034l.079-.091a1.831,1.831,0,0,1,2.76,2.409l-.076.087A1.828,1.828,0,0,1,1925.075,391.409Zm47.628-.75a1.83,1.83,0,0,1-1.537-.834l-.072-.111a1.832,1.832,0,1,1,3.087-1.973l.056.088a1.832,1.832,0,0,1-1.534,2.83Zm-165.4-2.131a1.832,1.832,0,0,1-1.542-2.819l.052-.081a1.831,1.831,0,1,1,3.109,1.936l-.075.119A1.831,1.831,0,0,1,1807.3,388.528Zm216.152-1.208a1.823,1.823,0,0,1-1.1-.37l-.082-.061a1.831,1.831,0,1,1,2.181-2.942l.107.08a1.831,1.831,0,0,1-1.1,3.293Zm-93.6-.824a1.831,1.831,0,0,1-1.244-3.176l.073-.068a1.832,1.832,0,1,1,2.513,2.666l-.1.092A1.823,1.823,0,0,1,1929.852,386.5Zm38.749-1.313a1.827,1.827,0,0,1-1.37-.615l-.069-.079a1.847,1.847,0,0,1,.173-2.6,1.813,1.813,0,0,1,2.569.167l.028.032.037.043a1.831,1.831,0,0,1-1.368,3.048Zm49.214-1.78a1.787,1.787,0,0,1-.966-.284l-.055-.036a1.853,1.853,0,0,1-.578-2.544,1.809,1.809,0,0,1,2.508-.571l.055.036a1.853,1.853,0,0,1,.578,2.544A1.83,1.83,0,0,1,2017.815,383.4Zm-206.571-.481a1.831,1.831,0,0,1-1.449-2.95l.1-.121a1.831,1.831,0,1,1,2.855,2.294l-.05.065A1.828,1.828,0,0,1,1811.244,382.923Zm123.855-.83a1.831,1.831,0,0,1-1.1-3.293l.078-.059a1.832,1.832,0,0,1,2.238,2.9l-.109.083A1.823,1.823,0,0,1,1935.1,382.093Zm28.694-1.781a1.824,1.824,0,0,1-1.229-.474l-.075-.067a1.832,1.832,0,0,1,2.434-2.738l.1.09a1.831,1.831,0,0,1-1.23,3.189Zm48.178-.442a1.826,1.826,0,0,1-.907-.241l-.084-.047a1.832,1.832,0,0,1,1.779-3.2l.122.069a1.832,1.832,0,0,1-.91,3.422Zm-71.226-1.655a1.832,1.832,0,0,1-.97-3.387l.1-.062a1.832,1.832,0,1,1,1.937,3.11l-.1.062A1.823,1.823,0,0,1,1940.745,378.214Zm-125.011-.468a1.832,1.832,0,0,1-1.32-3.1l.082-.085a1.832,1.832,0,0,1,2.641,2.539l-.082.085A1.826,1.826,0,0,1,1815.734,377.746Zm190.172-1.059a1.822,1.822,0,0,1-.8-.184l-.117-.057a1.832,1.832,0,0,1,1.618-3.287l.1.047a1.832,1.832,0,0,1-.8,3.48Zm-47.474-.635a1.823,1.823,0,0,1-1.044-.327l-.114-.08a1.831,1.831,0,0,1,2.125-2.984l.08.056a1.831,1.831,0,0,1-1.047,3.335Zm-11.7-1.167a1.832,1.832,0,0,1-.81-3.475l.1-.047a1.831,1.831,0,0,1,1.638,3.276l-.116.058A1.827,1.827,0,0,1,1946.733,374.885Zm52.945-1.047a1.834,1.834,0,0,1-.727-.151l-.1-.042a1.831,1.831,0,1,1,1.43-3.372l.121.051a1.832,1.832,0,0,1-.729,3.513Zm-178.911-.74a1.831,1.831,0,0,1-1.163-3.247l.094-.077a1.831,1.831,0,0,1,2.319,2.835l-.089.073A1.822,1.822,0,0,1,1820.767,373.1Zm131.889-.725a1.824,1.824,0,0,1-.9-.237l-.111-.063a2.112,2.112,0,0,1,.7-3.469l.141-.054a1.914,1.914,0,1,1,.165,3.823Zm40.663-1.08a1.821,1.821,0,0,1-.653-.121l-.089-.033a1.831,1.831,0,0,1,1.264-3.438l.133.05a1.832,1.832,0,0,1-.655,3.542Zm-33.787-1.258a1.832,1.832,0,0,1-.479-3.6l.132-.036a1.832,1.832,0,1,1,.925,3.545l-.1.026A1.828,1.828,0,0,1,1959.533,370.035Zm27.248-.768a1.855,1.855,0,0,1-.434-.052l-.09-.021a1.831,1.831,0,1,1,.816-3.571l.139.032a1.832,1.832,0,0,1-.431,3.612Zm-40.21-.041a1.818,1.818,0,0,1-.777-.174l-.1-.044a1.832,1.832,0,1,1,1.535-3.326l.118.055a1.832,1.832,0,0,1-.78,3.489Zm-120.231-.11a1.832,1.832,0,0,1-.97-3.387l.13-.08a1.832,1.832,0,1,1,1.878,3.146l-.071.044A1.823,1.823,0,0,1,1826.339,369.115Zm139.9-.494a1.832,1.832,0,0,1-.278-3.642l.121-.019a1.832,1.832,0,1,1,.553,3.621l-.113.017A1.852,1.852,0,0,1,1966.236,368.621Zm13.786-.454q-.078,0-.156-.007l-.141-.013a1.831,1.831,0,1,1,.354-3.645l.095.009a1.831,1.831,0,0,1-.152,3.656Zm-6.921-.2a1.851,1.851,0,0,1-1.852-1.754,1.812,1.812,0,0,1,1.731-1.905l.072,0a1.861,1.861,0,0,1,1.929,1.753,1.812,1.812,0,0,1-1.731,1.905l-.072,0Zm-32.841-1.413a1.823,1.823,0,0,1-.632-.113l-.141-.054a1.831,1.831,0,0,1,1.325-3.415l.08.031a1.832,1.832,0,0,1-.632,3.551Zm-107.832-.564a1.832,1.832,0,0,1-.685-3.531l.078-.032a1.831,1.831,0,0,1,1.43,3.372l-.14.057A1.815,1.815,0,0,1,1832.429,365.993Zm101.356-1.679a1.828,1.828,0,0,1-.564-.09l-.082-.025a1.831,1.831,0,0,1,1.066-3.5l.143.045a1.832,1.832,0,0,1-.563,3.574Zm-94.893-.595a1.832,1.832,0,0,1-.533-3.584l.113-.034a1.831,1.831,0,0,1,1.066,3.5l-.113.034A1.828,1.828,0,0,1,1838.892,363.719Zm88.3-1.266a1.827,1.827,0,0,1-.434-.052l-.138-.034a1.832,1.832,0,0,1,.912-3.548l.091.023a1.832,1.832,0,0,1-.431,3.612Zm-81.683-.52a1.832,1.832,0,0,1-.431-3.611l.139-.033a1.832,1.832,0,1,1,.816,3.571l-.09.022A1.854,1.854,0,0,1,1845.506,361.933Zm75-1a1.827,1.827,0,0,1-.385-.041l-.086-.017a1.832,1.832,0,1,1,.708-3.594l.145.03a1.832,1.832,0,0,1-.382,3.623Zm-68.291-.415a1.832,1.832,0,0,1-.327-3.633l.111-.021a1.832,1.832,0,0,1,.669,3.6l-.121.022A1.792,1.792,0,0,1,1852.213,360.522Zm61.542-.789a1.863,1.863,0,0,1-.279-.021l-.121-.019a1.832,1.832,0,0,1,.561-3.62l.113.017a1.832,1.832,0,0,1-.275,3.643Zm-54.776-.309a1.832,1.832,0,0,1-.253-3.645l.12-.017a1.831,1.831,0,1,1,.5,3.628l-.114.016A1.789,1.789,0,0,1,1858.978,359.423Zm47.979-.608a1.824,1.824,0,0,1-.232-.015l-.09-.01a1.832,1.832,0,0,1,.4-3.641l.145.017a1.832,1.832,0,0,1-.228,3.649Zm-41.175-.215a1.831,1.831,0,0,1-.175-3.654l.089-.009a1.831,1.831,0,1,1,.41,3.64l-.145.015A1.791,1.791,0,0,1,1865.782,358.6Zm34.35-.435q-.077,0-.154-.006l-.093-.007a1.831,1.831,0,0,1,.253-3.654l.143.01a1.831,1.831,0,0,1-.15,3.657Zm-27.519-.133a1.831,1.831,0,0,1-.125-3.658l.143-.009a1.831,1.831,0,1,1,.2,3.657l-.093.006C1872.7,358.032,1872.655,358.033,1872.613,358.033Zm20.674-.262h-.052l-.142-.006a1.831,1.831,0,0,1,.152-3.659l.093,0a1.831,1.831,0,0,1-.05,3.662Zm-13.828-.064a1.831,1.831,0,0,1-.05-3.662l.091,0a1.831,1.831,0,1,1,.154,3.659l-.144,0Zm6.972-.089h-.119a1.831,1.831,0,0,1,0-3.663h.144a1.832,1.832,0,0,1-.025,3.663Z" transform="translate(-105.989 -86.119)" fill="#fff"/>
      <path id="Trazado_19204" data-name="Trazado 19204" d="M1857.971,783.639l102.244,10.916s26.7,10.381,42.94,6.422,26.922-18.793,23.671-38.783-21.261-76.017-36.9-91.672-55.152-26.569-55.152-26.569-4.7-4.971-6.3-9.571a29.232,29.232,0,0,1-1.511-9.066s6.755-4.406,7.053-8.562,2.265-3.9,2.265-3.9,11.77-20.13.126-35.133-13.222-12.214-13.222-12.214l4.03-9.318-7.305,3.4-3.272-10.325-3.653,9.318s-23.118-7.442-35.761,3.778-13.026,18.6-17.251,20.021a28.6,28.6,0,0,1-8.31,1.385l3.777,7.178-8.059,3.148s7.5,6.028,10.955,6.925a17.616,17.616,0,0,1,6.3,3.4s1.846,13.551,6.8,24.681a47.789,47.789,0,0,0,11.837,16.244s-19.615,1.495-26.822,6.674-25.059,22.917-25.059,22.917-1.056-8.163-1.132-12.718,3.522-16.475,1.259-17.251a4.76,4.76,0,0,0-3.526-.126l-14.1,16.5s-35.809-10.508-38.28-7.177.252,7.68.252,7.68a46.261,46.261,0,0,0-.755,4.912,13.168,13.168,0,0,0,1.008,5.035s-.486,1.376.5,4.156a27.542,27.542,0,0,0,2.141,4.66s-1.487,8.806,5.037,14.481,13.143,9.342,12.466,10.954-11.621,21.081-14.859,35.384-5.674,29.97,7.807,36.77,30.362.7,39.54-5.918,26.066-35.384,26.066-35.384Z" transform="translate(-90.384 -235.908)" fill="#fff" fill-rule="evenodd"/>
      <path id="Trazado_19205" data-name="Trazado 19205" d="M1794.559,1070.147s5.385,6.755,14.379,5.657,17.914-7.425,17.914-7.425,7.013-17.669,8.488-22.392,1.65-20.036,1.65-20.036,16.213-29.462,29.7-34.18a81.077,81.077,0,0,1,27.226-4.243s.763,23.089,23.808,21.45,37.006-18.621,37.006-18.621,30.864,10.7,43.019,28.4,28,54.026,29.435,80.583c1.294,23.957-3.395,31.359-16.234,36.687-13.886,5.762-31-.943-31-.943s5.63-10.338,6.366-18.5-1.061-21.8-1.061-21.8l-8.839-4.36-37.362-8.015s-1.268-26.722-9.781-33.471-16.619-3.182-16.619-3.182l-17.325,1.65-4.6,6.718-7.071,18.858,13.318,17.8,23.925,7.19s-.94,4.871,1.18,7.425,30.648,19.589,33.59,20.508,4.6,5.54,4.6,5.54l-98.294-11.669-.825-47.614s-13.732,30.544-29.346,38.3-39.323,13.511-48.088-6.835c-4.783-11.106,6.954-37.952,6.954-37.952Z" transform="translate(-96.514 -572.016)" fill="#6e84fc" fill-rule="evenodd"/>
      <path id="Trazado_19206" data-name="Trazado 19206" d="M2122.43,615.927l-10.578-6.8,8.312-.88-3.4-4.91a9.6,9.6,0,0,0,7.933-5.038c2.779-5.051,12.959-24.465,31.856-22.791,13.051,1.156,14.105,2.9,14.105,2.9l3.776-9.7,1.636,7.43s9.125-4.38,8.69-3.652-3.4,8.186-3.4,8.186,17.686,15.018,17,27.325a75.835,75.835,0,0,1-4.66,22.037s-4.118-7.22-7.554-5.792-5.037,5.917-5.037,5.917l-3.527,5.037-6.422-21.659s-.313-8.179-6.169-8.184-13.345,5.019-21.507,7.377-17.908-2.087-17.908-2.087Z" transform="translate(-349.056 -250.822)" fill-rule="evenodd"/>
      <path id="Trazado_19207" data-name="Trazado 19207" d="M2308.055,835.26a2.726,2.726,0,0,1,3.339,1.928l1.008,3.763a2.726,2.726,0,0,1-5.267,1.411l-1.01-3.761A2.729,2.729,0,0,1,2308.055,835.26Z" transform="translate(-497.982 -455.182)" fill-rule="evenodd"/>
      <path id="Trazado_19208" data-name="Trazado 19208" d="M2209.452,834.145a2.728,2.728,0,0,1,3.34,1.929l1.008,3.761a2.727,2.727,0,1,1-5.268,1.411l-1.008-3.761A2.729,2.729,0,0,1,2209.452,834.145Z" transform="translate(-422.359 -454.328)" fill-rule="evenodd"/>
      <g id="Grupo_9878" data-name="Grupo 9878" transform="translate(1690.242 401.077)">
        <g id="Grupo_9875" data-name="Grupo 9875" transform="translate(1.592 1.592)">
          <path id="Trazado_19209" data-name="Trazado 19209" d="M1811.635,932.506h31.172a4.062,4.062,0,0,1,4.271,3.814l-3.294,43.957a1.848,1.848,0,0,1-1.782,1.906h-27.627c-.983,0-.588-1.721-.588-2.774l-1.814-5.25.506-4.661-2.341-10.408-2.773-22.77A4.062,4.062,0,0,1,1811.635,932.506Z" transform="translate(-1807.364 -932.506)" fill="#fff" fill-rule="evenodd"/>
        </g>
        <g id="Grupo_9877" data-name="Grupo 9877" transform="translate(0 0)">
          <g id="Grupo_9876" data-name="Grupo 9876">
            <path id="Trazado_19210" data-name="Trazado 19210" d="M1836.763,978.537h-27.627a2.138,2.138,0,0,1-1.585-.675,3.9,3.9,0,0,1-.628-3.05c.011-.135.02-.269.027-.4l-1.837-5.313.517-4.752-2.311-10.306-2.785-22.963a5.654,5.654,0,0,1,5.862-5.406h31.172a5.654,5.654,0,0,1,5.862,5.406l-3.3,44.075A3.409,3.409,0,0,1,1836.763,978.537Zm-26.687-3.183h26.688c.076,0,.19-.125.19-.315l3.3-44.075a2.494,2.494,0,0,0-2.683-2.1H1806.4a2.508,2.508,0,0,0-2.677,2.141l2.75,22.58,2.381,10.589-.5,4.57,1.785,5.164v.268c0,.263-.02.561-.043.868C1810.091,975.13,1810.083,975.241,1810.075,975.354Z" transform="translate(-1800.534 -925.676)" fill="#0f0f0f"/>
          </g>
        </g>
      </g>
      <path id="Trazado_19211" data-name="Trazado 19211" d="M1820.932,1012.9l34.306.365-1.5,16.362-30.77-.032Z" transform="translate(-125.936 -591.495)" fill="#ffe380" fill-rule="evenodd"/>
      <g id="Grupo_9879" data-name="Grupo 9879" transform="translate(1682.155 312.556)">
        <path id="Trazado_19212" data-name="Trazado 19212" d="M1912.075,555.339a22.563,22.563,0,0,0,4.479-2.121c1.291-.675,5.311-3.339,6.01-.707.4,1.507-1.175,3.672-1.887,5.067-.917,1.8-1.641,3.261-2.356,4.594,7.075,6.712,14.66,14.56,16.734,26.4,1.706,9.736-2.036,19.109-5.774,25.69-2.113,3.717-3.456,7.413-7.424,9.192.26,7.831,3.148,13.035,7.541,16.734,3.641.2,7.086,1.544,10.37,2.711,22.788,8.091,42.156,19.465,54.327,38.417a134.3,134.3,0,0,1,8.956,17.559c5.475,12.213,10.714,24.514,14.378,38.653a114.456,114.456,0,0,1,4.006,22.508c1.023,18.478-4.137,30.11-16.144,36.65a40.962,40.962,0,0,1-21.683,4.831,75.229,75.229,0,0,1-22.155-4.36c-12.825-4.376-24.816-10.563-36.062-16.97-5.189-2.957-11.633-6.322-15.671-10.841a16.254,16.254,0,0,1-4.125-9.075c-.5-4.232.207-7.813,1.178-11.784-6.191-1.453-11.644,2.74-17.677,2.121-2.571-.263-5.639-1.875-4.831-5.539-4.508-.083-7.6-5.219-4.95-9.192-1.567-1.671-3.906-2.56-3.417-6.127.511-3.735,4.312-6.735,7.778-8.485a37.382,37.382,0,0,1,12.728-3.536c-3.668-1.455-8.038.146-11.431-.236-4.6-.517-8.9-7.156-3.772-10.017,4.318-2.406,13.391-2.346,19.8-2,10.882.582,18.6,3.258,22.39,10.607,1.345,2.6,1.708,5.418,2.121,8.838a165.179,165.179,0,0,0,3.536,18.383c11.042,2.314,22.274,4.438,33.468,6.6a231.731,231.731,0,0,0-10.253-32.054c-.6-1.545-2.659-5.387.236-5.539,1.61-.083,2.057,2.025,2.711,3.653a245.4,245.4,0,0,1,8.248,23.57,85.333,85.333,0,0,1,2.712,9.9,3.875,3.875,0,0,1-.119,2,100.108,100.108,0,0,0,14.142,3.535c1.677.283,3.69.378,3.77,2,.177,3.535-6.311.806-8.249.707,1.126,6.472,1.379,15.119,0,21.565a45.712,45.712,0,0,1-7.424,16.263c9.042,2.829,21.043,3.337,29.578.471,8.409-2.823,14.974-8.061,17.914-16.144,3.153-8.67,2.475-20.507.707-30.286-3.489-19.3-10.1-34.931-17.323-50.792-3.535-7.763-7.407-15.583-12.374-21.683-10.239-12.57-24.185-21.137-40.186-27.929-4.007,3.5-8.067,7.352-12.727,10.724a68.56,68.56,0,0,1-15.084,8.366c-5.572,2.176-13.073,3.965-19.916,2.829-11.159-1.853-18.879-8.57-19.562-21.33a4.6,4.6,0,0,1,.354-2.711c-1.1-1.148-2.67-.725-4.126-.707-11.825.148-21.409,2.44-29.225,7.305-7.3,4.546-13.175,11.39-18.029,18.856-.693,1.066-1.815,2.312-2,3.182-.31,1.426-.017,3.264-.119,4.831-.677,10.519-2.545,20.086-4.478,29.7-1.557,7.743-3.592,15.9-5.657,23.688-.67,2.528-1.192,7.9-4.006,6.363-2.311-1.262,1.148-6.773,1.061-8.6a54.378,54.378,0,0,1-7.425,4.95,21.542,21.542,0,0,1-10.134,2.239c-7.836-.205-12.249-4.689-16.851-8.249a80.112,80.112,0,0,0-5.069,15.556c-1.2,5.85-1.546,12.883.119,18.265,3.143,10.16,14.042,14.773,27.575,12.845,17.377-2.475,27.446-13.707,35.706-26.043a91.3,91.3,0,0,0,5.774-9.665,19.973,19.973,0,0,0,1.651-3.416c.176-1.1-.306-3.009-.471-4.6-.774-7.4-1.6-14.708-2.475-22.391-.306-2.679-1.493-8.038,1.178-7.778,2.4.234,2.215,5.981,2.475,8.485,2.376,22.84,5.145,46.751,7.424,69.293-1.152-.1-2.312-.2-3.535-.236-1.3-12.012-2.55-24.082-3.889-36.06-6.232,10.671-13.354,20.976-23.569,28.165a44.7,44.7,0,0,1-18.5,7.542c-16.574,2.683-30.6-3.851-33.351-17.441-1.541-7.611-.094-16.038,1.768-22.981,3.123-11.635,8.987-21.2,14.023-31.464.561-1.14,2-3.632,1.887-4.6-.175-1.519-4.108-3.463-5.657-4.6-5.341-3.9-10.332-8.915-11.2-17.087-.07-.669.134-1.476,0-2.239-.141-.815-1.356-2.358-1.768-3.3a10.611,10.611,0,0,1-1.06-3.889c-.044-.947.333-1.589.236-2.475a17.956,17.956,0,0,0-.942-2.357,8.656,8.656,0,0,1-.354-3.772,19.089,19.089,0,0,0,.707-2.475,8.306,8.306,0,0,0-.942-2.121c-1.66-4.2.261-9.808,5.067-10.016,3.577-.157,6.435,2.492,6.835,6.362.108,1.054-.344,2.46-.117,3.653.17.909,1.244,1.561,1.65,2.711a9.976,9.976,0,0,1,.471,2.947,16.464,16.464,0,0,0-.236,2.475c.158.976,1.361,1.791,1.768,2.828a8.81,8.81,0,0,1-.237,6.6,19.931,19.931,0,0,1,1.532,2.711c.795,2.294,1.286,9.6-1.3,9.9-2.419.28-1.944-2.218-1.768-4.477.146-1.882-.05-4.2-1.061-5.539-.385-.509-2.018-2.1-3.889-1.414-2.405.882-.506,6.571.117,8.014,2.828,6.527,7.859,9.181,12.964,13.316,1.306,1.058,2.777,1.995,2.592,4.6-.164,2.291-1.359,4.185-2.239,6.01-2.7,5.6-5.595,10.835-8.248,16.381a24.185,24.185,0,0,0,7.542,6.127,16.23,16.23,0,0,0,10.841,2.239c5.418-.86,9.549-4.144,13.081-7.425a14.553,14.553,0,0,0,3.182-3.535,29.671,29.671,0,0,0,1.059-4.831,313.52,313.52,0,0,0,6.247-34.292,72.707,72.707,0,0,0-.826-21.449,30.331,30.331,0,0,1-.354-10.606c.532-3.228,1.665-6.134,2-9.31-6.025.356-7.684,6.352-8.131,12.374a44.7,44.7,0,0,0,0,5.539c.14,2.282.511,4.565-1.533,4.6-2.4.036-2.253-5.406-2.121-8.249.324-6.967,1.408-11.8,5.184-15.319,1.959-1.827,8.392-4.407,9.9-.354.725,1.946-.187,4.914-.705,6.718a33.611,33.611,0,0,0-1.416,6.363c-.4,5.382,1.375,8.8,1.65,13.906,10.113-14.519,23.1-26.163,47.374-26.516-.794-1.073-1.891-2.1-2.947-3.3-5.891-6.682-9.576-15.989-11.667-26.87-.351-1.835-.789-4.757,1.65-4.242,1.476.312,1.613,2.688,2,4.477,2.67,12.228,7.465,23.216,16.027,29.226a16.8,16.8,0,0,0,9.427,3.536c9.995.432,16.228-5.913,20.387-12.021.667-.981,1.755-3.244,3.064-3.3a1.851,1.851,0,0,1,1.65,1.059c.652,1.75-1.592,4.186-2.474,5.422a29.9,29.9,0,0,1-13.316,10.724,33.66,33.66,0,0,0,1.531,3.771c.632,1.42,2.56,4.875-.353,4.95-1.619.041-2.255-2.157-2.829-3.418-.757-1.665-1.134-2.928-1.885-4.243a20.9,20.9,0,0,1-10.841-.236c.368,7.8,3.127,13.443,8.485,16.5s13.347,3.889,20.742,2c12.857-3.28,22.455-11.4,30.639-19.091a53.154,53.154,0,0,0-6.246-2.239c-2.59-.867-4.875-1.961-8.132-2-.964-.012-3.02-2.407-3.889-3.418a23.152,23.152,0,0,1-5.774-14.966c-.981-.21-2.416-.1-2.592-1.533-.24-1.966,1.753-2.028,3.182-2.711a10.608,10.608,0,0,0,5.656-6.01,7.627,7.627,0,0,0,.119-4.948c-.909-2.2-3.646-2.341-5.186-1.18-1.356,1.025-1.485,2.863-2.121,5.067-.523,1.817-2.851,6.048-5.421,5.894-2.661-.16-2.945-4.262-3.418-7.308-.511-3.31-1.072-6.651-1.65-9.073-1.189-4.991-3.62-12.419-7.776-13.552-2.245-.612-4.052.392-6.01,1.178-4.936,1.981-9.78,4.211-15.439,5.422a28.608,28.608,0,0,1-12.491,0,16.438,16.438,0,0,1-4.95-2c-.964-.564-3.6-1.558-3.3-3.536.444-2.948,3.828-.121,5.3.708,7.41,4.166,18.48.563,25.1-2.122,2.639-1.069,6.045-2.946,9.192-3.3,7.413-.829,10.58,6.474,12.374,11.431,1.947,5.382,2.454,10.761,3.653,17.558,1.747-1.262,1.4-4.465,2.828-6.952a7.088,7.088,0,0,1,9.663-2.828,6.778,6.778,0,0,1,2.947,3.063,31.138,31.138,0,0,0,1.532-25.455,43.255,43.255,0,0,0-9.428-13.906,33.107,33.107,0,0,0-4.007-3.77c-.737-.5-1.9-.576-2.121-1.414-.61-2.358,2.618-4.879,2.711-6.717-2.293.289-4.6,3.582-6.952,2.709-1.689-.625-1.16-3.6-1.532-5.774-1.529,1.216-1.251,4.392-3.3,4.832-1.069.23-1.662-.514-2.475-.826-10.493-4-21.856-1.487-29.815,2.83a29.747,29.747,0,0,0-13.435,14.259c-2.18,4.918-5.081,8.908-12.138,9.075.237,2.185,3.617,3.939,3.3,6.364-.293,2.251-4.194,1.865-6.128,2.828a13.989,13.989,0,0,0,4.125,2.828c.525.249,4.108,1.084,4.125,2.711.03,2.846-3.658,1.344-5.3.589a21.349,21.349,0,0,1-6.129-4.006c-.789-.728-2.131-1.966-2.121-2.946.032-2.727,4.882-2.132,6.836-3.3a22.951,22.951,0,0,0-2.122-3.417c-.655-1.032-1.827-2.357-1.531-3.653.394-1.723,2.694-1.213,5.3-1.533,5.951-.727,6.928-3.687,9.073-8.249,3.153-6.7,8.037-11.168,14.849-14.966,8.028-4.476,21.519-7.112,32.29-2.711.842-.95,1.466-2.823,2.358-4.6.915-1.823,2.218-5.733,4.477-3.771C1912.1,547.629,1911.3,553.251,1912.075,555.339Zm-139.528,98.046c-2.971-.581-3.936,3.249-2.592,5.657a7.2,7.2,0,0,1,4.83-.707C1774.864,655.819,1774.368,653.742,1772.547,653.385Zm-1.061,8.839c-1.266.9-1.557,3.033-1.06,5.067a11.886,11.886,0,0,1,6.363-1.178C1777.388,662.708,1773.848,660.54,1771.486,662.224Zm-.117,9.309c-.649,1.633.549,3.135.824,4.479,1.291-1.181,4.382-1.575,6.364-.707C1780.86,670.016,1772.871,667.757,1771.369,671.533Zm151.548,59.513c-.964-5.665-.823-11.34-3.653-15.085s-8.077-5.925-14.023-6.717a50.1,50.1,0,0,0-11.667-.353c-4.09.489-8.526.164-11.194,2.238.748,4.575,7.063,2.131,11.784,2.475a24.22,24.22,0,0,1,6.01,1.414c1.853.637,3.625,1.964,5.184,2.239,2.337.412,4.7-.508,4.715,1.767.018,2.554-4.49,1.65-7.307,1.768-8.953.378-17.28,1.868-21.566,6.481-.67.722-1.888,2.078-1.767,3.418.119,1.307,1.282,1.455,2.238,2.356,4.993-3.688,12.911-5.911,21.8-6.244,2.861-.108,7.614-.657,7.423,2-.106,1.484-1.484,1.533-3.417,1.533-9.123,0-15.115.939-20.859,3.889-2.2,1.13-5.028,2.711-4.832,5.067.094,1.139,1.732,2.658,4.006,2.121.775-.182,1.83-1.37,2.358-1.767a18.47,18.47,0,0,1,8.837-3.655c2.9-.511,14.092-1.522,14.142,1.651.038,2.465-3.107,1.51-5.3,1.414-5.925-.262-12.07.74-15.32,3.063a6.128,6.128,0,0,0-2.829,4.125c.9.952,2.092.918,3.419.826,2.642-.185,5.131-1.37,8.366-1.885a32.417,32.417,0,0,1,4.831-.354c1.682,0,3.784-.328,4.95.236,2.268,1.1.919,3.971.471,6.128a36.41,36.41,0,0,0-.59,4.36c-.9,10.84,5.812,14.251,12.492,18.265,13.587,8.165,26.707,15.364,43.013,20.623,3.012-4.289,6.334-9.578,7.659-15.909,1.4-6.7.914-14.957-.353-21.684-4.059-.8-8.048-2.768-12.138-3.889-2.673-.732-5.578-1.069-8.366-1.65-8.4-1.747-16.932-3.129-25.219-4.949C1924.958,741.724,1923.839,736.472,1922.917,731.046Z" transform="translate(-1765.833 -545.845)" fill-rule="evenodd"/>
        <path id="Trazado_19213" data-name="Trazado 19213" d="M2277.6,772.9a12.729,12.729,0,0,1,8.013,1.65c1.469.871,3.24,1.942,3.3,3.184a1.783,1.783,0,0,1-1.531,1.885c-1.554.12-2.706-1.674-4.007-2.358-2.319-1.216-6.189-1.05-8.839-.117-1.593.561-4.421,2.151-4.6-.471-.114-1.736,2.171-2.387,3.063-2.711A17.115,17.115,0,0,1,2277.6,772.9Z" transform="translate(-2152.453 -719.921)" fill-rule="evenodd"/>
        <path id="Trazado_19214" data-name="Trazado 19214" d="M2135.725,777.832c7.075-.868,11.816,3.215,15.32,6.952,4.178,4.456,7.646,12.691,4.832,20.389-.351.958-1.634,2.956-1.531,4.006.158,1.622,2.332,1.1,2.473,2.947.225,2.923-3.072,1.642-4.125.825-4.29-3.334.353-7.772.707-12.374.433-5.63-2.215-10.127-4.832-13.2-2.416-2.838-6.474-6.784-12.372-6.127a12.962,12.962,0,0,0-4.715,1.885c-.885.547-3,2.63-4.241,2.475a1.777,1.777,0,0,1-1.416-1.533c-.147-1.745,2.7-3.22,4.006-4.008A14.292,14.292,0,0,1,2135.725,777.832Z" transform="translate(-2041.924 -723.676)" fill-rule="evenodd"/>
        <path id="Trazado_19215" data-name="Trazado 19215" d="M2292.34,922.278c4.185-.313,1.608,3.656,0,5.067a10.683,10.683,0,0,1-7.544,2.475c-1.236-.237-1.66-2.405-.47-3.182,1.093-.716,3.138-.423,4.359-1.06,1.87-.975,2.186-2.311,3.419-3.182C2292.106,922.281,2292.249,922.306,2292.34,922.278Z" transform="translate(-2162.949 -834.536)" fill-rule="evenodd"/>
      </g>
      <g id="Grupo_9880" data-name="Grupo 9880" transform="translate(1693.575 386.99)">
        <path id="Trazado_19216" data-name="Trazado 19216" d="M1822.61,878.715a1.908,1.908,0,0,1-1.964-1.842v-.3l.915-1.978c.979-2.279,2.562-3.552,4.439-3.552h21.5c2.376,0,3.386,1.784,4.277,3.358l.964,2.188v.283a1.907,1.907,0,0,1-1.963,1.842Z" transform="translate(-1819.291 -869.69)" fill="#fff" fill-rule="evenodd"/>
        <path id="Trazado_19217" data-name="Trazado 19217" d="M1843.044,867.941c1.586,0,2.247,1.168,3.1,2.67l.787,1.8a.557.557,0,0,1-.607.487h-28.17a.557.557,0,0,1-.608-.487l.789-1.707c.578-1.343,1.622-2.765,3.209-2.765Zm0-2.711h-21.5c-2.417,0-4.494,1.605-5.7,4.4l-.76,1.642-.249.541v.6a3.263,3.263,0,0,0,3.319,3.2h28.17a3.263,3.263,0,0,0,3.317-3.2v-.566l-.226-.518-.788-1.8-.056-.129-.068-.122c-.967-1.707-2.29-4.045-5.456-4.045Z" transform="translate(-1814.833 -865.23)" fill="#0f0f0f"/>
      </g>
      <g id="Grupo_9881" data-name="Grupo 9881" transform="translate(1685.739 393.856)">
        <path id="Trazado_19218" data-name="Trazado 19218" d="M1789.341,913.133a2.327,2.327,0,0,1-2.317-2.329v-.24l1.332-3.638c1.4-4.131,3.661-6.421,6.347-6.421h34.014c3.389,0,4.722,2.984,6.136,6.141l1.364,3.93v.228a2.326,2.326,0,0,1-2.315,2.329Z" transform="translate(-1785.669 -899.15)" fill="#fff" fill-rule="evenodd"/>
        <path id="Trazado_19219" data-name="Trazado 19219" d="M1824.259,897.4c2.508,0,3.554,2.335,4.9,5.339l1.245,3.6a.966.966,0,0,1-.959.973h-44.561a.967.967,0,0,1-.961-.973l1.248-3.413c.912-2.685,2.566-5.531,5.075-5.531Zm0-2.711h-34.014c-3.313,0-6.027,2.617-7.641,7.369l-1.229,3.356-.164.45v.48a3.682,3.682,0,0,0,3.672,3.684h44.561a3.681,3.681,0,0,0,3.67-3.684v-.454l-.149-.43-1.245-3.6-.038-.112-.049-.11c-1.456-3.255-3.106-6.943-7.373-6.943Z" transform="translate(-1781.211 -894.689)" fill="#0f0f0f"/>
      </g>
      <g id="Grupo_9885" data-name="Grupo 9885" transform="translate(1721.415 456.933)">
        <g id="Grupo_9882" data-name="Grupo 9882" transform="translate(1.355 1.357)">
          <path id="Trazado_19220" data-name="Trazado 19220" d="M1946.544,1171.245l77.708,7.592c3.889.38,7.328,2.033,7.68,3.691l12.17,57.363c.353,1.658-2.516,2.694-6.405,2.315l-77.708-7.594c-3.891-.38-7.33-2.033-7.681-3.691l-12.172-57.363C1939.786,1171.9,1942.654,1170.863,1946.544,1171.245Z" transform="translate(-1940.108 -1171.166)" fill="#303030" fill-rule="evenodd"/>
        </g>
        <g id="Grupo_9884" data-name="Grupo 9884" transform="translate(0 0)">
          <g id="Grupo_9883" data-name="Grupo 9883">
            <path id="Trazado_19221" data-name="Trazado 19221" d="M2034.809,1239.176c-.546,0-1.114-.029-1.7-.087L1955.4,1231.5c-3.991-.389-8.322-2.15-8.874-4.759l-12.172-57.363a2.6,2.6,0,0,1,.641-2.323c1.2-1.343,3.891-1.949,7.223-1.621l77.708,7.592c3.989.389,8.319,2.15,8.874,4.759l12.17,57.363a2.6,2.6,0,0,1-.64,2.322C2039.342,1238.568,2037.34,1239.174,2034.809,1239.176Zm-94.28-71.12c-2.171,0-3.378.544-3.539.835l12.185,57.284c.129.608,2.49,2.233,6.487,2.624l77.708,7.594c3.066.295,4.768-.417,4.962-.765l-12.185-57.284c-.129-.607-2.492-2.233-6.487-2.624l-77.708-7.592C1941.439,1168.077,1940.965,1168.056,1940.528,1168.056Z" transform="translate(-1934.292 -1165.343)"/>
          </g>
        </g>
      </g>
      <path id="Trazado_19222" data-name="Trazado 19222" d="M2113.632,1294.2c5.321,0,10.466,4,11.49,8.929s-2.461,8.929-7.784,8.929-10.466-4-11.489-8.929S2108.309,1294.2,2113.632,1294.2Z" transform="translate(-344.315 -807.235)" fill="#f5f5f5" fill-rule="evenodd"/>
      <g id="Grupo_9886" data-name="Grupo 9886" transform="translate(1949.443 400.607)">
        <path id="Trazado_19223" data-name="Trazado 19223" d="M2950.083,962.523s-8.956-9.327-7.778-16.5,2.019-6.925.236-7.307a5.563,5.563,0,0,0-6.6,4.242c-1.019,4.128-1.533,7.191-1.533,7.191s-13.36-6.61-16.527-1.636c-2.276,3.577.039,6.1.145,6.113a3.678,3.678,0,0,0-3.654,2.712c-.845,2.873,1.768,6.481,1.768,6.481s-4.15,1.826-3.3,5.186,6.13,7.409,16.619,9.193,10.843,3.418,10.843,3.418,1.855,3.918,5.776,4.95,5.125.985,6.952-3.772,7.439-15.484,4.715-18.385-3.358-3.406-5.067-2.829S2950.083,962.523,2950.083,962.523Z" transform="translate(-2912.725 -935.126)" fill="#fff" fill-rule="evenodd"/>
        <path id="Trazado_19224" data-name="Trazado 19224" d="M2970.2,947.567s-8.956-9.327-7.776-16.5,2.017-6.925.234-7.307a5.567,5.567,0,0,0-6.6,4.243c-1.019,4.126-1.532,7.188-1.532,7.188s-13.361-6.609-16.526-1.634c-2.277,3.577.04,6.1.145,6.115a3.676,3.676,0,0,0-3.653,2.709c-.845,2.875,1.767,6.483,1.767,6.483s-4.149,1.824-3.3,5.184,6.13,7.41,16.618,9.193,10.843,3.417,10.843,3.417,1.855,3.918,5.776,4.95,5.125.985,6.954-3.771,7.437-15.486,4.715-18.385-3.361-3.406-5.069-2.829S2970.2,947.567,2970.2,947.567Z" transform="translate(-2928.156 -923.656)" fill="#ffe380" fill-rule="evenodd"/>
      </g>
      <g id="Grupo_9887" data-name="Grupo 9887" transform="translate(1950.548 262.114)">
        <path id="Trazado_19225" data-name="Trazado 19225" d="M2917.658,355.41c-.876,1.827,1.462,9.973,3.535,17.326s.193,13.17,11.668,11.315,32.719-8.812,31.822-12.141-5.437-27.682-8.839-27.578c-1.692.052-10.955,3.735-19.919,6.247C2926.857,353.119,2918.1,354.492,2917.658,355.41Z" transform="translate(-2917.469 -340.853)" fill="#fff" fill-rule="evenodd"/>
        <path id="Trazado_19226" data-name="Trazado 19226" d="M2937.778,340.485c-.874,1.827,1.462,9.973,3.535,17.325s.193,13.169,11.668,11.313,32.717-8.81,31.822-12.138-5.437-27.682-8.839-27.578c-1.692.053-10.954,3.735-19.918,6.247C2946.979,338.193,2938.219,339.566,2937.778,340.485Z" transform="translate(-2932.9 -329.406)" fill="#ffe380" fill-rule="evenodd"/>
      </g>
      <g id="Grupo_9888" data-name="Grupo 9888" transform="translate(1839.451 269.234)">
        <path id="Trazado_19227" data-name="Trazado 19227" d="M2462.832,408.3a8.058,8.058,0,0,1-.471,4.36,48.255,48.255,0,0,0-1.885,6.128,56.106,56.106,0,0,0,6.954-4.479,33.421,33.421,0,0,0,5.774-5.774s14.893,3.632,17.444-3.889,7.012-22.99,0-26.519-20.637-1.318-28.168-1.533-18.822-5.236-20.391,2.948-2.618,23.019,2.121,25.81S2462.832,408.3,2462.832,408.3Z" transform="translate(-2440.767 -371.402)" fill="#fff" fill-rule="evenodd"/>
        <path id="Trazado_19228" data-name="Trazado 19228" d="M2482.965,393.378a8.059,8.059,0,0,1-.471,4.36,48.009,48.009,0,0,0-1.885,6.128,56.373,56.373,0,0,0,6.954-4.479,33.421,33.421,0,0,0,5.774-5.774s14.891,3.632,17.442-3.889,7.013-22.989,0-26.517-20.635-1.318-28.167-1.532-18.821-5.236-20.39,2.948-2.617,23.017,2.122,25.809S2482.965,393.378,2482.965,393.378Z" transform="translate(-2456.209 -359.955)" fill="#ffe380" fill-rule="evenodd"/>
      </g>
      <g id="Grupo_9890" data-name="Grupo 9890" transform="translate(1732.498 241.666)">
        <g id="Grupo_9889" data-name="Grupo 9889" transform="translate(0 0)">
          <path id="Trazado_19229" data-name="Trazado 19229" d="M2031.31,256.641c-6.439-.566-37.915,2.864-44.787,8.6s-4.517,7.431-3.182,16.147-2.709,18.273,12.847,18.032,44.784-3.354,44.433-12.494S2037.746,257.208,2031.31,256.641Z" transform="translate(-1981.846 -253.105)" fill="#fff" fill-rule="evenodd"/>
          <path id="Trazado_19230" data-name="Trazado 19230" d="M2051.453,241.727c-6.438-.567-37.913,2.863-44.785,8.6s-4.517,7.431-3.182,16.147-2.709,18.273,12.845,18.031,44.784-3.352,44.433-12.492S2057.89,242.293,2051.453,241.727Z" transform="translate(-1997.296 -241.666)" fill="#ffe380" fill-rule="evenodd"/>
        </g>
        <path id="Trazado_19231" data-name="Trazado 19231" d="M2076.079,310.358c-2.489.523-3.234.882-2.239,7.544s-.073,11.755,3.182,10.606,13.5-6.429,12.729-9.075S2078.568,309.835,2076.079,310.358Z" transform="translate(-2052.073 -294.328)" fill="#fff" fill-rule="evenodd"/>
      </g>
      <g id="Grupo_9894" data-name="Grupo 9894" transform="translate(1657.993 317.344)">
        <g id="Grupo_9891" data-name="Grupo 9891" transform="translate(0 0)">
          <path id="Trazado_19232" data-name="Trazado 19232" d="M1727.076,622.268s19.407,2.9,21.567-6.718,1.63-28.065-8.72-31-65.158-5.216-71.306-.59-10.414,26.605-.824,33.119,27,6.776,34.178,6.482,9.175.648,11.9,2.121,6.241,5.554,10.726,6.837a49.579,49.579,0,0,0,6.483,1.531,66.206,66.206,0,0,1-3.536-6.717A11.378,11.378,0,0,1,1727.076,622.268Z" transform="translate(-1662.156 -577.846)" fill="#fff" fill-rule="evenodd"/>
          <path id="Trazado_19233" data-name="Trazado 19233" d="M1747.225,607.329s19.407,2.9,21.567-6.717,1.63-28.065-8.722-31-65.154-5.216-71.3-.588-10.413,26.6-.825,33.115,27,6.776,34.18,6.482,9.173.648,11.9,2.121,6.239,5.554,10.724,6.837a49.584,49.584,0,0,0,6.484,1.531,66.376,66.376,0,0,1-3.538-6.718A11.387,11.387,0,0,1,1747.225,607.329Z" transform="translate(-1677.609 -566.389)" fill="#ffe380" fill-rule="evenodd"/>
        </g>
        <g id="Grupo_9893" data-name="Grupo 9893" transform="translate(20.251 16.725)">
          <g id="Grupo_9892" data-name="Grupo 9892">
            <path id="Trazado_19234" data-name="Trazado 19234" d="M1924.2,639.675a4.715,4.715,0,1,1-4.714,4.714A4.715,4.715,0,0,1,1924.2,639.675Z" transform="translate(-1879.763 -639.321)" fill="#fff" fill-rule="evenodd"/>
            <path id="Trazado_19235" data-name="Trazado 19235" d="M1840.246,638.155a4.715,4.715,0,1,1-4.714,4.714A4.716,4.716,0,0,1,1840.246,638.155Z" transform="translate(-1815.377 -638.155)" fill="#fff" fill-rule="evenodd"/>
            <path id="Trazado_19236" data-name="Trazado 19236" d="M1753.766,638.664a4.714,4.714,0,1,1-4.714,4.714A4.714,4.714,0,0,1,1753.766,638.664Z" transform="translate(-1749.051 -638.545)" fill="#fff" fill-rule="evenodd"/>
          </g>
        </g>
      </g>
      <path id="Trazado_19237" data-name="Trazado 19237" d="M2277.359,1279.721s1.2,3.91,2.271,7.786h10.241v-27.343h2.124c-1.107-5.646-2.468-11.182-3.932-13.937-3.658-6.886-22.818-5.52-30.978-5.416s-8.937,3.526-7.681,5.54,8.427,1.768,12.34,1.134,11.208,4.658,11.208,4.658a127.835,127.835,0,0,0-15.363,1.385c-6.9,1.175-12.316,6.238-11.837,9.446a19.061,19.061,0,0,0,2.9,6.672s-1.256,2.676-.251,4.786,6.169,3.021,6.169,3.021-.821,2.734.755,4.407,7.047-1.522,11.711-2.014A72.566,72.566,0,0,1,2277.359,1279.721Z" transform="translate(-451.728 -766.154)" fill="#fff" fill-rule="evenodd"/>
      <g id="Grupo_9895" data-name="Grupo 9895" transform="translate(1791.865 471.7)">
        <path id="Trazado_19238" data-name="Trazado 19238" d="M2289.225,1264.31c-1-4.266-1.94-8.322-2.6-12.582-.88-5.712-.833-10.467-3.889-14.495-3.844-5.064-10.96-7.8-19.326-8.249a54.97,54.97,0,0,0-9.075-.117c-5.031.6-12.8.336-14.495,4.242-1.739,4.009,2.656,7.532,5.891,7.9,3.494.392,7.866-1.245,11.431.236a38.98,38.98,0,0,0-12.727,3.417c-3.469,1.744-7.206,4.871-7.778,8.485-.54,3.405,1.708,4.532,3.3,6.245a6.068,6.068,0,0,0,4.95,9.192,4.434,4.434,0,0,0,.236,2.711c2.236,5.058,10.026,1.95,14.495,1.06,2.677-.532,6.835-1.086,8.366-.236,1.476.819,1.442,3.04,2.122,4.6.026-2.781,2.554-6.147.236-7.895-1.637-1.234-7.656-.5-9.663-.236-3.37.439-6.177,1.785-8.72,2-1.665.143-2.972.073-3.653-1.061,2.354-5.727,9.948-7.519,18.738-6.952,2.15.138,4.366.836,4.713-.944.5-2.554-2.294-2.3-4.6-2.473-7.793-.592-14.279.947-18.267,3.889-.946.7-1.386,1.672-2.474,1.885-2.186.429-3.83-.92-3.889-2.24-.1-2.142,2.7-3.963,4.83-5.067,4.962-2.574,9.335-3.462,16.146-3.77,3.235-.147,8.351.918,8.132-1.885-.173-2.209-4.76-1.747-7.542-1.651-9.081.313-16.647,2.552-21.684,6.247-3.228-1.27-2.169-3.861-.353-5.776,2.7-2.848,6.692-4.239,10.723-5.185a54.659,54.659,0,0,1,14.495-1.415c2.022.1,3.5.086,3.536-1.531.056-2.431-2.2-1.379-4.832-1.885a17.323,17.323,0,0,1-2.475-1.178,25.486,25.486,0,0,0-8.721-2.475c-4.818-.324-10.856,1.947-11.785-2.358,1.713-1.495,4.5-1.861,7.189-2.121,12.053-1.166,24.365.233,29.462,6.481,3.083,3.782,2.939,9.605,3.887,15.084a159.978,159.978,0,0,0,3.417,15.673c.745.161,1.493.318,2.243.474Z" transform="translate(-2236.581 -1228.709)" fill-rule="evenodd"/>
        <path id="Trazado_19239" data-name="Trazado 19239" d="M2377.468,1442.769c.362.255-.112.664,0,1.061-.318-.035-.211-.5-.471-.588C2377.035,1442.965,2377.362,1442.977,2377.468,1442.769Z" transform="translate(-2344.272 -1392.882)" fill-rule="evenodd"/>
      </g>
      <path id="Trazado_19240" data-name="Trazado 19240" d="M2575.114,713.99c-1.084,1.488-8.073,22.817-11.431,29.229s-6.454,14.08-3.772,16.971,31.948,15.259,37.008,16.854,7.566,2.428,9.31-.824,19.173-40.916,17.915-42.666-16.608-6.825-23.925-9.31S2576.2,712.5,2575.114,713.99Z" transform="translate(-691.913 -362.124)" fill="#fff" fill-rule="evenodd"/>
      <path id="Trazado_19241" data-name="Trazado 19241" d="M2595.244,699.05c-1.084,1.487-8.073,22.815-11.433,29.227s-6.452,14.081-3.772,16.971,31.948,15.259,37.007,16.854,7.567,2.427,9.312-.826,19.171-40.914,17.914-42.663-16.608-6.825-23.925-9.312S2596.328,697.562,2595.244,699.05Z" transform="translate(-707.35 -350.665)" fill="#ffe380" fill-rule="evenodd"/>
      <path id="Trazado_19242" data-name="Trazado 19242" d="M2749.188,838.51s-3.766-4.521-6.011-3.065a34.1,34.1,0,0,0-3.889,2.946s-4.711-3.577-7.779-2.121-3.889,2.946-3.889,2.946l17.325,6.835Z" transform="translate(-821.316 -455.174)" fill="#fff" fill-rule="evenodd"/>
      <path id="Trazado_19243" data-name="Trazado 19243" d="M2668.562,777.711c1.823,3.965,1.233,10.513-4.714,10.254s-9.359-4.582-8.485-9.075S2666.739,773.748,2668.562,777.711Z" transform="translate(-765.796 -409.109)" fill="#fff" fill-rule="evenodd"/>
      <g id="Grupo_9897" data-name="Grupo 9897" transform="translate(1922.778 317.491)">
        <g id="Grupo_9896" data-name="Grupo 9896" transform="translate(0 0)">
          <path id="Trazado_19244" data-name="Trazado 19244" d="M2802.932,589.988c-4.093,5.8-10.926,20.883,8.132,25.575s26.067-12.412,22.157-22.983-11.456-11.183-18.385-10.372C2807.5,583.069,2807.023,584.191,2802.932,589.988Z" transform="translate(-2798.31 -578.477)" fill="#fff" fill-rule="evenodd"/>
          <path id="Trazado_19245" data-name="Trazado 19245" d="M2823.059,575.049c-4.093,5.8-10.925,20.883,8.132,25.575s26.067-12.412,22.157-22.983-11.457-11.183-18.387-10.372C2827.626,568.13,2827.152,569.252,2823.059,575.049Z" transform="translate(-2813.746 -567.019)" fill="#ffe380" fill-rule="evenodd"/>
        </g>
        <path id="Trazado_19246" data-name="Trazado 19246" d="M2846.238,633.675s6.323-8.57,8.722-6.6-2.948,14.5-2.948,14.5-7.413-1.177-10.372-3.536-2.891-5.108-2-6.128S2846.238,633.675,2846.238,633.675Z" transform="translate(-2829.594 -612.854)" fill="#fff" fill-rule="evenodd"/>
      </g>
      <g id="Grupo_9899" data-name="Grupo 9899" transform="translate(1656.728 243.759)">
        <g id="Grupo_9898" data-name="Grupo 9898" transform="translate(0 0)">
          <path id="Trazado_19247" data-name="Trazado 19247" d="M2018.49,250.671c1.5-.088,2.747-.048,2.711,1.531-.049,2.11-3.516,1.663-5.657,1.887-11.544,1.2-21.888,2.738-31.112,6.127-3.258,1.2-7.921,3.228-8.72,6.13-.553,2.01.325,4.544.59,6.48.289,2.113.595,4.5.826,6.483.462,3.992,1.066,9.253,3.416,11.194,2.417,2,8.5,2.358,13.2,2.358a97.934,97.934,0,0,0,14.142-1.415,86.348,86.348,0,0,0,12.962-2.592c4.009-1.206,8.162-2.92,9.429-6.01.885-2.163.369-5.391,0-7.895a76.807,76.807,0,0,0-3.419-14.259c-.42-1.253-2.764-5.713-.471-6.247,2.186-.508,2.84,3.112,3.418,4.831,1.97,5.865,4.368,13.452,4.242,20.5-.125,7.113-5.119,9.723-10.723,11.667a74.741,74.741,0,0,1-13.906,3.065,148.4,148.4,0,0,1-15.437,1.65c-5.613.21-12.424-.66-15.439-3.063-3.953-3.155-4.335-11.174-5.184-17.8-.431-3.365-1.654-7.415-.471-10.489,1.231-3.2,4.886-5.377,8.132-6.835a65.094,65.094,0,0,1,11.311-3.535A152.649,152.649,0,0,1,2018.49,250.671Z" transform="translate(-1898.817 -250.644)" fill="#ffbf1e" fill-rule="evenodd"/>
          <path id="Trazado_19248" data-name="Trazado 19248" d="M2070.322,324.1c2.355-.374,4.169-2.2,6.01-3.536s3.982-2.56,5.067-4.6c-2.1-1.932-6.746-4.032-10.134-5.774-1.1-.566-2.853-1.067-2.947-2.238-.274-3.417,4.371-.648,5.656,0,1.365.684,2.736,1.364,4.008,2,2.171,1.092,7.082,2.766,6.717,6.364-.248,2.457-2.975,4.486-5.184,6.127-2.569,1.908-4.242,3.409-6.717,4.479-5.526,2.389-6.838-3.729-7.425-8.366-.3-2.373-.357-3.509-.471-5.893-.109-2.271-.147-4.651,1.532-4.713,2.05-.077,1.671,2.431,1.767,4.83C2068.359,316.758,2068.872,322.128,2070.322,324.1Z" transform="translate(-1969.74 -293.317)" fill="#ffbf1e" fill-rule="evenodd"/>
          <path id="Trazado_19249" data-name="Trazado 19249" d="M2917.335,352.586c2.734,2.353,7.022,4.479,10.37,6.481,2.379,1.423,5.192,3.3,8.014,4.713.938.47,2.142,1.242,3.063,1.061,1.289-.252,1.864-3.2,2.358-4.6a43.027,43.027,0,0,1,4.6-9.192c.642-1.014,1.826-3.8,3.535-3.065,2.017.873-.841,4.22-1.3,4.95a47.968,47.968,0,0,0-4.831,10.489c-.6,1.691-1.589,3.768-3.3,4.242-2.811.781-5.941-1.456-7.659-2.474-4.707-2.788-8.131-4.864-12.964-7.661-1.613-.933-5.27-2.568-5.186-5.067.093-2.759,5.256-3.621,8.015-4.243,3.992-.9,6.81-1.446,9.9-2.356,6.885-2.028,11.963-5.044,18.267-6.128,4.894-.839,6.3,1.76,7.307,6.011,1.122,4.718,2.479,10.536,4.006,15.085.8,2.372,2.72,5.943,1.649,8.6-.918,2.285-4.153,3.5-7.071,4.6-5.937,2.23-11.583,4.047-17.322,5.893a44.1,44.1,0,0,1-9.309,2.239c-6.464.569-8.271-1.867-9.9-6.6a116.677,116.677,0,0,1-4.361-15.2c-.307-1.5-.191-2.417.824-2.592,1.975-.338,2.232,2.9,2.711,4.714,1.231,4.664,1.873,7.18,3.3,11.431.529,1.581,1.162,4.018,2.474,4.83,2.536,1.571,7.472.032,10.135-.706,6.53-1.809,11.6-3.539,18.031-5.776,1.231-.427,2.738-.976,4.36-1.65,1.119-.465,3.293-1.429,3.536-2.356.248-.955-.369-2.577-.708-3.536a130,130,0,0,1-4.6-16.144c-.409-1.864-.851-5.212-2.356-5.893-2.472-1.116-7.222,1.323-9.075,2-3.015,1.108-5.66,2.173-8.366,3.065C2929.452,349.743,2923.106,350.807,2917.335,352.586Z" transform="translate(-2621.013 -318.855)" fill="#ffbf1e" fill-rule="evenodd"/>
          <path id="Trazado_19250" data-name="Trazado 19250" d="M2456.011,405.406c-8.432.333-17.877-.593-20.977-6.481-1.474-2.8-1.464-8.167-1.416-12.845.058-5.46.552-10.527,3.065-13.435,3.774-4.366,11.956-3.24,18.736-2.592,3.336.319,6.723.707,10.489.707,9.169,0,19.331-.848,22.744,4.832,3.431,5.71,1.639,19.5-.943,24.866-2.455,5.1-8,7.056-15.792,5.891a17.075,17.075,0,0,0-3.418-.59c-1.072.135-2.73,2.106-3.535,2.829-2.407,2.162-4.147,3.9-6.6,6.128-.9.816-2.477,2.61-3.772,2.356-2.268-.444-.691-3.863-.236-5.54C2454.971,409.286,2455.532,407.466,2456.011,405.406Zm9.544-1.533c.772-.7,2-2.049,3.063-2,.847.038,1.178.9,1.887,1.18a18.551,18.551,0,0,0,6.127.59c3.98-.138,6.505-1.383,7.895-3.772,2.27-3.9,4.02-15.61,2.122-21.211-2.032-6-13.1-4.833-20.859-4.833-7.381,0-14.352-1.608-20.74-1.178-1.595.108-3.8.348-4.95,1.061-2.788,1.724-3.071,6.25-3.3,11.077-.214,4.521-.608,9.25.826,12.374,2.171,4.733,11.013,5.551,18.148,5.186,1.485-.078,2.936-.376,3.535.471,1.149,1.624-1.528,6.218-1.531,8.014C2460.265,408.918,2462.942,406.247,2465.556,403.873Z" transform="translate(-2252.55 -341.743)" fill="#ffbf1e" fill-rule="evenodd"/>
          <path id="Trazado_19251" data-name="Trazado 19251" d="M1723.606,618.173a12.094,12.094,0,0,0,3.77,7.542c.9.919,2.21,1.882,1.885,3.3-.439,1.917-4.227.987-6.127.353a34.447,34.447,0,0,1-5.538-2.475c-3.666-1.978-6.1-4.692-9.427-6.6-3.8-2.18-10.049-2.04-16.029-1.768-15.65.71-28.27-1.666-33.113-11.9-3.323-7.024-3.038-18.732.824-24.629,4.138-6.317,11.669-7.483,22.155-7.9,9.385-.368,20.734.59,30.757.59,10.1,0,20.523.9,26.4,4.831,4.572,3.062,6.855,8.841,7.893,15.91,1.09,7.385.42,15.113-4.006,18.736C1738.721,617.712,1731.786,618.714,1723.606,618.173Zm-.707,6.718a15.179,15.179,0,0,1-1.18-2.358c-.509-1.263-2.055-5.6-.824-6.834.737-.739,3.405-.284,4.713-.236,7.039.263,13.7-.99,16.617-4.479,3.193-3.82,2.664-12.12,1.65-17.322-1.064-5.461-3.106-9.735-6.835-12.021-8.932-5.475-27.477-3.7-41.48-4.36-11.4-.538-25.119-1.493-31.347,3.889-4.494,3.885-5.578,13.259-4.008,20.035,2.837,12.238,13.785,14.654,28.991,14.495,7.185-.076,14.616-.9,19.562,1.531,2.6,1.277,4.708,3.5,7.188,5.186a34.206,34.206,0,0,0,8.132,4.243C1724.186,626.089,1723.317,625.542,1722.9,624.891Z" transform="translate(-1656.728 -498.652)" fill="#ffbf1e" fill-rule="evenodd"/>
          <path id="Trazado_19252" data-name="Trazado 19252" d="M2809.683,578.157c6.2-.508,12.3,1.458,15.909,4.479,3.8,3.176,5.991,7.994,5.54,14.73-.638,9.51-6.8,15.795-15.322,17.441-9.648,1.867-18.744-2.271-22.39-9.309-1.615-3.116-1.749-7.895-.353-11.785.419-1.169.959-3.314,2.709-2.828,2.078.579-.035,3.868-.353,5.067-3.643,13.744,15.214,20.435,25.809,13.67,6-3.831,10.081-15.65,4.006-23.1-3.623-4.442-13.611-7.472-20.27-4.125a16.8,16.8,0,0,0-4.359,3.3c-.888.952-2.376,4.176-4.243,3.182-1.908-1.015,1.221-4.342,2-5.184A17.6,17.6,0,0,1,2809.683,578.157Z" transform="translate(-2527.503 -501.768)" fill="#ffbf1e" fill-rule="evenodd"/>
          <path id="Trazado_19253" data-name="Trazado 19253" d="M2848.481,626.342c-3.017-.332-4.7,1.9-5.657,4.36-.356.917-.528,2.145-1.414,2.356-1.27.3-2.474-.871-3.3-1.414a11.213,11.213,0,0,0-2.946-1.649c1.161,3.93,4.413,6.139,8.366,7.188,1.542.409,3.021.31,3.063,1.768.059,1.952-2.3,1.478-4.125.943-4.661-1.367-8.812-4.093-10.134-8.6-.563-1.92-.248-4.251,2-4.477,2.387-.24,3.754,1.546,5.774,2.475,1.394-2.729,3.354-5.622,6.835-6.011,3.112-.348,4.976,1.33,4.713,4.831a22.978,22.978,0,0,1-1.531,5.539c-.636,1.729-1.244,4.226-2.594,4.36-3.326.333-.312-4.886.119-6.127C2848.326,629.951,2848.924,628.352,2848.481,626.342Z" transform="translate(-2558.169 -536.399)" fill="#ffbf1e" fill-rule="evenodd"/>
          <path id="Trazado_19254" data-name="Trazado 19254" d="M2569.9,712.687c-2.661,6.492-5.088,13.216-7.778,19.679,4.626,1.9,8.715,3.51,11.9,7.19,2.81,3.244,4.493,8.979,7.9,11.2,3.444,2.242,9.128,1.432,12.844,3.3s5.61,4.686,7.9,8.251c2.095-3.64,3.861-7.609,5.656-11.55-4.646-1.941-9.522-3.349-14.73-5.184-1.353-.477-4.047-1.1-4.125-2.476-.1-1.841,4.541-4.246,6.246-4.713a7.474,7.474,0,0,1,7.189,2c1.192-.728,2.382-2.1,4.006-2.594,2.384-.716,4.347.374,6.01,1.532.522-1.24.816-2.16,1.3-3.535.4-1.137.652-2.829,2.239-2.594,2.23.333.185,4.342-.119,5.186a234.6,234.6,0,0,1-11.077,25.572c-.76,1.511-1.633,3.171-2.356,4.95-1.534,3.765-1.564,7.719-7.306,7.307-4.442-.318-8.6-2.35-12.374-3.889-3.871-1.576-7.1-3.067-11.314-4.832-3.626-1.52-7.581-2.955-11.311-4.831-3.792-1.9-8.705-4.422-9.429-8.132-.5-2.539,1-5.107,2-7.541,4.692-11.427,9.174-23.221,13.788-35,.392-1,.836-2.569,1.885-2.592,1.855-.043,4.546,1.382,6.482,2.121,13.128,5.016,26.809,10.3,40.066,15.437,1.225.475,2.4.669,2.356,1.887-.1,2.635-4.6.283-5.656-.119C2598.158,723.41,2583.7,717.774,2569.9,712.687Zm-14.259,36.3c-.579,1.444-1.8,3.31-1.651,4.714.182,1.683,2.461,3.074,3.889,4.006,4.8,3.135,11.092,5.388,16.381,7.542,5.7,2.323,10.832,5,16.97,6.953,1.756.559,5.133,1.706,6.717.825.911-.5,1.207-2.5,1.65-3.653.572-1.487,1.215-2.715,1.532-3.77-2.282-4.027-4.33-7.857-8.72-9.427-4.109-1.47-8.731-.836-12.138-3.065-3.8-2.487-5.375-8.239-8.485-11.784-2.816-3.211-6.338-4.528-10.606-6.01C2559.385,738.976,2557.489,744.387,2555.643,748.983Zm53.266-8.485c-2.952-.293-4.074,3.433-5.893,3.418-1.628-.014-2.53-2.474-4.36-2.828-1.937-.375-3.29.467-4.713,1.531,5.344,1.648,10.309,3.674,15.673,5.3.661-1.97,1.513-3.751,2.24-5.656C2610.8,741.462,2610.063,740.612,2608.908,740.5Z" transform="translate(-2342.637 -602.475)" fill="#ffbf1e" fill-rule="evenodd"/>
          <path id="Trazado_19255" data-name="Trazado 19255" d="M2666.382,771.5c.031,4.419-1.149,7.839-3.771,9.546-5.665,3.688-13.5-1.578-13.081-7.778a7.827,7.827,0,0,1,7.069-6.952C2661.675,765.749,2664,769.052,2666.382,771.5Zm-13.9,2.946c.616,4.353,7.418,6.457,9.78,2.828.458-.7,1.6-3.454,1.415-4.477-.1-.52-1.126-1.234-1.651-1.65a7.3,7.3,0,0,0-4.713-1.887C2654.075,769.5,2652.114,771.877,2652.478,774.448Z" transform="translate(-2418.142 -646.088)" fill="#ffbf1e" fill-rule="evenodd"/>
          <path id="Trazado_19256" data-name="Trazado 19256" d="M2935.933,933.407c-3.294.639-5,3.018-5.3,6.481-.188,2.16.778,5.528-.943,5.893-1.315.28-3.76-1.663-5.186-2.239a16.252,16.252,0,0,0-7.895-1.531c-1.729.161-4.043.891-4.243,2.592-.132,1.137,1.005,2.172.826,3.3-.248,1.563-3.482,2.489-3.653,4.479a5.306,5.306,0,0,0,1.061,2.946c.418.692,1.452,1.692,1.414,2.592-.082,1.951-3.819,2.744-3.771,5.186.035,1.789,2.951,3.032,4.477,3.77A58.253,58.253,0,0,0,2924.856,971c1.932.482,5.642.854,5.657,2.475.023,2.533-4.476.768-6.483.236-2.843-.754-5.026-1.317-7.071-2-4-1.344-9.861-3.521-11.313-6.717-1.373-3.024,1.087-5.534,2.947-7.425-2.931-2.793-2.049-8.695,1.414-10.487a5.779,5.779,0,0,1-.353-3.653c1.917-6.183,13.456-4.487,18.029-1.651,0-3.754.866-6.686,2.71-8.6,1.513-1.572,8.024-5.087,8.485-.119.227,2.449-1.086,5.274-.826,8.721a17.4,17.4,0,0,0,3.3,8.368c.411.614,2.25,3.094.236,3.536-1.986.435-3.608-3.462-4.36-4.95a18.823,18.823,0,0,1-2.122-7.19C2934.9,938.4,2935.818,936.229,2935.933,933.407Z" transform="translate(-2614.276 -772.051)" fill="#ffbf1e" fill-rule="evenodd"/>
          <path id="Trazado_19257" data-name="Trazado 19257" d="M3042.183,1031.21c3.439-.63,7.892,2.276,8.015,6.364.06,2.015-.984,4.417-1.77,6.363s-1.493,4.026-2.121,5.893c-1.254,3.739-2.751,9.386-6.245,9.782-2.187.246-5.73-1.379-5.185-3.3.592-2.09,3.628.5,4.713.354,1.353-.178,2.094-2.521,2.711-4.125,1.233-3.208,2.271-6.714,3.535-9.9.548-1.377,1.665-3.43,1.416-5.3a4.114,4.114,0,0,0-4.6-3.3c-1.531.283-2.692,3.1-3.418,4.6a89.294,89.294,0,0,0-4.477,11.314c-.576,1.677-1.165,5.145-2.947,4.713-1.938-.47-.359-4.1.236-5.891a85.319,85.319,0,0,1,4.833-11.668C3038.192,1034.43,3039.147,1031.765,3042.183,1031.21Z" transform="translate(-2710.626 -849.23)" fill="#ffbf1e" fill-rule="evenodd"/>
        </g>
      </g>
    </g>
  </g>
</svg>
