<svg xmlns="http://www.w3.org/2000/svg" width="149.788" height="149.788" viewBox="0 0 149.788 149.788">
  <g id="Grupo_9967" data-name="Grupo 9967" transform="translate(-241.751 -608.409)">
    <g id="Layer_4" data-name="Layer 4">
      <circle id="Elipse_606" data-name="Elipse 606" cx="71.029" cy="71.029" r="71.029" transform="translate(241.751 750.243) rotate(-86.791)" fill="#35459d"/>
    </g>
    <g id="Layer_3" data-name="Layer 3">
      <path id="Trazado_19402" data-name="Trazado 19402" d="M321.633,754.138a70.994,70.994,0,0,0,56.117-34.633l-48.7-48.7c-.018-.018-.035-.033-.053-.052l-.121-.121-.005.006a1.607,1.607,0,0,0-.6-.325l-6-6a1.623,1.623,0,0,0-.429-.367l-5.728-3.311a1.663,1.663,0,0,0-2.259.609l-1.449,2.514-4.949-4.948a1.646,1.646,0,0,0-1.3-.646h-6.609a1.658,1.658,0,0,0-1.664,1.656v3.951a28.2,28.2,0,0,0-2.873.761l-3.436-3.434-.041.042a1.665,1.665,0,0,0-1.859-.135l-5.729,3.312a1.652,1.652,0,0,0-.6,2.256l1.979,3.433a26.788,26.788,0,0,0-2.925,3l-3.3-1.907a1.664,1.664,0,0,0-2.265.61l-3.315,5.728a1.648,1.648,0,0,0,.227,1.943l0,0,.107.108.009.008,3.349,3.349a26.242,26.242,0,0,0-.68,2.891h-3.818a1.658,1.658,0,0,0-1.658,1.656v6.613a1.649,1.649,0,0,0,.63,1.291l-.015.014,5.029,5.03-2.2,1.269a1.654,1.654,0,0,0-.6,2.258l3.3,5.731a1.625,1.625,0,0,0,.323.388l-.02.021Z" fill="#232f6e"/>
      <path id="Trazado_19403" data-name="Trazado 19403" d="M378.2,718.717a70.65,70.65,0,0,0,9.446-34.525l-37.735-37.735-.016.017-2.551-2.559a1.023,1.023,0,0,0-1.435,0l-1.374,1.373-4.237-4.239a1.009,1.009,0,0,0-.764-.366h-3.715a1.015,1.015,0,0,0-1.009,1.012v2.4a1.5,1.5,0,0,1-.962,1.333l-1.085.448a1.5,1.5,0,0,1-1.622-.263l-1.7-1.7a1.013,1.013,0,0,0-1.427,0l-2.628,2.629a1.015,1.015,0,0,0,0,1.43l1.7,1.7a1.512,1.512,0,0,1,.262,1.62l-.446,1.087a1.5,1.5,0,0,1-1.336.96h-2.4a1.017,1.017,0,0,0-1.012,1.013v3.71a1,1,0,0,0,.349.751l4.258,4.256-1.374,1.373a1.015,1.015,0,0,0,0,1.43l1.153,1.154-.016.014Z" fill="#232f6e"/>
      <g id="Grupo_9966" data-name="Grupo 9966">
        <g id="Grupo_9965" data-name="Grupo 9965">
          <path id="Trazado_19404" data-name="Trazado 19404" d="M333.735,685.005h-3.948a28.2,28.2,0,0,0-1.144-4.042l3.3-1.9a1.668,1.668,0,0,0,.608-2.267l-3.309-5.727a1.66,1.66,0,0,0-2.261-.606l-3.428,1.981a26.875,26.875,0,0,0-3-2.927l1.908-3.3a1.657,1.657,0,0,0-.607-2.263l-5.728-3.311a1.663,1.663,0,0,0-2.259.609l-1.976,3.428a26.286,26.286,0,0,0-4.071-1.031v-3.821a1.654,1.654,0,0,0-1.654-1.656h-6.609a1.658,1.658,0,0,0-1.664,1.656v3.951a27.687,27.687,0,0,0-4.037,1.139l-1.9-3.3a1.664,1.664,0,0,0-2.271-.606l-5.729,3.312a1.652,1.652,0,0,0-.6,2.256l1.979,3.433a26.788,26.788,0,0,0-2.925,3l-3.3-1.907a1.664,1.664,0,0,0-2.265.61l-3.315,5.728a1.655,1.655,0,0,0,.61,2.258l3.424,1.978a26.661,26.661,0,0,0-1.026,4.067h-3.818a1.658,1.658,0,0,0-1.658,1.656v6.613a1.654,1.654,0,0,0,1.658,1.655h3.951A26.5,26.5,0,0,0,277.8,699.7l-3.3,1.905a1.654,1.654,0,0,0-.6,2.258l3.3,5.731a1.662,1.662,0,0,0,2.263.606l3.431-1.978a26.936,26.936,0,0,0,3,2.928l-1.908,3.308a1.652,1.652,0,0,0,.6,2.258l5.735,3.307a1.651,1.651,0,0,0,2.255-.6L294.56,716a26.8,26.8,0,0,0,4.067,1.022v3.826a1.648,1.648,0,0,0,1.65,1.65l6.621.005a1.655,1.655,0,0,0,1.655-1.655V716.9a28.3,28.3,0,0,0,4.039-1.14l1.908,3.3a1.646,1.646,0,0,0,2.257.607l5.733-3.309a1.656,1.656,0,0,0,.6-2.262l-1.983-3.429a26.7,26.7,0,0,0,2.933-3l3.308,1.91a1.655,1.655,0,0,0,2.259-.608l3.308-5.734a1.656,1.656,0,0,0-.6-2.256l-3.43-1.981a27.086,27.086,0,0,0,1.033-4.059h3.817a1.658,1.658,0,0,0,1.652-1.66v-6.615A1.649,1.649,0,0,0,333.735,685.005ZM303.223,707.5a17.165,17.165,0,1,1,17.162-17.165A17.167,17.167,0,0,1,303.223,707.5Z" fill="#f99b1c"/>
          <path id="Trazado_19405" data-name="Trazado 19405" d="M302.645,707.48a17.157,17.157,0,0,1,0-34.295V658.163h-3.094a1.658,1.658,0,0,0-1.664,1.656v3.951a27.687,27.687,0,0,0-4.037,1.139l-1.9-3.3a1.664,1.664,0,0,0-2.271-.606l-5.729,3.312a1.652,1.652,0,0,0-.6,2.256l1.979,3.433a26.788,26.788,0,0,0-2.925,3l-3.3-1.907a1.664,1.664,0,0,0-2.265.61l-3.315,5.728a1.655,1.655,0,0,0,.61,2.258l3.424,1.978a26.661,26.661,0,0,0-1.026,4.067h-3.818a1.658,1.658,0,0,0-1.658,1.656v6.613a1.654,1.654,0,0,0,1.658,1.655h3.951A26.5,26.5,0,0,0,277.8,699.7l-3.3,1.905a1.654,1.654,0,0,0-.6,2.258l3.3,5.731a1.662,1.662,0,0,0,2.263.606l3.431-1.978a26.936,26.936,0,0,0,3,2.928l-1.908,3.308a1.652,1.652,0,0,0,.6,2.258l5.735,3.307a1.651,1.651,0,0,0,2.255-.6L294.56,716a26.8,26.8,0,0,0,4.067,1.022v3.826a1.648,1.648,0,0,0,1.65,1.65l2.368,0Z" fill="#fec00f"/>
          <path id="Trazado_19406" data-name="Trazado 19406" d="M303.221,669.434a20.9,20.9,0,1,0,20.9,20.9A20.9,20.9,0,0,0,303.221,669.434Zm0,38.064a17.165,17.165,0,1,1,17.162-17.165A17.167,17.167,0,0,1,303.223,707.5Z" fill="#f99b1c"/>
          <path id="Trazado_19407" data-name="Trazado 19407" d="M303.221,669.434c-.2,0-.384.005-.576.012v3.739c.192-.008.381-.018.578-.018a17.165,17.165,0,0,1,0,34.331c-.2,0-.386-.011-.578-.018v3.741c.192,0,.381.013.576.013a20.9,20.9,0,1,0,0-41.8Z" fill="#fec00f"/>
          <path id="Trazado_19408" data-name="Trazado 19408" d="M352.193,653.338h-2.4a1.493,1.493,0,0,1-1.333-.96l-.448-1.087a1.5,1.5,0,0,1,.26-1.62l1.7-1.7a1.013,1.013,0,0,0,0-1.43l-2.622-2.629a1.023,1.023,0,0,0-1.435,0l-1.7,1.7a1.5,1.5,0,0,1-1.62.263l-1.083-.448a1.5,1.5,0,0,1-.957-1.333v-2.4a1.021,1.021,0,0,0-1.016-1.012h-3.715a1.015,1.015,0,0,0-1.009,1.012v2.4a1.5,1.5,0,0,1-.962,1.333l-1.085.448a1.5,1.5,0,0,1-1.622-.263l-1.7-1.7a1.013,1.013,0,0,0-1.427,0l-2.628,2.629a1.015,1.015,0,0,0,0,1.43l1.7,1.7a1.512,1.512,0,0,1,.262,1.62l-.446,1.087a1.5,1.5,0,0,1-1.336.96h-2.4a1.017,1.017,0,0,0-1.012,1.013v3.71a1.018,1.018,0,0,0,1.012,1.014h2.4a1.509,1.509,0,0,1,1.336.959l.446,1.085a1.517,1.517,0,0,1-.262,1.623l-1.7,1.7a1.015,1.015,0,0,0,0,1.43l2.628,2.627a1.013,1.013,0,0,0,1.427,0l1.7-1.7a1.5,1.5,0,0,1,1.622-.266l1.085.448a1.508,1.508,0,0,1,.962,1.333v2.4a1.013,1.013,0,0,0,1.009,1.013h3.715a1.019,1.019,0,0,0,1.016-1.013v-2.4a1.508,1.508,0,0,1,.957-1.333l1.083-.448a1.5,1.5,0,0,1,1.62.266l1.7,1.7a1.022,1.022,0,0,0,1.435,0l2.622-2.627a1.013,1.013,0,0,0,0-1.43l-1.7-1.7a1.507,1.507,0,0,1-.26-1.623l.448-1.085a1.5,1.5,0,0,1,1.333-.959h2.4a1.017,1.017,0,0,0,1.012-1.014v-3.71A1.015,1.015,0,0,0,352.193,653.338ZM337.681,661.1a4.894,4.894,0,1,1,4.892-4.894A4.893,4.893,0,0,1,337.681,661.1Z" fill="#8fc4d7"/>
          <path id="Trazado_19409" data-name="Trazado 19409" d="M337.732,661.1c-.017,0-.033,0-.051,0a4.894,4.894,0,0,1,0-9.788c.018,0,.034,0,.051,0V640.683h-1.91a1.015,1.015,0,0,0-1.009,1.012v2.4a1.5,1.5,0,0,1-.962,1.333l-1.085.448a1.5,1.5,0,0,1-1.622-.263l-1.7-1.7a1.013,1.013,0,0,0-1.427,0l-2.628,2.629a1.015,1.015,0,0,0,0,1.43l1.7,1.7a1.512,1.512,0,0,1,.262,1.62l-.446,1.087a1.5,1.5,0,0,1-1.336.96h-2.4a1.017,1.017,0,0,0-1.012,1.013v3.71a1.018,1.018,0,0,0,1.012,1.014h2.4a1.509,1.509,0,0,1,1.336.959l.446,1.085a1.517,1.517,0,0,1-.262,1.623l-1.7,1.7a1.015,1.015,0,0,0,0,1.43l2.628,2.627a1.013,1.013,0,0,0,1.427,0l1.7-1.7a1.5,1.5,0,0,1,1.622-.266l1.085.448a1.508,1.508,0,0,1,.962,1.333v2.4a1.013,1.013,0,0,0,1.009,1.013h1.91Z" fill="#a6dae9"/>
        </g>
      </g>
    </g>
  </g>
</svg>
