<svg xmlns="http://www.w3.org/2000/svg" width="142.053" height="142.058" viewBox="0 0 142.053 142.058">
  <g id="Grupo_10008" data-name="Grupo 10008" transform="translate(-795.531 -795.579)">
    <g id="Layer_4" data-name="Layer 4">
      <path id="Trazado_19453" data-name="Trazado 19453" d="M866.557,937.637a71.029,71.029,0,1,1,71.027-71.03A71.028,71.028,0,0,1,866.557,937.637Z" fill="#35459d"/>
    </g>
    <g id="Layer_3" data-name="Layer 3">
      <path id="Trazado_19454" data-name="Trazado 19454" d="M936.066,881.248l-42.912-42.913-.04.04a37.464,37.464,0,0,0-55.34,50.448l-8.659,16.418-.217.216,31.932,31.93c1.891.151,3.8.25,5.727.25A71.047,71.047,0,0,0,936.066,881.248Z" fill="#232f6e"/>
      <g id="Grupo_10007" data-name="Grupo 10007">
        <g id="Grupo_10006" data-name="Grupo 10006">
          <path id="Trazado_19455" data-name="Trazado 19455" d="M866.338,827.1a37.458,37.458,0,0,0-28.564,61.719l-8.735,16.562,15.887-10.068A37.468,37.468,0,1,0,866.338,827.1Z" fill="#fec00f"/>
          <path id="Trazado_19456" data-name="Trazado 19456" d="M866.338,827.1c-.125,0-.25.009-.378.01v74.945c.128,0,.253.007.378.007a37.481,37.481,0,0,0,0-74.962Z" fill="#f99b1c"/>
          <g id="Grupo_10004" data-name="Grupo 10004">
            <path id="Trazado_19457" data-name="Trazado 19457" d="M862.977,890.466v-6.031a26.493,26.493,0,0,1-10.784-2.724l1.9-7.419a22.4,22.4,0,0,0,10.526,2.789c3.684,0,6.154-1.459,6.154-3.929,0-2.412-2.029-3.939-6.791-5.523-6.785-2.285-11.414-5.45-11.414-11.6,0-5.647,3.935-10.027,10.715-11.29v-6.028H869.5v5.582a22.964,22.964,0,0,1,9.268,2.1l-1.906,7.162a19.745,19.745,0,0,0-9.136-2.218c-4.114,0-5.452,1.838-5.452,3.611,0,2.032,2.221,3.427,7.675,5.393,7.548,2.664,10.527,6.155,10.527,11.927,0,5.643-3.928,10.467-11.229,11.671v6.534Z" fill="#fff"/>
          </g>
          <g id="Grupo_10005" data-name="Grupo 10005">
            <path id="Trazado_19458" data-name="Trazado 19458" d="M869.95,860.334c-1.6-.578-2.921-1.1-3.99-1.614v9.63c3.349,1.347,4.815,2.756,4.815,4.8,0,2.157-1.884,3.543-4.815,3.86v13.454h3.288v-6.534c7.3-1.2,11.229-6.028,11.229-11.671C880.477,866.489,877.5,863,869.95,860.334Z" fill="#d1ecfb"/>
            <path id="Trazado_19459" data-name="Trazado 19459" d="M865.96,838.708V851.47a10.688,10.688,0,0,1,1.767-.14,19.745,19.745,0,0,1,9.136,2.218l1.906-7.162a22.964,22.964,0,0,0-9.268-2.1v-5.582Z" fill="#d1ecfb"/>
          </g>
        </g>
      </g>
    </g>
  </g>
</svg>
