<svg xmlns="http://www.w3.org/2000/svg" width="143.485" height="143.485" viewBox="0 0 143.485 143.485">
  <g id="Grupo_10003" data-name="Grupo 10003" transform="translate(-611.511 -244.953)">
    <g id="Layer_4" data-name="Layer 4">
      <circle id="Elipse_608" data-name="Elipse 608" cx="71.029" cy="71.029" r="71.029" transform="translate(611.511 387.003) rotate(-89.421)" fill="#35459d"/>
    </g>
    <g id="Layer_3" data-name="Layer 3">
      <g id="Grupo_10002" data-name="Grupo 10002">
        <g id="Grupo_10001" data-name="Grupo 10001">
          <path id="Trazado_19434" data-name="Trazado 19434" d="M707.72,291.427a37.1,37.1,0,0,0-14.177-8.891l-8.947-8.947-.034.032a19.709,19.709,0,0,0-33.662,13.92,15.681,15.681,0,0,0,1.877,6.712,36.894,36.894,0,0,0-7.943,18.305l-.018.138c-.062.477-.121.954-.166,1.438-.021.225-.034.452-.05.678-.026.331-.053.66-.069.993q-.043.878-.045,1.756t.045,1.753c.016.334.043.663.068.993.016.225.03.451.051.674.044.48.1.954.164,1.426l.018.151a36.949,36.949,0,0,0,9.957,20.6l-.089.088L697.658,386.2a71.092,71.092,0,0,0,54.051-50.8L707.727,291.42Z" fill="#232f6e"/>
          <g id="Grupo_9999" data-name="Grupo 9999">
            <path id="Trazado_19435" data-name="Trazado 19435" d="M718.428,320.407c.027-.365.058-.732.076-1.1.027-.58.044-1.162.044-1.745s-.017-1.165-.044-1.747c-.018-.363-.048-.723-.075-1.083-.015-.19-.026-.379-.044-.57a37.023,37.023,0,0,0-73.551-1.6l-.018.138c-.062.477-.121.954-.166,1.438-.021.225-.034.452-.05.678-.026.331-.053.66-.069.993q-.043.878-.045,1.756t.045,1.753c.016.334.043.663.068.993.016.225.03.451.051.674.044.48.1.954.164,1.426l.018.151a37.023,37.023,0,0,0,73.553-1.6C718.4,320.773,718.413,320.59,718.428,320.407Z" fill="#1695a4"/>
            <path id="Trazado_19436" data-name="Trazado 19436" d="M681.516,280.53a37.08,37.08,0,0,0-36.682,32.028l-.018.138c-.062.477-.121.954-.166,1.438-.021.225-.034.452-.05.678-.026.331-.053.66-.069.993q-.043.878-.045,1.756t.045,1.753c.016.334.043.663.068.993.016.225.03.451.051.674.044.48.1.954.164,1.426l.018.151a37.08,37.08,0,0,0,36.684,32.032" fill="#15b0bf"/>
            <g id="Grupo_9997" data-name="Grupo 9997">
              <path id="Trazado_19437" data-name="Trazado 19437" d="M711.7,332.685c-.127.252-.254.5-.386.752-.122.226-.247.448-.374.671-.136.244-.275.489-.419.729-.13.22-.268.436-.4.652-.15.237-.3.473-.453.706-.143.214-.288.424-.435.633-.159.228-.319.456-.483.68-.152.207-.309.41-.465.613q-.253.332-.515.654c-.161.2-.325.4-.489.589-.179.213-.361.424-.547.631-.17.192-.341.377-.513.565-.192.205-.384.406-.578.605-.178.182-.358.359-.54.537q-.3.294-.607.58c-.186.172-.371.342-.561.51-.208.188-.422.371-.638.553q-.288.244-.58.481c-.22.178-.444.352-.668.525-.2.153-.4.3-.6.451-.23.169-.464.334-.7.5-.2.142-.408.284-.615.42-.24.16-.483.314-.727.467-.209.131-.418.261-.63.388-.25.15-.5.293-.757.437-.214.12-.427.24-.642.355-.261.139-.524.272-.787.4-.217.108-.434.218-.654.322-.27.129-.544.25-.818.37-.22.1-.437.2-.659.289-.281.117-.566.226-.85.336-.221.084-.442.172-.666.253l-.158.054c4.086-4.079,7.323-10.3,9.158-17.733H712.2c-.051.112-.1.224-.15.334C711.935,332.228,711.818,332.456,711.7,332.685Z" fill="#d1ecfb"/>
              <path id="Trazado_19438" data-name="Trazado 19438" d="M693.613,286.035c.284.111.569.218.85.336.222.091.439.191.659.288.274.121.548.242.818.371.22.1.437.213.654.323.263.13.526.263.787.4.215.114.428.235.642.355.254.144.507.287.757.437.212.127.421.256.63.389.244.152.487.306.727.466.207.136.412.278.615.42.235.163.469.326.7.5.2.149.4.3.6.452.224.171.448.347.668.525.2.156.388.318.58.48.216.182.43.367.638.554.19.167.375.338.561.509.205.191.408.385.607.58.182.178.362.355.54.537q.291.3.578.606c.172.187.343.373.513.564.186.207.368.418.547.631.164.193.328.391.489.59q.262.323.515.654c.156.2.313.406.465.613.164.224.324.451.483.68.147.209.292.418.435.632.154.233.3.47.453.706.135.217.273.433.4.653.144.24.283.486.419.729.127.223.252.445.374.671.132.248.259.5.386.752.115.228.232.457.342.689.051.107.1.217.146.326H701.945c-1.834-7.43-5.072-13.647-9.156-17.723.053.017.1.034.158.053C693.171,285.862,693.392,285.95,693.613,286.035Z" fill="#d1ecfb"/>
              <path id="Trazado_19439" data-name="Trazado 19439" d="M700.36,317.561a58.188,58.188,0,0,1-1,10.846H683.144v-21.7h16.213A58.331,58.331,0,0,1,700.36,317.561Z" fill="#d1ecfb"/>
              <path id="Trazado_19440" data-name="Trazado 19440" d="M698.633,331.661c-2.772,10.761-8.606,18.478-15.489,19.539V331.661Z" fill="#d1ecfb"/>
              <path id="Trazado_19441" data-name="Trazado 19441" d="M683.144,303.452V283.921c6.881,1.06,12.715,8.775,15.487,19.531Z" fill="#d1ecfb"/>
              <path id="Trazado_19442" data-name="Trazado 19442" d="M715.253,319.094c-.013.257-.03.512-.048.769q-.023.324-.049.646c-.035.378-.072.758-.12,1.137l-.006.045a33.824,33.824,0,0,1-1.565,6.716H702.646a61.159,61.159,0,0,0,0-21.7h10.819a33.759,33.759,0,0,1,1.562,6.7c0,.028.008.055.011.083.046.371.083.743.117,1.116.019.219.035.44.05.661.018.253.036.506.048.759.022.509.039,1.02.039,1.535S715.275,318.585,715.253,319.094Z" fill="#d1ecfb"/>
            </g>
            <g id="Grupo_9998" data-name="Grupo 9998">
              <path id="Trazado_19443" data-name="Trazado 19443" d="M648.016,321.788c-.009-.071-.019-.142-.028-.215-.042-.343-.076-.687-.107-1.032q-.031-.358-.055-.721c-.016-.24-.033-.478-.045-.717-.023-.512-.039-1.026-.039-1.542s.016-1.031.039-1.543c.012-.24.029-.478.045-.714s.034-.489.055-.731c.032-.342.066-.688.109-1.031.008-.072.018-.144.028-.215a33.777,33.777,0,0,1,1.546-6.619H660.38a61.1,61.1,0,0,0,0,21.7h-10.82A34.03,34.03,0,0,1,648.016,321.788Z" fill="#fff"/>
              <path id="Trazado_19444" data-name="Trazado 19444" d="M662.664,317.561a58.245,58.245,0,0,1,1.005-10.853h16.22v21.7H663.668A58.187,58.187,0,0,1,662.664,317.561Z" fill="#fff"/>
              <path id="Trazado_19445" data-name="Trazado 19445" d="M679.889,283.921v19.531H664.394C667.167,292.7,673,284.981,679.889,283.921Z" fill="#fff"/>
              <path id="Trazado_19446" data-name="Trazado 19446" d="M679.889,331.661V351.2c-6.888-1.06-12.725-8.777-15.5-19.539Z" fill="#fff"/>
              <path id="Trazado_19447" data-name="Trazado 19447" d="M670.236,285.731c-4.084,4.076-7.321,10.292-9.156,17.721H650.842A33.944,33.944,0,0,1,670.236,285.731Z" fill="#fff"/>
              <path id="Trazado_19448" data-name="Trazado 19448" d="M650.838,331.661h10.24c1.834,7.434,5.072,13.653,9.158,17.73A33.947,33.947,0,0,1,650.838,331.661Z" fill="#fff"/>
            </g>
          </g>
          <g id="Grupo_10000" data-name="Grupo 10000">
            <path id="Trazado_19449" data-name="Trazado 19449" d="M670.611,267.832A19.707,19.707,0,0,0,650.9,287.541c0,10.89,19.711,27.691,19.711,27.691s19.707-16.8,19.707-27.691A19.7,19.7,0,0,0,670.611,267.832Zm0,29.493a9.783,9.783,0,1,1,9.783-9.784A9.785,9.785,0,0,1,670.611,297.325Z" fill="#fec02d"/>
            <path id="Trazado_19450" data-name="Trazado 19450" d="M670.611,267.832c-.125,0-.246.017-.369.019v8.976c.123,0,.244-.019.369-.019a10.734,10.734,0,1,1,0,21.468c-.125,0-.246-.014-.369-.018v16.653c.231.2.369.321.369.321s19.707-16.8,19.707-27.691A19.7,19.7,0,0,0,670.611,267.832Z" fill="#f99b26"/>
            <path id="Trazado_19451" data-name="Trazado 19451" d="M670.611,297.325a9.783,9.783,0,1,1,9.783-9.784A9.785,9.785,0,0,1,670.611,297.325Z" fill="#d1ecfb"/>
            <path id="Trazado_19452" data-name="Trazado 19452" d="M670.611,277.76a9.783,9.783,0,1,1,0,19.565" fill="#a6dae9"/>
          </g>
        </g>
      </g>
    </g>
  </g>
</svg>
