<svg xmlns="http://www.w3.org/2000/svg" width="755" height="314.453" viewBox="0 0 755 314.453">
  <g id="Grupo_9617" data-name="Grupo 9617" transform="translate(-554 -1517.547)">
    <rect id="Rectángulo_2146" data-name="Rectángulo 2146" width="755" height="42" transform="translate(554 1790)" fill="rgba(255,237,0,0.55)"/>
    <g id="Grupo_9616" data-name="Grupo 9616" transform="translate(-646.791 1166.978)" opacity="0.729">
      <path id="Trazado_18561" data-name="Trazado 18561" d="M2025.005,1148.051s-13.843-2.176-26.975,14.04c0,0-7.961,7.991-11.3,22.129s-3.738,23.366-15.187,30.6l-.421.734,5.74,16.175h105.585s6.722-10.353,3.4-29.832-9.553-29.67-12.482-33.991-8.573-14.882-21.213-17.785S2025.005,1148.051,2025.005,1148.051Z" transform="translate(-470.759 -609.044)" fill="#3552ff"/>
      <path id="Trazado_18562" data-name="Trazado 18562" d="M2086.249,1257.146s-9.534,34.385-6.2,57.648l12.693.343s-6-.557-8.218-17.548S2083.754,1261.4,2086.249,1257.146Z" transform="translate(-553.42 -692.458)" fill="#1a1a1a"/>
      <path id="Trazado_18563" data-name="Trazado 18563" d="M2252.5,426.114v86.955h-86.955a86.955,86.955,0,1,0,86.955-86.955Z" transform="translate(-619.263 -57.703)" fill="#3552ff"/>
      <path id="Trazado_18564" data-name="Trazado 18564" d="M2065.823,436.558h85.941V350.616s-35.284-2.4-62.365,26.813S2065.823,436.558,2065.823,436.558Z" transform="translate(-542.984 0)" fill="#ffed00"/>
      <circle id="Elipse_587" data-name="Elipse 587" cx="42.553" cy="42.553" r="42.553" transform="translate(1476.839 412.814)" fill="#1a1a1a"/>
      <path id="Trazado_18565" data-name="Trazado 18565" d="M1478.319,1037.8s-18.994-2.853-27.369,9.842-10.331,14.951-14.974,25.933-7.815,22.473-7.317,30.984,2.345,17.773,12.5,22.365l-.48,19.185,71.723-.416,28.882-43.123s-.53-21.8-2.319-33.4-3.778-16.174-3.778-16.174l-20.831-.3s-9.427-15.605-25-16.84Z" transform="translate(-56.382 -523.43)" fill="#3552ff"/>
      <path id="Trazado_18566" data-name="Trazado 18566" d="M2612.636,1018.079s-10.275-.918-17.792,6.885a53.692,53.692,0,0,0-10.832,17.065l-.793-25.856s-3.947-3.836-13.452-3.247-13.117,1.182-14.291,2.657c0,0-1.867,20.244-1.279,36.595s1.555,28.208,16.779,27.958,23.868-12.01,23.868-12.01l-1.879,60.094h70.561s-1.511-18.033-.675-21.021c0,0,19.8-3.941,21.7-13.459s.991-15.235-3.048-27.231c0,0-5.651-14.958-10.532-24.134s-7.639-16.357-18.416-21.562-19.745-2.144-19.745-2.144Z" transform="translate(-916.038 -505.871)" fill="#1a1a1a"/>
      <circle id="Elipse_588" data-name="Elipse 588" cx="35.224" cy="35.224" r="35.224" transform="translate(1480.566 420.142)" fill="#fff"/>
      <path id="Trazado_18567" data-name="Trazado 18567" d="M2127.471,1429.727s4.223-3.928,4.9-8.394-1.7-9.174-3.511-10.632-4.833-4.313-10.631-3.664l-8.6,7.945-8.24,1.108,8.635-8.673a13.7,13.7,0,0,0-12.113,7.791l-.574.854s-2.854,1.074-3.064,3.007a2.507,2.507,0,0,0,.943,2.581s-.011,4.312,5.7,5.4c0,0,3.295,4.687,13.336,4.634S2127.471,1429.727,2127.471,1429.727Z" transform="translate(-564.811 -806.875)" fill="#fff"/>
      <path id="Trazado_18568" data-name="Trazado 18568" d="M2189.291,1049.067v-15.047s4.917.172,5.013-4.231-3.615-4.521-6.029-4.328c0,0-2.324-.816-2.782-2.147a13.764,13.764,0,0,1-.544-5.453s-5.113,2.585-9.967,2.209-6.459-1.826-6.459-1.826l.178,16.951s-.244,8.439,6.875,8.014l.288,7.469s-2.959,8.941.646,8.981S2185.633,1056.155,2189.291,1049.067Z" transform="translate(-621.54 -509.687)" fill="#fff"/>
      <path id="Trazado_18569" data-name="Trazado 18569" d="M1814.126,1100.576s3.883,4.963,3,9.666-4.8,11.013-9.726,12.248-8.024.483-9.618-1.155-3.914-3.168-4.374-4.659-1.028-4.65,2.749-4.8a4.454,4.454,0,0,1,1.066-4.139c1.745-1.61,3.114-1.087,3.114-1.087a3.558,3.558,0,0,1,2.441-3.811c2.827-.924,4,.75,5.614,1.918s1.813,1.369,1.813,1.369Z" transform="translate(-334.77 -572.867)" fill="#fff"/>
      <path id="Trazado_18570" data-name="Trazado 18570" d="M1680.714,1183.756s-2.207,2.979-2.483,4.245a7.639,7.639,0,0,0,3.442,7.66c3.655,2.2,5.219,3.224,7.186,2.679a5.462,5.462,0,0,0,2.807-1.657s.7-.3,1.01,1.235c.339,1.679.644,4.556-1.645,5.585,0,0-.416,4.519-3.436,4.792,0,0-2.5,3.585-5.638,2.978s-3.752-2.09-5.88-2.333a7.061,7.061,0,0,0-5.3,1.4,51.707,51.707,0,0,0-4.969-7.325,24.745,24.745,0,0,1-3.334-4.526s4.122-2.8,5.2-5.605S1671.562,1181.841,1680.714,1183.756Z" transform="translate(-235.011 -636.183)" fill="#fff"/>
      <path id="Trazado_18571" data-name="Trazado 18571" d="M1617.558,916.489l9.6,7.309,1.881-9.408.378-7.258s3.868.3,5.337-2.448,1.745-6.367,1.715-9.214-.366-11.245-.366-11.245-4.42-6.5-7.211-7.522c0,0-2.245,6.328-4.59,8.641a51.074,51.074,0,0,1-6.176,4.867s-5.855-1.5-6.445,3.945,6.015,4.186,6.015,4.186,4.985,2.927,5.956,7.84S1620.429,916.7,1617.558,916.489Z" transform="translate(-196.185 -401.87)" fill="#fff"/>
      <path id="Trazado_18572" data-name="Trazado 18572" d="M2834.164,942.658l-.3-11.889s4.965.813,6.215-2.124.322-5.871-1.208-6.7-6.086-1.9-7.916,2.06l.7,7.064s1.2,7.941-4.9,8.862a42.329,42.329,0,0,1-9.05.649v2.079l3.636,14.016Z" transform="translate(-1117.403 -435.827)" fill="#fff"/>
      <path id="Trazado_18573" data-name="Trazado 18573" d="M2801.7,877.9a18.842,18.842,0,0,1-13.886,3.667l.24,2.2a10.883,10.883,0,0,0-1.48,6.056c0,4.013,1.48,5.719,1.48,5.719a3.1,3.1,0,0,0,3.637.063,3.873,3.873,0,0,0,3.465.967c1.969-.521,2.392-1.4,3.289-1.544a2.368,2.368,0,0,0,2.568,1.049,2.749,2.749,0,0,0,2.134-1.718s1.83.868,2.7-.68.136-5.875.136-5.875S2801.888,883.511,2801.7,877.9Z" transform="translate(-1093.621 -402.782)" fill="#fff"/>
      <path id="Trazado_18574" data-name="Trazado 18574" d="M2586.233,910.818l-.266-7.67s2.555-6.05,3.092-9.581-.274-5.092-1.91-6.25-1.92-1.158-1.92-1.158.23-5.85-.736-9.267-1.089-5.165-3.229-5.085-3.516,2.824-3.389,4.912.671,8.027.671,8.027-.531-2.213-3.467-2.113-3.495,4.127-3.495,4.127-1.482-3.306-4.22-3.21-3.018,3.871-2.91,5.63.368,6.067,1.4,7.14c0,0,1.123,6.22,1.439,8.668s.64,6.14.64,6.14S2579.273,913.771,2586.233,910.818Z" transform="translate(-923.945 -398.128)" fill="#fff"/>
      <path id="Trazado_18575" data-name="Trazado 18575" d="M2753.218,1330.292a27.466,27.466,0,0,0-9.134-4.533c-4.765-1.117-6.176-1.135-7.587.179s-4.134,3.4-5.562,4.514-5.258,3.371-1.9,6.325,9.533-1.073,11.036-3.543l14.875,3.073S2753.8,1331.055,2753.218,1330.292Z" transform="translate(-1048.644 -744.237)" fill="#fff"/>
      <path id="Trazado_18576" data-name="Trazado 18576" d="M1568.025,865.9s.708-7.3-1.581-9.287-5.488-3.866-12.628-3.3c0,0-18.266-.846-18.691,11.079,0,0,2.546,13.156,3.109,17.427s2.6,7.733-5.731,10.3-11.447,11.823-9.915,15.356c0,0,4.882-4.9,8.78-6.406s8.1-2.316,15.568-2.444,8.3-4.729,8.367-7.127.381-5.519-2.173-7.773a35.818,35.818,0,0,0-4.169-3.263s-5.84.7-5.547-4.566,6.4-3.626,6.4-3.626,5.175-2.809,6.941-5.761a82.166,82.166,0,0,0,3.825-7.747S1565.761,862.579,1568.025,865.9Z" transform="translate(-127.878 -383.925)" fill="#1a1a1a"/>
      <path id="Trazado_18577" data-name="Trazado 18577" d="M1686.053,1003.247l-.244,6.926,4.618.792s1.9-2.637,1.086-5.245a8.369,8.369,0,0,0-1.777-3.487S1687.236,1003.436,1686.053,1003.247Z" transform="translate(-252.836 -497.751)" fill="#1a1a1a"/>
      <path id="Trazado_18578" data-name="Trazado 18578" d="M2004.946,739.514c-.641,4.6-4.315,8-9.693,8.98-.581.106-1.156.243-1.863.394v5.035h-4.6v-5.059c-6.616-.732-10.374-4.182-11.768-10.122l7.206-1.739c.189.488.377.931.533,1.381a6.838,6.838,0,0,0,9.081,3.92,3.932,3.932,0,0,0,2.688-3.614,3.2,3.2,0,0,0-2.1-3.371c-1.959-.826-3.98-1.524-5.977-2.273-1.055-.395-2.137-.736-3.169-1.178-5.183-2.219-7.465-5.936-6.816-11.037.633-4.969,3.78-8.038,9.354-9.127.226-.044.446-.119.807-.216v-3.871h4.541l.1,3.818a19.605,19.605,0,0,1,3.616,1.024c3.711,1.3,5.793,3.876,6.978,7.447l-6.378,2.432a34.415,34.415,0,0,0-2.318-3.368,5.12,5.12,0,0,0-5.375-1.477,3.66,3.66,0,0,0-2.927,3.038,3.107,3.107,0,0,0,1.937,3.716c1.675.733,3.408,1.355,5.118,2.02,1.435.558,2.9,1.052,4.3,1.672C2003.607,730.314,2005.717,733.989,2004.946,739.514Z" transform="translate(-475.272 -272.72)" fill="#ffed00"/>
      <circle id="Elipse_589" data-name="Elipse 589" cx="31.929" cy="31.929" r="31.929" transform="translate(1669.876 414.699) rotate(-45)" fill="#ffed00"/>
      <circle id="Elipse_590" data-name="Elipse 590" cx="22.997" cy="22.997" r="22.997" transform="translate(1682.507 414.699) rotate(-45)" fill="#fff"/>
      <path id="Trazado_18579" data-name="Trazado 18579" d="M2807.61,847.312a16.481,16.481,0,0,0,2.384-8.965c-.242-4.994-2.5-6.346-4.261-6.765a74.728,74.728,0,0,0-8.014-.628s-2.231-4.533-5.53-6.182-7.6-2.374-10.987.244-5.2,7.118-2.582,11.171l-.044.542s-2.292.259-2.413,3.657a5.3,5.3,0,0,0,2.457,4.808l1.457-2.919.235-2.277s8.135.956,13.169-3.811c0,0,1.329,6.874,4.551,9.39l-.136,6.386a7.408,7.408,0,0,1-2.443.644s-1.218,2.007-2.613,1.791a4.941,4.941,0,0,1-2.349-1.086,22.924,22.924,0,0,1-2.963,1.45,6.12,6.12,0,0,1-3.471-.873l-.443-.063a2.9,2.9,0,0,1-3.484-.176l-.264.176s.174,5.3.189,6.51a6.327,6.327,0,0,0,6.694,5.487c5.161-.09,9.36-.509,11.147-1.951s2.19-5.228,2.029-7.322-.116-7.655-.116-7.655S2802.206,844.436,2807.61,847.312Z" transform="translate(-1085.663 -361.071)" fill="#3552ff"/>
      <path id="Trazado_18580" data-name="Trazado 18580" d="M2804.513,1011.12l-3.657,5.153.291,18.687s-1.491,34.226.067,45.721l9.345-30.955,4.532-13.3.951,1.591,10.048-21.918-5.061-5.6Z" transform="translate(-1104.257 -504.066)" fill="#fff"/>
      <path id="Trazado_18581" data-name="Trazado 18581" d="M2808.205,1071.525l-4.584,6.365.548,6.281-3.222,6.315s-.053.374-.148,1.038c-.314,10.838-.593,27.652.363,35.364l.154.068,9.243-30.618.748-2.2.054-1.294-2.394-8.678,3.794-4.908Z" transform="translate(-1104.258 -550.678)" fill="#3552ff"/>
      <path id="Trazado_18582" data-name="Trazado 18582" d="M2828.557,957.756a4.471,4.471,0,0,0-2.767,4.7s-2.066.708-3.059.18-2.175-1.764-1.611-2.65,1.745-.725,2.658-.671,1.289.376,1.826-.617.71-1.617,1.711-1.856S2828.557,957.756,2828.557,957.756Z" transform="translate(-1119.893 -463.055)" fill="#1a1a1a"/>
      <path id="Trazado_18583" data-name="Trazado 18583" d="M2844.513,960.823s-3.161,1.383-2.578,4.5c0,0,1.289.463,2.215-1.349A3.955,3.955,0,0,0,2844.513,960.823Z" transform="translate(-1135.849 -466.122)" fill="#fff"/>
      <path id="Trazado_18584" data-name="Trazado 18584" d="M2193.52,1013.186s6.23.03,6.87-7.007-5.937-10.2-11.643-10.232c0,0,2.015-9.7,2.155-11.443s1.4-8.711-6.451-9.387l-.615-.343s-6-5.81-13.735-5.219-10.747,4.591-11.952,7.1-.427,7.719,2,9.948l.3-5.559a10.323,10.323,0,0,0,7.061,2.122,23.517,23.517,0,0,0,9.031-2.712s-1.156,6.337,2.966,7.974a8.2,8.2,0,0,1,2.929-.2,5.089,5.089,0,0,1,3.516,4.9,4.409,4.409,0,0,1-4.758,3.962l-.256,14.644A56.6,56.6,0,0,1,2193.52,1013.186Z" transform="translate(-613.19 -472.758)" fill="#1a1a1a"/>
      <path id="Trazado_18585" data-name="Trazado 18585" d="M2149.489,1100.58a7.463,7.463,0,0,0-6.269,5.711,5.64,5.64,0,0,0,3.582,6.818l9.507-1.231-.211-5.486S2149.932,1107.115,2149.489,1100.58Z" transform="translate(-602.064 -572.87)" fill="#1a1a1a"/>
      <path id="Trazado_18586" data-name="Trazado 18586" d="M2607.573,1352.739l-5.394,3.989,4.5.521-40.967,28.743-50.082-10.149,5.173-4.007-4.022-.815,40.967-28.353Z" transform="translate(-886.665 -757.782)" fill="#fff"/>
      <path id="Trazado_18587" data-name="Trazado 18587" d="M2122.91,1400.316l14.016-13.646,3.222,3.544-8.986,9.673Z" transform="translate(-586.701 -791.391)" fill="#1a1a1a"/>
      <path id="Trazado_18588" data-name="Trazado 18588" d="M2089.638,1467.874l-2.646,6.919,5.834-2.053Z" transform="translate(-559.266 -853.415)" fill="#fff"/>
      <path id="Trazado_18589" data-name="Trazado 18589" d="M2182.252,1381.06l1.611-1.735,3.705,3.587-1.688,1.933Z" transform="translate(-632.028 -785.78)" fill="#fff"/>
      <path id="Trazado_18590" data-name="Trazado 18590" d="M2001.164,1516.645l.849-.379h40.874l-28.676,16.915h-9.934a9.991,9.991,0,0,0,.245-4.457C2004.009,1526.9,2001.164,1516.645,2001.164,1516.645Z" transform="translate(-493.71 -890.378)" fill="#fff"/>
      <g id="Grupo_9466" data-name="Grupo 9466" transform="translate(1410.862 578.715)">
        <path id="Trazado_18591" data-name="Trazado 18591" d="M1678.551,1388.662a.426.426,0,1,1,0-.852c4.943,0,9.1-1.834,11.414-5.033a9.019,9.019,0,0,0,1.265-8.312l-16.582-50.044a10.243,10.243,0,0,0-9.741-7.034h-69.917a10.438,10.438,0,0,0-2.275.248.425.425,0,0,1-.185-.83,11.262,11.262,0,0,1,2.461-.27h69.917a11.1,11.1,0,0,1,10.549,7.618l16.582,50.045a9.844,9.844,0,0,1-1.384,9.076C1688.182,1386.7,1683.77,1388.662,1678.551,1388.662Z" transform="translate(-1592.196 -1316.536)"/>
      </g>
      <g id="Grupo_9467" data-name="Grupo 9467" transform="translate(1404.732 578.977)">
        <path id="Trazado_18592" data-name="Trazado 18592" d="M1566.665,1321.952a.426.426,0,0,1-.209-.8l6.13-3.459a.431.431,0,0,1,.579.162.426.426,0,0,1-.161.58l-6.13,3.459A.436.436,0,0,1,1566.665,1321.952Z" transform="translate(-1566.24 -1317.645)"/>
      </g>
      <path id="Trazado_18593" data-name="Trazado 18593" d="M1572.846,1321.405l5.63-3.078h72.978s6.5-.451,9.5,8.678l16.409,50.527s.914,9.859-10.593,11.832c0,0,6.4-3.827,5.879-10.808l-17.133-50.141a10.344,10.344,0,0,0-8.953-6.887Z" transform="translate(-166.554 -739.186)" fill="#fff"/>
      <path id="Trazado_18594" data-name="Trazado 18594" d="M2204.717,1122.037s-3.363,4.882-6.123,4.75l-.212-4.006Z" transform="translate(-644.348 -589.259)" fill="#ccc"/>
      <path id="Trazado_18595" data-name="Trazado 18595" d="M1663.3,1004.43s3.813,1.973,5.317,2.168l.256-3.586-5.359-.781Z" transform="translate(-235.642 -497.751)" fill="#ccc"/>
      <path id="Trazado_18596" data-name="Trazado 18596" d="M1868.313,957.3l16.276-23.9,5.8,4.018-16.578,23.708A6.411,6.411,0,0,1,1868.313,957.3Z" transform="translate(-392.236 -445.179)" fill="#3552ff"/>
      <path id="Trazado_18597" data-name="Trazado 18597" d="M1741.525,1075.8l8.415-12.049-5.449-4.973s-2.741-4.427,2.4-5.5c0,0-1.136-4.491,4.18-5.226a4.555,4.555,0,0,1,1.772-3.581c1.879-1.45,4.308,0,4.308,0l3.787,3.057,9.464-14.042a26.109,26.109,0,0,1-8.822-4.381c-3.69-3.053-4.084-5.243-4.084-5.243l-27.977,40.515a6.732,6.732,0,0,0,2.646,9.371C1738.188,1077.446,1741.525,1075.8,1741.525,1075.8Z" transform="translate(-285.508 -514.275)" fill="#1a1a1a"/>
      <g id="Grupo_9468" data-name="Grupo 9468" transform="translate(1384.196 582.219)">
        <path id="Trazado_18598" data-name="Trazado 18598" d="M1479.417,1421.453l-.127,4.945c14.213,1.557,18.282-1.41,18.282-1.41l-.812-2.383a51.613,51.613,0,0,1-8.894,1.092A13.9,13.9,0,0,1,1479.417,1421.453Z" transform="translate(-1479.29 -1400.177)" fill="#1a1a1a"/>
        <path id="Trazado_18599" data-name="Trazado 18599" d="M1645.952,1386.268l-16.582-47.888a10.658,10.658,0,0,0-10.145-7.01h-69.918c-7.287,0-12.437,6.825-10.146,13.444l2.478,7.155,14.1,40.733a10.658,10.658,0,0,0,10.146,7.011h69.917C1643.094,1399.712,1648.245,1392.887,1645.952,1386.268Z" transform="translate(-1524.601 -1331.369)" fill="#1a1a1a"/>
      </g>
      <path id="Trazado_18600" data-name="Trazado 18600" d="M2602.179,1402.2l4.5.521-40.967,28.743-50.082-10.149,5.173-4.007,45.852,9.334Z" transform="translate(-886.665 -803.25)" fill="#3552ff"/>
      <path id="Trazado_18601" data-name="Trazado 18601" d="M2738.6,1363.571a9.065,9.065,0,0,0,8.3-.606c3.974-2.631,4.189-3.383,4.189-3.383l-2.214-.929S2744.43,1364.392,2738.6,1363.571Z" transform="translate(-1056.978 -769.99)" fill="#ccc"/>
      <path id="Trazado_18602" data-name="Trazado 18602" d="M2831.342,982.308s.954,9.213-13.276,7.871l-.352-2.631,7.6-.644S2831.049,987.089,2831.342,982.308Z" transform="translate(-1117.403 -482.532)" fill="#ccc"/>
      <path id="Trazado_18603" data-name="Trazado 18603" d="M1732.857,1458.279c2.13,3.689,1.888,7.815-.539,9.217s-6.122-.453-8.251-4.141-1.889-7.815.539-9.217S1730.728,1454.59,1732.857,1458.279Z" transform="translate(-280.95 -842.566)" fill="#3552ff"/>
      <path id="Trazado_18604" data-name="Trazado 18604" d="M2866.706,618.021a2.842,2.842,0,1,1-2.842-2.842A2.842,2.842,0,0,1,2866.706,618.021Z" transform="translate(-1150.483 -202.113)" fill="#3552ff"/>
      <path id="Trazado_18605" data-name="Trazado 18605" d="M1637.745,853.312a30.773,30.773,0,0,0-3.454.1c2.619,1.125,5.591,3.325,4.369,7.339a27.746,27.746,0,0,1-6.566,11.034l.947.348c.427.065.7.137.7.137s5.175-2.809,6.94-5.761a82.129,82.129,0,0,0,3.826-7.747s5.18,3.82,7.443,7.139c0,0,.708-7.3-1.581-9.287S1644.885,852.744,1637.745,853.312Z" transform="translate(-211.808 -383.925)" fill="#fff"/>
      <path id="Trazado_18606" data-name="Trazado 18606" d="M1623.829,979.366c.07-2.4.381-5.519-2.172-7.773a35.823,35.823,0,0,0-4.169-3.263,7.69,7.69,0,0,1-1.951-.079l-.172.154s5.945,3.626,5.53,8.757c-.586,7.246-5.856,9.514-8.549,9.434a1.885,1.885,0,0,0-.418.024c1.1-.061,2.265-.1,3.535-.126C1622.933,986.365,1623.759,981.765,1623.829,979.366Z" transform="translate(-196.404 -471.795)" fill="#fff"/>
      <path id="Trazado_18607" data-name="Trazado 18607" d="M1696.578,1002.232a16.1,16.1,0,0,1-1.812.718,6.952,6.952,0,0,1,.419,7.657l2.084.357s1.9-2.637,1.086-5.245A8.374,8.374,0,0,0,1696.578,1002.232Z" transform="translate(-259.678 -497.751)" fill="#fff"/>
      <path id="Trazado_18608" data-name="Trazado 18608" d="M2163.4,975.327c.9-2.909,4.5-4.7,7.68-5.749-.325,0-.648,0-.979.026-7.732.591-10.747,4.591-11.952,7.1s-.427,7.719,2,9.948l.3-5.559a10.324,10.324,0,0,0,7.062,2.122,23.515,23.515,0,0,0,9.031-2.712C2173.745,981.979,2161.7,980.8,2163.4,975.327Z" transform="translate(-613.19 -472.809)" fill="#fff"/>
      <path id="Trazado_18609" data-name="Trazado 18609" d="M2147.194,1106.977a5.766,5.766,0,0,1,2.662-4.436,8.149,8.149,0,0,1-.367-1.961,7.463,7.463,0,0,0-6.269,5.711,5.639,5.639,0,0,0,3.582,6.818l2.944-.381A6.317,6.317,0,0,1,2147.194,1106.977Z" transform="translate(-602.064 -572.87)" fill="#fff"/>
      <path id="Trazado_18610" data-name="Trazado 18610" d="M2809.855,1074.221l-3.5,5.137.419,6.142-5.54,18.345.18-12.24,2.944-6.564-.4-5.965,4.614-6.412Z" transform="translate(-1104.816 -551.547)" fill="#fff"/>
      <path id="Trazado_18611" data-name="Trazado 18611" d="M2839.843,912.516c1.821-1.174,4.429-9.834-.424-12.641,0,0,4.632-1.445,5,6.653C2844.738,913.421,2839.843,912.516,2839.843,912.516Z" transform="translate(-1133.982 -419.492)" fill="#ccc"/>
      <path id="Trazado_18612" data-name="Trazado 18612" d="M2796.357,912.947c1.821-1.174,4.686-9.674-.167-12.481,0,0,5.326-1.593,4.746,6.492C2800.451,913.708,2796.357,912.947,2796.357,912.947Z" transform="translate(-1100.963 -419.923)" fill="#ccc"/>
      <path id="Trazado_18613" data-name="Trazado 18613" d="M2795.274,958.133c-.259-2.6-.291-5.776-.291-5.776-.049.013-.094.019-.142.029a2.831,2.831,0,0,1-1.8-.06c-.071-.023-.139-.049-.2-.076a2.994,2.994,0,0,1-.612-.342c-.035-.024-.07-.042-.1-.067l-.264.176s.174,5.3.188,6.51a6.328,6.328,0,0,0,6.694,5.487c1.382-.024,2.691-.073,3.907-.158C2799.259,963.095,2795.726,962.663,2795.274,958.133Z" transform="translate(-1097.652 -459.262)" fill="#fff"/>
      <path id="Trazado_18614" data-name="Trazado 18614" d="M2780.078,842.289l.234-2.277s7.127.836,12.168-2.966c-1.36.267-10.958.153-10.6-7.031.229-4.648,3.378-6.157,5.8-6.629a8.612,8.612,0,0,0-6.477,1.644c-3.387,2.618-5.2,7.118-2.582,11.171l-.043.542s-2.293.259-2.413,3.657a5.3,5.3,0,0,0,2.456,4.808Z" transform="translate(-1085.664 -361.086)" fill="#fff"/>
      <g id="Grupo_9469" data-name="Grupo 9469" transform="translate(1393.869 468.831)">
        <path id="Trazado_18615" data-name="Trazado 18615" d="M1521.251,906.852a.427.427,0,0,1-.389-.254,8.719,8.719,0,0,1,.5-7.444c2.068-4.245,7-8.42,11.229-9.506a5.55,5.55,0,0,0,3.646-2.468,5.652,5.652,0,0,0,.468-3.944,198.662,198.662,0,0,0-3.515-19.969.423.423,0,0,1-.012-.129,10.351,10.351,0,0,1,4.817-8.371c6.963-4.685,20.05-3.741,23.866-2.322.174.014,6.342,1.021,5.04,12.424a.412.412,0,0,1-.471.374.425.425,0,0,1-.374-.471c1.2-10.532-4.175-11.473-4.405-11.508-3.053-1.127-16.052-2.586-23.181,2.208a9.537,9.537,0,0,0-4.44,7.65c.182.735,1.846,7.631,3.505,19.94a5.872,5.872,0,0,1-4.732,7.407c-3.521.9-8.476,4.538-10.677,9.055a7.9,7.9,0,0,0-.489,6.729.426.426,0,0,1-.219.561A.434.434,0,0,1,1521.251,906.852Z" transform="translate(-1520.246 -851.287)"/>
      </g>
      <g id="Grupo_9470" data-name="Grupo 9470" transform="translate(1395.289 558.448)">
        <path id="Trazado_18616" data-name="Trazado 18616" d="M1566.29,1251.843a.425.425,0,0,1-.271-.752c.011-.01,1.019-.847,1.707-1.546a71.62,71.62,0,0,0-6.01-9.795c-4.093-5.5-7.154-7.613-7.947-8.1-2.033,1.249-17.824,11.062-26.79,19.826a.425.425,0,0,1-.594-.609c9.616-9.4,26.984-19.97,27.159-20.075a.426.426,0,0,1,.418-.014c.142.074,3.547,1.9,8.436,8.469a72.466,72.466,0,0,1,6.224,10.2.424.424,0,0,1-.07.473,25.169,25.169,0,0,1-1.992,1.833A.423.423,0,0,1,1566.29,1251.843Z" transform="translate(-1526.257 -1230.724)"/>
      </g>
      <g id="Grupo_9471" data-name="Grupo 9471" transform="translate(1371.847 514.272)">
        <path id="Trazado_18617" data-name="Trazado 18617" d="M1449.366,1135.576a21.59,21.59,0,0,1-11.236-3.143,22.193,22.193,0,0,1-10.233-14.444c-4.227-17.815,7.526-43.145,15.137-55.3.353-.562.7-1.133,1.055-1.7a46.71,46.71,0,0,1,6.312-8.7c8.319-8.352,14.7-8.8,23.5-8.546a.426.426,0,0,1-.013.851c-8.841-.264-14.786.163-22.883,8.295a46.073,46.073,0,0,0-6.191,8.545q-.529.862-1.058,1.712c-7.541,12.044-19.193,37.111-15.031,54.653a21.379,21.379,0,0,0,9.848,13.915,20.976,20.976,0,0,0,18.214,1.685.425.425,0,0,1,.294.8A22.349,22.349,0,0,1,1449.366,1135.576Z" transform="translate(-1427.005 -1043.686)"/>
      </g>
      <g id="Grupo_9472" data-name="Grupo 9472" transform="translate(1432.803 511.998)">
        <path id="Trazado_18618" data-name="Trazado 18618" d="M1710.455,1052.049a.425.425,0,0,1-.36-.2c-5.925-9.387-16.043-16.356-24.608-16.946a.424.424,0,0,1-.395-.454.459.459,0,0,1,.453-.394c8.817.608,19.209,7.739,25.269,17.342a.426.426,0,0,1-.359.652Z" transform="translate(-1685.091 -1034.055)"/>
      </g>
      <g id="Grupo_9473" data-name="Grupo 9473" transform="translate(1426.938 482.16)">
        <path id="Trazado_18619" data-name="Trazado 18619" d="M1666.813,931.254c-.389,0-.8-.019-1.242-.055-1.334-.116-3.436-.36-4.971-.671a.425.425,0,1,1,.168-.833c1.4.283,3.461.534,4.876.655a8.675,8.675,0,0,0,3.427-.254,4.912,4.912,0,0,0,3.162-3.5c1.024-3.129.972-6.523.921-9.806l-.008-.468c-.027-1.78-.085-3.558-.143-5.337l-.086-2.725a.423.423,0,1,1,.815-.228.741.741,0,0,1,.036.218l.085,2.706c.058,1.784.116,3.569.145,5.353l.006.466c.054,3.354.107,6.82-.963,10.084a5.7,5.7,0,0,1-3.714,4.045A8.217,8.217,0,0,1,1666.813,931.254Z" transform="translate(-1660.257 -907.725)"/>
      </g>
      <g id="Grupo_9474" data-name="Grupo 9474" transform="translate(1421.512 474.302)">
        <path id="Trazado_18620" data-name="Trazado 18620" d="M1637.71,888.918a.426.426,0,0,1-.2-.8,20.182,20.182,0,0,0,10.4-13.309.426.426,0,0,1,.671-.273c.262.193,6.442,4.748,7.592,8.058a.426.426,0,1,1-.8.28c-.88-2.535-5.253-6.083-6.771-7.258a21.27,21.27,0,0,1-10.694,13.256A.423.423,0,0,1,1637.71,888.918Z" transform="translate(-1637.284 -874.451)"/>
      </g>
      <path id="Trazado_18621" data-name="Trazado 18621" d="M1667.274,928.761c.339-.054.567.092.665,1.315.109,1.364-.245,1.6-.551,1.592s-.613-.433-.6-1.407S1666.829,928.831,1667.274,928.761Z" transform="translate(-238.31 -441.625)"/>
      <path id="Trazado_18622" data-name="Trazado 18622" d="M1708.878,927.249c.338-.065.57.073.708,1.291.155,1.359-.19,1.611-.5,1.61s-.627-.412-.645-1.386S1708.435,927.334,1708.878,927.249Z" transform="translate(-270.122 -440.467)"/>
      <g id="Grupo_9475" data-name="Grupo 9475" transform="translate(1436.704 482.857)">
        <path id="Trazado_18623" data-name="Trazado 18623" d="M1704.907,912.146a.427.427,0,0,1-.278-.1,2.434,2.434,0,0,0-2.486-.366.422.422,0,0,1-.519-.3.426.426,0,0,1,.3-.518,3.265,3.265,0,0,1,3.257.545.426.426,0,0,1-.278.747Z" transform="translate(-1701.61 -910.676)"/>
      </g>
      <g id="Grupo_9476" data-name="Grupo 9476" transform="translate(1427.055 482.88)">
        <path id="Trazado_18624" data-name="Trazado 18624" d="M1661.179,912.492a.425.425,0,0,1-.276-.748,4.718,4.718,0,0,1,4.147-.8.424.424,0,0,1,.286.528.432.432,0,0,1-.528.287,3.934,3.934,0,0,0-3.352.63A.424.424,0,0,1,1661.179,912.492Z" transform="translate(-1660.754 -910.771)"/>
      </g>
      <g id="Grupo_9477" data-name="Grupo 9477" transform="translate(1415.066 487.432)">
        <path id="Trazado_18625" data-name="Trazado 18625" d="M1614.855,939.754c-.1,0-.207,0-.31-.009a4.854,4.854,0,1,1,3.267-8.692.425.425,0,0,1-.52.672,4,4,0,1,0-.6,6.732.425.425,0,1,1,.391.754A4.841,4.841,0,0,1,1614.855,939.754Z" transform="translate(-1609.994 -930.044)"/>
      </g>
      <g id="Grupo_9478" data-name="Grupo 9478" transform="translate(1418.209 489.358)">
        <path id="Trazado_18626" data-name="Trazado 18626" d="M1624.04,943.8a.426.426,0,0,1-.26-.762l2.545-1.965-2.85-2.11a.426.426,0,0,1,.506-.685l3.3,2.444a.426.426,0,0,1,.007.679l-2.991,2.309A.426.426,0,0,1,1624.04,943.8Z" transform="translate(-1623.303 -938.2)"/>
      </g>
      <g id="Grupo_9479" data-name="Grupo 9479" transform="translate(1421.274 504.94)">
        <path id="Trazado_18627" data-name="Trazado 18627" d="M1646.169,1021.74a.428.428,0,0,1-.26-.089l-9.466-7.332a.425.425,0,1,1,.52-.672l8.91,6.9,1.563-8.865.371-7.1a.426.426,0,0,1,.425-.4.432.432,0,0,1,.425.448l-.378,7.154-1.692,9.611a.424.424,0,0,1-.265.322A.4.4,0,0,1,1646.169,1021.74Z" transform="translate(-1636.278 -1004.175)"/>
      </g>
      <g id="Grupo_9480" data-name="Grupo 9480" transform="translate(1436.35 504.122)">
        <path id="Trazado_18628" data-name="Trazado 18628" d="M1701.516,1010.052a.431.431,0,0,1-.246-.078.426.426,0,0,1-.1-.594c2.815-3.968-.785-7.788-.938-7.948a.425.425,0,1,1,.611-.591c.043.044,4.249,4.483,1.02,9.032A.424.424,0,0,1,1701.516,1010.052Z" transform="translate(-1700.112 -1000.712)"/>
      </g>
      <g id="Grupo_9481" data-name="Grupo 9481" transform="translate(1417.982 496.11)">
        <path id="Trazado_18629" data-name="Trazado 18629" d="M1623.771,985.911a7.429,7.429,0,0,1-1.078-.068.426.426,0,0,1-.349-.49.431.431,0,0,1,.489-.349,7.3,7.3,0,0,0,8.392-6.093c1.626-7.21-5.811-11.287-5.886-11.326a.425.425,0,0,1,.4-.751c.081.044,8.084,4.417,6.315,12.266C1630.682,985.195,1625.928,985.911,1623.771,985.911Z" transform="translate(-1622.338 -966.786)"/>
      </g>
      <g id="Grupo_9482" data-name="Grupo 9482" transform="translate(1383.771 603.069)">
        <path id="Trazado_18630" data-name="Trazado 18630" d="M1478.044,1439.686a.426.426,0,0,1-.425-.406c-.283-5.87,0-19.081,0-19.214a.416.416,0,0,1,.434-.416.425.425,0,0,1,.415.435c0,.132-.283,13.315,0,19.155a.425.425,0,0,1-.4.445A.083.083,0,0,1,1478.044,1439.686Z" transform="translate(-1477.493 -1419.65)"/>
      </g>
      <g id="Grupo_9483" data-name="Grupo 9483" transform="translate(1400.885 536.901)">
        <path id="Trazado_18631" data-name="Trazado 18631" d="M1550.377,1176.924a.438.438,0,0,1-.191-.046.426.426,0,0,1-.189-.572c6.984-13.873,7.878-36.177,7.886-36.4a.425.425,0,1,1,.85.031c-.009.226-.909,22.714-7.976,36.752A.425.425,0,0,1,1550.377,1176.924Z" transform="translate(-1549.951 -1139.497)"/>
      </g>
      <g id="Grupo_9484" data-name="Grupo 9484" transform="translate(1434.645 486.702)">
        <path id="Trazado_18632" data-name="Trazado 18632" d="M1695.062,935.957a.426.426,0,0,1-.241-.776,4.965,4.965,0,0,0,1.722-2.393c.028-.212-.035-.284-.055-.31-.225-.251-1.042.1-1.481.287-.483.207-.8.341-1.082.207a.6.6,0,0,1-.269-.325c-.109-.4-.655-4.414-.762-5.213a.425.425,0,1,1,.842-.113c.208,1.53.536,3.885.68,4.77.085-.034.176-.074.254-.107.73-.316,1.835-.789,2.462-.061a1.2,1.2,0,0,1,.254.974,5.671,5.671,0,0,1-2.083,2.984A.43.43,0,0,1,1695.062,935.957Z" transform="translate(-1692.89 -926.952)"/>
      </g>
      <g id="Grupo_9485" data-name="Grupo 9485" transform="translate(1429.92 495.168)">
        <path id="Trazado_18633" data-name="Trazado 18633" d="M1676.115,966.481a2.989,2.989,0,0,1-1.742-.515,4.016,4.016,0,0,1-1.484-2.7.425.425,0,0,1,.847-.082,3.2,3.2,0,0,0,1.125,2.086,2.716,2.716,0,0,0,2.311.2.419.419,0,0,1,.522.3.424.424,0,0,1-.3.521A4.883,4.883,0,0,1,1676.115,966.481Z" transform="translate(-1672.887 -962.8)"/>
      </g>
      <g id="Grupo_9486" data-name="Grupo 9486" transform="translate(1551.912 524.456)">
        <path id="Trazado_18634" data-name="Trazado 18634" d="M2190.991,1090.481a4.851,4.851,0,0,1-1.283-.187.425.425,0,0,1,.226-.82,2.705,2.705,0,0,0,2.309-.2,3.2,3.2,0,0,0,1.126-2.086.424.424,0,0,1,.845.082,4.012,4.012,0,0,1-1.484,2.7A2.986,2.986,0,0,1,2190.991,1090.481Z" transform="translate(-2189.396 -1086.802)"/>
      </g>
      <g id="Grupo_9487" data-name="Grupo 9487" transform="translate(1424.068 468.963)">
        <path id="Trazado_18635" data-name="Trazado 18635" d="M1653.249,854.79a.427.427,0,0,1-.211-.056,23.294,23.294,0,0,0-4.6-2.048.425.425,0,1,1,.182-.831,23.617,23.617,0,0,1,4.837,2.141.425.425,0,0,1-.212.794Z" transform="translate(-1648.107 -851.846)"/>
      </g>
      <g id="Grupo_9488" data-name="Grupo 9488" transform="translate(1652.565 485.823)">
        <path id="Trazado_18636" data-name="Trazado 18636" d="M2625.277,951.036a.429.429,0,0,1-.426-.437c.044-1.769-.258-8.086-.261-8.149a.421.421,0,0,1,.021-.152l2.163-6.616c.119-.328.229-.643.335-.96.666-2,1.305-4.28.468-6.06a5.285,5.285,0,0,0-2.2-2.092,21.982,21.982,0,0,0-3.974-1.97,7.587,7.587,0,0,0-1.951-.506,2.687,2.687,0,0,0-3.008,2.061,3.493,3.493,0,0,0,.784,2.59,12.146,12.146,0,0,0,2.873,2.521,11.459,11.459,0,0,0,5.32,1.948.427.427,0,0,1,.385.463.419.419,0,0,1-.463.385,12.347,12.347,0,0,1-5.716-2.089,12.956,12.956,0,0,1-3.077-2.716,4.277,4.277,0,0,1-.944-3.239,3.526,3.526,0,0,1,3.922-2.772,8.384,8.384,0,0,1,2.174.559,22.753,22.753,0,0,1,4.128,2.045,5.96,5.96,0,0,1,2.521,2.45c.971,2.064.286,4.536-.43,6.69q-.163.488-.339.969l-2.133,6.528c.036.768.3,6.419.259,8.133A.426.426,0,0,1,2625.277,951.036Z" transform="translate(-2615.557 -923.232)"/>
      </g>
      <g id="Grupo_9489" data-name="Grupo 9489" transform="translate(1641.451 497.507)">
        <path id="Trazado_18637" data-name="Trazado 18637" d="M2571.037,988.622a.426.426,0,0,1-.424-.388l-.471-5.378a97.62,97.62,0,0,1-1.636-9.677.427.427,0,0,1,.372-.473.414.414,0,0,1,.473.372,97.327,97.327,0,0,0,1.63,9.643l.481,5.438a.426.426,0,0,1-.386.462Z" transform="translate(-2568.502 -972.702)"/>
      </g>
      <g id="Grupo_9490" data-name="Grupo 9490" transform="translate(1640.08 484.996)">
        <path id="Trazado_18638" data-name="Trazado 18638" d="M2566.8,934.026a3.569,3.569,0,0,1-2.622-1.068,3.275,3.275,0,0,1-.538-.793,5.025,5.025,0,0,1-.43-1.475,23.784,23.784,0,0,1-.3-7.722,4.314,4.314,0,0,1,1.3-2.444,3.382,3.382,0,0,1,3.658-.451,5.345,5.345,0,0,1,2.314,3.218,13.487,13.487,0,0,1,.429,1.789c.039.214.072.426.105.641a14.871,14.871,0,0,1,.107,4.422,4.942,4.942,0,0,1-1.582,3.03A3.8,3.8,0,0,1,2566.8,934.026Zm-2.4-2.234a2.455,2.455,0,0,0,.4.587,2.942,2.942,0,0,0,3.891.141,4.108,4.108,0,0,0,1.289-2.516,14.084,14.084,0,0,0-.11-4.159c-.03-.2-.063-.41-.1-.614a12.812,12.812,0,0,0-.4-1.679,4.666,4.666,0,0,0-1.883-2.719,2.549,2.549,0,0,0-2.719.332,3.463,3.463,0,0,0-1.022,1.963,23.021,23.021,0,0,0,.3,7.4,4.266,4.266,0,0,0,.356,1.26Z" transform="translate(-2562.697 -919.731)"/>
      </g>
      <g id="Grupo_9491" data-name="Grupo 9491" transform="translate(1653.501 473.234)">
        <path id="Trazado_18639" data-name="Trazado 18639" d="M2627.589,885.156a.424.424,0,0,1-.424-.408,47.56,47.56,0,0,0-1.629-11.623,4.454,4.454,0,0,0-.924-1.851c-.87-.889-2.047-.408-2.791.28-1.756,1.629-1.527,3.82-1.283,6.142l.05.493c.157,1.558.311,3.115.446,4.676a.425.425,0,0,1-.388.46.442.442,0,0,1-.46-.388c-.135-1.555-.286-3.108-.443-4.663l-.052-.49c-.253-2.427-.517-4.935,1.552-6.853,1.1-1.022,2.758-1.5,3.975-.252a5.193,5.193,0,0,1,1.131,2.2,48.271,48.271,0,0,1,1.663,11.835.422.422,0,0,1-.407.441A.059.059,0,0,1,2627.589,885.156Z" transform="translate(-2619.522 -869.933)"/>
      </g>
      <g id="Grupo_9492" data-name="Grupo 9492" transform="translate(1647.216 483.943)">
        <path id="Trazado_18640" data-name="Trazado 18640" d="M2598.132,929.489a4.973,4.973,0,0,1-2.633-.788,4.824,4.824,0,0,1-1.86-3.064c-.174-.79-.275-1.6-.372-2.389-.055-.444-.108-.888-.176-1.326a7.5,7.5,0,0,1,.219-4.1,4.141,4.141,0,0,1,4.825-2.377,3,3,0,0,1,2.306,2.639.423.423,0,0,1-.407.441.428.428,0,0,1-.441-.407,2.253,2.253,0,0,0-1.731-1.869,3.311,3.311,0,0,0-3.77,1.9,6.783,6.783,0,0,0-.162,3.641c.069.446.126.9.182,1.351.094.766.192,1.56.357,2.311a4.025,4.025,0,0,0,1.5,2.535,3.621,3.621,0,0,0,3.539.322c1.028-.558,1.572-1.778,1.573-3.531a.426.426,0,0,1,.852,0c0,2.634-1.1,3.781-2.02,4.279A3.725,3.725,0,0,1,2598.132,929.489Z" transform="translate(-2592.913 -915.273)"/>
      </g>
      <g id="Grupo_9493" data-name="Grupo 9493" transform="translate(1650.186 497.306)">
        <path id="Trazado_18641" data-name="Trazado 18641" d="M2605.961,978.9a.425.425,0,0,1-.423-.382,9.579,9.579,0,0,1,1.7-6.509.425.425,0,0,1,.669.524,8.89,8.89,0,0,0-1.522,5.9.424.424,0,0,1-.378.467Z" transform="translate(-2605.487 -971.851)"/>
      </g>
      <g id="Grupo_9494" data-name="Grupo 9494" transform="translate(1504.928 431.789)">
        <path id="Trazado_18642" data-name="Trazado 18642" d="M2007.258,741.608h-4.6a.427.427,0,0,1-.426-.426V736.5c-6.462-.826-10.309-4.232-11.757-10.4a.427.427,0,0,1,.316-.511L1998,723.85a.428.428,0,0,1,.5.26l.187.475c.124.314.245.616.35.92a6.029,6.029,0,0,0,3.173,3.519,6.834,6.834,0,0,0,5.354.143,3.515,3.515,0,0,0,2.416-3.249,2.767,2.767,0,0,0-1.836-2.947c-1.4-.589-2.856-1.124-4.266-1.641q-.848-.311-1.695-.626c-.364-.137-.734-.267-1.1-.4-.69-.244-1.4-.5-2.088-.789-5.367-2.3-7.745-6.162-7.068-11.481.658-5.169,3.919-8.362,9.693-9.491.135-.027.267-.065.435-.113.028-.008.028-3.557.028-3.557a.426.426,0,0,1,.426-.425h4.541a.425.425,0,0,1,.426.413l.094,3.471a26.246,26.246,0,0,1,3.339.982c3.616,1.265,5.917,3.716,7.242,7.715a.425.425,0,0,1-.253.531L2011.52,710a.425.425,0,0,1-.5-.159c-.255-.376-.495-.752-.731-1.124a18.14,18.14,0,0,0-1.556-2.2,4.722,4.722,0,0,0-4.951-1.343,3.235,3.235,0,0,0-2.612,2.7,2.683,2.683,0,0,0,1.688,3.254c1.194.523,2.444,1,3.652,1.458.484.184.967.368,1.45.556s.972.369,1.459.55c.946.351,1.924.714,2.864,1.129,5.548,2.453,7.759,6.273,6.957,12.022-.661,4.755-4.508,8.334-10.038,9.34-.388.07-.773.155-1.2.249l-.316.068v4.693A.427.427,0,0,1,2007.258,741.608Zm-4.17-.851h3.745v-4.61a.425.425,0,0,1,.338-.415l.647-.141c.435-.1.831-.183,1.23-.255,5.234-.952,8.729-4.175,9.348-8.621.741-5.314-1.31-8.85-6.459-11.126-.916-.405-1.882-.763-2.815-1.11-.492-.182-.985-.365-1.472-.555s-.962-.369-1.443-.553c-1.219-.463-2.477-.942-3.693-1.473a3.525,3.525,0,0,1-2.185-4.178,4.081,4.081,0,0,1,3.245-3.378,5.537,5.537,0,0,1,5.8,1.609,18.715,18.715,0,0,1,1.634,2.307c.173.272.347.548.529.824l5.677-2.164a10.3,10.3,0,0,0-6.583-6.8,19.816,19.816,0,0,0-3.523-1,.428.428,0,0,1-.379-.411l-.091-3.405h-3.7v3.446a.426.426,0,0,1-.316.411l-.33.093c-.195.056-.349.1-.506.13-5.374,1.051-8.406,4-9.014,8.764-.622,4.9,1.585,8.461,6.562,10.592.66.283,1.359.53,2.034.769.374.132.746.264,1.117.4q.844.316,1.69.624c1.418.52,2.887,1.059,4.3,1.655a3.642,3.642,0,0,1,2.355,3.8,4.362,4.362,0,0,1-2.962,3.979,7.659,7.659,0,0,1-6.018-.168,6.874,6.874,0,0,1-3.616-4.012c-.1-.292-.217-.582-.336-.883l-.053-.137-6.432,1.552c1.458,5.634,5.158,8.706,11.3,9.386a.425.425,0,0,1,.378.423Z" transform="translate(-1990.469 -694.452)"/>
      </g>
      <g id="Grupo_9503" data-name="Grupo 9503" transform="translate(1527.3 593.119)">
        <g id="Grupo_9498" data-name="Grupo 9498" transform="translate(0)">
          <g id="Grupo_9495" data-name="Grupo 9495" transform="translate(8.858 1.809)">
            <path id="Trazado_18643" data-name="Trazado 18643" d="M2123.12,1399.6a.426.426,0,0,1-.3-.726l13.552-13.571a.428.428,0,0,1,.3-.126.423.423,0,0,1,.3.126l3.717,3.71a.423.423,0,0,1,0,.6l-9.3,9.307a.424.424,0,0,1-.6-.6l8.994-9.006-3.115-3.11-13.254,13.27A.421.421,0,0,1,2123.12,1399.6Z" transform="translate(-2122.695 -1385.182)"/>
          </g>
          <g id="Grupo_9496" data-name="Grupo 9496" transform="translate(22.408)">
            <path id="Trazado_18644" data-name="Trazado 18644" d="M2184.208,1383.895a.426.426,0,0,1-.3-.726l1.508-1.511-3.115-3.11-1.508,1.511a.425.425,0,1,1-.6-.6l1.809-1.813a.425.425,0,0,1,.6,0l3.716,3.713a.421.421,0,0,1,0,.6l-1.809,1.811A.422.422,0,0,1,2184.208,1383.895Z" transform="translate(-2180.067 -1377.521)"/>
          </g>
          <g id="Grupo_9497" data-name="Grupo 9497" transform="translate(0 21.45)">
            <path id="Trazado_18645" data-name="Trazado 18645" d="M2085.616,1475.705a.426.426,0,0,1-.4-.575l2.431-6.517a.426.426,0,1,1,.8.3l-2.106,5.642,5.056-1.893a.425.425,0,0,1,.3.795l-5.93,2.221A.41.41,0,0,1,2085.616,1475.705Z" transform="translate(-2085.191 -1468.338)"/>
          </g>
        </g>
        <g id="Grupo_9499" data-name="Grupo 9499" transform="translate(1.72 13.76)">
          <path id="Trazado_18646" data-name="Trazado 18646" d="M2100.577,1445.66c-3.394,0-5.3-.762-6.3-1.407a3.623,3.623,0,0,1-1.758-2.394c-.518-3.05,3.779-4.1,3.963-4.144a.258.258,0,0,1,.108-.013c.112.008,11.406.277,15.215-1.866a.426.426,0,1,1,.418.741c-3.911,2.2-14.6,2-15.6,1.976-.441.118-3.63,1.043-3.27,3.163a2.8,2.8,0,0,0,1.377,1.82c1.3.831,5.408,2.477,15.544-.229a.415.415,0,0,1,.52.3.424.424,0,0,1-.3.52A38.957,38.957,0,0,1,2100.577,1445.66Z" transform="translate(-2092.475 -1435.781)"/>
        </g>
        <g id="Grupo_9500" data-name="Grupo 9500" transform="translate(2.655 20.916)">
          <path id="Trazado_18647" data-name="Trazado 18647" d="M2109.316,1473.427c-3.578,0-8.042-.495-10.673-2.626a5.765,5.765,0,0,1-2.21-4.272.425.425,0,0,1,.4-.451.41.41,0,0,1,.451.4,4.945,4.945,0,0,0,1.9,3.666c4.517,3.66,15.421,2.092,15.53,2.075a.421.421,0,0,1,.484.358.426.426,0,0,1-.358.484A41.312,41.312,0,0,1,2109.316,1473.427Z" transform="translate(-2096.433 -1466.077)"/>
        </g>
        <g id="Grupo_9501" data-name="Grupo 9501" transform="translate(4.619 6.67)">
          <path id="Trazado_18648" data-name="Trazado 18648" d="M2105.175,1415.875a.426.426,0,0,1-.36-.652c.121-.193,3-4.734,5.5-6.555s7.054-2.849,7.246-2.892a.416.416,0,0,1,.508.322.423.423,0,0,1-.322.507c-.045.011-4.564,1.03-6.931,2.75s-5.251,6.273-5.279,6.319A.423.423,0,0,1,2105.175,1415.875Z" transform="translate(-2104.75 -1405.764)"/>
        </g>
        <g id="Grupo_9502" data-name="Grupo 9502" transform="translate(7.325 26.305)">
          <path id="Trazado_18649" data-name="Trazado 18649" d="M2131.8,1494.688c-5.171,0-10.982-1.118-15.457-5.048a.425.425,0,0,1-.038-.6.419.419,0,0,1,.6-.037c9.974,8.758,27.018,2.979,27.189,2.918a.422.422,0,0,1,.542.262.426.426,0,0,1-.262.542A43.24,43.24,0,0,1,2131.8,1494.688Z" transform="translate(-2116.203 -1488.894)"/>
        </g>
      </g>
      <g id="Grupo_9505" data-name="Grupo 9505" transform="translate(1678.527 580.238)">
        <g id="Grupo_9504" data-name="Grupo 9504" transform="translate(0 0)">
          <path id="Trazado_18650" data-name="Trazado 18650" d="M2730.446,1336.854a5.311,5.311,0,0,1-3.916-1.745,3.023,3.023,0,0,1-1.041-2.373c.143-1.665,1.987-3.013,4.323-4.72a35.124,35.124,0,0,0,4.346-3.555c2.62-2.651,6.789-1.183,10.469.113a24.929,24.929,0,0,1,7.448,4.123.425.425,0,1,1-.556.644,24.518,24.518,0,0,0-7.175-3.966c-4.3-1.512-7.5-2.422-9.58-.317a35.892,35.892,0,0,1-4.45,3.644c-2.077,1.517-3.869,2.826-3.977,4.106a2.244,2.244,0,0,0,.8,1.71,4.5,4.5,0,0,0,3.575,1.478c4.278-.237,8.771-5.972,8.815-6.03a.425.425,0,0,1,.672.521c-.193.248-4.778,6.1-9.44,6.357C2730.655,1336.851,2730.55,1336.854,2730.446,1336.854Z" transform="translate(-2725.481 -1322.982)"/>
        </g>
      </g>
      <g id="Grupo_9506" data-name="Grupo 9506" transform="translate(1725.154 533.527)">
        <path id="Trazado_18651" data-name="Trazado 18651" d="M2932.83,1168.489a.427.427,0,0,1-.424-.39c-1.381-16.032-9.406-42.076-9.487-42.337a.426.426,0,1,1,.814-.251c.08.262,8.132,26.391,9.521,42.516a.427.427,0,0,1-.388.46Z" transform="translate(-2922.899 -1125.212)"/>
      </g>
      <g id="Grupo_9507" data-name="Grupo 9507" transform="translate(1699.705 575.956)">
        <path id="Trazado_18652" data-name="Trazado 18652" d="M2815.572,1312.358a.425.425,0,0,1-.111-.836c.173-.047,17.557-4.693,43.25-6.671a.438.438,0,0,1,.457.391.426.426,0,0,1-.391.457c-25.614,1.97-42.921,6.6-43.093,6.642A.394.394,0,0,1,2815.572,1312.358Z" transform="translate(-2815.147 -1304.852)"/>
      </g>
      <g id="Grupo_9508" data-name="Grupo 9508" transform="translate(1712.381 511.609)">
        <path id="Trazado_18653" data-name="Trazado 18653" d="M2869.612,1126.074h-.369a.426.426,0,0,1,0-.851l.368,0c28.942,0,43.93-6.376,47.847-8.336a13.512,13.512,0,0,0,6.965-8.223c3.344-10.282-1.357-27.849-13.973-52.217-.242-.465-.505-1.005-.8-1.6-2.05-4.183-5.48-11.18-12.234-16-5.341-3.809-11.426-5.582-19.147-5.582a.426.426,0,1,1,0-.851c7.907,0,14.149,1.825,19.64,5.743,6.93,4.942,10.419,12.062,12.5,16.315.291.594.551,1.128.79,1.59,12.724,24.575,17.444,42.364,14.028,52.869a14.332,14.332,0,0,1-7.393,8.721C2913.881,1119.631,2898.735,1126.074,2869.612,1126.074Z" transform="translate(-2868.819 -1032.412)"/>
      </g>
      <g id="Grupo_9509" data-name="Grupo 9509" transform="translate(1667.548 511.56)">
        <path id="Trazado_18654" data-name="Trazado 18654" d="M2679.422,1057.71a.426.426,0,0,1-.4-.583c7.844-19.733,18.12-22.758,18.553-22.877a52.2,52.2,0,0,1,10.434-2.045.435.435,0,0,1,.457.391.427.427,0,0,1-.391.457,51.2,51.2,0,0,0-10.257,2.01c-.119.035-10.339,3.087-18.005,22.378A.428.428,0,0,1,2679.422,1057.71Z" transform="translate(-2678.996 -1032.204)"/>
      </g>
      <path id="Trazado_18655" data-name="Trazado 18655" d="M2217.4,1048.513c-.341-.047-.565.1-.637,1.328-.08,1.365.278,1.6.583,1.58s.6-.446.568-1.419S2217.845,1048.573,2217.4,1048.513Z" transform="translate(-658.378 -533.095)"/>
      <g id="Grupo_9510" data-name="Grupo 9510" transform="translate(1565.31 515.045)">
        <path id="Trazado_18656" data-name="Trazado 18656" d="M2249.146,1056.668a4.853,4.853,0,0,1-2.361-.613.425.425,0,1,1,.414-.741,4.006,4.006,0,0,0,4.684-6.426,4.1,4.1,0,0,0-2.87-1.079,4,4,0,0,0-2.215.758.425.425,0,1,1-.5-.688,4.855,4.855,0,1,1,3.01,8.785C2249.254,1056.668,2249.2,1056.668,2249.146,1056.668Z" transform="translate(-2246.124 -1046.956)"/>
      </g>
      <g id="Grupo_9511" data-name="Grupo 9511" transform="translate(1565.895 517.009)">
        <path id="Trazado_18657" data-name="Trazado 18657" d="M2251.947,1060.868a.421.421,0,0,1-.27-.1l-2.922-2.4a.425.425,0,0,1-.154-.346.419.419,0,0,1,.182-.331l3.374-2.345a.424.424,0,0,1,.484.7l-2.912,2.025,2.488,2.04a.426.426,0,0,1-.27.754Z" transform="translate(-2248.601 -1055.274)"/>
      </g>
      <g id="Grupo_9512" data-name="Grupo 9512" transform="translate(1552.561 523.907)">
        <path id="Trazado_18658" data-name="Trazado 18658" d="M2194.858,1110.982a3.319,3.319,0,0,1-.917-.121,2.468,2.468,0,0,1-1.794-2.507,22.636,22.636,0,0,1,1.194-6.363l.228-.795-.374-7.082a.424.424,0,0,1,.4-.446.406.406,0,0,1,.446.4l.379,7.153a.383.383,0,0,1-.016.138l-.248.865a21.988,21.988,0,0,0-1.159,6.12,1.637,1.637,0,0,0,1.175,1.7,3.691,3.691,0,0,0,1.992-.119c3.077-.84,5.818-2.978,8.629-6.729.146-.195.311-.4.485-.617.726-.906,1.627-2.033,1.63-3.033V1084.9a.426.426,0,0,1,.852,0v14.644c-.005,1.3-1.01,2.554-1.819,3.562-.166.209-.327.409-.466.6-2.933,3.911-5.82,6.148-9.087,7.04A5.82,5.82,0,0,1,2194.858,1110.982Z" transform="translate(-2192.146 -1084.478)"/>
      </g>
      <g id="Grupo_9513" data-name="Grupo 9513" transform="translate(1715.729 494.388)">
        <path id="Trazado_18659" data-name="Trazado 18659" d="M2884.037,972.589a.426.426,0,0,1-.424-.4L2883,959.943a.423.423,0,0,1,.4-.446.429.429,0,0,1,.446.4l.617,12.242a.423.423,0,0,1-.4.446A.107.107,0,0,1,2884.037,972.589Z" transform="translate(-2882.995 -959.497)"/>
      </g>
      <g id="Grupo_9514" data-name="Grupo 9514" transform="translate(1693.966 478.888)">
        <path id="Trazado_18660" data-name="Trazado 18660" d="M2791.275,896.61a.429.429,0,0,1-.426-.435l.045-1.891a.407.407,0,0,1,.437-.415.427.427,0,0,1,.415.437l-.045,1.888A.426.426,0,0,1,2791.275,896.61Z" transform="translate(-2790.85 -893.868)"/>
      </g>
      <g id="Grupo_9515" data-name="Grupo 9515" transform="translate(1693.772 484.594)">
        <path id="Trazado_18661" data-name="Trazado 18661" d="M2797.681,938.635c-2.276,0-4.645-.272-6.112-2.507-1.5-2.29-1.511-5.274-1.519-7.907,0-.578,0-1.143-.022-1.69-.008-.247.033-.888.033-.888l.848.053s-.038.583-.03.807c.016.555.019,1.128.021,1.714.008,2.637.017,5.364,1.379,7.444,1.45,2.207,4,2.166,6.489,2.108.316-.006.63-.013.939-.014a24.71,24.71,0,0,0,5.383-.533c1.45-.328,2.95-.667,3.8-1.921a9.315,9.315,0,0,0,1.2-4.707c.044-.949-.192-8.889-.195-8.969a4.261,4.261,0,0,1,1.131-2.336,5.557,5.557,0,1,1,.148,8.706.426.426,0,1,1,.518-.675,4.708,4.708,0,1,0-.126-7.375,3.484,3.484,0,0,0-.828,1.744c.017.239.247,7.962.2,8.945a10.052,10.052,0,0,1-1.342,5.144c-1.035,1.53-2.778,1.924-4.314,2.273a25.518,25.518,0,0,1-5.567.555c-.3,0-.614.006-.927.013C2798.422,938.627,2798.053,938.635,2797.681,938.635Z" transform="translate(-2790.028 -918.027)"/>
      </g>
      <g id="Grupo_9516" data-name="Grupo 9516" transform="translate(1699.884 504.328)">
        <path id="Trazado_18662" data-name="Trazado 18662" d="M2816.333,1004.652a.427.427,0,0,1-.426-.426v-2.219a.426.426,0,0,1,.851,0v2.219A.427.427,0,0,1,2816.333,1004.652Z" transform="translate(-2815.908 -1001.581)"/>
      </g>
      <g id="Grupo_9517" data-name="Grupo 9517" transform="translate(1690.246 461.695)">
        <path id="Trazado_18663" data-name="Trazado 18663" d="M2806.8,846.047a.425.425,0,0,1-.156-.821c-.009,0,1.288-.9,2.058-7.73.479-4.241-2.073-6.628-3.9-7.2a23.143,23.143,0,0,0-8.021-.593.414.414,0,0,1-.429-.231c-2.408-4.762-5.522-6.528-7.712-7.17a9.143,9.143,0,0,0-7.274.91,8.485,8.485,0,0,0-4.281,5.18,9.352,9.352,0,0,0,1.046,6.421.425.425,0,0,1-.531.612c-.479-.21-.868.273-1.06.577a5.782,5.782,0,0,0,1.541,7.005.425.425,0,1,1-.559.641,6.666,6.666,0,0,1-1.7-8.1,2.088,2.088,0,0,1,1.217-.988,9.817,9.817,0,0,1-.779-6.372,9.286,9.286,0,0,1,4.675-5.706,9.97,9.97,0,0,1,7.945-.994c2.309.677,5.57,2.5,8.1,7.342a23.087,23.087,0,0,1,8.075.655c2.6.809,4.976,3.853,4.5,8.107-.833,7.379-2.306,8.312-2.592,8.425A.419.419,0,0,1,2806.8,846.047Z" transform="translate(-2775.101 -821.076)"/>
      </g>
      <g id="Grupo_9518" data-name="Grupo 9518" transform="translate(1697.65 483.438)">
        <path id="Trazado_18664" data-name="Trazado 18664" d="M2810.338,923.906c-.28,0-2.749-.027-3.581-.916a1.084,1.084,0,0,1-.306-.826,6.166,6.166,0,0,1,.649-1.906,20.224,20.224,0,0,0,1.866-6.745.432.432,0,0,1,.465-.38.424.424,0,0,1,.38.465,20.92,20.92,0,0,1-1.935,7.005,5.979,5.979,0,0,0-.577,1.616.236.236,0,0,0,.079.188c.418.446,1.982.646,2.961.646a.426.426,0,0,1,0,.851Z" transform="translate(-2806.448 -913.133)"/>
      </g>
      <g id="Grupo_9520" data-name="Grupo 9520" transform="translate(1700.661 493.01)">
        <g id="Grupo_9519" data-name="Grupo 9519" transform="translate(0 0)">
          <path id="Trazado_18665" data-name="Trazado 18665" d="M2823.1,960.958a4.772,4.772,0,0,1-2.009-.443,3.124,3.124,0,0,1-1.848-1.907A1.654,1.654,0,0,1,2819.7,957a2.4,2.4,0,0,1,2.274-.44c1.112.3,1.223.234,1.479.1s.367-.2.726-1.291a2.4,2.4,0,0,1,1.615-1.662,1.645,1.645,0,0,1,1.594.5,2.974,2.974,0,0,1,.513,2.485,4.816,4.816,0,0,1-4.8,4.261Zm-1.9-3.65a1.336,1.336,0,0,0-.919.309.811.811,0,0,0-.207.812,2.359,2.359,0,0,0,1.373,1.315,3.988,3.988,0,0,0,3.593-.135,4.106,4.106,0,0,0,2.018-3.038,2.245,2.245,0,0,0-.28-1.762.811.811,0,0,0-.793-.272,1.582,1.582,0,0,0-1,1.1c-.422,1.291-.646,1.513-1.129,1.775s-.793.328-2.1-.028A2.107,2.107,0,0,0,2821.2,957.308Z" transform="translate(-2819.196 -953.663)"/>
        </g>
      </g>
      <g id="Grupo_9521" data-name="Grupo 9521" transform="translate(1705.474 494.098)">
        <path id="Trazado_18666" data-name="Trazado 18666" d="M2840.269,964.177a.425.425,0,0,1-.4-.272c-1.178-3.041,1.425-5,2.967-5.6a.426.426,0,0,1,.313.792c-.151.06-3.653,1.494-2.488,4.5a.424.424,0,0,1-.242.55A.406.406,0,0,1,2840.269,964.177Z" transform="translate(-2839.576 -958.27)"/>
      </g>
      <g id="Grupo_9522" data-name="Grupo 9522" transform="translate(1715.507 486.716)">
        <path id="Trazado_18667" data-name="Trazado 18667" d="M2886.469,933.542a.423.423,0,0,1-.188-.044l-3.988-1.974a.428.428,0,0,1-.231-.311.424.424,0,0,1,.116-.367l3.625-3.7a.424.424,0,0,1,.606.594l-3.215,3.286,3.464,1.714a.426.426,0,0,1-.189.808Z" transform="translate(-2882.056 -927.013)"/>
      </g>
      <g id="Grupo_9523" data-name="Grupo 9523" transform="translate(1709.364 469.476)">
        <path id="Trazado_18668" data-name="Trazado 18668" d="M2856.47,857.462a.425.425,0,0,1-.332-.691l2.086-2.591a.425.425,0,1,1,.663.532L2856.8,857.3A.426.426,0,0,1,2856.47,857.462Z" transform="translate(-2856.044 -854.021)"/>
      </g>
      <g id="Grupo_9524" data-name="Grupo 9524" transform="translate(1703.123 491.991)">
        <path id="Trazado_18669" data-name="Trazado 18669" d="M2830.044,950.877a.426.426,0,0,1-.288-.738,3.356,3.356,0,0,1,1.436-.771.425.425,0,0,1,.264.807,2.561,2.561,0,0,0-1.125.589A.424.424,0,0,1,2830.044,950.877Z" transform="translate(-2829.619 -949.346)"/>
      </g>
      <g id="Grupo_9525" data-name="Grupo 9525" transform="translate(1692.531 474.691)">
        <path id="Trazado_18670" data-name="Trazado 18670" d="M2801.775,893.406a.426.426,0,0,1-.052-.848c.217-.027,1.5-.253,2.125-.363l.2-5.81a16.51,16.51,0,0,1-4.075-9.039,18.289,18.289,0,0,1-14.868,3.015.426.426,0,0,1-.317-.511.42.42,0,0,1,.512-.317,17.353,17.353,0,0,0,14.743-3.324.426.426,0,0,1,.711.3,15.931,15.931,0,0,0,4.032,9.42.424.424,0,0,1,.116.308l-.217,6.33a.422.422,0,0,1-.35.4s-2.213.394-2.509.432C2801.81,893.4,2801.793,893.406,2801.775,893.406Z" transform="translate(-2784.777 -876.1)"/>
      </g>
      <g id="Grupo_9526" data-name="Grupo 9526" transform="translate(1696.463 506.406)">
        <path id="Trazado_18671" data-name="Trazado 18671" d="M2816.745,1038.352a.424.424,0,0,1-.364-.207l-7.5-12.552-6.68,9.277a.434.434,0,0,1-.476.157.427.427,0,0,1-.3-.405v-18.613a.432.432,0,0,1,.074-.239l3.421-5.063a.442.442,0,0,1,.423-.181.428.428,0,0,1,.341.311l3.442,13.126,12.5-13.448a.425.425,0,0,1,.311-.137.431.431,0,0,1,.311.135l4.854,5.2a.425.425,0,0,1,.075.468l-10.048,21.918a.424.424,0,0,1-.363.247A.113.113,0,0,1,2816.745,1038.352Zm-7.307-13.477,7.257,12.14,9.593-20.925-4.348-4.662Zm-7.163-8.737V1033.3l6.171-8.57-3.349-12.771Z" transform="translate(-2801.424 -1010.379)"/>
      </g>
      <g id="Grupo_9527" data-name="Grupo 9527" transform="translate(1695.788 529.396)">
        <path id="Trazado_18672" data-name="Trazado 18672" d="M2799.8,1156.142a.433.433,0,0,1-.421-.369c-.365-2.741-.8-29.964-.815-31.122a117.362,117.362,0,0,1,1.28-16.582.425.425,0,1,1,.835.154,116.8,116.8,0,0,0-1.264,16.431c0,.229.333,21.018.653,28.537,2.359-8.363,10.225-35.959,13.15-42.674a.425.425,0,0,1,.779.339c-3.418,7.847-13.686,44.6-13.788,44.974A.427.427,0,0,1,2799.8,1156.142Z" transform="translate(-2798.564 -1107.722)"/>
      </g>
      <g id="Grupo_9528" data-name="Grupo 9528" transform="translate(1698.938 526.789)">
        <path id="Trazado_18673" data-name="Trazado 18673" d="M2817.671,1104.272l-4.88-.463a.425.425,0,0,1-.383-.388l-.507-6.28a.425.425,0,0,1,.389-.458.419.419,0,0,1,.459.389l.478,5.925,4.242.4,3.724-5.164a.425.425,0,1,1,.691.5l-3.867,5.363A.43.43,0,0,1,2817.671,1104.272Z" transform="translate(-2811.899 -1096.682)"/>
      </g>
      <g id="Grupo_9529" data-name="Grupo 9529" transform="translate(1695.993 533.068)">
        <path id="Trazado_18674" data-name="Trazado 18674" d="M2799.855,1131.041a.412.412,0,0,1-.19-.046.424.424,0,0,1-.19-.57l3.452-6.925a.425.425,0,0,1,.76.38l-3.453,6.925A.424.424,0,0,1,2799.855,1131.041Z" transform="translate(-2799.43 -1123.265)"/>
      </g>
      <g id="Grupo_9533" data-name="Grupo 9533" transform="translate(1457.741 527.285)">
        <g id="Grupo_9530" data-name="Grupo 9530" transform="translate(0 0)">
          <path id="Trazado_18675" data-name="Trazado 18675" d="M1801.9,1122.227c-.163,0-.328,0-.493-.011a12.106,12.106,0,0,1-8.539-4.406c-.878-1.013-2.346-2.708-2.177-4.56a3.629,3.629,0,0,1,1.467-2.452,3.45,3.45,0,0,1,2.666-.743.423.423,0,0,1,.344.492.415.415,0,0,1-.492.344,2.628,2.628,0,0,0-2,.583,2.774,2.774,0,0,0-1.134,1.855c-.127,1.376.9,2.694,1.971,3.925a11.267,11.267,0,0,0,7.935,4.112,10.773,10.773,0,0,0,8.081-3.3c4.792-4.6,6.456-9.4,4.808-13.885-1.439-3.921-2.259-4.6-2.293-4.626a.432.432,0,0,1-.088-.587.416.416,0,0,1,.57-.112c.168.11,1.082.869,2.609,5.033,1.236,3.365,1.37,8.661-5.018,14.79A11.8,11.8,0,0,1,1801.9,1122.227Z" transform="translate(-1790.68 -1098.783)"/>
        </g>
        <g id="Grupo_9531" data-name="Grupo 9531" transform="translate(7.587 1.885)">
          <path id="Trazado_18676" data-name="Trazado 18676" d="M1832.05,1118.822a.422.422,0,0,1-.222-.063,54.5,54.5,0,0,1-7.272-5.1l-.207-.219c-.664-.69-1.67-1.731-1.532-2.912a4.25,4.25,0,0,1,1.929-3.178,4.46,4.46,0,0,1,3.223-.484,5.244,5.244,0,0,1,2.555,1.521c.165.148.332.3.5.438a46.761,46.761,0,0,0,3.743,2.887.425.425,0,1,1-.468.71,46.351,46.351,0,0,1-3.822-2.947c-.176-.148-.349-.3-.52-.455a4.549,4.549,0,0,0-2.139-1.318,3.663,3.663,0,0,0-2.626.37,3.414,3.414,0,0,0-1.53,2.554c-.091.781.745,1.649,1.3,2.223l.218.228a55.083,55.083,0,0,0,7.094,4.96.425.425,0,0,1-.221.788Z" transform="translate(-1822.804 -1106.764)"/>
        </g>
        <g id="Grupo_9532" data-name="Grupo 9532" transform="translate(3.213 6.055)">
          <path id="Trazado_18677" data-name="Trazado 18677" d="M1813.764,1137.7a.417.417,0,0,1-.231-.069,51.794,51.794,0,0,1-7.66-5.864c-1.554-1.52-2.38-4.041-.53-5.983a5.041,5.041,0,0,1,3.894-1.351.427.427,0,0,1,.391.457.458.458,0,0,1-.457.391,4.234,4.234,0,0,0-3.212,1.09c-1.453,1.524-.755,3.55.507,4.789a51.152,51.152,0,0,0,7.529,5.756.426.426,0,0,1-.231.782Z" transform="translate(-1804.283 -1124.418)"/>
        </g>
      </g>
      <g id="Grupo_9534" data-name="Grupo 9534" transform="translate(1499.794 538.551)">
        <path id="Trazado_18678" data-name="Trazado 18678" d="M1969.155,1214.442a.426.426,0,0,1-.2-.8c10-5.462,12.007-14.729,14.135-24.539a78.77,78.77,0,0,1,3.542-12.8c7.409-18.39,21.137-27.354,28.05-28.686a52.644,52.644,0,0,1,8.571-1.142.426.426,0,0,1,.019.851,51.762,51.762,0,0,0-8.43,1.126c-6.737,1.3-20.138,10.092-27.422,28.168a78.119,78.119,0,0,0-3.5,12.659c-2.171,10.005-4.222,19.456-14.557,25.106A.435.435,0,0,1,1969.155,1214.442Z" transform="translate(-1968.729 -1146.48)"/>
      </g>
      <g id="Grupo_9535" data-name="Grupo 9535" transform="translate(1529.503 561.406)">
        <path id="Trazado_18679" data-name="Trazado 18679" d="M2096.85,1291.743a.426.426,0,0,1-.417-.345c-5.174-27.056,1.764-47.659,1.834-47.863a.429.429,0,0,1,.54-.264.424.424,0,0,1,.264.54c-.071.2-6.933,20.606-1.8,47.426a.425.425,0,0,1-.338.5A.459.459,0,0,1,2096.85,1291.743Z" transform="translate(-2094.517 -1243.248)"/>
      </g>
      <g id="Grupo_9536" data-name="Grupo 9536" transform="translate(1555.234 599.596)">
        <path id="Trazado_18680" data-name="Trazado 18680" d="M2250.39,1419.756a.422.422,0,0,1-.28-.105c-13.587-11.876-45.92-13.835-46.245-13.854a.423.423,0,0,1-.4-.448.418.418,0,0,1,.448-.4c.328.019,32.954,2,46.757,14.061a.426.426,0,0,1-.279.746Z" transform="translate(-2203.464 -1404.945)"/>
      </g>
      <g id="Grupo_9537" data-name="Grupo 9537" transform="translate(1567.501 538.47)">
        <path id="Trazado_18681" data-name="Trazado 18681" d="M2299.922,1230.444a.414.414,0,0,1-.195-.049.423.423,0,0,1-.182-.572c8.883-17.179,1.029-46.434-8.056-60.947a86.389,86.389,0,0,0-7.271-10.279c-6.055-7.1-15.88-11.113-28.413-11.608a.425.425,0,0,1,.017-.85c12.792.506,22.829,4.621,29.043,11.9a87.48,87.48,0,0,1,7.343,10.379c9.194,14.686,17.121,44.329,8.091,61.789A.424.424,0,0,1,2299.922,1230.444Z" transform="translate(-2255.399 -1146.14)"/>
      </g>
      <g id="Grupo_9538" data-name="Grupo 9538" transform="translate(1546.557 508.129)">
        <path id="Trazado_18682" data-name="Trazado 18682" d="M2173.928,1043.392a8.18,8.18,0,0,1-2.505-.347,5.7,5.7,0,0,1-3.713-4.045c-1.073-3.267-1.017-6.74-.963-10.1l.006-.454c.01-.623.223-10.28.259-10.44a.425.425,0,0,1,.829.189c0,.176-.2,7.842-.237,10.265l-.008.454c-.053,3.287-.107,6.687.92,9.82a4.909,4.909,0,0,0,3.163,3.5,8.785,8.785,0,0,0,3.426.253c1.4-.119,3.449-.368,4.877-.653a.414.414,0,0,1,.5.333.423.423,0,0,1-.333.5c-1.461.294-3.55.547-4.971.669C2174.735,1043.373,2174.321,1043.392,2173.928,1043.392Z" transform="translate(-2166.723 -1017.677)"/>
      </g>
      <path id="Trazado_18683" data-name="Trazado 18683" d="M2175.06,1046.706c-.338-.061-.569.079-.693,1.3-.138,1.361.21,1.609.516,1.6s.622-.42.628-1.394S2175.5,1046.786,2175.06,1046.706Z" transform="translate(-625.981 -531.712)"/>
      <g id="Grupo_9539" data-name="Grupo 9539" transform="translate(1546.835 511.013)">
        <path id="Trazado_18684" data-name="Trazado 18684" d="M2168.327,1031.355a.426.426,0,0,1-.278-.748,3.268,3.268,0,0,1,3.258-.545.425.425,0,1,1-.214.823,2.431,2.431,0,0,0-2.488.366A.428.428,0,0,1,2168.327,1031.355Z" transform="translate(-2167.902 -1029.885)"/>
      </g>
      <g id="Grupo_9540" data-name="Grupo 9540" transform="translate(1579.39 565.056)">
        <path id="Trazado_18685" data-name="Trazado 18685" d="M2311.24,1299.206a.433.433,0,0,1-.422-.468c1.454-14.746-5-39.252-5.067-39.5a.426.426,0,1,1,.823-.22c.064.248,6.559,24.9,5.089,39.8A.424.424,0,0,1,2311.24,1299.206Z" transform="translate(-2305.736 -1258.705)"/>
      </g>
      <g id="Grupo_9541" data-name="Grupo 9541" transform="translate(1686.612 622.254)">
        <path id="Trazado_18686" data-name="Trazado 18686" d="M2835.678,1501.73h-75.541a.426.426,0,1,1,0-.851h75.541a.426.426,0,1,1,0,.851Z" transform="translate(-2759.712 -1500.879)"/>
      </g>
      <g id="Grupo_9542" data-name="Grupo 9542" transform="translate(1562.234 622.254)">
        <path id="Trazado_18687" data-name="Trazado 18687" d="M2233.527,1501.9a.426.426,0,0,1,0-.851l89.088-.173a.426.426,0,1,1,0,.851l-89.088.173Z" transform="translate(-2233.101 -1500.879)"/>
      </g>
      <g id="Grupo_9543" data-name="Grupo 9543" transform="translate(1505.673 622.254)">
        <path id="Trazado_18688" data-name="Trazado 18688" d="M2027.145,1501.73h-33.1a.426.426,0,0,1,0-.851h33.1a.426.426,0,0,1,0,.851Z" transform="translate(-1993.621 -1500.879)"/>
      </g>
      <g id="Grupo_9544" data-name="Grupo 9544" transform="translate(1354.791 622.254)">
        <path id="Trazado_18689" data-name="Trazado 18689" d="M1408.222,1501.73h-53.006a.426.426,0,0,1,0-.851h53.006a.426.426,0,0,1,0,.851Z" transform="translate(-1354.791 -1500.879)"/>
      </g>
      <g id="Grupo_9545" data-name="Grupo 9545" transform="translate(1552.621 599.638)">
        <path id="Trazado_18690" data-name="Trazado 18690" d="M2202.134,1428.862a.426.426,0,0,1-.234-.781,12.323,12.323,0,0,0,5.018-12.143c-.991-6.256-7.55-10.835-14.029-9.822a.417.417,0,0,1-.486-.353.424.424,0,0,1,.353-.485c6.927-1.1,13.94,3.823,15,10.529a13.184,13.184,0,0,1-5.389,12.985A.43.43,0,0,1,2202.134,1428.862Z" transform="translate(-2192.398 -1405.123)"/>
      </g>
      <g id="Grupo_9551" data-name="Grupo 9551" transform="translate(1397.781 578.715)">
        <g id="Grupo_9549" data-name="Grupo 9549" transform="translate(0 0)">
          <g id="Grupo_9546" data-name="Grupo 9546" transform="translate(43.543 28.561)">
            <path id="Trazado_18691" data-name="Trazado 18691" d="M1729.488,1452.61a5.875,5.875,0,0,1-2.615-.677,11.178,11.178,0,0,1-5.688-9.85,4.4,4.4,0,0,1,6.833-3.944,11.177,11.177,0,0,1,5.686,9.85,4.8,4.8,0,0,1-2.191,4.093A4,4,0,0,1,1729.488,1452.61Zm-4.084-14.3a3.173,3.173,0,0,0-1.6.411,4,4,0,0,0-1.766,3.407,10.322,10.322,0,0,0,5.219,9.041,3.563,3.563,0,0,0,5.6-3.233,10.325,10.325,0,0,0-5.22-9.041A5.009,5.009,0,0,0,1725.4,1438.314Z" transform="translate(-1721.172 -1437.461)"/>
          </g>
          <g id="Grupo_9547" data-name="Grupo 9547" transform="translate(13.081)">
            <path id="Trazado_18692" data-name="Trazado 18692" d="M1678.551,1388.662a.426.426,0,1,1,0-.852c4.943,0,9.1-1.834,11.414-5.033a9.019,9.019,0,0,0,1.265-8.312l-16.582-50.044a10.243,10.243,0,0,0-9.741-7.034h-69.917a10.438,10.438,0,0,0-2.275.248.425.425,0,0,1-.185-.83,11.262,11.262,0,0,1,2.461-.27h69.917a11.1,11.1,0,0,1,10.549,7.618l16.582,50.045a9.844,9.844,0,0,1-1.384,9.076C1688.182,1386.7,1683.77,1388.662,1678.551,1388.662Z" transform="translate(-1592.196 -1316.536)"/>
          </g>
          <g id="Grupo_9548" data-name="Grupo 9548" transform="translate(0 3.077)">
            <path id="Trazado_18693" data-name="Trazado 18693" d="M1634.431,1398.76h-69.917a11.066,11.066,0,0,1-10.547-7.3l-16.582-47.888a10.2,10.2,0,0,1,1.367-9.359,11.251,11.251,0,0,1,9.181-4.651h69.917a11.064,11.064,0,0,1,10.547,7.3l16.582,47.887a10.2,10.2,0,0,1-1.367,9.358A11.249,11.249,0,0,1,1634.431,1398.76Zm-93.765-48.309,14.1,40.732a10.215,10.215,0,0,0,9.744,6.726h69.917a10.4,10.4,0,0,0,8.488-4.293,9.36,9.36,0,0,0,1.255-8.586l-16.582-47.888a10.212,10.212,0,0,0-9.743-6.726h-69.917a10.4,10.4,0,0,0-8.488,4.293,9.358,9.358,0,0,0-1.255,8.586Z" transform="translate(-1536.81 -1329.565)"/>
          </g>
        </g>
        <g id="Grupo_9550" data-name="Grupo 9550" transform="translate(6.951 0.262)">
          <path id="Trazado_18694" data-name="Trazado 18694" d="M1566.665,1321.952a.426.426,0,0,1-.209-.8l6.13-3.459a.431.431,0,0,1,.579.162.426.426,0,0,1-.161.58l-6.13,3.459A.436.436,0,0,1,1566.665,1321.952Z" transform="translate(-1566.24 -1317.645)"/>
        </g>
      </g>
      <g id="Grupo_9552" data-name="Grupo 9552" transform="translate(1440.198 367.812)">
        <path id="Trazado_18695" data-name="Trazado 18695" d="M1811.545,438.747a.418.418,0,0,1-.215-.059s-.386-.227-1.108-.617a.425.425,0,0,1,.405-.748c.743.4,1.132.633,1.132.633a.424.424,0,0,1-.215.791Zm-5.5-2.835a.415.415,0,0,1-.182-.041c-1.428-.679-2.926-1.351-4.453-2a.425.425,0,0,1,.333-.782c1.538.652,3.046,1.329,4.484,2.013a.425.425,0,0,1-.182.809Zm-89.223-.362a.425.425,0,0,1-.221-.788c1.392-.849,2.832-1.665,4.28-2.425a.425.425,0,1,1,.4.753c-1.432.752-2.857,1.559-4.233,2.4A.424.424,0,0,1,1716.826,435.55Zm80.21-3.469a.42.42,0,0,1-.151-.028c-1.514-.574-3.06-1.127-4.594-1.643a.425.425,0,1,1,.27-.806c1.545.519,3.1,1.076,4.626,1.654a.425.425,0,0,1-.151.822Zm-71.549-1.07a.426.426,0,0,1-.173-.814c1.5-.663,3.033-1.283,4.563-1.843a.425.425,0,0,1,.292.8c-1.511.554-3.028,1.167-4.509,1.823A.421.421,0,0,1,1725.487,431.01Zm62.27-2.048a.417.417,0,0,1-.119-.017c-1.558-.457-3.143-.886-4.708-1.278a.425.425,0,0,1-.309-.515.43.43,0,0,1,.517-.309c1.575.393,3.17.826,4.739,1.287a.425.425,0,0,1-.119.833Zm-53.089-1.317a.425.425,0,0,1-.119-.833c1.56-.459,3.162-.875,4.759-1.236a.425.425,0,0,1,.189.829c-1.582.357-3.165.768-4.709,1.222A.418.418,0,0,1,1734.667,427.645Zm43.591-1.052a.406.406,0,0,1-.086-.008c-1.593-.328-3.206-.624-4.8-.879a.424.424,0,0,1-.352-.487.413.413,0,0,1,.487-.352c1.6.256,3.226.554,4.833.885a.425.425,0,0,1-.086.841Zm-34.05-1.1a.425.425,0,0,1-.068-.844c1.6-.259,3.242-.473,4.875-.637a.431.431,0,0,1,.465.381.424.424,0,0,1-.38.466c-1.616.162-3.24.373-4.825.629A.411.411,0,0,1,1744.208,425.49Zm24.389-.441q-2.5-.278-4.9-.432a.425.425,0,0,1-.4-.451.412.412,0,0,1,.451-.4c1.616.1,3.264.248,4.9.433a.425.425,0,0,1-.047.847Zm-14.656-.54a.425.425,0,0,1-.019-.85c1.628-.07,3.284-.1,4.915-.075a.426.426,0,0,1,.421.43.416.416,0,0,1-.43.42c-1.613-.02-3.258.006-4.868.075Z" transform="translate(-1716.4 -423.576)"/>
      </g>
      <g id="Grupo_9553" data-name="Grupo 9553" transform="translate(1400.681 391.61)">
        <path id="Trazado_18696" data-name="Trazado 18696" d="M1553.993,601.138a.425.425,0,0,1-.385-.244,38.571,38.571,0,0,1-1.707-4.653.425.425,0,0,1,.812-.25,38.355,38.355,0,0,0,1.665,4.54.425.425,0,0,1-.385.607Zm-2.932-9.329a.426.426,0,0,1-.415-.333c-.351-1.588-.648-3.218-.881-4.846a.425.425,0,0,1,.842-.121c.23,1.607.523,3.216.87,4.783a.426.426,0,0,1-.324.507A.456.456,0,0,1,1551.061,591.809Zm-1.392-9.68a.424.424,0,0,1-.423-.4c-.106-1.536-.159-3.093-.159-4.628v-.295a.425.425,0,1,1,.85.006v.288c0,1.515.053,3.053.158,4.57a.425.425,0,0,1-.395.453Zm.046-9.779a.432.432,0,0,1-.425-.458c.128-1.633.318-3.279.566-4.891a.431.431,0,0,1,.485-.356.425.425,0,0,1,.356.485c-.245,1.592-.433,3.217-.558,4.828A.426.426,0,0,1,1549.714,572.351Zm1.48-9.663a.437.437,0,0,1-.1-.01.425.425,0,0,1-.319-.509c.365-1.586.795-3.185,1.278-4.754a.42.42,0,0,1,.531-.281.425.425,0,0,1,.281.531c-.477,1.549-.9,3.129-1.261,4.694A.425.425,0,0,1,1551.195,562.688Zm2.88-9.343a.409.409,0,0,1-.154-.029.424.424,0,0,1-.242-.55c.591-1.521,1.245-3.041,1.942-4.521a.426.426,0,0,1,.77.363c-.69,1.462-1.336,2.964-1.92,4.466A.424.424,0,0,1,1554.075,553.345Zm4.164-8.845a.425.425,0,0,1-.372-.631c.786-1.414,1.636-2.834,2.527-4.22a.425.425,0,1,1,.715.46c-.881,1.37-1.722,2.775-2.5,4.173A.424.424,0,0,1,1558.239,544.5Zm5.28-8.229a.425.425,0,0,1-.343-.676c.956-1.307,1.97-2.614,3.014-3.883a.425.425,0,0,1,.657.54c-1.034,1.257-2.037,2.55-2.984,3.845A.426.426,0,0,1,1563.519,536.271Zm6.2-7.558a.425.425,0,0,1-.313-.711c1.091-1.192,2.236-2.384,3.4-3.54a.425.425,0,0,1,.6.6c-1.159,1.147-2.3,2.328-3.377,3.509A.422.422,0,0,1,1569.724,528.714Z" transform="translate(-1549.086 -524.338)"/>
      </g>
      <g id="Grupo_9556" data-name="Grupo 9556" transform="translate(1560.544 361.607)">
        <g id="Grupo_9555" data-name="Grupo 9555" transform="translate(0 0)">
          <g id="Grupo_9554" data-name="Grupo 9554">
            <path id="Trazado_18697" data-name="Trazado 18697" d="M2284.6,482.748h-58.227a.425.425,0,1,1,0-.85h57.8V397.728a.426.426,0,0,1,.852,0v84.6A.426.426,0,0,1,2284.6,482.748Z" transform="translate(-2225.946 -397.303)"/>
          </g>
        </g>
      </g>
      <g id="Grupo_9557" data-name="Grupo 9557" transform="translate(1702.931 479.818)">
        <path id="Trazado_18698" data-name="Trazado 18698" d="M2832.707,911.787a3.514,3.514,0,0,1-2.934-2.233,11.13,11.13,0,0,1,.3-9.693,3.554,3.554,0,0,1,2.915-2.053,3.514,3.514,0,0,1,2.936,2.234,10.263,10.263,0,0,1,.961,4.88C2836.764,908.8,2834.936,911.787,2832.707,911.787Zm.283-13.129a2.765,2.765,0,0,0-2.185,1.635,10.311,10.311,0,0,0-.275,8.874c.57,1.117,1.326,1.745,2.127,1.769,1.756,0,3.275-2.744,3.377-6.039a9.4,9.4,0,0,0-.867-4.469c-.57-1.117-1.325-1.745-2.127-1.769Z" transform="translate(-2828.805 -897.808)"/>
      </g>
      <g id="Grupo_9558" data-name="Grupo 9558" transform="translate(1692.337 479.818)">
        <path id="Trazado_18699" data-name="Trazado 18699" d="M2787.87,911.787h-.091a3.513,3.513,0,0,1-2.859-2.233,11.138,11.138,0,0,1,.3-9.693,3.549,3.549,0,0,1,2.914-2.053c2.323.071,4.082,3.21,4,7a.439.439,0,0,1-.435.416.427.427,0,0,1-.416-.435c.072-3.269-1.346-6.076-3.1-6.129a2.755,2.755,0,0,0-2.233,1.634,10.313,10.313,0,0,0-.276,8.874c.57,1.117,1.325,1.745,2.128,1.769a1.821,1.821,0,0,0,1.442-.6.426.426,0,1,1,.588.616A2.791,2.791,0,0,1,2787.87,911.787Z" transform="translate(-2783.954 -897.808)"/>
      </g>
      <g id="Grupo_9559" data-name="Grupo 9559" transform="translate(1699.564 486.246)">
        <path id="Trazado_18700" data-name="Trazado 18700" d="M2814.975,926.6a.424.424,0,0,1-.361-.646,2.143,2.143,0,0,1,1.294-.872,3.335,3.335,0,0,1,2.533.628.425.425,0,1,1-.458.716c-1.83-1.173-2.571-.145-2.648-.022A.43.43,0,0,1,2814.975,926.6Z" transform="translate(-2814.55 -925.024)"/>
      </g>
      <g id="Grupo_9569" data-name="Grupo 9569" transform="translate(1682.438 382.133)">
        <g id="Grupo_9560" data-name="Grupo 9560" transform="translate(9.168 9.162)">
          <path id="Trazado_18701" data-name="Trazado 18701" d="M2804.284,569.81a23.4,23.4,0,1,1,23.423-23.4A23.44,23.44,0,0,1,2804.284,569.81Zm0-45.958a22.554,22.554,0,1,0,22.571,22.555A22.588,22.588,0,0,0,2804.284,523.852Z" transform="translate(-2780.861 -523.002)"/>
        </g>
        <g id="Grupo_9561" data-name="Grupo 9561">
          <path id="Trazado_18702" data-name="Trazado 18702" d="M2774.633,549.343a32.567,32.567,0,1,1,32.593-32.567A32.616,32.616,0,0,1,2774.633,549.343Zm0-64.283a31.717,31.717,0,1,0,31.741,31.717A31.764,31.764,0,0,0,2774.633,485.06Z" transform="translate(-2742.042 -484.21)"/>
        </g>
        <g id="Grupo_9562" data-name="Grupo 9562" transform="translate(29.713 29.691)">
          <path id="Trazado_18703" data-name="Trazado 18703" d="M2870.726,615.671a2.876,2.876,0,1,1,2.879-2.876A2.88,2.88,0,0,1,2870.726,615.671Zm0-4.9a2.026,2.026,0,1,0,2.028,2.026A2.029,2.029,0,0,0,2870.726,610.769Z" transform="translate(-2867.848 -609.919)"/>
        </g>
        <g id="Grupo_9563" data-name="Grupo 9563" transform="translate(23.501 33.953)">
          <path id="Trazado_18704" data-name="Trazado 18704" d="M2841.971,637.628a.425.425,0,0,1-.333-.69l7.017-8.812a.425.425,0,0,1,.666.529l-7.016,8.813A.427.427,0,0,1,2841.971,637.628Z" transform="translate(-2841.546 -627.965)"/>
        </g>
        <g id="Grupo_9564" data-name="Grupo 9564" transform="translate(32.896 13.36)">
          <path id="Trazado_18705" data-name="Trazado 18705" d="M2881.749,558.068a.389.389,0,0,1-.1-.012.423.423,0,0,1-.314-.512l3.947-16.438a.425.425,0,0,1,.826.2l-3.947,16.438A.426.426,0,0,1,2881.749,558.068Z" transform="translate(-2881.324 -540.778)"/>
        </g>
        <g id="Grupo_9565" data-name="Grupo 9565" transform="translate(32.165 12.472)">
          <path id="Trazado_18706" data-name="Trazado 18706" d="M2878.655,543.152a.426.426,0,0,1-.426-.425v-5.285a.426.426,0,0,1,.852,0v5.285A.426.426,0,0,1,2878.655,543.152Z" transform="translate(-2878.229 -537.017)"/>
        </g>
        <g id="Grupo_9566" data-name="Grupo 9566" transform="translate(32.165 46.526)">
          <path id="Trazado_18707" data-name="Trazado 18707" d="M2878.655,687.333a.426.426,0,0,1-.426-.425v-5.286a.426.426,0,0,1,.852,0v5.286A.426.426,0,0,1,2878.655,687.333Z" transform="translate(-2878.229 -681.198)"/>
        </g>
        <g id="Grupo_9567" data-name="Grupo 9567" transform="translate(46.55 32.142)">
          <path id="Trazado_18708" data-name="Trazado 18708" d="M2944.844,621.147h-5.285a.425.425,0,1,1,0-.85h5.285a.425.425,0,1,1,0,.85Z" transform="translate(-2939.133 -620.297)"/>
        </g>
        <g id="Grupo_9568" data-name="Grupo 9568" transform="translate(12.497 32.142)">
          <path id="Trazado_18709" data-name="Trazado 18709" d="M2800.664,621.147h-5.286a.425.425,0,1,1,0-.85h5.286a.425.425,0,1,1,0,.85Z" transform="translate(-2794.953 -620.297)"/>
        </g>
      </g>
      <g id="Grupo_9570" data-name="Grupo 9570" transform="translate(1507.029 625.463)">
        <path id="Trazado_18710" data-name="Trazado 18710" d="M2012.835,1532.232H2002.9a.426.426,0,1,1,0-.851h9.819l27.233-16.064h-39.224l-.768.341a.425.425,0,1,1-.345-.776l.849-.379a.416.416,0,0,1,.173-.038h40.873a.426.426,0,0,1,.217.792l-28.675,16.915A.426.426,0,0,1,2012.835,1532.232Z" transform="translate(-1999.362 -1514.466)"/>
      </g>
      <g id="Grupo_9571" data-name="Grupo 9571" transform="translate(1637.56 510.214)">
        <path id="Trazado_18711" data-name="Trazado 18711" d="M2568.6,1090.989a14.651,14.651,0,0,1-10.187-3.5c-5.556-5.157-5.8-13.6-6.011-21.057-.047-1.681-.093-3.269-.2-4.773-.691-10.034.9-34.513.911-34.76a.425.425,0,1,1,.848.056c-.016.245-1.6,24.668-.911,34.644.105,1.522.151,3.119.2,4.809.208,7.285.443,15.544,5.738,20.458,5.052,4.684,13.073,3.217,16.292,2.364a38.689,38.689,0,0,0,17.693-10.626.425.425,0,0,1,.606.6,39.551,39.551,0,0,1-18.082,10.852A27.784,27.784,0,0,1,2568.6,1090.989Z" transform="translate(-2552.028 -1026.504)"/>
      </g>
      <g id="Grupo_9572" data-name="Grupo 9572" transform="translate(1666.209 509.877)">
        <path id="Trazado_18712" data-name="Trazado 18712" d="M2673.751,1078.6a.4.4,0,0,1-.127-.021.424.424,0,0,1-.278-.532c2.67-8.5.552-52.09.53-52.53a.422.422,0,0,1,.4-.444.427.427,0,0,1,.444.4c.09,1.8,2.149,44.176-.567,52.825A.425.425,0,0,1,2673.751,1078.6Z" transform="translate(-2673.327 -1025.077)"/>
      </g>
      <g id="Grupo_9573" data-name="Grupo 9573" transform="translate(1700.697 582.367)">
        <path id="Trazado_18713" data-name="Trazado 18713" d="M2825.174,1342.126a.427.427,0,0,1-.421-.361c-.815-5.314-2.858-9.074-4.948-8.912a.409.409,0,0,1-.455-.393.425.425,0,0,1,.393-.456c.061,0,.121-.006.181-.006,2.515,0,4.78,3.828,5.672,9.638a.427.427,0,0,1-.356.485A.46.46,0,0,1,2825.174,1342.126Z" transform="translate(-2819.349 -1331.998)"/>
      </g>
      <g id="Grupo_9574" data-name="Grupo 9574" transform="translate(1629.69 584.462)">
        <path id="Trazado_18714" data-name="Trazado 18714" d="M2569.213,1380.221a.387.387,0,0,1-.085-.009l-50.083-10.148a.426.426,0,0,1-.157-.766l40.967-28.353a.415.415,0,0,1,.327-.066l9.825,1.99a.425.425,0,1,1-.169.833l-9.647-1.954-40,27.682,48.926,9.915,40-27.682-28.15-5.7a.425.425,0,0,1,.17-.833l29.129,5.9a.425.425,0,0,1,.157.767l-40.968,28.353A.432.432,0,0,1,2569.213,1380.221Z" transform="translate(-2518.706 -1340.868)"/>
      </g>
      <g id="Grupo_9575" data-name="Grupo 9575" transform="translate(1628.538 598.521)">
        <path id="Trazado_18715" data-name="Trazado 18715" d="M2564.338,1430.511a.387.387,0,0,1-.085-.009l-50.082-10.148a.425.425,0,0,1-.157-.767l5.65-3.911a.426.426,0,0,1,.484.7l-4.83,3.342,48.928,9.914,40-27.682-3.52-.713a.425.425,0,1,1,.17-.832l4.5.911a.425.425,0,0,1,.157.766l-40.966,28.353A.429.429,0,0,1,2564.338,1430.511Z" transform="translate(-2513.83 -1400.395)"/>
      </g>
      <g id="Grupo_9576" data-name="Grupo 9576" transform="translate(1746.302 600.897)">
        <path id="Trazado_18716" data-name="Trazado 18716" d="M3013.625,1432.33a.426.426,0,0,1-.423-.38,162.3,162.3,0,0,1-.676-21.084.4.4,0,0,1,.443-.406.423.423,0,0,1,.405.443,162.005,162.005,0,0,0,.672,20.955.425.425,0,0,1-.377.468Z" transform="translate(-3012.438 -1410.452)"/>
      </g>
      <g id="Grupo_9577" data-name="Grupo 9577" transform="translate(1677.687 533.527)">
        <path id="Trazado_18717" data-name="Trazado 18717" d="M2722.351,1177.962a.427.427,0,0,1-.426-.429c.193-28.217,2.807-43.856,4.965-52.007a.425.425,0,1,1,.823.217c-2.147,8.1-4.745,23.668-4.937,51.8A.425.425,0,0,1,2722.351,1177.962Z" transform="translate(-2721.925 -1125.209)"/>
      </g>
      <g id="Grupo_9578" data-name="Grupo 9578" transform="translate(1555.882 511.11)">
        <path id="Trazado_18718" data-name="Trazado 18718" d="M2212.266,1033.458a.427.427,0,0,1-.363-.2,4.416,4.416,0,0,0-5.138-1.92.425.425,0,1,1-.273-.8,5.337,5.337,0,0,1,6.137,2.278.426.426,0,0,1-.363.649Z" transform="translate(-2206.204 -1030.297)"/>
      </g>
      <g id="Grupo_9579" data-name="Grupo 9579" transform="translate(1696.463 576.966)">
        <path id="Trazado_18719" data-name="Trazado 18719" d="M2801.849,1314.6a.429.429,0,0,1-.426-.438l.135-4.624a.415.415,0,0,1,.438-.413.427.427,0,0,1,.413.438l-.135,4.624A.426.426,0,0,1,2801.849,1314.6Z" transform="translate(-2801.423 -1309.128)"/>
      </g>
      <g id="Grupo_9580" data-name="Grupo 9580" transform="translate(1704.284 533.528)">
        <path id="Trazado_18720" data-name="Trazado 18720" d="M2837.356,1135.21a.427.427,0,0,1-.412-.317l-2.394-9.146a.426.426,0,1,1,.823-.217l2.394,9.146a.426.426,0,0,1-.3.52A.432.432,0,0,1,2837.356,1135.21Z" transform="translate(-2834.536 -1125.212)"/>
      </g>
      <g id="Grupo_9581" data-name="Grupo 9581" transform="translate(1638.644 507.55)">
        <path id="Trazado_18721" data-name="Trazado 18721" d="M2571.1,1022.117c-7.2,0-14.482-1.307-14.482-3.8,0-.971.8-2.293,4.608-3.079a.42.42,0,0,1,.5.33.425.425,0,0,1-.33.5c-2.461.507-3.93,1.348-3.93,2.246,0,1.233,5.185,2.951,13.631,2.951s13.631-1.719,13.631-2.951c0-.658-1.23-1.594-4.684-2.245a.425.425,0,1,1,.157-.835c3.518.663,5.378,1.728,5.378,3.08C2585.58,1020.81,2578.3,1022.117,2571.1,1022.117Z" transform="translate(-2556.616 -1015.226)"/>
      </g>
      <g id="Grupo_9582" data-name="Grupo 9582" transform="translate(1481.347 539.387)">
        <path id="Trazado_18722" data-name="Trazado 18722" d="M1894.18,1190.2a.425.425,0,0,1-.424-.41c0-.041-.159-4.2-.163-9.008-.009-10-2.931-30.072-2.961-30.274a.425.425,0,1,1,.842-.123c.03.2,2.961,20.338,2.97,30.4.005,4.792.159,8.934.16,8.976a.423.423,0,0,1-.408.44A.058.058,0,0,1,1894.18,1190.2Z" transform="translate(-1890.628 -1150.023)"/>
      </g>
      <g id="Grupo_9583" data-name="Grupo 9583" transform="translate(1646.02 606.576)">
        <path id="Trazado_18723" data-name="Trazado 18723" d="M2623.078,1442.4a.38.38,0,0,1-.085-.01l-34.8-7.052a.425.425,0,1,1,.169-.833l34.8,7.052a.425.425,0,0,1-.085.842Z" transform="translate(-2587.849 -1434.498)"/>
      </g>
      <g id="Grupo_9584" data-name="Grupo 9584" transform="translate(1655.93 600.186)">
        <path id="Trazado_18724" data-name="Trazado 18724" d="M2665.036,1415.349a.383.383,0,0,1-.085-.009l-34.8-7.052a.425.425,0,1,1,.17-.833l34.8,7.053a.425.425,0,0,1-.084.842Z" transform="translate(-2629.806 -1407.445)"/>
      </g>
      <g id="Grupo_9585" data-name="Grupo 9585" transform="translate(1665.934 593.464)">
        <path id="Trazado_18725" data-name="Trazado 18725" d="M2707.392,1386.887a.38.38,0,0,1-.085-.01l-34.8-7.054a.425.425,0,1,1,.17-.832l34.8,7.054a.425.425,0,0,1-.085.842Z" transform="translate(-2672.163 -1378.981)"/>
      </g>
      <g id="Grupo_9595" data-name="Grupo 9595" transform="translate(1443.592 412.442)">
        <g id="Grupo_9586" data-name="Grupo 9586" transform="translate(40.144 7.29)">
          <path id="Trazado_18726" data-name="Trazado 18726" d="M1936.323,714.7a35.77,35.77,0,1,1,6.467-.589A36.119,36.119,0,0,1,1936.323,714.7Zm.125-70.441a34.779,34.779,0,1,0,19.743,6.166A34.782,34.782,0,0,0,1936.448,644.255Z" transform="translate(-1900.741 -643.405)"/>
        </g>
        <g id="Grupo_9587" data-name="Grupo 9587" transform="translate(32.877 0)">
          <path id="Trazado_18727" data-name="Trazado 18727" d="M1912.832,698.36a42.9,42.9,0,1,1,35.355-18.487A42.681,42.681,0,0,1,1912.832,698.36Zm-23.865-8.306a42.06,42.06,0,1,0-17.452-27.049,42.1,42.1,0,0,0,17.452,27.049Z" transform="translate(-1869.97 -612.538)"/>
        </g>
        <g id="Grupo_9588" data-name="Grupo 9588" transform="translate(27.877 96.426)">
          <path id="Trazado_18728" data-name="Trazado 18728" d="M1861.974,1031.586c-1.7,0-4.72-1.556-7.333-3.377a25.692,25.692,0,0,1-4.484-3.862c-1.227-1.4-1.624-2.428-1.18-3.064.848-1.219,3.814.157,5.5,1.085a.425.425,0,1,1-.408.745c-2.909-1.6-4.219-1.6-4.4-1.343-.076.107-.028.707,1.121,2.017a24.873,24.873,0,0,0,4.332,3.726c4.115,2.867,6.969,3.575,7.275,3.127.171-.245-.314-1.527-2.871-3.735a.426.426,0,0,1,.556-.644c1.492,1.29,3.869,3.636,3.013,4.866A1.286,1.286,0,0,1,1861.974,1031.586Z" transform="translate(-1848.801 -1020.802)"/>
        </g>
        <g id="Grupo_9589" data-name="Grupo 9589" transform="translate(32.022 99.255)">
          <path id="Trazado_18729" data-name="Trazado 18729" d="M1872,1037.578a7.162,7.162,0,0,1-3.149-1.429c-.517-.36-3.06-2.205-2.38-3.182a.425.425,0,0,1,.738.412,6.235,6.235,0,0,0,2.129,2.073,6.757,6.757,0,0,0,2.679,1.279.425.425,0,0,1,.644.548.691.691,0,0,1-.467.284A1.088,1.088,0,0,1,1872,1037.578Z" transform="translate(-1866.351 -1032.782)"/>
        </g>
        <g id="Grupo_9590" data-name="Grupo 9590" transform="translate(32.06 75.502)">
          <path id="Trazado_18730" data-name="Trazado 18730" d="M1866.939,956.816a.426.426,0,0,1-.349-.669l16.554-23.754a.425.425,0,1,1,.7.487l-16.554,23.754A.428.428,0,0,1,1866.939,956.816Z" transform="translate(-1866.513 -932.21)"/>
        </g>
        <g id="Grupo_9591" data-name="Grupo 9591" transform="translate(37.553 79.296)">
          <path id="Trazado_18731" data-name="Trazado 18731" d="M1890.2,972.913a.42.42,0,0,1-.244-.077.425.425,0,0,1-.105-.592l16.577-23.789a.425.425,0,1,1,.7.487l-16.577,23.788A.428.428,0,0,1,1890.2,972.913Z" transform="translate(-1889.77 -948.274)"/>
        </g>
        <g id="Grupo_9592" data-name="Grupo 9592" transform="translate(0 96.725)">
          <path id="Trazado_18732" data-name="Trazado 18732" d="M1731.2,1063.337a.426.426,0,0,1-.35-.667l27.976-40.418a.426.426,0,1,1,.7.484l-27.976,40.418A.426.426,0,0,1,1731.2,1063.337Z" transform="translate(-1730.771 -1022.069)"/>
        </g>
        <g id="Grupo_9593" data-name="Grupo 9593" transform="translate(31.694 106.082)">
          <path id="Trazado_18733" data-name="Trazado 18733" d="M1865.388,1076.56a.431.431,0,0,1-.242-.076.426.426,0,0,1-.108-.592l9.709-14.023a.426.426,0,0,1,.7.484l-9.709,14.023A.426.426,0,0,1,1865.388,1076.56Z" transform="translate(-1864.962 -1061.686)"/>
        </g>
        <g id="Grupo_9594" data-name="Grupo 9594" transform="translate(12 136.4)">
          <path id="Trazado_18734" data-name="Trazado 18734" d="M1782.005,1203.057a.431.431,0,0,1-.242-.075.426.426,0,0,1-.108-.592l8.414-12.156a.426.426,0,1,1,.7.484l-8.414,12.156A.426.426,0,0,1,1782.005,1203.057Z" transform="translate(-1781.58 -1190.051)"/>
        </g>
      </g>
      <g id="Grupo_9596" data-name="Grupo 9596" transform="translate(1543.879 496.121)">
        <path id="Trazado_18735" data-name="Trazado 18735" d="M2191.414,1011.565c-.28,0-.567-.009-.859-.028a.425.425,0,0,1-.4-.452.418.418,0,0,1,.452-.4,9.673,9.673,0,0,0,3.281-.294,5.846,5.846,0,0,0,2.733-1.632,6.712,6.712,0,0,0,1.533-3.547,9.533,9.533,0,0,0-.517-5.008,8.658,8.658,0,0,0-5.176-4.792,39.6,39.6,0,0,0-5.461-1.093.428.428,0,0,1-.363-.484c.016-.105.385-2.593.528-3.308.167-.839.366-1.714.567-2.607.983-4.341,2.1-9.264.044-12.054-1.041-1.415-2.8-2.2-5.383-2.406a.426.426,0,0,1-.3-.154,17.944,17.944,0,0,0-16.614-5.276,11.9,11.9,0,0,0-8.768,7.087c-1.1,3.058-.325,6.294,2.229,9.358a.425.425,0,0,1-.653.544c-3.484-4.178-3.215-7.847-2.377-10.188a12.79,12.79,0,0,1,9.409-7.637,18.824,18.824,0,0,1,17.308,5.432c2.75.248,4.657,1.145,5.829,2.736,2.284,3.1,1.125,8.226.1,12.746-.2.886-.4,1.754-.564,2.585-.1.52-.341,2.084-.456,2.843a34.591,34.591,0,0,1,5.224,1.081,9.494,9.494,0,0,1,5.659,5.27,10.382,10.382,0,0,1,.567,5.457,7.522,7.522,0,0,1-1.743,3.987,6.686,6.686,0,0,1-3.126,1.877A9.81,9.81,0,0,1,2191.414,1011.565Z" transform="translate(-2155.384 -966.835)"/>
      </g>
      <g id="Grupo_9597" data-name="Grupo 9597" transform="translate(1540.624 527.452)">
        <path id="Trazado_18736" data-name="Trazado 18736" d="M2145.725,1112.8a.41.41,0,0,1-.112-.016,5.1,5.1,0,0,1-3.361-2.914,8.1,8.1,0,0,1,.116-6.6,6.815,6.815,0,0,1,6.055-3.776.424.424,0,0,1,.406.441c-.008.236-.209.466-.441.407l-.173,0a5.977,5.977,0,0,0-5.081,3.3,7.311,7.311,0,0,0-.11,5.877,4.3,4.3,0,0,0,2.812,2.449.425.425,0,0,1-.112.836Z" transform="translate(-2141.605 -1099.49)"/>
      </g>
      <g id="Grupo_9598" data-name="Grupo 9598" transform="translate(1545.852 507.11)">
        <path id="Trazado_18737" data-name="Trazado 18737" d="M2184.622,1022.45a.49.49,0,0,1-.082-.008,4.155,4.155,0,0,1-2.774-1.828c-1.2-1.814-1.109-4.437-.942-5.877a15.719,15.719,0,0,1-9.52,2.32,12.564,12.564,0,0,1-7.429-2.959.426.426,0,0,1-.021-.6.432.432,0,0,1,.6-.021,11.922,11.922,0,0,0,6.9,2.733,14.523,14.523,0,0,0,9.77-2.741.425.425,0,0,1,.7.408c-.01.039-.835,4.009.66,6.272a3.284,3.284,0,0,0,2.226,1.459.426.426,0,0,1-.082.844Z" transform="translate(-2163.739 -1013.36)"/>
      </g>
      <g id="Grupo_9599" data-name="Grupo 9599" transform="translate(1541.185 362.461)">
        <path id="Trazado_18738" data-name="Trazado 18738" d="M2144.406,453.1a.425.425,0,0,1-.391-.591,84.715,84.715,0,0,1,144.049-19.883.425.425,0,0,1-.663.532,83.864,83.864,0,0,0-142.6,19.684A.425.425,0,0,1,2144.406,453.1Z" transform="translate(-2143.981 -400.921)"/>
      </g>
      <g id="Grupo_9600" data-name="Grupo 9600" transform="translate(1586.818 524.72)">
        <path id="Trazado_18739" data-name="Trazado 18739" d="M2369.568,1095.041a84.2,84.2,0,0,1-32.115-6.3.425.425,0,1,1,.323-.785,83.384,83.384,0,0,0,31.792,6.237,84.853,84.853,0,0,0,18.869-2.116.432.432,0,0,1,.509.32.425.425,0,0,1-.32.509A85.679,85.679,0,0,1,2369.568,1095.041Z" transform="translate(-2337.19 -1087.921)"/>
      </g>
      <g id="Grupo_9601" data-name="Grupo 9601" transform="translate(1667.137 487.755)">
        <path id="Trazado_18740" data-name="Trazado 18740" d="M2677.681,960.207a.426.426,0,0,1-.243-.774,82.244,82.244,0,0,0,25.123-27.8.425.425,0,0,1,.745.411,83.111,83.111,0,0,1-25.381,28.089A.422.422,0,0,1,2677.681,960.207Z" transform="translate(-2677.256 -931.411)"/>
      </g>
      <g id="Grupo_9602" data-name="Grupo 9602" transform="translate(1701.77 448.85)">
        <path id="Trazado_18741" data-name="Trazado 18741" d="M2824.316,780.043a.439.439,0,0,1-.419-.5,84.224,84.224,0,0,0,1.233-12.442.426.426,0,0,1,.852.021,85.781,85.781,0,0,1-1.246,12.567A.427.427,0,0,1,2824.316,780.043Z" transform="translate(-2823.89 -766.689)"/>
      </g>
      <g id="Grupo_9603" data-name="Grupo 9603" transform="translate(1442.488 549.719)">
        <path id="Trazado_18742" data-name="Trazado 18742" d="M1736.626,1206.622c-3.123,0-6.291-1.867-9.313-5.527-2.7-3.272-.061-7.108-.033-7.147a.419.419,0,0,1,.591-.1.425.425,0,0,1,.105.59c-.1.137-2.292,3.35-.006,6.118,3.839,4.651,7.706,6.215,11.494,4.63a.425.425,0,1,1,.327.785A8.173,8.173,0,0,1,1736.626,1206.622Z" transform="translate(-1726.099 -1193.766)"/>
      </g>
      <g id="Grupo_9604" data-name="Grupo 9604" transform="translate(1426.847 546.764)">
        <path id="Trazado_18743" data-name="Trazado 18743" d="M1660.3,1197.343a.426.426,0,0,1-.22-.79,16.592,16.592,0,0,0,5.785-7.231c4.633-10.685,12.934-7.685,13.016-7.654a.425.425,0,0,1-.3.795c-.311-.115-7.636-2.724-11.935,7.2a17.135,17.135,0,0,1-6.127,7.621A.432.432,0,0,1,1660.3,1197.343Z" transform="translate(-1659.874 -1181.256)"/>
      </g>
      <g id="Grupo_9605" data-name="Grupo 9605" transform="translate(1443.932 559.467)">
        <path id="Trazado_18744" data-name="Trazado 18744" d="M1740.118,1244.43a12.915,12.915,0,0,1-7.744-2.936.426.426,0,0,1,.522-.672c3.966,3.077,8.571,3.639,11.453,1.4,2.8-2.175.649-6.522.627-6.566a.426.426,0,0,1,.76-.383c.025.05,2.48,5.02-.866,7.621A7.632,7.632,0,0,1,1740.118,1244.43Z" transform="translate(-1732.211 -1235.038)"/>
      </g>
      <g id="Grupo_9606" data-name="Grupo 9606" transform="translate(1441.304 567.127)">
        <path id="Trazado_18745" data-name="Trazado 18745" d="M1730.083,1273.15c-4.162,0-8.6-2.893-8.808-3.028a.425.425,0,0,1,.468-.71c.05.035,5.263,3.434,9.4,2.812,4.459-.666,4.24-4.148,4.227-4.3a.427.427,0,0,1,.391-.457.442.442,0,0,1,.457.391c0,.044.284,4.42-4.949,5.2A8.09,8.09,0,0,1,1730.083,1273.15Z" transform="translate(-1721.084 -1267.47)"/>
      </g>
      <g id="Grupo_9607" data-name="Grupo 9607" transform="translate(1435.384 571.978)">
        <path id="Trazado_18746" data-name="Trazado 18746" d="M1708.092,1291.549c-.071,0-.141,0-.214,0a9.3,9.3,0,0,1-4.9-1.9c-1.943-1.4-5.051.457-6.3,1.321a.425.425,0,1,1-.486-.7c1.733-1.2,4.983-2.973,7.28-1.312a8.578,8.578,0,0,0,4.423,1.739,5.222,5.222,0,0,0,4.719-2.469.431.431,0,0,1,.578-.162.425.425,0,0,1,.163.578A6.144,6.144,0,0,1,1708.092,1291.549Z" transform="translate(-1696.018 -1288.011)"/>
      </g>
      <g id="Grupo_9608" data-name="Grupo 9608" transform="translate(1454.283 570.408)">
        <path id="Trazado_18747" data-name="Trazado 18747" d="M1777.2,1289.987a.426.426,0,0,1-.424-.393c-.179-2.3-.467-5.345-.734-7.761a.425.425,0,0,1,.375-.47.432.432,0,0,1,.47.375c.267,2.425.558,5.482.736,7.789a.427.427,0,0,1-.391.457Z" transform="translate(-1776.036 -1281.363)"/>
      </g>
      <g id="Grupo_9609" data-name="Grupo 9609" transform="translate(1448.337 530.018)">
        <path id="Trazado_18748" data-name="Trazado 18748" d="M1751.848,1122.588a.429.429,0,0,1-.426-.433c.138-7.9-.543-11.254-.55-11.287a.427.427,0,0,1,.328-.5.421.421,0,0,1,.5.328c.028.138.707,3.459.569,11.479A.426.426,0,0,1,1751.848,1122.588Z" transform="translate(-1750.864 -1110.353)"/>
      </g>
      <g id="Grupo_9610" data-name="Grupo 9610" transform="translate(1548.213 512.854)">
        <path id="Trazado_18749" data-name="Trazado 18749" d="M2176.58,1050.135a.418.418,0,0,1-.206-.054c-.312-.173-3.042-1.742-2.587-3.462a2.47,2.47,0,0,1,1.365-1.484,2.741,2.741,0,0,0,1.3-1.241c.587-1.291.435-4.585.327-5.746a.424.424,0,0,1,.845-.078c.017.179.4,4.415-.4,6.176a3.56,3.56,0,0,1-1.638,1.623c-.542.317-.854.52-.972.968-.245.92,1.533,2.144,2.176,2.5a.426.426,0,0,1-.206.8Z" transform="translate(-2173.737 -1037.682)"/>
      </g>
      <g id="Grupo_9611" data-name="Grupo 9611" transform="translate(1566.309 502.424)">
        <path id="Trazado_18750" data-name="Trazado 18750" d="M2250.779,995.421a.426.426,0,0,1-.124-.833l3.426-1.048a.425.425,0,1,1,.248.814L2250.9,995.4A.426.426,0,0,1,2250.779,995.421Z" transform="translate(-2250.353 -993.523)"/>
      </g>
      <g id="Grupo_9612" data-name="Grupo 9612" transform="translate(1753.655 411.824)">
        <path id="Trazado_18751" data-name="Trazado 18751" d="M3059.379,738.339a.426.426,0,0,1-.228-.785c.008,0,.847-.539,2.226-1.577a.425.425,0,0,1,.512.679c-1.411,1.062-2.248,1.594-2.282,1.618A.43.43,0,0,1,3059.379,738.339Zm6.06-4.69a.426.426,0,0,1-.28-.746c1.224-1.068,2.424-2.183,3.571-3.316a.425.425,0,1,1,.6.606c-1.158,1.143-2.372,2.269-3.608,3.35A.421.421,0,0,1,3065.439,733.648Zm6.969-6.877a.426.426,0,0,1-.316-.71c1.081-1.2,2.138-2.457,3.141-3.721a.425.425,0,1,1,.666.528c-1.015,1.278-2.083,2.544-3.176,3.762A.426.426,0,0,1,3072.408,726.772Zm6.08-7.67a.426.426,0,0,1-.349-.669c.93-1.337,1.822-2.71,2.651-4.079a.426.426,0,1,1,.729.44c-.839,1.385-1.742,2.774-2.683,4.126A.425.425,0,0,1,3078.488,719.1Zm5.061-8.369a.414.414,0,0,1-.195-.049.423.423,0,0,1-.182-.572c.746-1.445,1.448-2.923,2.087-4.393a.42.42,0,0,1,.559-.22.424.424,0,0,1,.22.559c-.646,1.487-1.356,2.983-2.113,4.444A.424.424,0,0,1,3083.549,710.733Zm3.889-8.973a.407.407,0,0,1-.141-.025.424.424,0,0,1-.259-.542c.538-1.528,1.027-3.088,1.453-4.638a.425.425,0,0,1,.82.226c-.43,1.568-.925,3.148-1.472,4.695A.425.425,0,0,1,3087.438,701.76Zm2.588-9.424a.4.4,0,0,1-.083-.009.423.423,0,0,1-.333-.5c.314-1.588.576-3.2.779-4.8a.421.421,0,0,1,.474-.369.426.426,0,0,1,.367.476c-.2,1.613-.469,3.247-.788,4.855A.425.425,0,0,1,3090.027,692.335Zm1.228-9.693a.43.43,0,0,1-.424-.449c.074-1.315.11-2.662.11-4.005l-.006-.855a.427.427,0,0,1,.421-.43.421.421,0,0,1,.43.421l.006.862c0,1.36-.038,2.724-.113,4.054A.425.425,0,0,1,3091.255,682.642Zm-.111-9.776a.426.426,0,0,1-.424-.392c-.123-1.6-.3-3.23-.525-4.839a.424.424,0,0,1,.361-.48.414.414,0,0,1,.481.362c.228,1.626.407,3.271.531,4.89a.426.426,0,0,1-.391.457Zm-1.343-9.688a.426.426,0,0,1-.418-.342c-.316-1.6-.677-3.2-1.074-4.743a.425.425,0,0,1,.823-.212c.4,1.561.767,3.172,1.087,4.79a.427.427,0,0,1-.336.5A.415.415,0,0,1,3089.8,663.178Zm-2.441-9.461a.427.427,0,0,1-.405-.294c-.5-1.55-1.054-3.087-1.643-4.572a.424.424,0,1,1,.789-.314c.6,1.5,1.158,3.056,1.665,4.623a.425.425,0,0,1-.275.536A.408.408,0,0,1,3087.36,653.717Zm-3.613-9.075a.423.423,0,0,1-.384-.242c-.693-1.45-1.451-2.9-2.252-4.3a.425.425,0,0,1,.739-.421c.812,1.421,1.58,2.887,2.281,4.356a.423.423,0,0,1-.2.566A.432.432,0,0,1,3083.747,644.642Zm-4.846-8.482a.42.42,0,0,1-.352-.187c-.9-1.338-1.866-2.657-2.865-3.921a.425.425,0,1,1,.666-.528c1.013,1.281,1.99,2.617,2.9,3.974a.424.424,0,0,1-.352.662Zm-6.063-7.663a.427.427,0,0,1-.313-.136c-1.1-1.187-2.255-2.343-3.435-3.436a.425.425,0,1,1,.578-.623c1.2,1.107,2.367,2.278,3.482,3.481a.425.425,0,0,1-.024.6A.42.42,0,0,1,3072.839,628.5Zm-7.175-6.643a.424.424,0,0,1-.264-.092c-1.26-1-2.579-1.963-3.922-2.869a.425.425,0,0,1,.474-.705c1.362.918,2.7,1.9,3.975,2.908a.425.425,0,0,1-.264.758Zm-8.11-5.468a.414.414,0,0,1-.21-.056c-1.4-.8-2.857-1.553-4.318-2.239a.425.425,0,1,1,.361-.77c1.481.7,2.955,1.46,4.378,2.27a.425.425,0,0,1-.21.794Zm-8.865-4.155a.413.413,0,0,1-.148-.027,37.924,37.924,0,0,0-4.634-1.442.425.425,0,0,1-.326-.5.432.432,0,0,1,.506-.327,37.884,37.884,0,0,1,4.75,1.476.425.425,0,0,1-.148.823Z" transform="translate(-3043.572 -609.924)"/>
      </g>
      <g id="Grupo_9613" data-name="Grupo 9613" transform="translate(1508.132 629.815)">
        <path id="Trazado_18752" data-name="Trazado 18752" d="M2025.342,1533.744h-20.881a.426.426,0,1,1,0-.851h20.881a.426.426,0,0,1,0,.851Z" transform="translate(-2004.035 -1532.893)"/>
      </g>
      <g id="Grupo_9614" data-name="Grupo 9614" transform="translate(1509.515 635.235)">
        <path id="Trazado_18753" data-name="Trazado 18753" d="M2020.9,1556.689h-10.585a.426.426,0,1,1,0-.851H2020.9a.426.426,0,1,1,0,.851Z" transform="translate(-2009.888 -1555.838)"/>
      </g>
      <g id="Grupo_9615" data-name="Grupo 9615" transform="translate(1426.548 377.725)">
        <path id="Trazado_18754" data-name="Trazado 18754" d="M1665.555,479.442a6.948,6.948,0,1,1,6.95-6.948A6.956,6.956,0,0,1,1665.555,479.442Zm0-13.046a6.1,6.1,0,1,0,6.1,6.1A6.106,6.106,0,0,0,1665.555,466.4Z" transform="translate(-1658.607 -465.546)"/>
      </g>
    </g>
  </g>
</svg>
