<svg xmlns="http://www.w3.org/2000/svg" width="755" height="314.727" viewBox="0 0 755 314.727">
  <g id="Grupo_10189" data-name="Grupo 10189" transform="translate(-583 -2188.273)">
    <rect id="Rectángulo_2146" data-name="Rectángulo 2146" width="755" height="42" transform="translate(583 2461)" fill="rgba(255,237,0,0.55)"/>
    <g id="Grupo_9759" data-name="Grupo 9759" transform="translate(-371.968 1776.062)" opacity="0.693">
      <g id="Grupo_9757" data-name="Grupo 9757" transform="translate(1091.968 412.211)">
        <path id="Trazado_18755" data-name="Trazado 18755" d="M2750.945,835.785s11.315.523,13.767-2.28,1.758-9.619,1.346-11.381a36.048,36.048,0,0,1-.48-5.383s2.963-5.6,8.249-3.106c0,0,1.56-5.938.413-10.912s-4.72-8.788-11.436-6.628l-.487-.2a18.491,18.491,0,0,0-10.094-2.222c-5.833.4-11.873,7.2-11.84,13.315,0,0,2.928,7.308,2.882,7.124s.221-7.21.221-7.21a16.508,16.508,0,0,0,7.46-.21c3.763-1.082,8.443-4.768,8.443-4.768s.48,7.915,4.725,11.04c0,0-.467,1.464-.5,1.766s-.277,6.351-1.719,6.842-6.128-.624-8.1.554-2.272,2.174-3.634,1.8a21.894,21.894,0,0,0-4.088-.771,4.025,4.025,0,0,0-2.627.824S2742.311,836.365,2750.945,835.785Z" transform="translate(-2353.997 -704.226)" fill="#ffce26"/>
        <path id="Trazado_18756" data-name="Trazado 18756" d="M2598.667,1047.365s15.092-15.595,35.094-15.137l5.849,28.74,1.682-2.957,5.032,24.119,3.577,3.573,13.335-31.076,1.3.558,4.8-23.443s11.707.53,20.035,3.924,13.93,9.435,20.229,27.28,12.9,35.577,15.206,41.693,2.706,27.043-9.9,34.044-17.249,2.266-17.249,2.266v17.861h-80.811Z" transform="translate(-2245.5 -886.526)" fill="#1a1a1a"/>
        <path id="Trazado_18757" data-name="Trazado 18757" d="M1271.038,766.866v70.99a139.265,139.265,0,0,1,39.886-19.193c23.808-7.12,33.94-7.568,33.94-7.568V740.333a193.466,193.466,0,0,0-38.845,9.12A155.212,155.212,0,0,0,1271.038,766.866Z" transform="translate(-1229.064 -663.422)" fill="#fff"/>
        <path id="Trazado_18758" data-name="Trazado 18758" d="M1359.867,1112.123s-16.165-1.769-25.539-11.236l-11.062,23.888s-3.309-15.582-4.166-19.367-.97-11.264-21.557-11.142l-16.237-.006s-19.365-.723-25.959,10.167-6.87,16.406-6.87,16.406l-16.2,63.924-4.5,21.907h100.882l-1.089-30.47s8.258.786,14.406-7.541a88.453,88.453,0,0,0,12.1-23.951c1.769-5.622,5.61-19.929,5.61-19.929Z" transform="translate(-1195.939 -934.383)" fill="#1a1a1a"/>
        <path id="Trazado_18759" data-name="Trazado 18759" d="M2119.8,898.153l-2.072-7-3.336-3.7-3.282-1.1H2004.4l-2.891.872-3.53,3.527-1.1,3.262.846,4.136,18.281,66.084,1.374,3.1,2.348,2.217,2.521,1.265,66.61-.237,42.589-25Z" transform="translate(-1784.771 -775.217)" fill="#fff"/>
        <path id="Trazado_18760" data-name="Trazado 18760" d="M2140.4,919.235l-1.939-2.378-2.675-.8-97.2.019-2.505,1.292-.936,2.881,17.3,62.315,1.774,2.344,3.489,1.64h64.986s33.642-24.936,33.642-25.211S2140.4,919.235,2140.4,919.235Z" transform="translate(-1814.065 -797.954)" fill="#fff"/>
        <path id="Trazado_18761" data-name="Trazado 18761" d="M2226.848,1115.5s-10.422,2.028-14.969,11.1-9.486,20.509-11.277,23.767-8.51,4.364-10.448,1.16-12.612-36.481-12.612-36.481-3.444-4.057-15.722-3.329-13.922,7.846-13.922,7.846,3.943,25.329,7.9,35.465,11.469,32.173,33.448,32.114c0,0,9.424.447,12.9-1.093,0,0-1.734,28.662-3.772,33.921h73.368s-.934-25.442-.9-33.163,1.189-21.049.475-29.046a81.162,81.162,0,0,1,0-14.47l-31.506-31.022Z" transform="translate(-1900.391 -947.691)" fill="#ffce26"/>
        <g id="Grupo_9620" data-name="Grupo 9620" transform="translate(296.484 63.974)">
          <g id="Grupo_9619" data-name="Grupo 9619">
            <circle id="Elipse_591" data-name="Elipse 591" cx="2.113" cy="2.113" r="2.113" transform="translate(0.428 4.132) rotate(-77.881)" fill="#1a1a1a"/>
            <path id="Trazado_18762" data-name="Trazado 18762" d="M2432.185,690.813a2.222,2.222,0,1,0-2.223-2.223A2.222,2.222,0,0,0,2432.185,690.813Z" transform="translate(-2412.823 -686.081)" fill="#1a1a1a"/>
            <path id="Trazado_18763" data-name="Trazado 18763" d="M2502.787,691.185a2.058,2.058,0,1,0-2.059-2.058A2.058,2.058,0,0,0,2502.787,691.185Z" transform="translate(-2467.002 -686.617)" fill="#1a1a1a"/>
            <circle id="Elipse_592" data-name="Elipse 592" cx="2.222" cy="2.222" r="2.222" transform="matrix(0.912, -0.41, 0.41, 0.912, 0, 17.816)" fill="#1a1a1a"/>
            <path id="Trazado_18764" data-name="Trazado 18764" d="M2431.828,760.631a2.332,2.332,0,1,0-2.332-2.332A2.332,2.332,0,0,0,2431.828,760.631Z" transform="translate(-2412.467 -739.366)" fill="#1a1a1a"/>
            <path id="Trazado_18765" data-name="Trazado 18765" d="M2502.43,761a2.168,2.168,0,1,0-2.168-2.168A2.168,2.168,0,0,0,2502.43,761Z" transform="translate(-2466.645 -739.902)" fill="#1a1a1a"/>
            <path id="Trazado_18766" data-name="Trazado 18766" d="M2362.654,831.316a2.058,2.058,0,1,0-2.058-2.058A2.059,2.059,0,0,0,2362.654,831.316Z" transform="translate(-2359.717 -793.901)" fill="#1a1a1a"/>
            <path id="Trazado_18767" data-name="Trazado 18767" d="M2432.363,831.068a2.168,2.168,0,1,0-2.168-2.168A2.168,2.168,0,0,0,2432.363,831.068Z" transform="translate(-2413.002 -793.544)" fill="#1a1a1a"/>
            <path id="Trazado_18768" data-name="Trazado 18768" d="M2502.905,831.4a2.022,2.022,0,1,0-2.022-2.022A2.022,2.022,0,0,0,2502.905,831.4Z" transform="translate(-2467.121 -794.02)" fill="#1a1a1a"/>
          </g>
        </g>
        <path id="Trazado_18769" data-name="Trazado 18769" d="M2172.016,1017.478l2.378-7.858s1.921-5.2-.77-6.061-4.325,2.14-4.827,3.759-1.131,4.315-4.416,2.948c0,0-1.8-1.276-3.115-6.86a86.454,86.454,0,0,0-4.5-12.662s-1.316-3.576-3.894-2.615-1.974,4.078-1.188,6.439,2.792,8.817,2.792,8.817-4.156-.36-4.4,3.128c0,0-3.542,1.094-3.754,3.716a24.036,24.036,0,0,0,1.678,8.8c.7,1.458,1.319,2.5,1.319,2.5a19.322,19.322,0,0,1,9.89-4.367A58.281,58.281,0,0,1,2172.016,1017.478Z" transform="translate(-1899.168 -853.009)" fill="#fff"/>
        <path id="Trazado_18770" data-name="Trazado 18770" d="M1437.355,971.8l-.166-13.652s-4.214,1.34-6.093-3.93,6.981-6.226,7.87-5.776c0,0,5.6-2.627,7.9-4.044,4.3-2.647,7.633-10.066,7.633-10.066l2.608,3.72,2.317,13.645s.787,9.071-1.273,11.234a7.827,7.827,0,0,1-6.043,2.5l.479,6.391s1.627,5.231,1.861,6.126,1.459,5.157-2.4,6.322-7.081-1.213-8.994-3.509A93.986,93.986,0,0,1,1437.355,971.8Z" transform="translate(-1351.406 -811.95)" fill="#fff"/>
        <path id="Trazado_18771" data-name="Trazado 18771" d="M1700.718,1042.8l3.261-5.529s1.877-9.936,2.674-10.675,1.655-2.881,5.944-2.776a6.374,6.374,0,0,0,.921-.628c.107-.151,7.737-8.765,7.737-8.765a3.229,3.229,0,0,1,3.013.4c1.32,1.073.963,3.194.283,4.384s-4.57,6.345-4.57,6.345,3.936.038,4.342,1.809l-1.624,1.706-.5,15.594s-3.841,4.668-5.741,5.017C1716.458,1049.687,1704.1,1046.113,1700.718,1042.8Z" transform="translate(-1558.029 -873.113)" fill="#fff"/>
        <path id="Trazado_18772" data-name="Trazado 18772" d="M1412.251,870.689a11.006,11.006,0,0,0-2.561-9.612c-3.979-4.681-16.44-.165-16.44-.165s1.774-5.48-.848-9.809-8.322-6-13.469-3.417-7.051,9.224-6.038,13.777,4.145,7.311,7.052,7.433a26.974,26.974,0,0,0,.249,12.125c1.678,6.5,5.777,11.639,12.459,12.1l-.027-2.253s-5.025.758-5.822-3.532a5.315,5.315,0,0,1,3.591-6.32,15.625,15.625,0,0,1,3.3.162,23.2,23.2,0,0,0,12.67-8.076c.811-1.085,3.63-5.8,3.63-5.8S1411.988,869.387,1412.251,870.689Z" transform="translate(-1306.845 -744.674)" fill="#ffce26"/>
        <path id="Trazado_18773" data-name="Trazado 18773" d="M2457.774,943.811s-.789-7.525,2.412-10.556c0,0,5.969-1.916,11.122.552,0,0,7.348-1.259,9.989-.958s8.772,4.237,9.6,9.346a31.882,31.882,0,0,1-.369,12.792c-.832,3.255-2.359,8.367-1.808,11.526a12.41,12.41,0,0,0,7.568,9.211c4.871,2.1,9.3,5.678,11.111,8.448s5.451,9.46,5.795,14.547-1.541,13.275-6.114,15.983a19.914,19.914,0,0,1-18.277,1.534c-7.375-2.993-8.872-6.8-9.035-9.277s2.211-14.8,1.783-17.493a8.478,8.478,0,0,0-7.449-6.584c-4.378-.525-11.07-2.076-12.283-7.863s-1.654-8.84-1.654-8.84Z" transform="translate(-2137.567 -810.581)" fill="#fff"/>
        <path id="Trazado_18774" data-name="Trazado 18774" d="M2445.312,989.436a6.837,6.837,0,0,1,4.786-.063c2.435.96,3.647,4.518,2.742,6.668a5.454,5.454,0,0,1-6.42,3.207s-5.509,3.686-5.811,7.68l-.3.415s-4.689-.37-5.883-3.474a11.466,11.466,0,0,1-.869-6.676c.318-1.53.508-3.46.508-3.46l-1.78-.371-.708-1.272,2.819-9.394.95-.913,1.692.831.49-.761S2441.078,988.723,2445.312,989.436Z" transform="translate(-2117.574 -848.278)" fill="#fff"/>
        <path id="Trazado_18775" data-name="Trazado 18775" d="M1788.115,836.13l-1.954,72.178s27.828-16.97,31.9-41.417V797.037a28.33,28.33,0,0,0-4.012-19.49c-6.133-9.8-20.328-15.342-20.328-15.342l-.305,69.7Z" transform="translate(-1623.444 -680.168)" fill="#fff"/>
        <path id="Trazado_18776" data-name="Trazado 18776" d="M1240.337,1076.65l-.909,71.087s-27.316,7.879-50.1,6.329-38.3-7.243-46.72-15.488a30.164,30.164,0,0,1-9.1-17.675l-.16-73.674s-1.86,19.761,23.388,29.433,53.562,5.956,56.149,5.69C1217.837,1081.843,1240.337,1076.65,1240.337,1076.65Z" transform="translate(-1123.628 -898.382)" fill="#fff"/>
        <path id="Trazado_18777" data-name="Trazado 18777" d="M1485.355,1301.99s33.327-2.961,43.385-9.707v24.6s-17.871,8.484-43.385,9.665Z" transform="translate(-1393.146 -1085.996)" fill="#ffce26"/>
        <path id="Trazado_18778" data-name="Trazado 18778" d="M1687.189,1123.011l1.946-3.3s-5.528-1.392-6.048-.317S1687.189,1123.011,1687.189,1123.011Z" transform="translate(-1544.5 -953.32)" fill="#1a1a1a"/>
        <path id="Trazado_18779" data-name="Trazado 18779" d="M1774.747,1145.34s-3.6,4.412-5.076,4.73a25.723,25.723,0,0,0,5.076.961Z" transform="translate(-1610.819 -973.496)" fill="#1a1a1a"/>
        <path id="Trazado_18780" data-name="Trazado 18780" d="M2817.756,1177.3l12.42-29.543-42.859-18.381-26.58,61.889,42.477,18.538,1.173-1.347s-15.7-9.47-19.372-14.127a55.642,55.642,0,0,0-8.1-8.15,51.694,51.694,0,0,1,7.674-13.481,96.118,96.118,0,0,1,8.273-9.5Z" transform="translate(-2369.582 -961.273)" fill="#fff"/>
        <path id="Trazado_18781" data-name="Trazado 18781" d="M2809.538,1077.27c-.229.168-2.075,5.622-2.075,5.622l1.418,12.133-7.411,16.763-3.275-3.352-1.161-5.566,3.023-19.489-2.794-6.606,6.023-10.672Z" transform="translate(-2397.37 -912.832)" fill="#ffce26"/>
        <path id="Trazado_18782" data-name="Trazado 18782" d="M2788.929,932s-.211-2.64,1.291-3.9a6.732,6.732,0,0,1,2.642-1.488s-.558-1.381-1.753-1.294-1.073,2.17-2.635,2.568-2.6-.735-3.769-.031-1.593.858-1.042,1.808a4.5,4.5,0,0,0,3.279,2.456C2788.565,932.245,2788.929,932,2788.929,932Z" transform="translate(-2386.952 -805.05)" fill="#1a1a1a"/>
        <circle id="Elipse_593" data-name="Elipse 593" cx="49.965" cy="49.965" r="49.965" transform="translate(186.991)" fill="#3552ff"/>
        <path id="Trazado_18783" data-name="Trazado 18783" d="M1998.475,575.438a5.286,5.286,0,0,0-7.479,0l-2.038,2.038a5.283,5.283,0,0,0,0,7.477l14.9,14.9a5.286,5.286,0,0,0,7.477,0L2042,569.931a5.29,5.29,0,0,0,0-7.477l-2.04-2.04a5.289,5.289,0,0,0-7.479,0l-24.889,24.145Z" transform="translate(-1777.519 -524.49)" fill="#fff"/>
        <path id="Trazado_18784" data-name="Trazado 18784" d="M1233.73,988.053v21.223l-11.8,5.73V993.782Z" transform="translate(-1191.466 -853.077)" fill="#ffce26"/>
        <path id="Trazado_18785" data-name="Trazado 18785" d="M1738.418,773.523V791.49a50.812,50.812,0,0,0-13.145-4.269c-6.354-.9-11-1.246-11-1.246V768.008a51.469,51.469,0,0,1,14.111,1.9A82.577,82.577,0,0,1,1738.418,773.523Z" transform="translate(-1568.407 -684.608)" fill="#1a1a1a"/>
        <path id="Trazado_18786" data-name="Trazado 18786" d="M1817.421,762.206l-.305,69.7s10.823-7.542,16.215-16.121,8.123-16.179,8.429-18.751,1.044-12.319-3.159-18.027S1832.641,769.657,1817.421,762.206Z" transform="translate(-1647.143 -680.168)" fill="#ffce26"/>
        <path id="Trazado_18787" data-name="Trazado 18787" d="M2410.121,1296.172s-7.3,27.939-31.812,39.7l.233-8.541s10.778-3.572,17.6-9.648C2406.129,1308.792,2410.121,1296.172,2410.121,1296.172Z" transform="translate(-2076.794 -1088.974)" fill="#1a1a1a"/>
        <path id="Trazado_18788" data-name="Trazado 18788" d="M2789.837,1302.792s-2.6.447-5.245.959l-4.074,9.486s14.825,17.966,29.274,25.594l8.567,3.739,1.173-1.347s-15.7-9.47-19.372-14.127a55.636,55.636,0,0,0-8.1-8.15,48.864,48.864,0,0,1,4.2-8.482Z" transform="translate(-2384.726 -1094.042)" fill="#b5b5b5"/>
        <path id="Trazado_18789" data-name="Trazado 18789" d="M2784.629,1240s-1.77-4.122-2.26-5.715-1.532-6.373-3.8-6.128-3.125,2.451-2.512,4.718,2.573,7.476.306,7.966-5.875-1.866-8.422-4.12-8.912-7.245-8.912-7.245-2.031.763-2.521,1.866a3.378,3.378,0,0,0,.408,2.6,2.553,2.553,0,0,0-2.563.582c-.909,1.105-1.281,3.026-.7,3.689,0,0-3.043,2.145-1.076,4.867a50.487,50.487,0,0,0,8.34,9.4c3.554,2.941,6.014,5.5,10.391,6.55,0,0,3.7-7.285,5.6-9.92S2784.629,1240,2784.629,1240Z" transform="translate(-2362.831 -1036.892)" fill="#fff"/>
        <path id="Trazado_18790" data-name="Trazado 18790" d="M1973.969,1099.431l7.728,27.937,1.374,3.1,3.287,2.688,1.582.794,14.3-.051,5.469,16.941h-41.435l-14.208-51.163Z" transform="translate(-1750.461 -938.348)" fill="#1a1a1a"/>
        <path id="Trazado_18791" data-name="Trazado 18791" d="M1405.138,854.282c1.379,6.894.368,7.17.368,7.17h2.849l1.177-.6c.186-.62,1.59-5.688-.867-9.745-2.622-4.328-8.322-6-13.469-3.417a9.789,9.789,0,0,0-1.321.815C1395.707,848.375,1403.932,848.25,1405.138,854.282Z" transform="translate(-1323.109 -744.674)" fill="#fff"/>
        <path id="Trazado_18792" data-name="Trazado 18792" d="M1477.477,900.537c2.126.163,10.3,1.1,10.022,5.943-.321,5.552-10.208,14.312-10.24,14.34a23.105,23.105,0,0,0,2.458-1.165,27.509,27.509,0,0,0,6.756-5.747c.811-1.085,3.63-5.8,3.63-5.8s1.987,2.083,2.25,3.386a11.006,11.006,0,0,0-2.561-9.612C1487.3,898.945,1481.478,899.623,1477.477,900.537Z" transform="translate(-1386.948 -785.475)" fill="#fff"/>
        <path id="Trazado_18793" data-name="Trazado 18793" d="M2810.165,930.86s-5.726,2.1-3.709,5.165a4.951,4.951,0,0,0,2.722-1.624A5.913,5.913,0,0,0,2810.165,930.86Z" transform="translate(-2404.255 -809.29)" fill="#fff"/>
        <path id="Trazado_18794" data-name="Trazado 18794" d="M2743.484,806.913a14.7,14.7,0,0,0,10.361-1.409c-3.512,1.124-9.479-1.982-9.479-1.982.4-4.986,7.869-9.332,8.836-9.874-.322,0-.649.015-.982.037-5.833.4-11.873,7.2-11.84,13.315,0,0,2.928,7.308,2.882,7.124S2743.484,806.913,2743.484,806.913Z" transform="translate(-2353.997 -704.24)" fill="#fff"/>
        <path id="Trazado_18795" data-name="Trazado 18795" d="M2766.031,931.75c-12.25.781-10.358-12.137-10.358-12.137s-.553.084-1.3.216a4.235,4.235,0,0,0-1.1.6s-1.129,12.389,7.5,11.809a53.15,53.15,0,0,0,8.607-.367A9.5,9.5,0,0,0,2766.031,931.75Z" transform="translate(-2363.829 -800.679)" fill="#fff"/>
        <path id="Trazado_18796" data-name="Trazado 18796" d="M2805.842,1069.3l-4.254,7.412,2.448,6.089-3.645,27.052-.924-.846-1.455-6.165,2.909-19.675-2.414-6.455,5.777-10.648Z" transform="translate(-2398.12 -912.802)" fill="#fff"/>
        <path id="Trazado_18797" data-name="Trazado 18797" d="M2295.772,1383.077s-3.385-12.166-16.253-11.569-17,10.419-17,10.419,6.382,4.256,17.229,4.249S2295.772,1383.077,2295.772,1383.077Z" transform="translate(-1988.146 -1146.635)" fill="#1a1a1a"/>
        <g id="Grupo_9627" data-name="Grupo 9627" transform="translate(142.204 140.463)">
          <g id="Grupo_9621" data-name="Grupo 9621" transform="translate(0 9.76)">
            <path id="Trazado_18798" data-name="Trazado 18798" d="M1699.132,1073.484a.475.475,0,0,1-.251-.07.484.484,0,0,1-.163-.666c.871-1.437,3.323-6.078,3.349-6.125l1.615-6.288c.067-.3.142-.617.22-.932.535-2.106,1.261-4.449,3.115-5.615a5.676,5.676,0,0,1,3.314-.683,21.9,21.9,0,0,1,4.359.48,7.974,7.974,0,0,1,2.044.673,3.428,3.428,0,0,1,1.754,4.326,4.146,4.146,0,0,1-2.458,2.151,12.388,12.388,0,0,1-3.874.6,11.635,11.635,0,0,1-5.676-1.266.485.485,0,0,1,.446-.861,10.865,10.865,0,0,0,5.208,1.157,11.473,11.473,0,0,0,3.559-.539,3.234,3.234,0,0,0,1.9-1.624,2.466,2.466,0,0,0-1.311-3.082,7.221,7.221,0,0,0-1.8-.586,21.007,21.007,0,0,0-4.165-.458,5.034,5.034,0,0,0-2.787.533c-1.553.977-2.2,3.11-2.691,5.033-.078.3-.15.614-.218.921l-1.66,6.409c-.142.3-2.531,4.818-3.417,6.279A.483.483,0,0,1,1699.132,1073.484Z" transform="translate(-1698.648 -1053.1)"/>
          </g>
          <g id="Grupo_9622" data-name="Grupo 9622" transform="translate(19.266 19.385)">
            <path id="Trazado_18799" data-name="Trazado 18799" d="M1783.7,1103.385a3.052,3.052,0,0,1-2.686-2.455,4.8,4.8,0,0,1,.288-3.289,12.423,12.423,0,0,1,2.2-3.311.485.485,0,0,1,.732.636,11.569,11.569,0,0,0-2.043,3.058,3.828,3.828,0,0,0-.254,2.616c.354,1.131.913,1.68,1.813,1.778a.485.485,0,0,1-.053.967Z" transform="translate(-1780.844 -1094.164)"/>
          </g>
          <g id="Grupo_9623" data-name="Grupo 9623" transform="translate(12.414)">
            <path id="Trazado_18800" data-name="Trazado 18800" d="M1758.609,1024.222a.484.484,0,0,1-.385-.781q1.358-1.765,2.748-3.509l.293-.368c1.369-1.713,2.661-3.331,2.1-5.492-.232-.893-.9-1.841-1.989-1.593a4.066,4.066,0,0,0-1.651.988,45.075,45.075,0,0,0-7.233,8.44.486.486,0,1,1-.8-.558,45.956,45.956,0,0,1,7.4-8.617,5,5,0,0,1,2.064-1.2c1.658-.4,2.779.874,3.146,2.295.681,2.63-.893,4.6-2.282,6.34l-.29.365c-.92,1.161-1.836,2.326-2.739,3.5A.489.489,0,0,1,1758.609,1024.222Z" transform="translate(-1751.61 -1011.461)"/>
          </g>
          <g id="Grupo_9624" data-name="Grupo 9624" transform="translate(18.853 11.497)">
            <path id="Trazado_18801" data-name="Trazado 18801" d="M1784.406,1063.524a.487.487,0,0,1-.463-.338,2.2,2.2,0,0,0-1.729-1.6,2.058,2.058,0,0,0-2.252.575.486.486,0,1,1-.8-.558,2.921,2.921,0,0,1,3.28-.959,3.162,3.162,0,0,1,2.422,2.251.487.487,0,0,1-.317.609A.471.471,0,0,1,1784.406,1063.524Z" transform="translate(-1779.08 -1060.509)"/>
          </g>
          <g id="Grupo_9625" data-name="Grupo 9625" transform="translate(13.335 16.96)">
            <path id="Trazado_18802" data-name="Trazado 18802" d="M1759.692,1090.587a4.328,4.328,0,0,1-3.741-2.011c-.492-.887-.79-2.4.577-4.536a.485.485,0,1,1,.817.524c-.878,1.375-1.066,2.6-.545,3.543a3.352,3.352,0,0,0,2.92,1.51,3.717,3.717,0,0,0,2.433-1.236,18.484,18.484,0,0,0,1.266-1.429c.24-.292.488-.592.781-.924a.485.485,0,1,1,.726.642c-.284.323-.525.616-.759.9a18.94,18.94,0,0,1-1.328,1.5,4.64,4.64,0,0,1-3.11,1.52Z" transform="translate(-1755.538 -1083.818)"/>
          </g>
          <g id="Grupo_9626" data-name="Grupo 9626" transform="translate(12.996 22.19)">
            <path id="Trazado_18803" data-name="Trazado 18803" d="M1754.577,1112.879a.485.485,0,0,1-.379-.787,8.349,8.349,0,0,0,1.782-5.432.487.487,0,0,1,.438-.529.493.493,0,0,1,.529.437,9.184,9.184,0,0,1-1.991,6.129A.483.483,0,0,1,1754.577,1112.879Z" transform="translate(-1754.092 -1106.13)"/>
          </g>
        </g>
        <g id="Grupo_9628" data-name="Grupo 9628" transform="translate(406.844 144.731)">
          <path id="Trazado_18804" data-name="Trazado 18804" d="M2879.6,1140.647c-16.991,0-39.487-17.2-51.8-30.542a.483.483,0,0,1-.1-.5,60.941,60.941,0,0,1,7.3-13.208,90.431,90.431,0,0,1,8.491-9.923.494.494,0,0,1,.546-.088c.242.117,24.347,11.738,39.66,24.62a.485.485,0,1,1-.624.742c-14.284-12.016-36.3-22.944-39.15-24.338a93.83,93.83,0,0,0-8.146,9.57,59.879,59.879,0,0,0-7.055,12.69c18.51,19.967,45.909,36.351,60.469,27.521,20.708-12.569,8.521-42.474-1.271-66.5-1.708-4.19-3.32-8.146-4.689-11.835-.145-.393-.3-.831-.474-1.306-1.975-5.492-5.652-15.714-14.346-21.013-6.143-3.746-14.8-5.894-23.744-5.894a.485.485,0,1,1,0-.969c9.119,0,17.958,2.2,24.249,6.034,8.987,5.476,12.737,15.91,14.753,21.513.17.472.327.907.472,1.3,1.362,3.673,2.973,7.623,4.677,11.805,9.931,24.369,22.291,54.7.875,67.7A19.111,19.111,0,0,1,2879.6,1140.647Z" transform="translate(-2827.67 -1029.672)"/>
        </g>
        <g id="Grupo_9633" data-name="Grupo 9633" transform="translate(388.695 190.632)">
          <g id="Grupo_9632" data-name="Grupo 9632">
            <g id="Grupo_9629" data-name="Grupo 9629" transform="translate(0 5.933)">
              <path id="Trazado_18805" data-name="Trazado 18805" d="M2770.027,1276.865c-6.811-1.049-18.405-13.168-19.607-17.267a3.615,3.615,0,0,1,1.471-4.19,2.849,2.849,0,0,1,.482-3.545,3.53,3.53,0,0,1,1.249-.887,2.947,2.947,0,0,1,2.6.343.486.486,0,0,1-.48.845,2,2,0,0,0-1.763-.287,2.586,2.586,0,0,0-.9.652,1.9,1.9,0,0,0-.108,2.719.488.488,0,0,1,.1.423.482.482,0,0,1-.276.337,2.712,2.712,0,0,0-1.447,3.319c1.122,3.833,12.448,15.6,18.75,16.575a.485.485,0,0,1-.075.965Z" transform="translate(-2750.24 -1250.807)"/>
            </g>
            <g id="Grupo_9630" data-name="Grupo 9630" transform="translate(4.225)">
              <path id="Trazado_18806" data-name="Trazado 18806" d="M2780.207,1241.8a.477.477,0,0,1-.259-.075,85.728,85.728,0,0,1-8.492-7.048c-.173-.171-.377-.358-.6-.56-1.094-1-2.592-2.377-2.6-3.963a3,3,0,0,1,1.1-2.213c2.46-2.282,4.7-.117,6.189,1.311.279.268.687.676,1.174,1.164a70.261,70.261,0,0,0,5.281,4.946c1.261.962,5.105,3.886,6.612,3.164,1.092-.519,1.428-1.513.086-5.28-.966-2.709-1.057-5.247-.238-6.622a2.142,2.142,0,0,1,1.529-1.076c2.934-.436,3.691,1.8,4.306,3.6.139.41.276.814.435,1.177a17.9,17.9,0,0,1,.859,2.708,12.505,12.505,0,0,0,1.933,4.636.485.485,0,0,1-.773.586,13.258,13.258,0,0,1-2.1-4.977,17.365,17.365,0,0,0-.809-2.563c-.17-.388-.316-.817-.466-1.255-.7-2.045-1.277-3.267-3.236-2.956a1.162,1.162,0,0,0-.845.611c-.655,1.1-.527,3.431.318,5.8,1.2,3.359,1.487,5.5-.581,6.48-1.807.854-4.867-1.168-7.62-3.271a69.933,69.933,0,0,1-5.378-5.03c-.482-.482-.885-.885-1.161-1.152-2.036-1.958-3.344-2.7-4.857-1.3a2.052,2.052,0,0,0-.787,1.5c0,1.16,1.319,2.368,2.281,3.25.228.209.441.405.622.585a86.467,86.467,0,0,0,8.327,6.917.485.485,0,0,1-.259.895Z" transform="translate(-2768.265 -1225.496)"/>
            </g>
            <g id="Grupo_9631" data-name="Grupo 9631" transform="translate(1.646 10.23)">
              <path id="Trazado_18807" data-name="Trazado 18807" d="M2768.491,1279.817a.482.482,0,0,1-.306-.108s-2.522-2.039-5.34-4.347a44.677,44.677,0,0,1-5.012-5.177.473.473,0,0,1-.515-.246.485.485,0,0,1,.2-.658c.066-.034.129-.068.173-.089a.611.611,0,0,1,.664.1,46.715,46.715,0,0,0,5.107,5.319c2.815,2.307,5.336,4.344,5.338,4.344a.487.487,0,0,1,.072.683A.481.481,0,0,1,2768.491,1279.817Z" transform="translate(-2757.26 -1269.138)"/>
            </g>
          </g>
        </g>
        <g id="Grupo_9634" data-name="Grupo 9634" transform="translate(138.062 164.884)">
          <path id="Trazado_18808" data-name="Trazado 18808" d="M1706.842,1128.991c-2.678,0-7.375-1.275-12.887-3.494-4.9-1.973-13.9-6.36-12.9-8.84.43-1.071,1.7-1.032,2.465-.995a11.425,11.425,0,0,1,4.037.833.485.485,0,1,1-.375.895,10.374,10.374,0,0,0-3.643-.756c-.771-.034-1.42-.018-1.584.385-.3.759,3.783,4.121,12.366,7.578,5.322,2.143,10,3.423,12.525,3.425a.485.485,0,1,1,0,.97Z" transform="translate(-1680.975 -1115.649)"/>
        </g>
        <g id="Grupo_9639" data-name="Grupo 9639" transform="translate(246.623 134.489)">
          <g id="Grupo_9635" data-name="Grupo 9635" transform="translate(0.01)">
            <path id="Trazado_18809" data-name="Trazado 18809" d="M2170.265,1016.7a.506.506,0,0,1-.211-.047.487.487,0,0,1-.227-.648,30.5,30.5,0,0,0,1.361-4.365c.293-1.112.569-2.161.825-2.876.56-1.573,1.234-3.47.8-4.966a2.13,2.13,0,0,0-1.035-1.329,2.252,2.252,0,0,0-2.12.24,4.992,4.992,0,0,0-1.6,1.875,6.763,6.763,0,0,0-.419,1.3c-.373,1.425-.884,3.375-2.581,3.782-2.441.568-4.267-1.4-5.427-5.878-.488-1.88-.918-3.44-1.358-4.912a61.141,61.141,0,0,0-3.576-9.442l-.151-.315a4.523,4.523,0,0,0-1.261-1.827,1.929,1.929,0,0,0-1.271-.341,2.1,2.1,0,0,0-1.643.86,3.943,3.943,0,0,0-.435,3.149c.6,2.38,3.606,10.653,3.635,10.736a.482.482,0,0,1-.1.491.5.5,0,0,1-.479.146,4,4,0,0,0-2.824.4,3.166,3.166,0,0,0-1.25,2.321.485.485,0,0,1-.448.416,3.98,3.98,0,0,0-2.507,1.283,4.412,4.412,0,0,0-.792,3.407.483.483,0,0,1-.43.533.472.472,0,0,1-.533-.43,5.315,5.315,0,0,1,1.02-4.143,4.827,4.827,0,0,1,2.79-1.564,3.93,3.93,0,0,1,1.613-2.633,4.414,4.414,0,0,1,2.75-.655c-.767-2.125-2.887-8.054-3.392-10.079a4.862,4.862,0,0,1,.594-3.955,3.071,3.071,0,0,1,2.363-1.258,3,3,0,0,1,1.906.529,5.323,5.323,0,0,1,1.564,2.192l.148.307a62.167,62.167,0,0,1,3.632,9.59c.443,1.483.878,3.054,1.367,4.946,1.006,3.874,2.437,5.6,4.263,5.177,1.13-.27,1.539-1.83,1.867-3.083a7.049,7.049,0,0,1,.51-1.521,5.9,5.9,0,0,1,1.92-2.221,3.189,3.189,0,0,1,3.071-.295,3.073,3.073,0,0,1,1.54,1.93c.522,1.8-.243,3.947-.8,5.515-.259.725-.53,1.755-.817,2.845a30.333,30.333,0,0,1-1.423,4.539A.487.487,0,0,1,2170.265,1016.7Z" transform="translate(-2144.167 -985.977)"/>
          </g>
          <g id="Grupo_9636" data-name="Grupo 9636" transform="translate(3.828 18.371)">
            <path id="Trazado_18810" data-name="Trazado 18810" d="M2163.41,1071.854a.482.482,0,0,1-.4-.217c-2.582-3.9-2.552-6.692-2.549-6.809a.5.5,0,0,1,.494-.474.487.487,0,0,1,.476.494c0,.025-.011,2.631,2.386,6.252a.485.485,0,0,1-.4.753Z" transform="translate(-2160.458 -1064.354)"/>
          </g>
          <g id="Grupo_9637" data-name="Grupo 9637" transform="translate(8.477 15.399)">
            <path id="Trazado_18811" data-name="Trazado 18811" d="M2182.958,1058.355a.484.484,0,0,1-.443-.287c-2-4.46-2.213-5.783-2.221-5.838a.486.486,0,0,1,.96-.145,30.292,30.292,0,0,0,2.146,5.587.486.486,0,0,1-.245.641A.5.5,0,0,1,2182.958,1058.355Z" transform="translate(-2180.289 -1051.674)"/>
          </g>
          <g id="Grupo_9638" data-name="Grupo 9638" transform="translate(0 22.972)">
            <path id="Trazado_18812" data-name="Trazado 18812" d="M2147.658,1095.535a.484.484,0,0,1-.408-.223,21.9,21.9,0,0,1-3.124-10.84c0-.268.226-.535.488-.482a.484.484,0,0,1,.482.488,21.32,21.32,0,0,0,2.971,10.31.485.485,0,0,1-.408.747Z" transform="translate(-2144.125 -1083.983)"/>
          </g>
        </g>
        <g id="Grupo_9643" data-name="Grupo 9643" transform="translate(396.154 119.667)">
          <g id="Grupo_9641" data-name="Grupo 9641">
            <g id="Grupo_9640" data-name="Grupo 9640">
              <path id="Trazado_18813" data-name="Trazado 18813" d="M2786.779,930.635a5.45,5.45,0,0,1-2.876-.818,3.561,3.561,0,0,1-1.832-2.415,1.891,1.891,0,0,1,.736-1.76,2.738,2.738,0,0,1,2.637-.182c1.214.488,1.351.433,1.66.316s.446-.176,1-1.362a2.741,2.741,0,0,1,2.059-1.66,1.878,1.878,0,0,1,1.735.789,3.392,3.392,0,0,1,.24,2.888,5.484,5.484,0,0,1-5.361,4.2Zm-3.741-3.32a2.7,2.7,0,0,0,1.375,1.677,4.544,4.544,0,0,0,4.089.341,4.682,4.682,0,0,0,2.7-3.16,2.574,2.574,0,0,0-.073-2.039.93.93,0,0,0-.862-.416,1.808,1.808,0,0,0-1.286,1.107c-.658,1.4-.94,1.624-1.525,1.854s-.941.26-2.38-.32a1.793,1.793,0,0,0-1.695.062.929.929,0,0,0-.348.893Z" transform="translate(-2782.062 -922.742)"/>
            </g>
          </g>
          <g id="Grupo_9642" data-name="Grupo 9642" transform="translate(5.34 1.416)">
            <path id="Trazado_18814" data-name="Trazado 18814" d="M2805.474,935.1a.487.487,0,0,1-.471-.365c-.915-3.61,2.3-5.464,4.134-5.939a.481.481,0,0,1,.591.346.487.487,0,0,1-.346.592c-.178.047-4.344,1.188-3.437,4.761a.488.488,0,0,1-.351.591A.533.533,0,0,1,2805.474,935.1Z" transform="translate(-2804.843 -928.783)"/>
          </g>
        </g>
        <g id="Grupo_9644" data-name="Grupo 9644" transform="translate(390.188 108.871)">
          <path id="Trazado_18815" data-name="Trazado 18815" d="M2758.374,881.852a1.532,1.532,0,0,1-.2-.016c-2.042-.3-1.517-4.288-1.45-4.741a.492.492,0,0,1,.55-.409.485.485,0,0,1,.41.55c-.2,1.4-.145,3.525.633,3.64a.387.387,0,0,0,.327-.1c.633-.5,1.017-2.352,1.11-3.4a.471.471,0,0,1,.525-.44.484.484,0,0,1,.441.526c-.028.32-.31,3.16-1.476,4.08A1.392,1.392,0,0,1,2758.374,881.852Z" transform="translate(-2756.612 -876.681)"/>
        </g>
        <g id="Grupo_9645" data-name="Grupo 9645" transform="translate(401.713 108.923)">
          <path id="Trazado_18816" data-name="Trazado 18816" d="M2807.494,882.1a1.437,1.437,0,0,1-.229-.019c-2.036-.352-1.414-4.323-1.336-4.774a.479.479,0,0,1,.561-.4.485.485,0,0,1,.4.56c-.239,1.394-.231,3.521.544,3.653a.371.371,0,0,0,.313-.089c.661-.494,1.1-2.428,1.231-3.53a.471.471,0,0,1,.536-.427.484.484,0,0,1,.427.536c-.037.335-.407,3.293-1.613,4.2A1.366,1.366,0,0,1,2807.494,882.1Z" transform="translate(-2805.78 -876.904)"/>
        </g>
        <g id="Grupo_9646" data-name="Grupo 9646" transform="translate(94.43 126.436)">
          <path id="Trazado_18817" data-name="Trazado 18817" d="M1498.173,979.158c-.906,0-1.9-.022-2.893-.094a.485.485,0,0,1-.449-.518.477.477,0,0,1,.518-.449c1.592.114,3.2.1,4.423.07l.507-.009c2.194-.041,4.266-.078,5.853-1.573a5.454,5.454,0,0,0,1.215-1.7,10.365,10.365,0,0,0,.674-2.853,21.857,21.857,0,0,0,.179-3.617,58.121,58.121,0,0,0-.708-6.722l-.076-.53c-.386-2.684-1.837-8.882-1.852-8.945a.485.485,0,1,1,.945-.221c.06.256,1.476,6.3,1.867,9.029l.077.528a58.932,58.932,0,0,1,.717,6.836,22.9,22.9,0,0,1-.186,3.775,11.289,11.289,0,0,1-.754,3.121,6.453,6.453,0,0,1-1.432,2.008c-1.859,1.751-4.219,1.793-6.5,1.835l-.5.009C1499.306,979.149,1498.758,979.158,1498.173,979.158Z" transform="translate(-1494.83 -951.621)"/>
        </g>
        <path id="Trazado_18818" data-name="Trazado 18818" d="M1493.336,982.616c.376-.11.655.022.943,1.392.321,1.527-.044,1.851-.392,1.882s-.756-.4-.881-1.506S1492.843,982.76,1493.336,982.616Z" transform="translate(-1398.942 -848.892)"/>
        <path id="Trazado_18819" data-name="Trazado 18819" d="M1535.494,973.666c.373-.123.656,0,.99,1.359.373,1.516.019,1.851-.328,1.894s-.77-.375-.932-1.475S1535.006,973.827,1535.494,973.666Z" transform="translate(-1431.237 -842.035)"/>
        <g id="Grupo_9647" data-name="Grupo 9647" transform="translate(102.36 127.704)">
          <path id="Trazado_18820" data-name="Trazado 18820" d="M1532.335,958.485a.481.481,0,0,1-.266-.08c-.55-.365-1.214-.67-2.741-.05a.486.486,0,0,1-.363-.9c1.871-.756,2.855-.375,3.639.14a.485.485,0,0,1-.268.89Z" transform="translate(-1528.661 -957.029)"/>
        </g>
        <g id="Grupo_9648" data-name="Grupo 9648" transform="translate(79.206 135.718)">
          <path id="Trazado_18821" data-name="Trazado 18821" d="M1435.41,1002.3a5.542,5.542,0,1,1,1.987-10.722,2.973,2.973,0,0,1,1.865,1.253.485.485,0,1,1-.748.617c-.713-.865-1.223-.905-1.229-.905a.657.657,0,0,1-.173-.034,4.571,4.571,0,1,0,1.443,7.576.485.485,0,1,1,.666.7,5.527,5.527,0,0,1-2.622,1.381A5.606,5.606,0,0,1,1435.41,1002.3Z" transform="translate(-1429.88 -991.217)"/>
        </g>
        <g id="Grupo_9649" data-name="Grupo 9649" transform="translate(82.476 138.009)">
          <path id="Trazado_18822" data-name="Trazado 18822" d="M1445.212,1007.324a.485.485,0,0,1-.333-.837l2.666-2.521-3.476-2.072a.485.485,0,1,1,.5-.832l4.027,2.4a.484.484,0,0,1,.086.769l-3.132,2.962A.485.485,0,0,1,1445.212,1007.324Z" transform="translate(-1443.83 -1000.992)"/>
        </g>
        <g id="Grupo_9650" data-name="Grupo 9650" transform="translate(85.463 153.434)">
          <path id="Trazado_18823" data-name="Trazado 18823" d="M1470.194,1086.815a6.354,6.354,0,0,1-2-.335,15.122,15.122,0,0,1-6.106-4.309,31.53,31.53,0,0,1-5.25-8.252l-.224-.511a.485.485,0,0,1,.893-.38l.216.5a30.62,30.62,0,0,0,5.084,8,14.192,14.192,0,0,0,5.69,4.036,4.392,4.392,0,0,0,3.6-.19c3.131-1.836,2.012-4.878.826-8.1a15.845,15.845,0,0,1-1.112-3.99l-.48-6.408.968-.072.48,6.41a15.182,15.182,0,0,0,1.055,3.725c1.151,3.129,2.584,7.023-1.246,9.267A4.7,4.7,0,0,1,1470.194,1086.815Z" transform="translate(-1456.577 -1066.801)"/>
        </g>
        <g id="Grupo_9651" data-name="Grupo 9651" transform="translate(85.337 145.715)">
          <path id="Trazado_18824" data-name="Trazado 18824" d="M1456.649,1048.488a.484.484,0,0,1-.485-.48l-.127-13.651a.478.478,0,0,1,.485-.49.484.484,0,0,1,.485.48l.127,13.651a.483.483,0,0,1-.48.489Z" transform="translate(-1456.037 -1033.868)"/>
        </g>
        <g id="Grupo_9652" data-name="Grupo 9652" transform="translate(130.524 228.929)">
          <path id="Trazado_18825" data-name="Trazado 18825" d="M1651.008,1432.719a.485.485,0,0,1-.485-.463c-.268-5.881-.454-11.724-.635-17.375-.264-8.271-.537-16.824-1.069-25.487a.486.486,0,0,1,.454-.514.493.493,0,0,1,.514.455c.533,8.677.807,17.238,1.071,25.517.181,5.646.367,11.485.635,17.361a.485.485,0,0,1-.463.506Z" transform="translate(-1648.817 -1388.88)"/>
        </g>
        <g id="Grupo_9653" data-name="Grupo 9653" transform="translate(100.699 159.394)">
          <path id="Trazado_18826" data-name="Trazado 18826" d="M1550.115,1138.826a.485.485,0,0,1-.482-.438,209.3,209.3,0,0,0-5.473-32.238,26.364,26.364,0,0,0-2.48-6.811c-3.532-6.07-10.908-6.1-17.415-6.125-.752,0-1.492-.006-2.212-.019a.485.485,0,0,1,.008-.969c.724.012,1.459.014,2.207.017,6.768.026,14.438.058,18.25,6.606a27.2,27.2,0,0,1,2.582,7.06,210.308,210.308,0,0,1,5.5,32.385.486.486,0,0,1-.437.53C1550.146,1138.826,1550.13,1138.826,1550.115,1138.826Z" transform="translate(-1521.576 -1092.226)"/>
        </g>
        <g id="Grupo_9654" data-name="Grupo 9654" transform="translate(99.612 130.835)">
          <path id="Trazado_18827" data-name="Trazado 18827" d="M1521.47,981.408a.434.434,0,0,1-.11-.012.485.485,0,0,1-.362-.583c.38-1.632.466-3.387.175-3.612a5.515,5.515,0,0,0-2.305.781.493.493,0,0,1-.438.006.488.488,0,0,1-.264-.349l-1.216-6.678a.485.485,0,0,1,.39-.564.479.479,0,0,1,.564.39l1.1,6.047c.945-.44,2.175-.853,2.761-.4.956.739.442,3.462.176,4.6A.485.485,0,0,1,1521.47,981.408Z" transform="translate(-1516.94 -970.387)"/>
        </g>
        <g id="Grupo_9655" data-name="Grupo 9655" transform="translate(52.694 159.394)">
          <path id="Trazado_18828" data-name="Trazado 18828" d="M1317.26,1116.717a.477.477,0,0,1-.153-.025.485.485,0,0,1-.308-.612c3.212-9.7,7.089-15.992,11.523-18.7,5.224-3.185,10.581-5.158,21.127-5.158a.485.485,0,1,1,0,.969c-10.32,0-15.541,1.92-20.622,5.018-4.232,2.579-7.969,8.692-11.107,18.172A.485.485,0,0,1,1317.26,1116.717Z" transform="translate(-1316.775 -1092.226)"/>
        </g>
        <g id="Grupo_9656" data-name="Grupo 9656" transform="translate(31.347 250.294)">
          <path id="Trazado_18829" data-name="Trazado 18829" d="M1226.187,1502.5a.536.536,0,0,1-.1-.009.486.486,0,0,1-.378-.572c1.522-7.442,3.038-14.678,4.5-21.509a.485.485,0,0,1,.949.2c-1.466,6.829-2.981,14.062-4.5,21.5A.485.485,0,0,1,1226.187,1502.5Z" transform="translate(-1225.701 -1480.03)"/>
        </g>
        <g id="Grupo_9657" data-name="Grupo 9657" transform="translate(70.677 255.308)">
          <path id="Trazado_18830" data-name="Trazado 18830" d="M1393.981,1518.881a.557.557,0,0,1-.1-.009.486.486,0,0,1-.376-.574c1.1-5.275,2.048-10.508,2.987-16.466a.485.485,0,0,1,.959.15c-.942,5.977-1.894,11.224-3,16.513A.485.485,0,0,1,1393.981,1518.881Z" transform="translate(-1393.495 -1501.422)"/>
        </g>
        <g id="Grupo_9658" data-name="Grupo 9658" transform="translate(71.979 113.663)">
          <path id="Trazado_18831" data-name="Trazado 18831" d="M1412.44,932.4c-8.189-.781-13.792-9.512-13.368-20.764.154-4.075,1.463-7.194,3.892-9.272,3.634-3.108,8.515-2.826,9.4-2.748,1.466-.619,14.32-5.792,18.688.9a12.942,12.942,0,0,1,2.122,10,.45.45,0,0,1-.487.354.485.485,0,0,1-.456-.393,7.848,7.848,0,0,0-1.889-3.786,24.945,24.945,0,0,1-15.867,13.779.485.485,0,1,1-.257-.935,23.912,23.912,0,0,0,15.49-13.849.489.489,0,0,1,.321-.306.479.479,0,0,1,.435.084,7.856,7.856,0,0,1,1.988,2.623,13.055,13.055,0,0,0-2.212-7.044c-4.09-6.262-17.472-.546-17.607-.488a.531.531,0,0,1-.25.037c-.055-.008-5.2-.569-8.793,2.514-2.211,1.894-3.4,4.776-3.547,8.566-.4,10.72,4.829,19.03,12.443,19.758a.485.485,0,0,1-.045.968Z" transform="translate(-1399.05 -897.125)"/>
        </g>
        <g id="Grupo_9659" data-name="Grupo 9659" transform="translate(353.447 145.217)">
          <path id="Trazado_18832" data-name="Trazado 18832" d="M2600.348,1047.85a.484.484,0,0,1-.377-.79,19.889,19.889,0,0,1,2.726-2.736c10.8-9.283,20.813-10.843,29.651-12.218.759-.119,1.509-.235,2.251-.356a.485.485,0,1,1,.156.957c-.743.122-1.5.238-2.257.357-8.709,1.356-18.581,2.892-29.167,12a18.993,18.993,0,0,0-2.6,2.611A.485.485,0,0,1,2600.348,1047.85Z" transform="translate(-2599.863 -1031.744)"/>
        </g>
        <g id="Grupo_9660" data-name="Grupo 9660" transform="translate(387.775 138.437)">
          <path id="Trazado_18833" data-name="Trazado 18833" d="M2752.649,1039.311a.506.506,0,0,1-.475-.387l-5.849-28.407a.482.482,0,0,1,.157-.464l8.218-7.113a.5.5,0,0,1,.382-.115.487.487,0,0,1,.338.21l9.277,13.732,8.949-13.726a.484.484,0,0,1,.7-.121l8.324,6.293a.485.485,0,0,1,.183.483l-4.8,23.443a.485.485,0,1,1-.951-.193l4.74-23.144-7.666-5.8-8.9,13.659,9.914,17.97a.484.484,0,0,1-.848.468l-9.638-17.465-11.629,20.429A.483.483,0,0,1,2752.649,1039.311Zm-5.316-28.711,5.531,26.866,11.27-19.8-9.213-13.635Z" transform="translate(-2746.315 -1002.82)"/>
        </g>
        <g id="Grupo_9661" data-name="Grupo 9661" transform="translate(399.62 163.423)">
          <path id="Trazado_18834" data-name="Trazado 18834" d="M2800.032,1116.855a.482.482,0,0,1-.447-.3l-2.7-6.469a.485.485,0,0,1,.9-.374l2.573,6.17,6.619-.014,1.964-5.891a.485.485,0,0,1,.92.306l-2.075,6.223a.484.484,0,0,1-.458.332l-7.291.016Z" transform="translate(-2796.849 -1109.414)"/>
        </g>
        <g id="Grupo_9662" data-name="Grupo 9662" transform="translate(414.09 119.791)">
          <path id="Trazado_18835" data-name="Trazado 18835" d="M2860.005,942.888a.486.486,0,0,1-.485-.46l-.938-18.647a.487.487,0,0,1,.46-.51.492.492,0,0,1,.51.46l.938,18.647a.487.487,0,0,1-.46.51Z" transform="translate(-2858.582 -923.272)"/>
        </g>
        <g id="Grupo_9663" data-name="Grupo 9663" transform="translate(395.994 131.056)">
          <path id="Trazado_18836" data-name="Trazado 18836" d="M2781.864,979.68a.485.485,0,0,1-.485-.491l.09-7.383a.485.485,0,0,1,.97.012l-.09,7.383A.485.485,0,0,1,2781.864,979.68Z" transform="translate(-2781.38 -971.328)"/>
        </g>
        <g id="Grupo_9664" data-name="Grupo 9664" transform="translate(399.407 169.895)">
          <path id="Trazado_18837" data-name="Trazado 18837" d="M2796.427,1157.656a.5.5,0,0,1-.48-.557l2.91-19.66a.486.486,0,1,1,.96.143l-2.91,19.66A.486.486,0,0,1,2796.427,1157.656Z" transform="translate(-2795.942 -1137.028)"/>
        </g>
        <g id="Grupo_9665" data-name="Grupo 9665" transform="translate(409.608 169.88)">
          <path id="Trazado_18838" data-name="Trazado 18838" d="M2841.42,1150.046a.485.485,0,0,1-.481-.426l-1.473-12.114a.485.485,0,1,1,.963-.118l1.473,12.114a.486.486,0,0,1-.422.541Z" transform="translate(-2839.462 -1136.965)"/>
        </g>
        <g id="Grupo_9666" data-name="Grupo 9666" transform="translate(395.306 171.002)">
          <path id="Trazado_18839" data-name="Trazado 18839" d="M2783.962,1166.835a.486.486,0,0,1-.476-.385l-5.033-24.118a.486.486,0,1,1,.951-.2l5.034,24.118a.486.486,0,0,1-.376.575A.541.541,0,0,1,2783.962,1166.835Z" transform="translate(-2778.443 -1141.748)"/>
        </g>
        <g id="Grupo_9667" data-name="Grupo 9667" transform="translate(405.738 236.026)">
          <path id="Trazado_18840" data-name="Trazado 18840" d="M2823.637,1456.312a.485.485,0,0,1-.485-.482l-.2-36.184a.49.49,0,0,1,.485-.488.485.485,0,0,1,.485.482l.2,36.184a.485.485,0,0,1-.482.488Z" transform="translate(-2822.951 -1419.159)"/>
        </g>
        <g id="Grupo_9668" data-name="Grupo 9668" transform="translate(297.49 237.878)">
          <path id="Trazado_18841" data-name="Trazado 18841" d="M2361.624,1461.949a.484.484,0,0,1-.459-.639c2.218-6.614,3.249-23.761,3.8-32.974l.048-.822a.47.47,0,0,1,.514-.455.488.488,0,0,1,.455.515l-.05.82c-.556,9.258-1.592,26.489-3.85,33.225A.485.485,0,0,1,2361.624,1461.949Z" transform="translate(-2361.139 -1427.059)"/>
        </g>
        <g id="Grupo_9669" data-name="Grupo 9669" transform="translate(97.395 142.9)">
          <path id="Trazado_18842" data-name="Trazado 18842" d="M1511.093,1025.643a3.307,3.307,0,0,1-1.525-.359,4.579,4.579,0,0,1-2.078-2.837.486.486,0,0,1,.364-.58.491.491,0,0,1,.582.363,3.65,3.65,0,0,0,1.582,2.193,3.09,3.09,0,0,0,2.645-.111.485.485,0,0,1,.375.895A5.064,5.064,0,0,1,1511.093,1025.643Z" transform="translate(-1507.478 -1021.858)"/>
        </g>
        <g id="Grupo_9670" data-name="Grupo 9670" transform="translate(388.958 102.66)">
          <path id="Trazado_18843" data-name="Trazado 18843" d="M2760.106,879.552c-2.6,0-5.3-.31-6.977-2.862-1.715-2.613-1.726-6.019-1.735-9.024,0-.658,0-1.3-.023-1.925-.064-2.047.243-14.552.256-15.083a.485.485,0,0,1,.97.023c0,.13-.318,13.009-.256,15.028.021.631.022,1.286.023,1.953.011,3.01.02,6.123,1.576,8.494,1.653,2.519,4.579,2.46,7.4,2.408.362-.008.72-.014,1.073-.016a28.093,28.093,0,0,0,6.142-.611c1.655-.372,3.367-.758,4.335-2.19a10.6,10.6,0,0,0,1.366-5.372,21.138,21.138,0,0,0-.08-3.28c-.323-2.644-.782-6.745-.782-6.745a.47.47,0,0,1,.028-.227,6.37,6.37,0,0,1,1.9-2.649,6.343,6.343,0,0,1,8.926.875,6.342,6.342,0,0,1-8.758,9.06.486.486,0,0,1,.593-.77,5.369,5.369,0,1,0-1.715-6.277c.078.692.479,4.245.769,6.624a22.192,22.192,0,0,1,.086,3.434,11.482,11.482,0,0,1-1.531,5.871c-1.183,1.75-3.171,2.2-4.926,2.6a29.019,29.019,0,0,1-6.349.633c-.349,0-.7.009-1.06.016C2760.948,879.543,2760.527,879.552,2760.106,879.552Z" transform="translate(-2751.362 -850.185)"/>
        </g>
        <g id="Grupo_9671" data-name="Grupo 9671" transform="translate(389.326 105.159)">
          <path id="Trazado_18844" data-name="Trazado 18844" d="M2753.419,863.287a.475.475,0,0,1-.2-.046.484.484,0,0,1-.235-.644c.011-.024,1.191-2.447,4.625-1.552a.484.484,0,0,1,.346.592.479.479,0,0,1-.593.347c-2.659-.695-3.49,1-3.5,1.022A.484.484,0,0,1,2753.419,863.287Z" transform="translate(-2752.934 -860.847)"/>
        </g>
        <g id="Grupo_9672" data-name="Grupo 9672" transform="translate(400.806 104.892)">
          <path id="Trazado_18845" data-name="Trazado 18845" d="M2807.638,862.686a.484.484,0,0,1-.382-.185c-2.251-2.878-4.507-1.524-4.6-1.464a.488.488,0,0,1-.667-.152.482.482,0,0,1,.146-.666c.031-.018,3.075-1.907,5.886,1.683a.485.485,0,0,1-.382.784Z" transform="translate(-2801.911 -859.706)"/>
        </g>
        <g id="Grupo_9673" data-name="Grupo 9673" transform="translate(413.767 110.931)">
          <path id="Trazado_18846" data-name="Trazado 18846" d="M2862.24,892.922a.479.479,0,0,1-.215-.05l-4.55-2.251a.485.485,0,0,1-.131-.775l4.137-4.227a.484.484,0,1,1,.692.678l-3.669,3.75,3.952,1.955a.485.485,0,0,1-.215.92Z" transform="translate(-2857.204 -885.473)"/>
        </g>
        <g id="Grupo_9674" data-name="Grupo 9674" transform="translate(405.858 91.183)">
          <path id="Trazado_18847" data-name="Trazado 18847" d="M2823.948,805.146a.484.484,0,0,1-.377-.789l2.38-2.957a.484.484,0,1,1,.754.608l-2.38,2.957A.481.481,0,0,1,2823.948,805.146Z" transform="translate(-2823.463 -801.22)"/>
        </g>
        <g id="Grupo_9675" data-name="Grupo 9675" transform="translate(388.107 97.21)">
          <path id="Trazado_18848" data-name="Trazado 18848" d="M2759.295,848.422a.485.485,0,0,1-.335-.836c1.415-1.353,4-1.115,6.092-.921a8.772,8.772,0,0,0,2.117.058c.561-.146,1.323-3.316,1.6-6.648l.355-1.447a18.862,18.862,0,0,1-4.592-10.156,18.322,18.322,0,0,1-16.422,4.211.485.485,0,0,1-.362-.583.479.479,0,0,1,.583-.362,17.336,17.336,0,0,0,16.229-4.641.485.485,0,0,1,.848.306,18.2,18.2,0,0,0,4.6,10.75.486.486,0,0,1,.118.452l-.407,1.627c-.162,2.043-.74,7.019-2.307,7.429a8.376,8.376,0,0,1-2.454-.031c-1.785-.164-4.234-.391-5.331.658A.48.48,0,0,1,2759.295,848.422Z" transform="translate(-2747.734 -826.935)"/>
        </g>
        <g id="Grupo_9676" data-name="Grupo 9676" transform="translate(389.002 118.439)">
          <path id="Trazado_18849" data-name="Trazado 18849" d="M2752.035,919.067a.485.485,0,0,1-.262-.893,4.606,4.606,0,0,1,3.812-.449.485.485,0,0,1-.329.913,3.682,3.682,0,0,0-2.959.352A.485.485,0,0,1,2752.035,919.067Z" transform="translate(-2751.55 -917.501)"/>
        </g>
        <g id="Grupo_9677" data-name="Grupo 9677" transform="translate(0 271.798)">
          <path id="Trazado_18850" data-name="Trazado 18850" d="M1568.379,1572.741H1092.453a.485.485,0,0,1,0-.969h475.926a.485.485,0,1,1,0,.969Z" transform="translate(-1091.968 -1571.772)"/>
        </g>
        <g id="Grupo_9678" data-name="Grupo 9678" transform="translate(325.479 140.122)">
          <path id="Trazado_18851" data-name="Trazado 18851" d="M2485.39,1021.558a5.8,5.8,0,0,1-4.759-2.505.486.486,0,1,1,.8-.549,4.8,4.8,0,1,0,1.038-6.535.485.485,0,1,1-.589-.77,5.77,5.77,0,1,1,3.509,10.359Z" transform="translate(-2480.546 -1010.009)"/>
        </g>
        <g id="Grupo_9679" data-name="Grupo 9679" transform="translate(327.664 143.329)">
          <path id="Trazado_18852" data-name="Trazado 18852" d="M2492.919,1029.445a.483.483,0,0,1-.393-.2l-2.567-3.523a.486.486,0,0,1-.066-.443.48.48,0,0,1,.324-.309l4.374-1.264a.485.485,0,0,1,.268.932l-3.708,1.073,2.16,2.963a.484.484,0,0,1-.393.77Z" transform="translate(-2489.867 -1023.689)"/>
        </g>
        <g id="Grupo_9680" data-name="Grupo 9680" transform="translate(369.966 202.194)">
          <path id="Trazado_18853" data-name="Trazado 18853" d="M2671.717,1345.4a.485.485,0,0,1-.483-.438,246.562,246.562,0,0,1-.449-35.476c.572-8.569.651-19.744.245-34.16a.485.485,0,1,1,.97-.028c.407,14.449.327,25.652-.245,34.254a244.888,244.888,0,0,0,.446,35.317.485.485,0,0,1-.437.53Z" transform="translate(-2670.34 -1274.825)"/>
        </g>
        <g id="Grupo_9681" data-name="Grupo 9681" transform="translate(315.437 132.153)">
          <path id="Trazado_18854" data-name="Trazado 18854" d="M2445.263,1003.408c-2.915-.268-5-1.342-6.252-3.193-2.274-3.372-.907-8.058-.848-8.254l3.813-15.581a.477.477,0,0,1,.586-.355.484.484,0,0,1,.355.586l-3.819,15.6c-.019.067-1.3,4.474.72,7.46,1.079,1.6,2.926,2.527,5.49,2.764a.485.485,0,0,1-.045.968Z" transform="translate(-2437.701 -976.01)"/>
        </g>
        <g id="Grupo_9682" data-name="Grupo 9682" transform="translate(313.649 133.176)">
          <path id="Trazado_18855" data-name="Trazado 18855" d="M2432.232,993.178a2.064,2.064,0,0,1-.55-.077l-.122-.034a2.035,2.035,0,0,1-1.408-2.5l2.443-8.709a2.037,2.037,0,0,1,2.5-1.406l.122.034a2.034,2.034,0,0,1,1.407,2.5l-2.443,8.707a2.039,2.039,0,0,1-1.953,1.483Zm2.32-11.833a1.062,1.062,0,0,0-1.021.773l-2.443,8.709a1.059,1.059,0,0,0,.732,1.3l.122.034a1.062,1.062,0,0,0,1.308-.733l2.443-8.708a1.061,1.061,0,0,0-.733-1.306l-.121-.034A1.09,1.09,0,0,0,2434.552,981.345Z" transform="translate(-2430.077 -980.376)"/>
        </g>
        <g id="Grupo_9683" data-name="Grupo 9683" transform="translate(319.462 121.189)">
          <path id="Trazado_18856" data-name="Trazado 18856" d="M2495.523,1015.728a30.021,30.021,0,0,1-8.772-1.489c-2.469-.75-5.249-1.807-7.139-3.97-2.307-2.639-3.112-6.6-2.39-11.783.177-1.277.421-2.561.656-3.8a44.3,44.3,0,0,0,.9-6.525,7.245,7.245,0,0,0-.723-3.936c-1.249-2.107-4.145-2.951-6.215-3.4-.491-.106-.984-.2-1.478-.3a23.787,23.787,0,0,1-4.483-1.185,13.673,13.673,0,0,1-7.936-12.039c-.078-3.724,3.085-6.828,6.072-8.491a.485.485,0,1,1,.471.848c-2.739,1.526-5.641,4.329-5.573,7.624a12.665,12.665,0,0,0,7.334,11.16,23.064,23.064,0,0,0,4.3,1.13c.5.1,1,.2,1.5.3,2.248.49,5.4,1.423,6.845,3.855a8.136,8.136,0,0,1,.857,4.468,44.954,44.954,0,0,1-.921,6.67c-.232,1.23-.474,2.5-.648,3.755-.679,4.889.047,8.594,2.159,11.01,1.73,1.98,4.354,2.971,6.69,3.68a29.093,29.093,0,0,0,8.491,1.446h.195c8.5-.079,14.881-6.759,14.837-15.534-.046-9.365-4.731-18.562-11.657-22.884-1.069-.667-2.237-1.275-3.365-1.863-2.865-1.494-5.828-3.038-7.68-5.761-3.043-4.474-1.755-9.408-.509-14.178a46.192,46.192,0,0,0,1.107-4.962c2.031-14.189-4.829-17.838-9.1-18.75-1.093-.231-6.653.426-10.125.926a.5.5,0,0,1-.254-.033c-6.611-2.739-10.081-.949-10.59-.646-.443.675-3.545,5.649-2.182,10.505.857,3.054,3.306,5.49,7.281,7.241a.485.485,0,1,1-.389.889c-4.257-1.875-6.89-4.526-7.828-7.874-1.579-5.641,2.213-11.16,2.375-11.392a.477.477,0,0,1,.115-.117c.153-.109,3.858-2.664,11.467.447,1.361-.195,8.776-1.227,10.334-.895,4.6.982,12,4.865,9.858,19.834a47.407,47.407,0,0,1-1.128,5.07c-1.192,4.561-2.424,9.276.371,13.387,1.715,2.522,4.441,3.942,7.328,5.446,1.144.6,2.329,1.213,3.431,1.9,7.2,4.491,12.064,14.016,12.112,23.7.046,9.328-6.745,16.425-15.8,16.51Z" transform="translate(-2454.877 -929.235)"/>
        </g>
        <g id="Grupo_9684" data-name="Grupo 9684" transform="translate(211.786 110.602)">
          <path id="Trazado_18857" data-name="Trazado 18857" d="M2035.825,969.555h-12.756a8.782,8.782,0,0,1-8.441-6.423l-18.8-67.971a8.758,8.758,0,0,1,8.441-11.093h104.877a8.782,8.782,0,0,1,8.441,6.422l1.626,5.78a.486.486,0,0,1-.935.262l-1.626-5.782a7.808,7.808,0,0,0-7.506-5.713H2004.266a7.788,7.788,0,0,0-7.506,9.864l18.8,67.971a7.808,7.808,0,0,0,7.506,5.712h12.756a.485.485,0,0,1,0,.97Z" transform="translate(-1995.503 -884.069)"/>
        </g>
        <g id="Grupo_9685" data-name="Grupo 9685" transform="translate(285.917 195.119)">
          <path id="Trazado_18858" data-name="Trazado 18858" d="M2329.676,1245.609h-17.43a.485.485,0,0,1,0-.97h17.43a.485.485,0,1,1,0,.97Z" transform="translate(-2311.762 -1244.639)"/>
        </g>
        <g id="Grupo_9686" data-name="Grupo 9686" transform="translate(315.441 117.615)">
          <path id="Trazado_18859" data-name="Trazado 18859" d="M2448.615,918.423a.484.484,0,0,1-.468-.355,4.3,4.3,0,0,0-4.463-3.11h-5.479a.485.485,0,1,1,0-.97h5.479a5.227,5.227,0,0,1,5.4,3.821.485.485,0,0,1-.338.6A.471.471,0,0,1,2448.615,918.423Z" transform="translate(-2437.72 -913.988)"/>
        </g>
        <g id="Grupo_9687" data-name="Grupo 9687" transform="translate(220.592 117.615)">
          <path id="Trazado_18860" data-name="Trazado 18860" d="M2063.01,985.448h-5.948a7.339,7.339,0,0,1-7.052-5.366l-16.783-60.665a4.288,4.288,0,0,1,4.133-5.43h74.3a.485.485,0,0,1,0,.97h-74.3a3.318,3.318,0,0,0-3.2,4.2l16.782,60.665a6.367,6.367,0,0,0,6.117,4.655h5.948a.485.485,0,0,1,0,.97Z" transform="translate(-2033.07 -913.988)"/>
        </g>
        <g id="Grupo_9688" data-name="Grupo 9688" transform="translate(283.362 188.106)">
          <path id="Trazado_18861" data-name="Trazado 18861" d="M2324.184,1215.689h-22.837a.485.485,0,0,1,0-.97h22.837a.485.485,0,1,1,0,.97Z" transform="translate(-2300.862 -1214.719)"/>
        </g>
        <g id="Grupo_9692" data-name="Grupo 9692" transform="translate(237.962 129.988)">
          <g id="Grupo_9689" data-name="Grupo 9689">
            <path id="Trazado_18862" data-name="Trazado 18862" d="M2135.8,967.742h-28.144a.485.485,0,0,1,0-.969H2135.8a.485.485,0,0,1,0,.969Z" transform="translate(-2107.176 -966.773)"/>
          </g>
          <g id="Grupo_9690" data-name="Grupo 9690" transform="translate(18.801 6.128)">
            <path id="Trazado_18863" data-name="Trazado 18863" d="M2199.021,993.885h-11.15a.485.485,0,1,1,0-.97h11.15a.485.485,0,0,1,0,.97Z" transform="translate(-2187.386 -992.915)"/>
          </g>
          <g id="Grupo_9691" data-name="Grupo 9691" transform="translate(1.808 6.128)">
            <path id="Trazado_18864" data-name="Trazado 18864" d="M2126.9,993.885h-11.523a.485.485,0,1,1,0-.97H2126.9a.485.485,0,0,1,0,.97Z" transform="translate(-2114.89 -992.915)"/>
          </g>
        </g>
        <g id="Grupo_9695" data-name="Grupo 9695" transform="translate(287.354 129.988)">
          <g id="Grupo_9693" data-name="Grupo 9693">
            <path id="Trazado_18865" data-name="Trazado 18865" d="M2346.521,967.742h-28.142a.485.485,0,0,1,0-.969h28.142a.485.485,0,1,1,0,.969Z" transform="translate(-2317.894 -966.773)"/>
          </g>
          <g id="Grupo_9694" data-name="Grupo 9694" transform="translate(1.807 6.128)">
            <path id="Trazado_18866" data-name="Trazado 18866" d="M2352.568,993.885h-26.482a.485.485,0,1,1,0-.97h26.482a.485.485,0,0,1,0,.97Z" transform="translate(-2325.601 -992.915)"/>
          </g>
        </g>
        <g id="Grupo_9700" data-name="Grupo 9700" transform="translate(244.517 148.432)">
          <g id="Grupo_9696" data-name="Grupo 9696" transform="translate(16.687)">
            <path id="Trazado_18867" data-name="Trazado 18867" d="M2218.273,1046.43h-11.454a.485.485,0,1,1,0-.97h11.454a.485.485,0,1,1,0,.97Z" transform="translate(-2206.334 -1045.46)"/>
          </g>
          <g id="Grupo_9697" data-name="Grupo 9697">
            <path id="Trazado_18868" data-name="Trazado 18868" d="M2145.684,1046.43h-10.058a.485.485,0,1,1,0-.97h10.058a.485.485,0,1,1,0,.97Z" transform="translate(-2135.141 -1045.46)"/>
          </g>
          <g id="Grupo_9698" data-name="Grupo 9698" transform="translate(18.91 6.128)">
            <path id="Trazado_18869" data-name="Trazado 18869" d="M2221.815,1072.572H2216.3a.485.485,0,0,1,0-.97h5.514a.485.485,0,0,1,0,.97Z" transform="translate(-2215.817 -1071.602)"/>
          </g>
          <g id="Grupo_9699" data-name="Grupo 9699" transform="translate(1.808 6.128)">
            <path id="Trazado_18870" data-name="Trazado 18870" d="M2144.31,1072.572h-.969a.485.485,0,0,1,0-.97h.969a.485.485,0,0,1,0,.97Z" transform="translate(-2142.856 -1071.602)"/>
          </g>
        </g>
        <g id="Grupo_9703" data-name="Grupo 9703" transform="translate(293.907 148.432)">
          <g id="Grupo_9701" data-name="Grupo 9701">
            <path id="Trazado_18871" data-name="Trazado 18871" d="M2367.925,1046.43h-21.589a.485.485,0,0,1,0-.97h21.589a.485.485,0,1,1,0,.97Z" transform="translate(-2345.852 -1045.46)"/>
          </g>
          <g id="Grupo_9702" data-name="Grupo 9702" transform="translate(1.808 6.128)">
            <path id="Trazado_18872" data-name="Trazado 18872" d="M2374.34,1072.572h-20.288a.485.485,0,0,1,0-.97h20.288a.485.485,0,0,1,0,.97Z" transform="translate(-2353.567 -1071.602)"/>
          </g>
        </g>
        <g id="Grupo_9706" data-name="Grupo 9706" transform="translate(276.667 166.875)">
          <g id="Grupo_9704" data-name="Grupo 9704">
            <path id="Trazado_18873" data-name="Trazado 18873" d="M2275.22,1125.11h-2.437a.485.485,0,0,1,0-.969h2.437a.485.485,0,1,1,0,.969Z" transform="translate(-2272.299 -1124.141)"/>
          </g>
          <g id="Grupo_9705" data-name="Grupo 9705" transform="translate(2.019 6.128)">
            <path id="Trazado_18874" data-name="Trazado 18874" d="M2283.62,1151.253H2281.4a.485.485,0,1,1,0-.97h2.224a.485.485,0,1,1,0,.97Z" transform="translate(-2280.911 -1150.283)"/>
          </g>
        </g>
        <g id="Grupo_9709" data-name="Grupo 9709" transform="translate(300.352 166.875)">
          <g id="Grupo_9707" data-name="Grupo 9707">
            <path id="Trazado_18875" data-name="Trazado 18875" d="M2398.958,1125.11H2373.83a.485.485,0,0,1,0-.969h25.128a.485.485,0,1,1,0,.969Z" transform="translate(-2373.345 -1124.141)"/>
          </g>
          <g id="Grupo_9708" data-name="Grupo 9708" transform="translate(1.807 6.128)">
            <path id="Trazado_18876" data-name="Trazado 18876" d="M2394.712,1151.253h-13.175a.485.485,0,1,1,0-.97h13.175a.485.485,0,1,1,0,.97Z" transform="translate(-2381.052 -1150.283)"/>
          </g>
        </g>
        <g id="Grupo_9710" data-name="Grupo 9710" transform="translate(65.286 101.488)">
          <path id="Trazado_18877" data-name="Trazado 18877" d="M1377.673,868.4a.459.459,0,0,1-.121-.016c-5.575-1.434-7.52-7.381-6.968-12.3.55-4.9,3.812-10.691,11.193-10.9q5.613-.145,8.385,3.168c3.6,4.3,2.2,11.327,2.142,11.623a.485.485,0,0,1-.951-.2c.014-.069,1.367-6.868-1.937-10.806-1.648-1.966-4.231-2.914-7.61-2.818-6.76.191-9.75,5.527-10.257,10.038s1.232,9.962,6.245,11.253a.485.485,0,0,1-.121.954Z" transform="translate(-1370.494 -845.184)"/>
        </g>
        <g id="Grupo_9711" data-name="Grupo 9711" transform="translate(41.245 153.557)">
          <path id="Trazado_18878" data-name="Trazado 18878" d="M1268.415,1088.687a.484.484,0,0,1-.274-.885,159.1,159.1,0,0,1,44.133-20.455.485.485,0,1,1,.277.929,158.193,158.193,0,0,0-43.865,20.327A.477.477,0,0,1,1268.415,1088.687Z" transform="translate(-1267.929 -1067.327)"/>
        </g>
        <g id="Grupo_9712" data-name="Grupo 9712" transform="translate(107.534 147.184)">
          <path id="Trazado_18879" data-name="Trazado 18879" d="M1551.22,1042.238a.485.485,0,0,1-.08-.963c2.722-.461,5.128-.811,7.8-1.132a.477.477,0,0,1,.539.424.485.485,0,0,1-.424.539c-2.658.319-5.051.667-7.757,1.126A.513.513,0,0,1,1551.22,1042.238Z" transform="translate(-1550.736 -1040.136)"/>
        </g>
        <g id="Grupo_9713" data-name="Grupo 9713" transform="translate(41.489 81.293)">
          <path id="Trazado_18880" data-name="Trazado 18880" d="M1269.455,781.664a.485.485,0,0,1-.275-.885c13.276-9.063,29.079-16.2,46.969-21.222q.93-.262,1.853-.51a.48.48,0,0,1,.595.342.485.485,0,0,1-.342.595q-.919.248-1.844.507c-17.789,4.991-33.5,12.086-46.684,21.089A.485.485,0,0,1,1269.455,781.664Z" transform="translate(-1268.969 -759.029)"/>
        </g>
        <g id="Grupo_9714" data-name="Grupo 9714" transform="translate(104.906 76.427)">
          <path id="Trazado_18881" data-name="Trazado 18881" d="M1540.01,740.776a.486.486,0,0,1-.086-.963c3.461-.624,6.973-1.143,10.439-1.543a.485.485,0,0,1,.111.964c-3.444.4-6.936.913-10.376,1.535A.56.56,0,0,1,1540.01,740.776Z" transform="translate(-1539.526 -738.268)"/>
        </g>
        <g id="Grupo_9715" data-name="Grupo 9715" transform="translate(163.685 81.554)">
          <path id="Trazado_18882" data-name="Trazado 18882" d="M1790.776,853.549a.487.487,0,0,1-.485-.5l.5-18.514a.481.481,0,0,1,.206-.383q2.656-1.875,5.1-3.8l.3-69.729a.481.481,0,0,1,.22-.4.492.492,0,0,1,.458-.039s3.253,1.419,4.326,1.921c10.27,4.811,17.027,12.1,19.545,21.073,4.178,14.89-4.734,32.419-23.98,47.722a.479.479,0,0,1-.2.157q-2.4,1.9-5.013,3.752l-.5,18.271A.485.485,0,0,1,1790.776,853.549Zm6.589-92.183-.3,68.208c18.441-14.912,26.963-31.819,22.944-46.138-2.438-8.694-9.015-15.768-19.021-20.455C1800.232,762.624,1798.372,761.807,1797.365,761.366Z" transform="translate(-1790.291 -760.141)"/>
        </g>
        <g id="Grupo_9716" data-name="Grupo 9716" transform="translate(162.231 173.992)">
          <path id="Trazado_18883" data-name="Trazado 18883" d="M1784.571,1209.139a.488.488,0,0,1-.485-.5l1.454-53.663a.485.485,0,0,1,.969.025l-1.454,53.663A.485.485,0,0,1,1784.571,1209.139Z" transform="translate(-1784.086 -1154.507)"/>
        </g>
        <g id="Grupo_9717" data-name="Grupo 9717" transform="translate(162.232 164.246)">
          <path id="Trazado_18884" data-name="Trazado 18884" d="M1784.577,1177.306a.485.485,0,0,1-.273-.887c19.394-13.14,31.018-28.846,31.892-43.094l.025-.611-.006-19.3a.485.485,0,0,1,.97,0l.006,19.32-.025.641c-.893,14.561-12.673,30.541-32.316,43.85A.491.491,0,0,1,1784.577,1177.306Z" transform="translate(-1784.091 -1112.928)"/>
        </g>
        <g id="Grupo_9718" data-name="Grupo 9718" transform="translate(194.337 109.9)">
          <path id="Trazado_18885" data-name="Trazado 18885" d="M1921.559,925.126a.484.484,0,0,1-.485-.485l-.016-43.084a.485.485,0,1,1,.969,0l.016,43.084A.484.484,0,0,1,1921.559,925.126Z" transform="translate(-1921.059 -881.072)"/>
        </g>
        <g id="Grupo_9719" data-name="Grupo 9719" transform="translate(115.315 233.426)">
          <path id="Trazado_18886" data-name="Trazado 18886" d="M1584.415,1424.481a.485.485,0,0,1-.485-.491l.2-15.445a.485.485,0,1,1,.969.012l-.2,15.445A.485.485,0,0,1,1584.415,1424.481Z" transform="translate(-1583.93 -1408.066)"/>
        </g>
        <g id="Grupo_9720" data-name="Grupo 9720" transform="translate(115.835 177.783)">
          <path id="Trazado_18887" data-name="Trazado 18887" d="M1586.636,1202.047a.486.486,0,0,1-.485-.491l.389-30.4a.536.536,0,0,1,.491-.479.484.484,0,0,1,.479.491l-.389,30.4A.485.485,0,0,1,1586.636,1202.047Z" transform="translate(-1586.151 -1170.68)"/>
        </g>
        <g id="Grupo_9721" data-name="Grupo 9721" transform="translate(29.976 176.599)">
          <path id="Trazado_18888" data-name="Trazado 18888" d="M1261.018,1174.429c-15.768,0-30.022-2.637-40.888-7.88a.485.485,0,1,1,.421-.873c20.423,9.85,52.992,10.4,85,1.414l.907-.259a.485.485,0,1,1,.266.932l-.91.26A167.892,167.892,0,0,1,1261.018,1174.429Z" transform="translate(-1219.855 -1165.629)"/>
        </g>
        <g id="Grupo_9722" data-name="Grupo 9722" transform="translate(9.239 148.362)">
          <path id="Trazado_18889" data-name="Trazado 18889" d="M1139.128,1064.6a.482.482,0,0,1-.361-.162,28.709,28.709,0,0,1-6.363-11.409,27.652,27.652,0,0,1-1.02-7.381.485.485,0,1,1,.97,0,26.709,26.709,0,0,0,.984,7.122,27.776,27.776,0,0,0,6.152,11.026.484.484,0,0,1-.362.807Z" transform="translate(-1131.384 -1045.161)"/>
        </g>
        <g id="Grupo_9723" data-name="Grupo 9723" transform="translate(54.059 203.82)">
          <path id="Trazado_18890" data-name="Trazado 18890" d="M1339.684,1283.814a123.742,123.742,0,0,1-16.667-1.086.485.485,0,1,1,.131-.96,136.81,136.81,0,0,0,34.281,0,.48.48,0,0,1,.539.424.486.486,0,0,1-.425.539A152.427,152.427,0,0,1,1339.684,1283.814Z" transform="translate(-1322.597 -1281.761)"/>
        </g>
        <g id="Grupo_9724" data-name="Grupo 9724" transform="translate(53.174 211.982)">
          <path id="Trazado_18891" data-name="Trazado 18891" d="M1336.784,1318.754a122.943,122.943,0,0,1-17.548-1.21.485.485,0,0,1-.411-.549.5.5,0,0,1,.549-.412,136.052,136.052,0,0,0,35.162.122.485.485,0,0,1,.114.963A152.68,152.68,0,0,1,1336.784,1318.754Z" transform="translate(-1318.821 -1316.581)"/>
        </g>
        <g id="Grupo_9725" data-name="Grupo 9725" transform="translate(9.238 171.359)">
          <path id="Trazado_18892" data-name="Trazado 18892" d="M1193.318,1228.21a116.271,116.271,0,0,1-24.184-2.394c-20.031-4.276-33.076-13.81-36.733-26.845a27.587,27.587,0,0,1-1.009-6.667l-.012-.99v-47.555a.485.485,0,0,1,.97,0l.012,48.525a26.653,26.653,0,0,0,.973,6.426c3.555,12.672,16.341,21.961,36,26.159,19.769,4.218,44.088,2.778,68.474-4.066a.486.486,0,0,1,.262.935A167.416,167.416,0,0,1,1193.318,1228.21Z" transform="translate(-1131.381 -1143.274)"/>
        </g>
        <g id="Grupo_9726" data-name="Grupo 9726" transform="translate(9.238 149.235)">
          <path id="Trazado_18893" data-name="Trazado 18893" d="M1131.866,1071.979a.485.485,0,0,1-.485-.485V1049.37a.485.485,0,0,1,.97,0v22.125A.484.484,0,0,1,1131.866,1071.979Z" transform="translate(-1131.381 -1048.885)"/>
        </g>
        <g id="Grupo_9727" data-name="Grupo 9727" transform="translate(41.489 102.959)">
          <path id="Trazado_18894" data-name="Trazado 18894" d="M1269.456,923.421a.484.484,0,0,1-.485-.485V851.947a.485.485,0,0,1,.97,0v70.989A.485.485,0,0,1,1269.456,923.421Z" transform="translate(-1268.971 -851.462)"/>
        </g>
        <g id="Grupo_9728" data-name="Grupo 9728" transform="translate(115.315 76.426)">
          <path id="Trazado_18895" data-name="Trazado 18895" d="M1584.415,810a.484.484,0,0,1-.485-.485V738.75a.485.485,0,0,1,.97,0v70.762A.485.485,0,0,1,1584.415,810Z" transform="translate(-1583.93 -738.265)"/>
        </g>
        <g id="Grupo_9729" data-name="Grupo 9729" transform="translate(171.128 169.208)">
          <path id="Trazado_18896" data-name="Trazado 18896" d="M1822.531,1149.047a.485.485,0,0,1-.3-.868,111.892,111.892,0,0,0,15.027-13.919.485.485,0,0,1,.73.639,112.93,112.93,0,0,1-15.161,14.047A.485.485,0,0,1,1822.531,1149.047Z" transform="translate(-1822.045 -1134.095)"/>
        </g>
        <g id="Grupo_9730" data-name="Grupo 9730" transform="translate(131.381 188.8)">
          <path id="Trazado_18897" data-name="Trazado 18897" d="M1653.449,1271.181c-.167,0-.337,0-.506-.009a.485.485,0,0,1-.468-.5.466.466,0,0,1,.5-.467c.159,0,.318.008.475.008,17.277,0,26.788-32.589,30.937-52.142a.476.476,0,0,1,.575-.373.483.483,0,0,1,.372.575C1681.128,1238.111,1671.412,1271.181,1653.449,1271.181Z" transform="translate(-1652.475 -1217.682)"/>
        </g>
        <g id="Grupo_9731" data-name="Grupo 9731" transform="translate(126.842 165.68)">
          <path id="Trazado_18898" data-name="Trazado 18898" d="M1633.594,1144.243a.474.474,0,0,1-.2-.045.486.486,0,0,1-.236-.644l11.218-24.226a.486.486,0,0,1,.881.409l-11.219,24.226A.485.485,0,0,1,1633.594,1144.243Z" transform="translate(-1633.108 -1119.045)"/>
        </g>
        <g id="Grupo_9732" data-name="Grupo 9732" transform="translate(158.366 170.541)">
          <path id="Trazado_18899" data-name="Trazado 18899" d="M1768.085,1146.3a.485.485,0,0,1-.249-.9,13.957,13.957,0,0,0,5.185-5.363.485.485,0,0,1,.854.462,14.914,14.914,0,0,1-5.54,5.733A.481.481,0,0,1,1768.085,1146.3Z" transform="translate(-1767.6 -1139.785)"/>
        </g>
        <g id="Grupo_9733" data-name="Grupo 9733" transform="translate(91.724 202.27)">
          <path id="Trazado_18900" data-name="Trazado 18900" d="M1483.77,1285.827a.485.485,0,0,1-.039-.968c.3-.025,30.379-2.577,43.191-9.648a.485.485,0,1,1,.469.848c-12.993,7.172-43.276,9.741-43.58,9.766Z" transform="translate(-1483.286 -1275.148)"/>
        </g>
        <g id="Grupo_9734" data-name="Grupo 9734" transform="translate(91.724 226.826)">
          <path id="Trazado_18901" data-name="Trazado 18901" d="M1483.77,1390.589a.485.485,0,0,1-.039-.968c.3-.025,30.379-2.577,43.191-9.648a.479.479,0,0,1,.659.19.484.484,0,0,1-.19.658c-12.993,7.172-43.276,9.741-43.58,9.766Z" transform="translate(-1483.286 -1379.91)"/>
        </g>
        <g id="Grupo_9735" data-name="Grupo 9735" transform="translate(91.724 211.979)">
          <path id="Trazado_18902" data-name="Trazado 18902" d="M1483.772,1342.174a.484.484,0,0,1-.485-.485v-24.634a.485.485,0,1,1,.969,0v24.634A.484.484,0,0,1,1483.772,1342.174Z" transform="translate(-1483.287 -1316.57)"/>
        </g>
        <g id="Grupo_9736" data-name="Grupo 9736" transform="translate(135.11 202.237)">
          <path id="Trazado_18903" data-name="Trazado 18903" d="M1668.865,1300.607a.485.485,0,0,1-.485-.485V1275.49a.485.485,0,0,1,.97,0v24.633A.484.484,0,0,1,1668.865,1300.607Z" transform="translate(-1668.38 -1275.005)"/>
        </g>
        <g id="Grupo_9737" data-name="Grupo 9737" transform="translate(385.9 88.833)">
          <path id="Trazado_18904" data-name="Trazado 18904" d="M2741.859,813.238a.484.484,0,0,1-.435-.271c-.329-.666-3.2-6.551-3.107-8.148.025-.4.684-9.737,8.96-12.7a15.925,15.925,0,0,1,13.646,1.455c1.386-.413,8.426-2.176,11.135,3.858,2.889,6.428.85,13.984.761,14.3a.485.485,0,0,1-.935-.259c.02-.075,2.031-7.544-.711-13.647-2.628-5.857-9.858-3.375-10.162-3.266a.5.5,0,0,1-.441-.061,15.2,15.2,0,0,0-12.965-1.471c-7.68,2.75-8.3,11.475-8.318,11.846-.062,1.01,1.812,5.235,3.007,7.66a.485.485,0,0,1-.435.7Z" transform="translate(-2738.315 -791.195)"/>
        </g>
        <g id="Grupo_9738" data-name="Grupo 9738" transform="translate(29.442 129.985)">
          <path id="Trazado_18905" data-name="Trazado 18905" d="M1218.062,994.687a.472.472,0,0,1-.232-.059.483.483,0,0,1-.252-.425V972.978a.483.483,0,0,1,.223-.408c3.671-2.355,11.546-5.632,11.879-5.769a.484.484,0,1,1,.371.895,108.727,108.727,0,0,0-11.5,5.549v20.09a113.689,113.689,0,0,1,11.132-5.311.484.484,0,1,1,.371.895c-.08.034-8.128,3.381-11.726,5.691A.483.483,0,0,1,1218.062,994.687Z" transform="translate(-1217.577 -966.761)"/>
        </g>
        <g id="Grupo_9739" data-name="Grupo 9739" transform="translate(145.382 87.706)">
          <path id="Trazado_18906" data-name="Trazado 18906" d="M1712.688,805.324a.484.484,0,0,1-.485-.485V786.872a.483.483,0,0,1,.151-.352.566.566,0,0,1,.358-.133c16.786.855,24.079,5.4,24.38,5.591a.485.485,0,0,1-.521.818c-.071-.045-7.264-4.506-23.4-5.412v17.455A.484.484,0,0,1,1712.688,805.324Z" transform="translate(-1712.203 -786.387)"/>
        </g>
        <g id="Grupo_9740" data-name="Grupo 9740" transform="translate(145.381 105.673)">
          <path id="Trazado_18907" data-name="Trazado 18907" d="M1736.83,869.524a.482.482,0,0,1-.26-.076c-.073-.046-7.415-4.6-23.909-5.439a.485.485,0,1,1,.05-.969c16.786.854,24.079,5.4,24.38,5.59a.485.485,0,0,1-.26.894Z" transform="translate(-1712.2 -863.04)"/>
        </g>
        <g id="Grupo_9741" data-name="Grupo 9741" transform="translate(393.025 106.272)">
          <path id="Trazado_18908" data-name="Trazado 18908" d="M2772.638,879.559a4.9,4.9,0,0,1-2.714-.687,2.729,2.729,0,0,1-1.18-1.869,4.554,4.554,0,0,1,1.108-3.3,12.58,12.58,0,0,0,1.972-3.159,4.437,4.437,0,0,0-.418-4.161.485.485,0,0,1,.77-.591,5.4,5.4,0,0,1,.552,5.1,13.482,13.482,0,0,1-2.115,3.411,3.588,3.588,0,0,0-.909,2.563,1.738,1.738,0,0,0,.78,1.214,4.056,4.056,0,0,0,2.168.51.485.485,0,0,1-.014.969Z" transform="translate(-2768.716 -865.597)"/>
        </g>
        <g id="Grupo_9745" data-name="Grupo 9745" transform="translate(193.514 5.65)">
          <g id="Grupo_9744" data-name="Grupo 9744">
            <g id="Grupo_9743" data-name="Grupo 9743">
              <g id="Grupo_9742" data-name="Grupo 9742">
                <path id="Trazado_18909" data-name="Trazado 18909" d="M1961.453,526.291a45.282,45.282,0,0,1-43.891-35.071.486.486,0,0,1,.368-.58.477.477,0,0,1,.58.366,44.021,44.021,0,1,0,42.943-53.72,43.72,43.72,0,0,0-37.714,21.307.485.485,0,1,1-.829-.5,44.99,44.99,0,1,1,38.544,68.2Z" transform="translate(-1917.551 -436.317)"/>
              </g>
            </g>
          </g>
        </g>
        <g id="Grupo_9746" data-name="Grupo 9746" transform="translate(208.4 28.214)">
          <path id="Trazado_18910" data-name="Trazado 18910" d="M2001.73,576.082a5.757,5.757,0,0,1-4.083-1.688l-14.9-14.9a5.766,5.766,0,0,1,0-8.163l2.037-2.038a5.771,5.771,0,0,1,8.165,0l8.779,8.783,24.547-23.812a5.779,5.779,0,0,1,8.161.005l2.039,2.04a5.78,5.78,0,0,1,0,8.163L2005.806,574.4A5.749,5.749,0,0,1,2001.73,576.082Zm-12.859-27.511a4.771,4.771,0,0,0-3.4,1.408l-2.038,2.038a4.8,4.8,0,0,0,0,6.79l14.9,14.9a4.808,4.808,0,0,0,6.792,0l30.674-29.925a4.809,4.809,0,0,0-.005-6.786l-2.039-2.04a4.809,4.809,0,0,0-6.794,0l-24.895,24.15a.485.485,0,0,1-.681-.006l-9.118-9.121A4.77,4.77,0,0,0,1988.871,548.571Z" transform="translate(-1981.058 -532.581)"/>
        </g>
        <g id="Grupo_9747" data-name="Grupo 9747" transform="translate(72.978 8.356)">
          <path id="Trazado_18911" data-name="Trazado 18911" d="M1404.485,518.78a.485.485,0,0,1-.47-.367,32.055,32.055,0,0,1-.7-5.63.485.485,0,0,1,.97-.048,31.658,31.658,0,0,0,.677,5.444.485.485,0,0,1-.354.588A.51.51,0,0,1,1404.485,518.78Zm-.632-11.119a.491.491,0,0,1-.485-.518,50.3,50.3,0,0,1,.705-5.593.49.49,0,0,1,.564-.39.485.485,0,0,1,.39.564,49.284,49.284,0,0,0-.692,5.485A.485.485,0,0,1,1403.853,507.661Zm2.009-10.963a.486.486,0,0,1-.465-.625,52.129,52.129,0,0,1,1.917-5.3.485.485,0,0,1,.893.379,51,51,0,0,0-1.881,5.2A.485.485,0,0,1,1405.861,496.7Zm4.348-10.259a.486.486,0,0,1-.423-.721,56.124,56.124,0,0,1,2.982-4.773.486.486,0,0,1,.8.555,54.656,54.656,0,0,0-2.931,4.689A.486.486,0,0,1,1410.209,486.438Zm6.361-9.153a.485.485,0,0,1-.37-.8c1.185-1.4,2.471-2.784,3.821-4.122a.485.485,0,1,1,.683.689c-1.331,1.319-2.6,2.685-3.764,4.062A.484.484,0,0,1,1416.57,477.285Zm7.914-7.851a.485.485,0,0,1-.313-.856c1.4-1.18,2.886-2.344,4.422-3.46a.485.485,0,0,1,.57.786c-1.517,1.1-2.986,2.251-4.367,3.416A.483.483,0,0,1,1424.484,469.434Zm9.013-6.567a.485.485,0,0,1-.26-.895c1.543-.976,3.167-1.937,4.827-2.856a.485.485,0,1,1,.469.849c-1.643.909-3.25,1.86-4.777,2.826A.487.487,0,0,1,1433.5,462.868Zm89.5-.628a.483.483,0,0,1-.274-.085c-1.449-1-3.032-1.986-4.7-2.942a.484.484,0,1,1,.48-.842c1.7.97,3.3,1.973,4.773,2.984a.485.485,0,0,1-.275.885Zm-79.749-4.785a.486.486,0,0,1-.212-.922c1.688-.82,3.41-1.594,5.118-2.3a.485.485,0,0,1,.371.9c-1.69.7-3.394,1.466-5.065,2.277A.492.492,0,0,1,1443.253,457.455Zm70.064-.771a.488.488,0,0,1-.21-.049c-1.652-.793-3.362-1.542-5.085-2.228a.485.485,0,0,1,.358-.9c1.743.693,3.475,1.452,5.147,2.255a.486.486,0,0,1-.211.923Zm-59.752-3.492a.485.485,0,0,1-.157-.945c1.778-.608,3.585-1.161,5.368-1.642a.485.485,0,1,1,.253.937c-1.764.475-3.549,1.022-5.308,1.623A.479.479,0,0,1,1453.565,453.192Zm49.378-.634a.493.493,0,0,1-.148-.023c-1.766-.564-3.564-1.071-5.342-1.5a.485.485,0,0,1-.355-.587.477.477,0,0,1,.586-.356c1.8.44,3.62.952,5.408,1.523a.486.486,0,0,1-.148.948Zm-38.6-2.265a.485.485,0,0,1-.093-.962c1.84-.362,3.705-.66,5.546-.889a.493.493,0,0,1,.541.422.486.486,0,0,1-.422.541c-1.817.225-3.66.52-5.477.878A.474.474,0,0,1,1464.338,450.293Zm27.764-.378a.462.462,0,0,1-.081-.007c-1.825-.31-3.676-.556-5.5-.731a.485.485,0,0,1,.094-.966c1.847.177,3.723.427,5.57.74a.485.485,0,0,1-.081.964Zm-16.689-.99a.485.485,0,0,1-.025-.969c1.856-.094,3.764-.121,5.616-.077a.485.485,0,0,1,.474.5.457.457,0,0,1-.5.474c-1.827-.042-3.712-.015-5.545.077Z" transform="translate(-1403.309 -447.858)"/>
        </g>
        <g id="Grupo_9748" data-name="Grupo 9748" transform="translate(287.354 5.903)">
          <path id="Trazado_18912" data-name="Trazado 18912" d="M2482.92,573.349a.484.484,0,0,1-.485-.485.529.529,0,0,1,.1-.3,46.907,46.907,0,0,0,2.536-3.992.486.486,0,0,1,.842.486c-1.375,2.379-2.4,3.815-2.594,4.078A.483.483,0,0,1,2482.92,573.349Zm5.175-8.993a.5.5,0,0,1-.209-.047.486.486,0,0,1-.229-.647c.8-1.668,1.54-3.381,2.21-5.091a.485.485,0,1,1,.9.354c-.679,1.732-1.432,3.467-2.238,5.155A.486.486,0,0,1,2488.095,564.356Zm4.072-10.4a.461.461,0,0,1-.144-.022.485.485,0,0,1-.319-.606c.545-1.762,1.03-3.564,1.439-5.356a.484.484,0,1,1,.945.215c-.413,1.816-.9,3.643-1.457,5.428A.483.483,0,0,1,2492.167,553.96Zm2.472-10.88a.5.5,0,0,1-.48-.555c.268-1.835.461-3.689.574-5.513a.486.486,0,0,1,.969.061c-.115,1.85-.312,3.731-.583,5.592A.486.486,0,0,1,2494.639,543.08Zm.686-11.133a.485.485,0,0,1-.485-.474c-.043-1.847-.167-3.705-.369-5.526a.485.485,0,0,1,.429-.536.494.494,0,0,1,.534.428c.206,1.849.333,3.737.376,5.612a.485.485,0,0,1-.474.5Zm-1.233-11.083a.485.485,0,0,1-.476-.39c-.36-1.794-.809-3.6-1.331-5.376a.486.486,0,0,1,.932-.274c.53,1.8.983,3.637,1.35,5.459a.485.485,0,0,1-.381.571A.433.433,0,0,1,2494.092,520.864Zm-94.059-8.877a6.043,6.043,0,0,1-3.469-1.139.485.485,0,0,1,.552-.8,4.926,4.926,0,0,0,4.844.577.485.485,0,1,1,.362.9A6.1,6.1,0,0,1,2400.033,511.987Zm90.916-1.823a.485.485,0,0,1-.452-.309c-.661-1.7-1.408-3.408-2.217-5.079a.485.485,0,0,1,.873-.424c.822,1.694,1.578,3.427,2.248,5.15a.486.486,0,0,1-.276.628A.479.479,0,0,1,2490.949,510.164ZM2406.4,508.05a.485.485,0,0,1-.379-.787,21.488,21.488,0,0,0,2.809-4.664.485.485,0,1,1,.885.394,22.388,22.388,0,0,1-2.937,4.875A.482.482,0,0,1,2406.4,508.05Zm-12.987-1.448a.485.485,0,0,1-.438-.277,20.1,20.1,0,0,1-1.634-5.468.486.486,0,0,1,.405-.553.47.47,0,0,1,.555.405,19.035,19.035,0,0,0,1.549,5.2.487.487,0,0,1-.438.694Zm92.671-6.477a.485.485,0,0,1-.419-.241c-.915-1.569-1.913-3.146-2.965-4.688a.485.485,0,0,1,.8-.547c1.066,1.561,2.076,3.158,3,4.746a.486.486,0,0,1-.419.73Zm-75.1-2.147a.469.469,0,0,1-.1-.012.484.484,0,0,1-.372-.576,31.407,31.407,0,0,0,.666-5.45.5.5,0,0,1,.5-.468.485.485,0,0,1,.468.5,32.139,32.139,0,0,1-.687,5.62A.485.485,0,0,1,2410.99,497.978Zm-19.333-2.278a.493.493,0,0,1-.483-.528,22.662,22.662,0,0,1,1.213-5.561.485.485,0,0,1,.913.326,21.777,21.777,0,0,0-1.16,5.322A.486.486,0,0,1,2391.657,495.7Zm88.134-4.782a.485.485,0,0,1-.379-.182c-1.172-1.464-2.4-2.867-3.641-4.172a.485.485,0,0,1,.7-.67c1.264,1.325,2.508,2.751,3.7,4.236a.484.484,0,0,1-.379.788Zm-68.366-4.048a.485.485,0,0,1-.482-.427,39.241,39.241,0,0,0-1.042-5.411.486.486,0,0,1,.939-.249,40.3,40.3,0,0,1,1.066,5.545.486.486,0,0,1-.424.54A.493.493,0,0,1,2411.425,486.869Zm-16.022-1.552a.481.481,0,0,1-.281-.09.486.486,0,0,1-.115-.676,20.483,20.483,0,0,1,3.919-4.137.485.485,0,0,1,.6.758,19.477,19.477,0,0,0-3.732,3.941A.486.486,0,0,1,2395.4,485.317Zm76.684-2.458a.487.487,0,0,1-.318-.119,54.488,54.488,0,0,0-4.355-3.407.485.485,0,1,1,.558-.793,55.107,55.107,0,0,1,4.434,3.468.485.485,0,0,1-.318.851Zm-68.113-4.5a.486.486,0,0,1-.22-.918c1.375-.7,2.8-1.37,4.238-2a46,46,0,0,0-2.249-4.61.485.485,0,0,1,.848-.472,47.2,47.2,0,0,1,2.295,4.7.49.49,0,0,1,.6.272.485.485,0,0,1-.259.635c-1.713.723-3.407,1.51-5.033,2.337A.482.482,0,0,1,2403.974,478.357Zm58.99-1.893a.477.477,0,0,1-.234-.061,50.235,50.235,0,0,0-4.979-2.4.486.486,0,0,1,.374-.9,51.442,51.442,0,0,1,5.073,2.447.485.485,0,0,1-.234.91Zm-48.709-2.45a.485.485,0,0,1-.157-.944c1.766-.6,3.574-1.154,5.375-1.631a.485.485,0,1,1,.249.938c-1.779.472-3.565,1.014-5.309,1.611A.487.487,0,0,1,2414.254,474.014Zm38.42-1.829a.477.477,0,0,1-.135-.02,52.045,52.045,0,0,0-5.383-1.265.485.485,0,0,1,.171-.956,53.061,53.061,0,0,1,5.482,1.29.485.485,0,0,1-.136.951Zm-27.635-1.017a.485.485,0,0,1-.089-.963c1.856-.345,3.727-.616,5.562-.806a.474.474,0,0,1,.533.432.486.486,0,0,1-.433.532c-1.808.187-3.654.454-5.484.8A.479.479,0,0,1,2425.04,471.168Zm16.67-.97c-1.855-.143-3.729-.2-5.568-.167a.494.494,0,0,1-.492-.477.484.484,0,0,1,.477-.493c1.874-.031,3.774.025,5.621.168a.485.485,0,0,1-.037.969Zm-38.531-3.83a.483.483,0,0,1-.394-.2,53.425,53.425,0,0,0-3.45-4.321.485.485,0,0,1,.727-.644,54.362,54.362,0,0,1,3.512,4.4.485.485,0,0,1-.395.767Zm-7.381-8.351a.485.485,0,0,1-.331-.129c-1.33-1.239-2.748-2.446-4.218-3.588a.485.485,0,1,1,.6-.766c1.492,1.16,2.934,2.386,4.284,3.643a.485.485,0,0,1-.33.84Zm-8.793-6.86a.487.487,0,0,1-.267-.079c-1.507-.989-3.1-1.952-4.747-2.862a.485.485,0,1,1,.471-.848c1.663.921,3.281,1.9,4.809,2.9a.485.485,0,0,1-.267.89Zm-68.626-5.17a.484.484,0,0,1-.287-.875,31.548,31.548,0,0,1,4.953-2.78.485.485,0,1,1,.411.879,31.362,31.362,0,0,0-4.79,2.682A.482.482,0,0,1,2318.378,445.987Zm58.877-.246a.469.469,0,0,1-.206-.047c-1.694-.795-3.409-1.536-5.1-2.2a.485.485,0,0,1,.356-.9c1.707.674,3.44,1.423,5.152,2.227a.485.485,0,0,1-.206.924Zm-10.383-4.087a.483.483,0,0,1-.146-.023c-1.78-.563-3.578-1.062-5.345-1.48a.485.485,0,0,1,.225-.945c1.789.424,3.611.929,5.414,1.5a.485.485,0,0,1-.146.948Zm-38.435-.461a.485.485,0,0,1-.154-.945,54.216,54.216,0,0,1,5.431-1.5.485.485,0,1,1,.209.948,53.218,53.218,0,0,0-5.331,1.476A.487.487,0,0,1,2328.438,441.193Zm27.576-2.1c-1.908-.288-3.76-.491-5.581-.612a.486.486,0,0,1-.452-.516.481.481,0,0,1,.518-.452c1.847.123,3.727.33,5.588.615a.485.485,0,0,1-.073.965Zm-16.7-.33a.485.485,0,0,1-.058-.966c1.846-.222,3.735-.358,5.612-.4a.485.485,0,1,1,.025.97c-1.849.045-3.705.178-5.521.4A.473.473,0,0,1,2339.318,438.764Z" transform="translate(-2317.893 -437.395)"/>
        </g>
        <g id="Grupo_9749" data-name="Grupo 9749" transform="translate(406.048 86.373)">
          <path id="Trazado_18913" data-name="Trazado 18913" d="M2826.659,785.885a.486.486,0,0,1-.469-.608c.022-.087.424-1.866-1.746-3.722a.485.485,0,1,1,.63-.737c2.667,2.279,2.08,4.609,2.054,4.707A.487.487,0,0,1,2826.659,785.885Z" transform="translate(-2824.273 -780.702)"/>
        </g>
        <g id="Grupo_9750" data-name="Grupo 9750" transform="translate(409.139 88.028)">
          <path id="Trazado_18914" data-name="Trazado 18914" d="M2837.944,791.642a.492.492,0,0,1-.485-.516,6.8,6.8,0,0,1,1.076-3.165.485.485,0,1,1,.782.572,5.825,5.825,0,0,0-.888,2.655A.487.487,0,0,1,2837.944,791.642Z" transform="translate(-2837.459 -787.762)"/>
        </g>
        <g id="Grupo_9751" data-name="Grupo 9751" transform="translate(390.67 214.825)">
          <path id="Trazado_18915" data-name="Trazado 18915" d="M2802.223,1362.9a.481.481,0,0,1-.192-.039l-43.072-18.482a.485.485,0,0,1-.254-.638l6.323-14.736a.485.485,0,1,1,.892.383l-6.131,14.29,42.181,18.1.385-.9a.485.485,0,1,1,.892.383l-.577,1.345a.487.487,0,0,1-.267.259A.474.474,0,0,1,2802.223,1362.9Z" transform="translate(-2758.665 -1328.71)"/>
        </g>
        <g id="Grupo_9752" data-name="Grupo 9752" transform="translate(403.915 167.616)">
          <path id="Trazado_18916" data-name="Trazado 18916" d="M2859.433,1176.2a.484.484,0,0,1-.446-.677l12.441-29-42.181-18.1-13.143,30.631a.485.485,0,1,1-.892-.383l13.334-31.077a.488.488,0,0,1,.267-.259.478.478,0,0,1,.371,0l43.072,18.482a.485.485,0,0,1,.254.638l-12.633,29.442A.485.485,0,0,1,2859.433,1176.2Z" transform="translate(-2815.174 -1127.303)"/>
        </g>
        <g id="Grupo_9753" data-name="Grupo 9753" transform="translate(451.67 253.938)">
          <path id="Trazado_18917" data-name="Trazado 18917" d="M3019.4,1514.407a.491.491,0,0,1-.483-.521c.5-6.865,0-17.693,0-17.8a.486.486,0,0,1,.463-.507.544.544,0,0,1,.507.463c0,.109.5,10.993,0,17.917A.485.485,0,0,1,3019.4,1514.407Z" transform="translate(-3018.91 -1495.578)"/>
        </g>
        <g id="Grupo_9754" data-name="Grupo 9754" transform="translate(235.411 227.385)">
          <path id="Trazado_18918" data-name="Trazado 18918" d="M2118.582,1404.251h-15.975a.485.485,0,0,1-.468-.356l-5.829-20.985a.485.485,0,0,1,.468-.614h22.439a.485.485,0,0,1,.468.355l4.044,14.561a.485.485,0,0,1-.338.6.478.478,0,0,1-.6-.338l-3.946-14.206h-21.432l5.56,20.015h15.606a.485.485,0,0,1,0,.97Z" transform="translate(-2096.293 -1382.296)"/>
        </g>
        <path id="Trazado_18919" data-name="Trazado 18919" d="M1238.919,1242.684v16.058s-10.206.12-16.991-5.518V1236.6S1226.786,1241.339,1238.919,1242.684Z" transform="translate(-1191.466 -1043.363)" fill="#1a1a1a"/>
        <g id="Grupo_9755" data-name="Grupo 9755" transform="translate(171.481 185.551)">
          <path id="Trazado_18920" data-name="Trazado 18920" d="M1824.034,1212.22a.485.485,0,0,1-.287-.876c3.292-2.4,6.38-4.893,9.178-7.4a.486.486,0,1,1,.649.723c-2.823,2.528-5.936,5.04-9.255,7.461A.474.474,0,0,1,1824.034,1212.22Z" transform="translate(-1823.549 -1203.82)"/>
        </g>
        <g id="Grupo_9756" data-name="Grupo 9756" transform="translate(274.061 224.368)">
          <path id="Trazado_18921" data-name="Trazado 18921" d="M2294.749,1381.524a.486.486,0,0,1-.472-.372c-1.539-6.437-8.043-10.761-16.184-10.761-7.292,0-13.856,4.148-15.967,10.086a.485.485,0,1,1-.914-.324c2.279-6.419,9.063-10.731,16.881-10.731,8.6,0,15.483,4.623,17.129,11.506a.485.485,0,0,1-.36.585A.56.56,0,0,1,2294.749,1381.524Z" transform="translate(-2261.184 -1369.421)"/>
        </g>
      </g>
      <g id="Grupo_9758" data-name="Grupo 9758" transform="translate(1338.989 575.666)">
        <path id="Trazado_18922" data-name="Trazado 18922" d="M2270.147,1218.864h-73.368a.484.484,0,0,1-.452-.661c1.806-4.658,3.4-28.489,3.693-33.029-3.925,1.245-12.023.879-12.39.862h-.089c-21.283,0-29.073-20.2-33.261-31.061l-.527-1.361c-3.925-10.07-7.883-35.314-7.924-35.568a.489.489,0,0,1,.008-.184c.07-.305,1.869-7.478,14.366-8.221,12.38-.74,15.973,3.328,16.12,3.5a.458.458,0,0,1,.092.165c.107.332,10.676,33.259,12.564,36.379.67,1.1,2.126,1.676,3.927,1.68,2.421-.052,4.811-1.24,5.682-2.825.834-1.517,2.408-4.934,4.23-8.892,2.061-4.475,4.625-10.045,7.038-14.859,4.6-9.182,14.874-11.274,15.311-11.358a.478.478,0,0,1,.567.382.485.485,0,0,1-.382.569c-.1.02-10.246,2.1-14.63,10.84-2.405,4.8-4.966,10.363-7.024,14.832-1.9,4.137-3.411,7.406-4.26,8.952-1.046,1.9-3.723,3.269-6.513,3.327a5.215,5.215,0,0,1-4.776-2.148c-1.911-3.155-11.845-34.053-12.623-36.478-.5-.485-4.281-3.757-15.267-3.1-11.144.661-13.22,6.564-13.454,7.386.276,1.752,4.089,25.613,7.852,35.265l.529,1.364c4.1,10.642,11.743,30.441,32.382,30.441h.084c.12,0,9.373.426,12.7-1.051a.48.48,0,0,1,.472.044.486.486,0,0,1,.209.429c-.069,1.13-1.642,26.826-3.584,33.406h72.191c-.129-3.617-.912-25.638-.877-32.681.012-2.691.16-6.062.318-9.634.292-6.647.622-14.179.159-19.365-.2-2.24-.307-4.567-.318-6.92a.485.485,0,0,1,.969,0c.011,2.324.117,4.624.315,6.835.469,5.252.137,12.818-.156,19.495-.157,3.562-.3,6.924-.318,9.6-.036,7.621.887,32.887.9,33.142a.485.485,0,0,1-.485.5Z" transform="translate(-2145.825 -1109.551)"/>
      </g>
    </g>
  </g>
</svg>
