<svg xmlns="http://www.w3.org/2000/svg" width="755" height="345.588" viewBox="0 0 755 345.588">
  <g id="Grupo_10190" data-name="Grupo 10190" transform="translate(-583 -2862.412)">
    <rect id="Rectángulo_2147" data-name="Rectángulo 2147" width="755" height="42" transform="translate(583 3166)" fill="rgba(255,237,0,0.55)"/>
    <g id="Grupo_9761" data-name="Grupo 9761" transform="translate(-1445.894 1766.246)" opacity="0.789">
      <path id="Trazado_18923" data-name="Trazado 18923" d="M2693.846,1549.3v-1.226s-2.863-1.789-12.417-1.789-11.107,2.217-11.107,2.217v26.7s3.127,1.536,11.7,1.536,11.654-1.552,11.654-1.552l.445-4.364s10.591-1.022,10.591-10.684S2698.675,1550.241,2693.846,1549.3Zm.159,17.763v-13.873s6.756-.9,7.063,4.94C2701.425,1564.92,2694.006,1567.059,2694.006,1567.059Z" transform="translate(-198.652 -171.342)" fill="#8f6bff"/>
      <path id="Trazado_18924" data-name="Trazado 18924" d="M2782.368,1346.748s-19.62,1.528-33.059,15.667-23.48,39.727-24.632,43.3-8.4,21.376,6.21,30.681c0,0,6.15,2.861,19.736,4.114,0,0,.012,19.791-.719,29.174s-2.745,23.483-2.745,23.483h91.886s.828-21.423.738-31.273-.334-20.567-.334-20.567,9.866-8.025,9.424-19.614-2.353-28.379-6.911-42.13-10.74-24.09-21.882-28.941A67.077,67.077,0,0,0,2800.9,1346Z" transform="translate(-218.271 -95.103)" fill="#8f6bff"/>
      <path id="Trazado_18925" data-name="Trazado 18925" d="M2449.176,1394.051s-19.41,1-27.847,5.447-18.426,7.161-26.682,27.359-9.165,23.914-10.552,30.8-3.709,20.02-2.53,28.779,4.2,18.969,14.9,23.237a26.391,26.391,0,0,0,9.293,1.783c4.843-.068,110.333,0,110.333,0s5.69-1.742,7.627-3.11a24.44,24.44,0,0,0,9.225-13.1c2.075-7.473,1.887-16.312,1.528-20.117a142.916,142.916,0,0,0-2.972-18.546c-1.545-6.039-6.136-20.918-8.666-26.552s-6.72-14.989-11.3-19.815-13.517-10.387-19.168-12.148-14.62-4.029-22.827-4.016S2449.176,1394.051,2449.176,1394.051Z" transform="translate(-88.61 -113.394)" fill="#1a1a1a"/>
      <rect id="Rectángulo_2148" data-name="Rectángulo 2148" width="119.913" height="80.412" rx="13.323" transform="translate(2310.408 1317.68)" fill="#8f6bff"/>
      <path id="Trazado_18926" data-name="Trazado 18926" d="M2262.963,1521.915s-1.9-.144-2.118,1.223,1.315,1.5,4.378,1.655,60.449-.068,60.449-.068,3.875-1.763,3.961-4.273.119-13.178.119-13.178-.951-4.177-5.06-4.687-62.369-.1-62.369-.1-1.426.753-1.479,1.646,2.118,1.351,2.118,1.351Z" transform="translate(-42.771 -154.612)" fill="#ccc"/>
      <path id="Trazado_18927" data-name="Trazado 18927" d="M2312.943,1543.133l1.677-.57.766-1.526-.568-1.878-2.261-1.112-82.547.458s-6,2.168-6.575,6.691-.046,20.277-.046,20.277,1.224,7.11,6.841,7.639,83.263-.053,83.263-.053,2.222-1.022,1.894-2.918-2.954-2.042-2.954-2.042Z" transform="translate(-28.436 -168.207)" fill="#8f6bff"/>
      <path id="Trazado_18928" data-name="Trazado 18928" d="M2481.192,1367.044s.958-3.909,1.339-6.518.77-8.688.77-8.688a13.7,13.7,0,0,1-5.924-10.636l-.48-.583s-7.578,2.912-8.789-4.8,7.674-6.651,8.647-5.924l.011-4.164a28.753,28.753,0,0,0,9.356-5,30.465,30.465,0,0,0,6.16-7.978s2.7,5.929,7.078,8.673a53.825,53.825,0,0,0,8.538,4.306l.01,4.164s8.006-2.7,8.743,5.005c0,0,.358,5.6-3.774,5.966s-5.28-.219-5.28-.219-1.167,7.134-6.137,11.191c0,0,.617,10.034,1.376,12.467,0,0,1.5,2.8.66,4.53s-4.266,5.9-11.216,5.533-9.5-3.539-10.083-4.087S2481.192,1367.044,2481.192,1367.044Z" transform="translate(-121.633 -82.446)" fill="#fff"/>
      <path id="Trazado_18929" data-name="Trazado 18929" d="M2513.778,1519.088a8.461,8.461,0,1,1-8.461-8.461A8.461,8.461,0,0,1,2513.778,1519.088Z" transform="translate(-132.619 -157.77)" fill="#fff"/>
      <path id="Trazado_18930" data-name="Trazado 18930" d="M2264.277,1523.855v-16.427h60.959l1.882,1.025.459,1.6v11.766l-1.008,1.509-1.677.522Z" transform="translate(-44.085 -156.552)" fill="#fff"/>
      <path id="Trazado_18931" data-name="Trazado 18931" d="M2230.982,1549.845l.538-1.879,1.694-1.44,2.177-.268h80.141v25.353h-82.11l-1.89-1.69-.535-1.606Z" transform="translate(-31.411 -171.333)" fill="#fff"/>
      <path id="Trazado_18932" data-name="Trazado 18932" d="M2477.225,1322.407s-1.794-9.485-.633-14.5,4.408-11.348,18.5-11.685c0,0,9.176.224,13.5,3.518s6.147,7.562,5.686,13.211-.884,10.031-.884,10.031l-2.361.623-.01-4.164s-11.311-2.913-15.616-12.979c0,0-4.772,11.078-15.516,12.979l-.331,4.009Z" transform="translate(-124.757 -76.152)" fill="#8f6bff"/>
      <path id="Trazado_18933" data-name="Trazado 18933" d="M2471.578,1358.742s1.932,10.489-2.18,13.741-10.468,7.054-10.56,10.133c0,0,6.914-1.21,10.765-1.6s9.111-.763,9.111-.763l1.4-11.079a15.25,15.25,0,0,1-6.3-11.377Z" transform="translate(-118.147 -99.591)" fill="#8f6bff"/>
      <path id="Trazado_18934" data-name="Trazado 18934" d="M2530.162,1358.348s-1.291,5.417-.22,9.744,4.53,6.348,6.814,7.9,5.232,3.346,6.162,7a136.6,136.6,0,0,0-14.473-2.367l-5.309-.375-1.1-11.266a16.622,16.622,0,0,0,6.136-11.191Z" transform="translate(-142.203 -99.591)" fill="#8f6bff"/>
      <circle id="Elipse_594" data-name="Elipse 594" cx="30.316" cy="30.316" r="30.316" transform="translate(2242.704 1244.401) rotate(-81.936)" fill="#ffed00"/>
      <path id="Trazado_18935" data-name="Trazado 18935" d="M2351.423,1348.054v11.816s.348,6.514,8.5,6.514,9.921-4.591,9.921-4.591l.727-13.739a22.419,22.419,0,0,1-9.573,1.488A51.528,51.528,0,0,1,2351.423,1348.054Z" transform="translate(-77.258 -95.884)" fill="#ffed00"/>
      <path id="Rectángulo_2149" data-name="Rectángulo 2149" d="M29.148,0h40.7A29.147,29.147,0,0,1,99,29.147v7.064A29.148,29.148,0,0,1,69.85,65.359h-40.7A29.147,29.147,0,0,1,0,36.212V29.148A29.148,29.148,0,0,1,29.148,0Z" transform="translate(2435.267 1142.387)" fill="#6e84fc"/>
      <path id="Trazado_18936" data-name="Trazado 18936" d="M2690.609,1192.69c-1.741-2.981-4.591-2.98-6.333,0L2670.9,1215.6c-1.741,2.982-.34,5.421,3.113,5.421h26.881c3.452,0,4.852-2.438,3.11-5.419Z" transform="translate(-198.585 -35.893)" fill="#fff"/>
      <path id="Trazado_18937" data-name="Trazado 18937" d="M2666.751,1509.424s4.556,11.493,19.9,5.017c0,0-2.553,6.89-12.808,5.808C2664.579,1519.271,2666.751,1509.424,2666.751,1509.424Z" transform="translate(-197.208 -157.312)" fill="#ccc"/>
      <path id="Trazado_18938" data-name="Trazado 18938" d="M2674.065,1448.328s2.777,2.491,6.7,0c0,0-.858,3.03-3.064,3.278S2674.065,1448.328,2674.065,1448.328Z" transform="translate(-200.076 -134.055)" fill="#ccc"/>
      <path id="Trazado_18939" data-name="Trazado 18939" d="M2784.92,1422.705l-12.636-5.88s-7.112-1.107-9.957,3.27c0,0-8.428,1.13-8.18,7.567,0,0,6.319-.6,9.656,1.166s9.27,5.749,9.27,5.749S2779.887,1425.1,2784.92,1422.705Z" transform="translate(-230.558 -122.016)" fill="#fff"/>
      <path id="Trazado_18940" data-name="Trazado 18940" d="M2838.25,1439.008s2.57-5.685,9.256-2.137c0,0,3.348-3.181,9.694-.008,0,0,3.884-2.024,6.947.766a40.305,40.305,0,0,1,5.908,7.495s1.422,5.251-4.158,5.58l-.219.547s.656,4.051-4.431,4.3a7.4,7.4,0,0,1-7.014-4.186s-.863,4.322-4.42,4.1-4.267-2.572-4.322-3.939.6-3.665.055-5.088S2841.4,1439.293,2838.25,1439.008Z" transform="translate(-262.575 -129.154)" fill="#fff"/>
      <path id="Trazado_18941" data-name="Trazado 18941" d="M2849.09,1432.205a14.284,14.284,0,0,0-9.956-3.955c-6.181.071-8.534,5.925-8.534,5.925l4.738,2.424s1.518-3.011,3.45-3.374,5.379.84,5.379.84,2.62-2.188,5.331-1.641Z" transform="translate(-259.663 -126.412)" fill="#1a1a1a"/>
      <path id="Trazado_18942" data-name="Trazado 18942" d="M2831.6,1301.922s7.908,3.556,9.374-4.185-8.316-6.582-8.316-6.582l-14.331-9.107a72,72,0,0,1-8.173-6.932l-4.017,20.626s-3.51,15.976,8.465,16.412l-.335,7.611s-5.468,15.353,1.862,15.413,16.1-14.392,16.2-15.269.271-17.072.271-17.072Z" transform="translate(-250.167 -68.12)" fill="#fff"/>
      <path id="Trazado_18943" data-name="Trazado 18943" d="M2859.818,1321.21s2.033-6.072-1.975-9.62-10.983-4.7-11.908-9.6,2.969-12.835,5.873-19.4,2.741-13.449-1.849-16.239-12.3-6.122-15.478-6.066c0,0-6.711-5.389-13.753-4.6s-12.167,1.386-15.1,6.924-2.593,12.691.777,18.779l2.975-14.136s11.451,12.317,22.443,16.125a19.847,19.847,0,0,1,5.012.526,5.969,5.969,0,0,1,3.265,6.869,6.644,6.644,0,0,1-8.278,4.641l.159,15.7s9.229.8,14.992,3.209A105.01,105.01,0,0,1,2859.818,1321.21Z" transform="translate(-249.401 -60.692)" fill="#1a1a1a"/>
      <path id="Trazado_18944" data-name="Trazado 18944" d="M2812.619,1334.282s-3.775,4.643-.333,8.589l3.951-.584.586-7.285Z" transform="translate(-252.14 -90.642)" fill="#3a3a3a"/>
      <path id="Trazado_18945" data-name="Trazado 18945" d="M2809.385,1267.354s10.967,11.791,21.738,15.864c-3.137-2.537-15.02-12.389-17.291-17.886s4.3-8.706,6.074-9.452c-6.617.749-11.461,1.513-14.274,6.832-2.928,5.537-2.593,12.691.777,18.779Z" transform="translate(-249.4 -60.797)" fill="#fff"/>
      <path id="Trazado_18946" data-name="Trazado 18946" d="M2812.619,1334.282s-3.775,4.643-.333,8.589l2.274-.336c-1.679-2.356-.362-7.008-.076-7.934Z" transform="translate(-252.14 -90.642)" fill="#fff"/>
      <path id="Trazado_18947" data-name="Trazado 18947" d="M2520.717,1300.295a17,17,0,0,0-6.385-2.607c.1.045,6.489,2.871,6.634,9.89.146,7.075-12.911-.561-12.911-.561s.08.574.208,1.509c4.726,8.847,14.885,11.47,14.885,11.47l.01,4.164,2.362-.623s.423-4.381.885-10.031S2525.036,1303.589,2520.717,1300.295Z" transform="translate(-136.882 -76.712)" fill="#fff"/>
      <path id="Trazado_18948" data-name="Trazado 18948" d="M2545.165,1382.99c-.931-3.653-3.877-5.448-6.163-7s-5.744-3.571-6.814-7.9.22-9.744.22-9.744l-1.994-.556a17.871,17.871,0,0,1-2.3,6.755c-.2,1.406-.81,7.146,2.311,10.33,1.377,1.4,1.981,3.673,2.209,5.933C2537.969,1381.427,2545.165,1382.99,2545.165,1382.99Z" transform="translate(-144.448 -99.591)" fill="#fff"/>
      <path id="Trazado_18949" data-name="Trazado 18949" d="M2911,1464.989a17.547,17.547,0,0,0-18.1,3.282c-8.808,7.549-10.179,18.017-4.926,23.451,0,0,11.315-1.655,17.119-9.3S2911,1464.989,2911,1464.989Z" transform="translate(-280.332 -139.94)" fill="#fff"/>
      <g id="Grupo_9762" data-name="Grupo 9762" transform="translate(2468.738 1324.887)">
        <path id="Trazado_18950" data-name="Trazado 18950" d="M2675.618,1504.542c-.2,0-.4,0-.6-.008-5.494-.167-7.761-2.846-8.7-5.063-1.8-4.28-.051-9.917,2.683-12.9.05-.058,1.841-2.248.077-7.541a11,11,0,0,1,.744-9.44,10.186,10.186,0,0,1,15.43-1.062,10.1,10.1,0,0,1,2.516,8.5l-.124.593c-.876,4.188-1.14,5.447.109,9.556.845,2.768.973,8.739-2.268,12.98C2683.263,1503.068,2679.944,1504.542,2675.618,1504.542Zm2.671-37.924a10.331,10.331,0,0,0-1.066.058,8.3,8.3,0,0,0-6.424,3.544,9.852,9.852,0,0,0-.624,8.448c2.016,6.044-.218,8.58-.314,8.685-2.439,2.652-4.078,7.866-2.477,11.669,1.155,2.733,3.807,4.241,7.669,4.358,4.292.17,7.432-1.19,9.518-3.92,2.822-3.691,2.919-9.2,2.085-11.944-1.337-4.389-1.011-5.951-.139-10.127l.124-.589a9.039,9.039,0,0,0-2.241-7.494A8.014,8.014,0,0,0,2678.289,1466.618Z" transform="translate(-2665.586 -1465.466)"/>
      </g>
      <g id="Grupo_9763" data-name="Grupo 9763" transform="translate(2473.283 1306.364)">
        <path id="Trazado_18951" data-name="Trazado 18951" d="M2676.981,1447.335c-2.276,0-4.056-2.586-4.056-5.889s1.78-5.889,4.056-5.889,4.054,2.586,4.054,5.889S2679.257,1447.335,2676.981,1447.335Zm0-10.622c-1.571,0-2.9,2.167-2.9,4.734s1.329,4.734,2.9,4.734,2.9-2.167,2.9-4.734S2678.552,1436.713,2676.981,1436.713Z" transform="translate(-2672.926 -1435.557)"/>
      </g>
      <g id="Grupo_9764" data-name="Grupo 9764" transform="translate(2555.055 1205.972)">
        <path id="Trazado_18952" data-name="Trazado 18952" d="M2817.906,1312.1c-1.156,0-2.3-.027-3.218-.066a12.994,12.994,0,0,1-5.013-1.043c-2.314-1.074-3.722-3.066-4.3-6.09-.876-4.575-.206-9.227.442-13.731l.1-.648c.477-3.315,3.4-16.6,3.423-16.659a.556.556,0,0,1,.729-.365.576.576,0,0,1,.365.729c-.012.067-2.912,13.255-3.377,16.458l-.093.651c-.636,4.409-1.291,8.964-.454,13.349.508,2.632,1.7,4.353,3.656,5.261a11.93,11.93,0,0,0,4.571.935c1.9.077,4.711.1,6.684-.039a.591.591,0,0,1,.621.535.581.581,0,0,1-.535.62C2820.449,1312.071,2819.166,1312.1,2817.906,1312.1Z" transform="translate(-2804.957 -1273.462)"/>
      </g>
      <g id="Grupo_9765" data-name="Grupo 9765" transform="translate(2558.464 1204.711)">
        <path id="Trazado_18953" data-name="Trazado 18953" d="M2834.822,1290.33a.569.569,0,0,1-.271-.07c-19.393-10.351-23.832-17.659-24.01-17.965a.576.576,0,0,1,.992-.586c.043.074,4.529,7.374,23.56,17.535a.577.577,0,0,1-.271,1.086Z" transform="translate(-2810.46 -1271.426)"/>
      </g>
      <path id="Trazado_18954" data-name="Trazado 18954" d="M2832.5,1296.037c-.448-.13-.78.026-1.123,1.656-.382,1.818.052,2.2.466,2.24s.9-.478,1.049-1.793S2833.088,1296.208,2832.5,1296.037Z" transform="translate(-259.903 -76.07)"/>
      <path id="Trazado_18955" data-name="Trazado 18955" d="M2812.809,1292.893c-.443-.146-.78,0-1.178,1.617-.444,1.8-.023,2.2.389,2.254s.916-.446,1.109-1.755S2813.39,1293.084,2812.809,1292.893Z" transform="translate(-252.37 -74.87)"/>
      <g id="Grupo_9766" data-name="Grupo 9766" transform="translate(2557.873 1212.772)">
        <path id="Trazado_18956" data-name="Trazado 18956" d="M2810.085,1286.177a.578.578,0,0,1-.318-1.058c.791-.528,2.113-1.129,4.482-.175a.576.576,0,0,1,.317.752.566.566,0,0,1-.752.318c-1.817-.725-2.737-.38-3.411.065A.562.562,0,0,1,2810.085,1286.177Z" transform="translate(-2809.507 -1284.441)"/>
      </g>
      <g id="Grupo_9767" data-name="Grupo 9767" transform="translate(2580.853 1222.109)">
        <path id="Trazado_18957" data-name="Trazado 18957" d="M2850.63,1312.7q-.222,0-.442-.012a6.589,6.589,0,0,1-3.33-1.162.577.577,0,1,1,.659-.946,5.439,5.439,0,1,0,.356-9.169.592.592,0,0,1-.791-.209.583.583,0,0,1,.209-.791,6.752,6.752,0,0,1,3.758-.884,6.594,6.594,0,0,1-.419,13.174Z" transform="translate(-2846.609 -1299.516)"/>
      </g>
      <g id="Grupo_9768" data-name="Grupo 9768" transform="translate(2581.577 1224.972)">
        <path id="Trazado_18958" data-name="Trazado 18958" d="M2851.986,1311.642a.577.577,0,0,1-.407-.17l-3.629-3.629a.573.573,0,0,1,.125-.911l4.873-2.718a.578.578,0,0,1,.566,1.008l-4.206,2.346,3.085,3.09a.577.577,0,0,1-.407.984Z" transform="translate(-2847.779 -1304.141)"/>
      </g>
      <g id="Grupo_9769" data-name="Grupo 9769" transform="translate(2561.409 1243.44)">
        <path id="Trazado_18959" data-name="Trazado 18959" d="M2820.117,1358.156a9.667,9.667,0,0,1-1.861-.178,3.222,3.222,0,0,1-2.271-1.648c-2.2-3.854,1-13.279,1.349-14.286l.566-7.548a.579.579,0,1,1,1.155.085l-.573,7.626c-.07.248-3.513,10.022-1.493,13.55a2.086,2.086,0,0,0,1.485,1.089c10,1.935,16.961-14.767,17.032-14.937a.6.6,0,0,1,.752-.314.575.575,0,0,1,.318.752C2836.3,1343.032,2829.976,1358.156,2820.117,1358.156Z" transform="translate(-2815.217 -1333.96)"/>
      </g>
      <g id="Grupo_9770" data-name="Grupo 9770" transform="translate(2563.857 1230.769)">
        <path id="Trazado_18960" data-name="Trazado 18960" d="M2821.831,1318.024a5.958,5.958,0,0,1-2.306-.516.575.575,0,1,1,.442-1.062,3.675,3.675,0,0,0,3.149.124,4.345,4.345,0,0,0,1.879-2.617.567.567,0,0,1,.69-.435.578.578,0,0,1,.435.691,5.452,5.452,0,0,1-2.47,3.385A3.914,3.914,0,0,1,2821.831,1318.024Z" transform="translate(-2819.169 -1313.5)"/>
      </g>
      <g id="Grupo_9771" data-name="Grupo 9771" transform="translate(2581.654 1234.296)">
        <path id="Trazado_18961" data-name="Trazado 18961" d="M2848.482,1337.086a.579.579,0,0,1-.578-.589l.392-16.733a.578.578,0,0,1,1.156.024l-.391,16.733A.577.577,0,0,1,2848.482,1337.086Z" transform="translate(-2847.904 -1319.194)"/>
      </g>
      <g id="Grupo_9772" data-name="Grupo 9772" transform="translate(2559.565 1217.082)">
        <path id="Trazado_18962" data-name="Trazado 18962" d="M2813.249,1304.513a.576.576,0,0,1-.562-.446c-.314-1.353-.926-4.6.21-5.474.694-.543,2.163-.046,3.288.473l1.31-7.2a.6.6,0,0,1,.675-.466.583.583,0,0,1,.465.674l-1.45,7.948a.588.588,0,0,1-.318.415.6.6,0,0,1-.52-.008,6.81,6.81,0,0,0-2.764-.915c-.325.256-.225,2.345.229,4.284a.577.577,0,0,1-.43.694A.555.555,0,0,1,2813.249,1304.513Z" transform="translate(-2812.238 -1291.401)"/>
      </g>
      <g id="Grupo_9776" data-name="Grupo 9776" transform="translate(2353.74 1241.953)">
        <g id="Grupo_9773" data-name="Grupo 9773">
          <path id="Trazado_18963" data-name="Trazado 18963" d="M2487.052,1349.55c-3.939,0-7.145-4.036-7.145-8.995s3.206-9,7.145-9,7.149,4.036,7.149,9a10.119,10.119,0,0,1-.267,2.451.558.558,0,0,1-.7.426.579.579,0,0,1-.427-.7,8.8,8.8,0,0,0,.236-2.179c0-4.326-2.691-7.843-5.993-7.843s-5.99,3.516-5.99,7.843,2.687,7.839,5.99,7.839a5.035,5.035,0,0,0,4.144-2.187.578.578,0,0,1,.922.7A6.216,6.216,0,0,1,2487.052,1349.55Z" transform="translate(-2479.906 -1331.558)"/>
        </g>
        <g id="Grupo_9774" data-name="Grupo 9774" transform="translate(19.523)">
          <path id="Trazado_18964" data-name="Trazado 18964" d="M2518.575,1349.55c-3.939,0-7.146-4.036-7.146-8.995s3.207-9,7.146-9,7.149,4.036,7.149,9S2522.518,1349.55,2518.575,1349.55Zm0-16.837c-3.3,0-5.99,3.516-5.99,7.843s2.687,7.839,5.99,7.839,5.994-3.517,5.994-7.839S2521.879,1332.713,2518.575,1332.713Z" transform="translate(-2511.43 -1331.558)"/>
        </g>
        <g id="Grupo_9775" data-name="Grupo 9775" transform="translate(13.325 6.896)">
          <path id="Trazado_18965" data-name="Trazado 18965" d="M2507.957,1345.364a.575.575,0,0,1-.395-.158,4.131,4.131,0,0,0-3-1.349,3.315,3.315,0,0,0-2.109,1.1.582.582,0,0,1-.81.1.575.575,0,0,1-.1-.81,4.432,4.432,0,0,1,2.931-1.543,5.094,5.094,0,0,1,3.877,1.663.577.577,0,0,1-.4,1Z" transform="translate(-2501.421 -1342.692)"/>
        </g>
      </g>
      <g id="Grupo_9777" data-name="Grupo 9777" transform="translate(2309.829 1317.103)">
        <path id="Trazado_18966" data-name="Trazado 18966" d="M2521.249,1534.463H2417.84a8.839,8.839,0,0,1-8.832-8.828v-63.911a8.839,8.839,0,0,1,8.832-8.827h103.409a8.835,8.835,0,0,1,8.828,8.827v63.911A8.835,8.835,0,0,1,2521.249,1534.463Zm-103.409-80.411a7.684,7.684,0,0,0-7.677,7.672v63.911a7.683,7.683,0,0,0,7.677,7.673h103.409a7.683,7.683,0,0,0,7.672-7.673v-63.911a7.683,7.683,0,0,0-7.672-7.672Z" transform="translate(-2409.008 -1452.897)"/>
      </g>
      <g id="Grupo_9778" data-name="Grupo 9778" transform="translate(2361.473 1349.374)">
        <path id="Trazado_18967" data-name="Trazado 18967" d="M2501.432,1523.081a9.039,9.039,0,1,1,9.037-9.041A9.049,9.049,0,0,1,2501.432,1523.081Zm0-16.922a7.884,7.884,0,1,0,7.882,7.882A7.89,7.89,0,0,0,2501.432,1506.158Z" transform="translate(-2492.395 -1505.003)"/>
      </g>
      <g id="Grupo_9779" data-name="Grupo 9779" transform="translate(2380.353 1280.078)">
        <path id="Trazado_18968" data-name="Trazado 18968" d="M2565.265,1511.676a.578.578,0,1,1,0-1.155c10.134,0,16.984-4.614,20.357-13.721,9.526-25.684-10.956-78.349-21.474-87.394-13.55-11.65-24.347-14.24-40.723-15.135a.582.582,0,0,1-.547-.608.65.65,0,0,1,.609-.547c16.639.915,27.612,3.547,41.413,15.415,10.673,9.18,31.469,62.615,21.808,88.673C2583.146,1506.807,2575.93,1511.676,2565.265,1511.676Z" transform="translate(-2522.878 -1393.116)"/>
      </g>
      <g id="Grupo_9780" data-name="Grupo 9780" transform="translate(2292.085 1280.078)">
        <path id="Trazado_18969" data-name="Trazado 18969" d="M2406.942,1511.707c-12.131,0-20.234-5.269-24.087-15.662-9.681-26.1,11.165-78.093,22.121-87.514,13.434-11.553,26.731-14.461,43.833-15.415a.625.625,0,0,1,.609.547.583.583,0,0,1-.547.608c-16.857.939-29.953,3.8-43.143,15.135-10.793,9.281-31.329,60.511-21.792,86.238,3.671,9.89,11.41,14.907,23.006,14.907a.578.578,0,0,1,0,1.155Z" transform="translate(-2380.358 -1393.116)"/>
      </g>
      <g id="Grupo_9781" data-name="Grupo 9781" transform="translate(2595.625 1283.894)">
        <path id="Trazado_18970" data-name="Trazado 18970" d="M2871.805,1422.557a.58.58,0,0,1-.569-.481c-1.555-9.036-.287-22.141-.271-22.273a.548.548,0,0,1,.632-.515.576.576,0,0,1,.516.632c-.011.128-1.264,13.08.264,21.962a.579.579,0,0,1-.473.667A.84.84,0,0,1,2871.805,1422.557Z" transform="translate(-2870.462 -1399.277)"/>
      </g>
      <g id="Grupo_9782" data-name="Grupo 9782" transform="translate(2584.024 1305.941)">
        <path id="Trazado_18971" data-name="Trazado 18971" d="M2865.3,1456.042a6.93,6.93,0,0,1-6.529-5.78.494.494,0,0,1,.566-.427.5.5,0,0,1,.426.566c.008.353,1.458,4.641,5.536,4.641,2.19-.015,3.621-.554,4.284-1.6,1.353-2.132-.45-6.032-1.528-8.367-.2-.43-.376-.81-.5-1.117-.992-2.392-2.112-5.1-5.8-6.928a11.138,11.138,0,0,0-9.3-.232.5.5,0,0,1-.45-.892,11.972,11.972,0,0,1,10.2.225c4.02,2,5.272,5.017,6.276,7.448.124.295.291.66.485,1.078,1.163,2.516,3.11,6.73,1.465,9.32-.857,1.353-2.57,2.051-5.087,2.066Z" transform="translate(-2851.73 -1434.875)"/>
      </g>
      <g id="Grupo_9783" data-name="Grupo 9783" transform="translate(2593.774 1306.712)">
        <path id="Trazado_18972" data-name="Trazado 18972" d="M2876.646,1451.647a.5.5,0,0,1-.1-.989c2.6-.542,4.1-1.528,4.462-2.923.664-2.555-2.485-6.409-5.389-8.932-3.136-2.734-7.439-1.295-7.482-1.276a.5.5,0,1,1-.326-.946c.193-.07,4.889-1.652,8.467,1.469,1.582,1.376,6.68,6.168,5.7,9.937-.469,1.795-2.229,3.02-5.23,3.648A.45.45,0,0,1,2876.646,1451.647Z" transform="translate(-2867.472 -1436.119)"/>
      </g>
      <g id="Grupo_9784" data-name="Grupo 9784" transform="translate(2570.234 1301.005)">
        <path id="Trazado_18973" data-name="Trazado 18973" d="M2830.042,1434.508a.6.6,0,0,1-.267-.066.578.578,0,0,1-.244-.779c2.392-4.548,5.8-6.757,10.409-6.757,3.136.012,6.331,1.663,9.537,4.9a.578.578,0,1,1-.822.814c-2.981-3.016-5.9-4.548-8.68-4.559-4.238,0-7.219,1.95-9.421,6.137A.581.581,0,0,1,2830.042,1434.508Z" transform="translate(-2829.465 -1426.906)"/>
      </g>
      <g id="Grupo_9785" data-name="Grupo 9785" transform="translate(2535.823 1250.319)">
        <path id="Trazado_18974" data-name="Trazado 18974" d="M2831.1,1448.6c-8.273,0-17.752-2.028-28.9-6.176a120.9,120.9,0,0,1-28.057-14.961.577.577,0,0,1-.236-.523,58.765,58.765,0,0,1,4.4-16.585,37.094,37.094,0,0,1,13.751-15.415.561.561,0,0,1,.519-.027l23.433,10.4a.571.571,0,0,1,.295.76.581.581,0,0,1-.76.295l-23.157-10.274a36.76,36.76,0,0,0-13.034,14.751,57.036,57.036,0,0,0-4.265,15.876,119.331,119.331,0,0,0,27.511,14.62c11.828,4.4,21.734,6.4,30.278,6.071,5.176-.194,11.91-.714,18.117-3.016a27.829,27.829,0,0,0,12.972-9.421c3.916-5.424,4.292-12.2,4.183-17.5-.225-10.809-2.578-21.459-4.6-29.535-.833-3.307-1.764-6.671-2.768-10-6.072-20.122-19.2-30.5-40.115-31.718a.583.583,0,0,1-.543-.613.646.646,0,0,1,.613-.543c21.458,1.252,34.924,11.9,41.154,32.539,1.008,3.342,1.942,6.726,2.776,10.053,2.043,8.13,4.412,18.865,4.641,29.79.112,5.474-.287,12.491-4.4,18.194a29.014,29.014,0,0,1-13.507,9.832c-6.362,2.357-13.216,2.888-18.473,3.086C2832.324,1448.583,2831.715,1448.6,2831.1,1448.6Z" transform="translate(-2773.904 -1345.066)"/>
      </g>
      <g id="Grupo_9786" data-name="Grupo 9786" transform="translate(2503.048 1251.064)">
        <path id="Trazado_18975" data-name="Trazado 18975" d="M2755.309,1441.21c-10.428,0-22.083-1.163-27.262-5.781-13.349-11.891-4.8-29.868,1.438-43,.4-.845.818-1.74,1.256-2.683,6.792-14.616,18.163-39.075,51.214-43.471a.554.554,0,0,1,.651.5.582.582,0,0,1-.5.651c-32.427,4.311-43.627,28.41-50.323,42.813-.438.942-.856,1.846-1.256,2.69-6.087,12.8-14.418,30.329-1.718,41.642,9.824,8.758,45.825,4.346,46.19,4.3a.546.546,0,0,1,.647.5.579.579,0,0,1-.5.647A175.821,175.821,0,0,1,2755.309,1441.21Z" transform="translate(-2720.985 -1346.268)"/>
      </g>
      <g id="Grupo_9787" data-name="Grupo 9787" transform="translate(2528.312 1344.823)">
        <path id="Trazado_18976" data-name="Trazado 18976" d="M2762.354,1551.47a.6.6,0,0,1-.566-.7c3.893-18.6,3.454-52.191,3.451-52.529a.54.54,0,0,1,.577-.585.577.577,0,0,1,.578.569c0,.338.442,34.056-3.474,52.784A.579.579,0,0,1,2762.354,1551.47Z" transform="translate(-2761.776 -1497.654)"/>
      </g>
      <g id="Grupo_9788" data-name="Grupo 9788" transform="translate(2620.195 1345.637)">
        <path id="Trazado_18977" data-name="Trazado 18977" d="M2910.71,1551.97a.585.585,0,0,1-.577-.613c1.373-22.932.418-51.5.407-51.784a.58.58,0,0,1,.559-.6c.27-.058.585.237.6.559.007.286.965,28.9-.408,51.892A.58.58,0,0,1,2910.71,1551.97Z" transform="translate(-2910.132 -1498.969)"/>
      </g>
      <g id="Grupo_9789" data-name="Grupo 9789" transform="translate(2557.133 1301.005)">
        <path id="Trazado_18978" data-name="Trazado 18978" d="M2808.89,1428.569a.578.578,0,0,1-.019-1.155c10.677-.352,22.927-.508,23.048-.508a.578.578,0,0,1,.016,1.156c-.124,0-12.363.155-23.025.507Z" transform="translate(-2808.312 -1426.906)"/>
      </g>
      <g id="Grupo_9790" data-name="Grupo 9790" transform="translate(2509.044 1305.06)">
        <path id="Trazado_18979" data-name="Trazado 18979" d="M2731.243,1452.865c-.43-.077-.632-.383-.566-.694,3.292-15.845,14.054-18.206,14.507-18.3,10.681-2.407,19.02,6.319,19.373,6.691a.579.579,0,1,1-.845.791c-.082-.089-8.243-8.61-18.284-6.354-.116.024-10.491,2.342-13.619,17.4A.579.579,0,0,1,2731.243,1452.865Z" transform="translate(-2730.665 -1433.453)"/>
      </g>
      <g id="Grupo_9791" data-name="Grupo 9791" transform="translate(2522.962 1297.854)">
        <path id="Trazado_18980" data-name="Trazado 18980" d="M2753.852,1430.583a.571.571,0,0,1-.538-.373c-.062-.17-1.454-4.167,4.784-7.3,6.067-3.051,13.507,1.237,13.817,1.427a.572.572,0,0,1,.206.787.586.586,0,0,1-.788.209c-.073-.047-7.215-4.16-12.716-1.392-5.272,2.648-4.264,5.742-4.218,5.874a.574.574,0,0,1-.349.732A.5.5,0,0,1,2753.852,1430.583Z" transform="translate(-2753.139 -1421.818)"/>
      </g>
      <g id="Grupo_9792" data-name="Grupo 9792" transform="translate(2530.461 1294.067)">
        <path id="Trazado_18981" data-name="Trazado 18981" d="M2789.054,1422.9a.571.571,0,0,1-.353-.121,39.777,39.777,0,0,0-11.572-5.4c-7.073-2.143-10.677,2.943-10.829,3.156a.578.578,0,0,1-.954-.652,10.875,10.875,0,0,1,12.115-3.613,40.011,40.011,0,0,1,11.945,5.6.574.574,0,0,1,.1.806A.564.564,0,0,1,2789.054,1422.9Z" transform="translate(-2765.246 -1415.703)"/>
      </g>
      <g id="Grupo_9793" data-name="Grupo 9793" transform="translate(2345.895 1246.239)">
        <path id="Trazado_18982" data-name="Trazado 18982" d="M2473.837,1351.666c-.136,0-.276,0-.411-.013a6.6,6.6,0,1,1,.826-13.166,6.52,6.52,0,0,1,2.036.458.577.577,0,0,1,.318.752.563.563,0,0,1-.752.318,5.337,5.337,0,0,0-1.671-.372,5.438,5.438,0,1,0-.686,10.855,5.317,5.317,0,0,0,2.845-.6.568.568,0,0,1,.779.244.577.577,0,0,1-.244.779A6.542,6.542,0,0,1,2473.837,1351.666Z" transform="translate(-2467.241 -1338.478)"/>
      </g>
      <g id="Grupo_9794" data-name="Grupo 9794" transform="translate(2350.592 1252.768)">
        <path id="Trazado_18983" data-name="Trazado 18983" d="M2475.4,1352.713a.578.578,0,0,1-.353-1.036l3.284-2.536a.578.578,0,0,1,.706.915l-3.284,2.536A.572.572,0,0,1,2475.4,1352.713Z" transform="translate(-2474.824 -1349.021)"/>
      </g>
      <g id="Grupo_9795" data-name="Grupo 9795" transform="translate(2350.167 1248.853)">
        <path id="Trazado_18984" data-name="Trazado 18984" d="M2478.134,1346.383a.6.6,0,0,1-.345-.113l-3.416-2.531a.582.582,0,0,1-.119-.811.592.592,0,0,1,.81-.12l3.416,2.532a.582.582,0,0,1,.12.81A.589.589,0,0,1,2478.134,1346.383Z" transform="translate(-2474.139 -1342.699)"/>
      </g>
      <g id="Grupo_9796" data-name="Grupo 9796" transform="translate(2385.666 1246.237)">
        <path id="Trazado_18985" data-name="Trazado 18985" d="M2534.8,1351.665a6.547,6.547,0,0,1-3.04-.741.577.577,0,0,1-.244-.779.566.566,0,0,1,.779-.244,5.359,5.359,0,0,0,2.846.6,5.438,5.438,0,1,0-.686-10.855,5.313,5.313,0,0,0-1.783.419.577.577,0,1,1-.45-1.063,6.48,6.48,0,0,1,2.164-.511,6.6,6.6,0,1,1,.825,13.166C2535.08,1351.66,2534.945,1351.665,2534.8,1351.665Z" transform="translate(-2531.455 -1338.475)"/>
      </g>
      <g id="Grupo_9797" data-name="Grupo 9797" transform="translate(2386.402 1252.714)">
        <path id="Trazado_18986" data-name="Trazado 18986" d="M2536.58,1352.68a.57.57,0,0,1-.353-.121l-3.357-2.589a.578.578,0,0,1,.706-.915l3.357,2.589a.578.578,0,0,1-.353,1.036Z" transform="translate(-2532.646 -1348.934)"/>
      </g>
      <g id="Grupo_9798" data-name="Grupo 9798" transform="translate(2386.529 1248.853)">
        <path id="Trazado_18987" data-name="Trazado 18987" d="M2533.428,1346.557a.59.59,0,0,1-.465-.233.58.58,0,0,1,.12-.81l3.652-2.706a.593.593,0,0,1,.811.12.581.581,0,0,1-.12.811l-3.652,2.706A.6.6,0,0,1,2533.428,1346.557Z" transform="translate(-2532.849 -1342.699)"/>
      </g>
      <g id="Grupo_9799" data-name="Grupo 9799" transform="translate(2354.87 1255.305)">
        <path id="Trazado_18988" data-name="Trazado 18988" d="M2497.609,1370.182a16.677,16.677,0,0,1-10.347-3.179c-2.548-2.024-4.234-5.277-5.153-9.941a29.852,29.852,0,0,1-.376-3.326.584.584,0,0,1,.535-.621.591.591,0,0,1,.62.535,28.291,28.291,0,0,0,.353,3.187c.864,4.385,2.415,7.412,4.742,9.258a15.529,15.529,0,0,0,9.626,2.931.578.578,0,0,1,0,1.156Z" transform="translate(-2481.732 -1353.116)"/>
      </g>
      <g id="Grupo_9800" data-name="Grupo 9800" transform="translate(2354.553 1242.705)">
        <path id="Trazado_18989" data-name="Trazado 18989" d="M2481.9,1337.424a.58.58,0,0,1-.578-.539c0-.074-.128-1.888-.1-3.544a.578.578,0,1,1,1.155.016c-.027,1.609.1,3.431.1,3.45a.583.583,0,0,1-.539.617Z" transform="translate(-2481.22 -1332.772)"/>
      </g>
      <g id="Grupo_9801" data-name="Grupo 9801" transform="translate(2354.556 1229.731)">
        <path id="Trazado_18990" data-name="Trazado 18990" d="M2481.8,1325.954a.578.578,0,0,1-.155-1.136,24.374,24.374,0,0,0,15.139-12.643.581.581,0,0,1,.756-.306.574.574,0,0,1,.306.755,25.1,25.1,0,0,1-15.892,13.31A.73.73,0,0,1,2481.8,1325.954Z" transform="translate(-2481.226 -1311.825)"/>
      </g>
      <g id="Grupo_9802" data-name="Grupo 9802" transform="translate(2370.073 1254.839)">
        <path id="Trazado_18991" data-name="Trazado 18991" d="M2506.856,1369.9a.578.578,0,0,1,0-1.156,15.55,15.55,0,0,0,9.631-2.931c2.322-1.842,3.873-4.873,4.741-9.258a30.8,30.8,0,0,0,.38-3.645.641.641,0,0,1,.612-.542.58.58,0,0,1,.543.613,30.516,30.516,0,0,1-.4,3.8c-.922,4.664-2.609,7.916-5.152,9.94A16.7,16.7,0,0,1,2506.856,1369.9Z" transform="translate(-2506.279 -1352.365)"/>
      </g>
      <g id="Grupo_9803" data-name="Grupo 9803" transform="translate(2385.685 1242.705)">
        <path id="Trazado_18992" data-name="Trazado 18992" d="M2532.064,1337.459a.581.581,0,0,1-.577-.586c.019-1.442.016-2.69,0-3.516a.578.578,0,0,1,1.155-.016c.012.834.015,2.09,0,3.548A.578.578,0,0,1,2532.064,1337.459Z" transform="translate(-2531.487 -1332.772)"/>
      </g>
      <g id="Grupo_9804" data-name="Grupo 9804" transform="translate(2370.073 1229.73)">
        <path id="Trazado_18993" data-name="Trazado 18993" d="M2522.473,1325.953a25.509,25.509,0,0,1-16.148-13.326.58.58,0,0,1,.3-.759.588.588,0,0,1,.76.3,24.707,24.707,0,0,0,15.24,12.646.579.579,0,0,1-.155,1.136Z" transform="translate(-2506.279 -1311.823)"/>
      </g>
      <g id="Grupo_9805" data-name="Grupo 9805" transform="translate(2358.979 1268.816)">
        <path id="Trazado_18994" data-name="Trazado 18994" d="M2500.263,1398.615c-4.657,0-8.944-1.931-10.926-4.923a4.733,4.733,0,0,1-.651-4.521c1.469-3.47,1.787-13.577,1.791-13.678a.573.573,0,0,1,.593-.563.58.58,0,0,1,.563.594c-.012.427-.33,10.429-1.884,14.1a3.619,3.619,0,0,0,.554,3.435c1.45,2.191,5.095,4.4,9.96,4.4,4.66,0,8.234-1.361,9.8-3.733a4.3,4.3,0,0,0,.457-4.106c-1.554-3.668-1.873-13.67-1.884-14.1a.579.579,0,0,1,.562-.594.57.57,0,0,1,.593.563c0,.1.322,10.208,1.791,13.678a5.431,5.431,0,0,1-.558,5.195C2509.978,1395.952,2507.183,1398.615,2500.263,1398.615Z" transform="translate(-2488.367 -1374.931)"/>
      </g>
      <g id="Grupo_9806" data-name="Grupo 9806" transform="translate(2370.068 1219.486)">
        <path id="Trazado_18995" data-name="Trazado 18995" d="M2524.722,1322.63a.6.6,0,0,1-.57-.667c1.326-8.5,1.334-12.828.024-16.559-2.306-6.556-10.464-8.932-17.33-8.967a.578.578,0,0,1,0-1.155c7.262.039,15.911,2.617,18.419,9.743,1.381,3.927,1.384,8.405.023,17.117A.579.579,0,0,1,2524.722,1322.63Z" transform="translate(-2506.272 -1295.282)"/>
      </g>
      <g id="Grupo_9807" data-name="Grupo 9807" transform="translate(2350.883 1219.486)">
        <path id="Trazado_18996" data-name="Trazado 18996" d="M2476.879,1322.63a.579.579,0,0,1-.57-.489c-1.361-8.72-1.353-13.2.024-17.117,2.508-7.125,11.157-9.7,18.415-9.743a.578.578,0,0,1,.008,1.155c-6.866.035-15.023,2.412-17.333,8.967-1.3,3.722-1.3,8.053.026,16.559a.575.575,0,0,1-.48.659A.786.786,0,0,1,2476.879,1322.63Z" transform="translate(-2475.294 -1295.282)"/>
      </g>
      <g id="Grupo_9808" data-name="Grupo 9808" transform="translate(2361.631 1241.453)">
        <path id="Trazado_18997" data-name="Trazado 18997" d="M2493.228,1332.406a.578.578,0,0,1-.209-1.117,7.772,7.772,0,0,1,4.35-.383.576.576,0,1,1-.256,1.124,6.753,6.753,0,0,0-3.675.337A.57.57,0,0,1,2493.228,1332.406Z" transform="translate(-2492.649 -1330.75)"/>
      </g>
      <g id="Grupo_9809" data-name="Grupo 9809" transform="translate(2375.405 1241.419)">
        <path id="Trazado_18998" data-name="Trazado 18998" d="M2519.573,1332.385a.537.537,0,0,1-.232-.051,6.194,6.194,0,0,0-3.753-.325.576.576,0,0,1-.252-1.124,7.136,7.136,0,0,1,4.469.4.577.577,0,0,1-.232,1.1Z" transform="translate(-2514.887 -1330.696)"/>
      </g>
      <g id="Grupo_9810" data-name="Grupo 9810" transform="translate(2368.633 1258.573)">
        <path id="Trazado_18999" data-name="Trazado 18999" d="M2506.875,1364.166a9,9,0,0,1-2.52-.372.579.579,0,1,1,.356-1.1c.027.015,2.822.888,4.633-.333a4.2,4.2,0,0,0,1.582-3.423.633.633,0,0,1,.613-.543.58.58,0,0,1,.542.613,5.271,5.271,0,0,1-2.094,4.311A5.5,5.5,0,0,1,2506.875,1364.166Z" transform="translate(-2503.955 -1358.393)"/>
      </g>
      <g id="Grupo_9811" data-name="Grupo 9811" transform="translate(2364.26 1243.793)">
        <path id="Trazado_19000" data-name="Trazado 19000" d="M2499.318,1349.514a.572.572,0,0,1-.384-.147c-.206-.182-1.985-1.826-2.039-3.528a2.234,2.234,0,0,1,.659-1.667,2.471,2.471,0,0,1,1.822-.8,3.7,3.7,0,0,1,1.965.667c.353-3.179.6-7.638-.047-8.614a.578.578,0,1,1,.966-.636c1.159,1.76.291,8.987.1,10.417a.582.582,0,0,1-.392.473.57.57,0,0,1-.593-.144,3.436,3.436,0,0,0-2-1.008,1.358,1.358,0,0,0-1,.45,1.059,1.059,0,0,0-.326.822,5.017,5.017,0,0,0,1.656,2.707.579.579,0,0,1-.388,1.008Z" transform="translate(-2496.894 -1334.528)"/>
      </g>
      <g id="Grupo_9812" data-name="Grupo 9812" transform="translate(2494.627 1381.246)">
        <path id="Trazado_19001" data-name="Trazado 19001" d="M2707.964,1571.549a.577.577,0,0,1-.128-1.14c.264-.058,6.378-1.508,6.75-7.587a4.518,4.518,0,0,0-1.217-3.734c-1.873-1.787-5.276-1.442-5.3-1.442a.552.552,0,0,1-.635-.512.576.576,0,0,1,.511-.636c.163-.012,3.966-.4,6.226,1.752a5.636,5.636,0,0,1,1.574,4.641c-.43,6.955-7.579,8.626-7.653,8.641A.44.44,0,0,1,2707.964,1571.549Z" transform="translate(-2707.388 -1556.464)"/>
      </g>
      <g id="Grupo_9813" data-name="Grupo 9813" transform="translate(2494.778 1377.617)">
        <path id="Trazado_19002" data-name="Trazado 19002" d="M2708.321,1573.036a.577.577,0,0,1-.059-1.151c.442-.046,10.747-1.194,10.034-11.142-.221-3.1-1.264-5.443-3.105-6.971a10.183,10.183,0,0,0-6.917-1.977.578.578,0,0,1-.132-1.148,11.227,11.227,0,0,1,7.777,2.23c2.1,1.733,3.284,4.354,3.532,7.781.791,11.081-10.957,12.363-11.073,12.375A.349.349,0,0,1,2708.321,1573.036Z" transform="translate(-2707.631 -1550.604)"/>
      </g>
      <g id="Grupo_9814" data-name="Grupo 9814" transform="translate(2471.093 1402.891)">
        <path id="Trazado_19003" data-name="Trazado 19003" d="M2681.664,1594.487c-2.052,0-12.275-.116-12.275-2.435a.578.578,0,0,1,1.148-.093c.484.493,4.128,1.372,11.126,1.372,6.568,0,10.839-.83,11.285-1.408a.51.51,0,0,1,.558-.512.62.62,0,0,1,.562.64C2694.069,1594.371,2683.734,1594.487,2681.664,1594.487Z" transform="translate(-2669.389 -1591.413)"/>
      </g>
      <g id="Grupo_9815" data-name="Grupo 9815" transform="translate(2471.093 1376.578)">
        <path id="Trazado_19004" data-name="Trazado 19004" d="M2669.967,1576.458a.58.58,0,0,1-.578-.578v-26.375a.578.578,0,0,1,1.156,0v26.375A.579.579,0,0,1,2669.967,1576.458Z" transform="translate(-2669.389 -1548.928)"/>
      </g>
      <g id="Grupo_9816" data-name="Grupo 9816" transform="translate(2494.626 1376.381)">
        <path id="Trazado_19005" data-name="Trazado 19005" d="M2707.964,1576.337a.58.58,0,0,1-.578-.578v-26.573a.578.578,0,0,1,1.156,0v26.573A.579.579,0,0,1,2707.964,1576.337Z" transform="translate(-2707.386 -1548.609)"/>
      </g>
      <g id="Grupo_9817" data-name="Grupo 9817" transform="translate(2471.093 1374.357)">
        <path id="Trazado_19006" data-name="Trazado 19006" d="M2681.733,1550.939c-.5,0-12.345-.031-12.345-2.8s11.841-2.8,12.345-2.8,12.344.031,12.344,2.8S2682.237,1550.939,2681.733,1550.939Zm-11.166-2.8c.477.613,4.443,1.645,11.166,1.645,6.9,0,10.9-1.086,11.2-1.691-.3-.512-4.3-1.6-11.2-1.6C2675.01,1546.5,2671.044,1547.527,2670.568,1548.14Z" transform="translate(-2669.389 -1545.341)"/>
      </g>
      <g id="Grupo_9818" data-name="Grupo 9818" transform="translate(2499.348 1397.587)">
        <path id="Trazado_19007" data-name="Trazado 19007" d="M2858.316,1584H2715.588a.578.578,0,0,1,0-1.156h142.728a.578.578,0,1,1,0,1.156Z" transform="translate(-2715.01 -1582.849)"/>
      </g>
      <g id="Grupo_9819" data-name="Grupo 9819" transform="translate(2283.761 1397.587)">
        <path id="Trazado_19008" data-name="Trazado 19008" d="M2554.827,1584H2367.495a.578.578,0,0,1,0-1.156h187.333a.578.578,0,0,1,0,1.156Z" transform="translate(-2366.918 -1582.849)"/>
      </g>
      <g id="Grupo_9821" data-name="Grupo 9821" transform="translate(2252.003 1111.159)">
        <g id="Grupo_9820" data-name="Grupo 9820">
          <path id="Trazado_19009" data-name="Trazado 19009" d="M2318.366,1125.615a2.515,2.515,0,1,0-2.515-2.515A2.515,2.515,0,0,0,2318.366,1125.615Z" transform="translate(-2315.721 -1120.455)" fill="#1a1a1a"/>
          <path id="Trazado_19010" data-name="Trazado 19010" d="M2349.85,1125.665a2.645,2.645,0,1,0-2.646-2.645A2.645,2.645,0,0,0,2349.85,1125.665Z" transform="translate(-2327.656 -1120.375)" fill="#1a1a1a"/>
          <path id="Trazado_19011" data-name="Trazado 19011" d="M2381.533,1125.59a2.45,2.45,0,1,0-2.45-2.45A2.451,2.451,0,0,0,2381.533,1125.59Z" transform="translate(-2339.791 -1120.495)" fill="#1a1a1a"/>
          <path id="Trazado_19012" data-name="Trazado 19012" d="M2318.286,1157.229a2.646,2.646,0,1,0-2.645-2.646A2.646,2.646,0,0,0,2318.286,1157.229Z" transform="translate(-2315.641 -1132.39)" fill="#1a1a1a"/>
          <path id="Trazado_19013" data-name="Trazado 19013" d="M2349.77,1157.279a2.776,2.776,0,1,0-2.775-2.776A2.776,2.776,0,0,0,2349.77,1157.279Z" transform="translate(-2327.576 -1132.31)" fill="#1a1a1a"/>
          <path id="Trazado_19014" data-name="Trazado 19014" d="M2381.453,1157.2a2.58,2.58,0,1,0-2.58-2.581A2.58,2.58,0,0,0,2381.453,1157.2Z" transform="translate(-2339.711 -1132.43)" fill="#1a1a1a"/>
          <path id="Trazado_19015" data-name="Trazado 19015" d="M2318.406,1188.717a2.45,2.45,0,1,0-2.45-2.45A2.45,2.45,0,0,0,2318.406,1188.717Z" transform="translate(-2315.761 -1144.525)" fill="#1a1a1a"/>
          <path id="Trazado_19016" data-name="Trazado 19016" d="M2349.89,1188.767a2.58,2.58,0,1,0-2.581-2.58A2.58,2.58,0,0,0,2349.89,1188.767Z" transform="translate(-2327.696 -1144.445)" fill="#1a1a1a"/>
          <path id="Trazado_19017" data-name="Trazado 19017" d="M2381.56,1188.7a2.407,2.407,0,1,0-2.407-2.407A2.406,2.406,0,0,0,2381.56,1188.7Z" transform="translate(-2339.817 -1144.552)" fill="#1a1a1a"/>
        </g>
      </g>
      <g id="Grupo_9822" data-name="Grupo 9822" transform="translate(2431.925 1133.577)">
        <path id="Trazado_19018" data-name="Trazado 19018" d="M2687.523,1223.088H2624.4a18.273,18.273,0,0,1-18.249-18.253v-30.011a18.273,18.273,0,0,1,18.249-18.253h63.652a18.273,18.273,0,0,1,18.252,18.253v30.011a17.734,17.734,0,0,1-10.789,16.434.57.57,0,0,1-.76-.295.576.576,0,0,1,.295-.76,16.6,16.6,0,0,0,10.1-15.379v-30.011a17.115,17.115,0,0,0-17.1-17.1H2624.4a17.114,17.114,0,0,0-17.094,17.1v30.011a17.114,17.114,0,0,0,17.094,17.1h63.127a.578.578,0,1,1,0,1.156Z" transform="translate(-2606.147 -1156.572)"/>
      </g>
      <g id="Grupo_9823" data-name="Grupo 9823" transform="translate(2464.196 1150.973)">
        <path id="Trazado_19019" data-name="Trazado 19019" d="M2689.574,1216.384h-26.882a3.86,3.86,0,0,1-3.609-6.288l13.379-22.913a3.925,3.925,0,0,1,7.332,0l13.391,22.916a3.86,3.86,0,0,1-3.61,6.288Zm-13.445-30.569a3.3,3.3,0,0,0-2.667,1.95l-13.38,22.912a2.737,2.737,0,0,0,2.609,4.552h26.882a2.736,2.736,0,0,0,2.609-4.552l-13.391-22.916A3.3,3.3,0,0,0,2676.129,1185.815Z" transform="translate(-2658.253 -1184.66)"/>
      </g>
      <g id="Grupo_9833" data-name="Grupo 9833" transform="translate(2231.566 1190.819)">
        <g id="Grupo_9824" data-name="Grupo 9824" transform="translate(41.196 60.776)">
          <path id="Trazado_19020" data-name="Trazado 19020" d="M2361.115,1366.608h-3.679a8.283,8.283,0,0,1-8.277-8.269V1348.27a5.518,5.518,0,0,1,.027-.621.584.584,0,0,1,.26-.426.549.549,0,0,1,.492-.066,30.737,30.737,0,0,0,18.682.023.578.578,0,0,1,.749.5c.019.194.023.391.023.589v10.069A8.283,8.283,0,0,1,2361.115,1366.608Zm-10.8-18.125v9.855a7.125,7.125,0,0,0,7.122,7.114h3.679a7.124,7.124,0,0,0,7.121-7.114v-9.832A32.023,32.023,0,0,1,2350.314,1348.483Z" transform="translate(-2349.159 -1347.127)"/>
        </g>
        <g id="Grupo_9825" data-name="Grupo 9825" transform="translate(19.624 0)">
          <path id="Trazado_19021" data-name="Trazado 19021" d="M2346.049,1312.427a31.69,31.69,0,1,1,9.662-1.5A31.565,31.565,0,0,1,2346.049,1312.427Zm0-62.274a30.563,30.563,0,1,0,30.563,30.562A30.6,30.6,0,0,0,2346.049,1250.152Z" transform="translate(-2314.329 -1248.997)"/>
        </g>
        <g id="Grupo_9826" data-name="Grupo 9826" transform="translate(39.354 70.44)">
          <path id="Trazado_19022" data-name="Trazado 19022" d="M2369.586,1363.887h-22.823a.578.578,0,0,1,0-1.156h22.823a.578.578,0,1,1,0,1.156Z" transform="translate(-2346.185 -1362.731)"/>
        </g>
        <g id="Grupo_9827" data-name="Grupo 9827" transform="translate(39.354 76.174)">
          <path id="Trazado_19023" data-name="Trazado 19023" d="M2369.586,1373.144h-22.823a.578.578,0,0,1,0-1.156h22.823a.578.578,0,1,1,0,1.156Z" transform="translate(-2346.185 -1371.989)"/>
        </g>
        <g id="Grupo_9828" data-name="Grupo 9828" transform="translate(39.354 64.706)">
          <path id="Trazado_19024" data-name="Trazado 19024" d="M2369.586,1354.628h-22.823a.578.578,0,0,1,0-1.156h22.823a.578.578,0,1,1,0,1.156Z" transform="translate(-2346.185 -1353.473)"/>
        </g>
        <g id="Grupo_9829" data-name="Grupo 9829" transform="translate(39.354 70.44)">
          <path id="Trazado_19025" data-name="Trazado 19025" d="M2369.586,1363.887h-22.823a.578.578,0,0,1,0-1.156h22.823a.578.578,0,1,1,0,1.156Z" transform="translate(-2346.185 -1362.731)"/>
        </g>
        <g id="Grupo_9830" data-name="Grupo 9830" transform="translate(31.077 27.242)">
          <path id="Trazado_19026" data-name="Trazado 19026" d="M2334.344,1310.937c-.341,0-.667-.012-.969-.024a.579.579,0,0,1-.554-.6.6.6,0,0,1,.6-.554c1.845.066,4.493.008,6.238-1.508a6.634,6.634,0,0,0,1.031-1.159,9.406,9.406,0,0,1-2.043-1.954,9.236,9.236,0,0,1-1.811-6.843c.112-.834.88-4.145,2.578-5.068a1.889,1.889,0,0,1,1.779-.046c1.156.539,1.6,2.132,1.893,3.187l.062.229a14.5,14.5,0,0,1-.868,10.131c2.43,1.345,5.815,1.942,10.289,1.83a19.99,19.99,0,0,0,6.482-1.113,10.718,10.718,0,0,0,5.188-3.959c-.136-.069-.267-.143-.4-.217a6.19,6.19,0,0,1-3.3-4.439,5.759,5.759,0,0,1,.571-3.145,3.862,3.862,0,0,1,2.213-2.167,2.114,2.114,0,0,1,2,.283c1.528,1.128,1.59,4.21,1.586,4.815a9.829,9.829,0,0,1-1.016,4.338c3.043,1.187,6.723,1.3,10.27,1.306a.578.578,0,1,1,0,1.156c-3.721,0-7.587-.132-10.844-1.446a11.8,11.8,0,0,1-5.854,4.552,20.945,20.945,0,0,1-6.854,1.19c-4.633.1-8.3-.54-10.921-2a8.016,8.016,0,0,1-1.26,1.407A9.13,9.13,0,0,1,2334.344,1310.937Zm5.994-16.8a.762.762,0,0,0-.372.1c-1.021.558-1.819,3-1.981,4.21a8.061,8.061,0,0,0,1.578,5.982,8.316,8.316,0,0,0,1.729,1.667,12.463,12.463,0,0,0,1.237-5.528,12.981,12.981,0,0,0-.489-3.656l-.065-.236c-.221-.8-.593-2.137-1.268-2.451A.834.834,0,0,0,2340.337,1294.135Zm23.742.415a1.473,1.473,0,0,0-.426.069,2.844,2.844,0,0,0-1.5,1.559,4.591,4.591,0,0,0-.469,2.512,5.033,5.033,0,0,0,2.721,3.57c.14.078.28.152.423.225a8.69,8.69,0,0,0,.918-3.877c.008-1.465-.337-3.3-1.116-3.881A.875.875,0,0,0,2364.08,1294.55Z" transform="translate(-2332.82 -1292.981)"/>
        </g>
        <g id="Grupo_9831" data-name="Grupo 9831" transform="translate(0 52.873)">
          <path id="Trazado_19027" data-name="Trazado 19027" d="M2283.22,1354.3a.578.578,0,0,1-.364-1.027l23.075-18.78a.59.59,0,0,1,.814.085.583.583,0,0,1-.085.814l-23.075,18.78A.591.591,0,0,1,2283.22,1354.3Z" transform="translate(-2282.643 -1334.367)"/>
        </g>
        <g id="Grupo_9832" data-name="Grupo 9832" transform="translate(7.188)">
          <path id="Trazado_19028" data-name="Trazado 19028" d="M2307.263,1259.84a.588.588,0,0,1-.357-.12l-12.437-9.688a.584.584,0,0,1-.1-.814.574.574,0,0,1,.81-.1l12.437,9.688a.577.577,0,0,1-.357,1.031Z" transform="translate(-2294.249 -1248.996)"/>
        </g>
      </g>
      <g id="Grupo_9834" data-name="Grupo 9834" transform="translate(2282.303 1142.258)">
        <path id="Trazado_19029" data-name="Trazado 19029" d="M2365.141,1214.025a.579.579,0,0,1-.577-.578v-28.425A14.449,14.449,0,0,1,2379,1170.588h132.35a.578.578,0,1,1,0,1.155H2379a13.291,13.291,0,0,0-13.278,13.279v28.425A.579.579,0,0,1,2365.141,1214.025Z" transform="translate(-2364.563 -1170.588)"/>
      </g>
      <g id="Grupo_9835" data-name="Grupo 9835" transform="translate(2296.16 1259.86)">
        <path id="Trazado_19030" data-name="Trazado 19030" d="M2437.138,1361.626h-49.625a.578.578,0,0,1,0-1.156h49.625a.578.578,0,1,1,0,1.156Z" transform="translate(-2386.937 -1360.471)"/>
      </g>
      <g id="Grupo_9836" data-name="Grupo 9836" transform="translate(2394.45 1217.575)">
        <path id="Trazado_19031" data-name="Trazado 19031" d="M2613.648,1335.637h-67.431a.578.578,0,1,1,0-1.156h67.431a13.3,13.3,0,0,0,13.282-13.282v-28.425a.578.578,0,1,1,1.155,0V1321.2A14.456,14.456,0,0,1,2613.648,1335.637Z" transform="translate(-2545.64 -1292.196)"/>
      </g>
      <g id="Grupo_9837" data-name="Grupo 9837" transform="translate(2283.544 1374.349)">
        <path id="Trazado_19032" data-name="Trazado 19032" d="M2367.144,1571.835a.579.579,0,0,1-.577-.578v-25.351a.577.577,0,1,1,1.155,0v25.351A.579.579,0,0,1,2367.144,1571.835Z" transform="translate(-2366.567 -1545.329)"/>
      </g>
      <g id="Grupo_9838" data-name="Grupo 9838" transform="translate(2198.992 1382.611)">
        <path id="Trazado_19033" data-name="Trazado 19033" d="M2292.443,1559.823h-61.818a.578.578,0,0,1,0-1.156h61.818a.578.578,0,0,1,0,1.156Z" transform="translate(-2230.048 -1558.668)"/>
      </g>
      <g id="Grupo_9839" data-name="Grupo 9839" transform="translate(2198.992 1391.419)">
        <path id="Trazado_19034" data-name="Trazado 19034" d="M2292.443,1574.046h-61.818a.578.578,0,0,1,0-1.156h61.818a.578.578,0,0,1,0,1.156Z" transform="translate(-2230.048 -1572.89)"/>
      </g>
      <g id="Grupo_9840" data-name="Grupo 9840" transform="translate(2194.375 1369.715)">
        <path id="Trazado_19035" data-name="Trazado 19035" d="M2312.707,1573.612a1.68,1.68,0,0,1-.237-.011l-1.337,0h-79.76a8.791,8.791,0,0,1-8.781-8.782v-18.179a8.794,8.794,0,0,1,8.781-8.785l81.156-.008a3.681,3.681,0,0,1,2.469.806,2.46,2.46,0,0,1,.744,1.857,3.048,3.048,0,0,1-.919,2.373,3.289,3.289,0,0,1-2.354.737l-81.1.012a3.011,3.011,0,0,0-3.008,3.008v18.179a3.011,3.011,0,0,0,3.008,3.009h81.156a3.68,3.68,0,0,1,2.469.807,2.459,2.459,0,0,1,.744,1.857,3.048,3.048,0,0,1-.919,2.373A3.21,3.21,0,0,1,2312.707,1573.612Zm-.069-34.609c-.074,0-81.264.012-81.264.012a7.635,7.635,0,0,0-7.626,7.629v18.179a7.632,7.632,0,0,0,7.626,7.626h81.156a2.2,2.2,0,0,0,1.527-.446,1.954,1.954,0,0,0,.531-1.508,1.321,1.321,0,0,0-.38-1.015,2.568,2.568,0,0,0-1.644-.492h-81.19a4.169,4.169,0,0,1-4.164-4.165v-18.179a4.169,4.169,0,0,1,4.164-4.163l81.156-.008a2.163,2.163,0,0,0,1.527-.446,1.964,1.964,0,0,0,.531-1.512,1.321,1.321,0,0,0-.38-1.016A2.487,2.487,0,0,0,2312.638,1539Z" transform="translate(-2222.593 -1537.847)"/>
      </g>
      <g id="Grupo_9841" data-name="Grupo 9841" transform="translate(2219.613 1350.297)">
        <path id="Trazado_19036" data-name="Trazado 19036" d="M2263.921,1524.07a.579.579,0,0,1-.578-.577v-16.422a.578.578,0,1,1,1.156,0v16.422A.579.579,0,0,1,2263.921,1524.07Z" transform="translate(-2263.343 -1506.493)"/>
      </g>
      <g id="Grupo_9842" data-name="Grupo 9842" transform="translate(2229.903 1358.508)">
        <path id="Trazado_19037" data-name="Trazado 19037" d="M2326.813,1520.906h-46.278a.578.578,0,1,1,0-1.156h46.278a.578.578,0,1,1,0,1.156Z" transform="translate(-2279.957 -1519.751)"/>
      </g>
      <path id="Trazado_19038" data-name="Trazado 19038" d="M2323.59,1522.009a2.527,2.527,0,0,0,2.685-2.323V1507.91a2.527,2.527,0,0,0-2.685-2.323h-60.758s-1.974.1-1.974-1.351c0-1.817,1.974-1.641,1.974-1.641h60.758c3.378,0,6.143,2.392,6.143,5.314v11.776c0,2.924-2.765,5.316-6.143,5.316l-60.758,0s-1.974.1-1.974-1.351c0-1.817,1.974-1.642,1.974-1.642Z" transform="translate(-42.784 -154.711)" fill="#1a1a1a"/>
      <g id="Grupo_9843" data-name="Grupo 9843" transform="translate(2148.464 1203.301)">
        <path id="Trazado_19039" data-name="Trazado 19039" d="M2185.248,1446.529a.581.581,0,0,1-.295-.082,55.39,55.39,0,0,1-5.528-3.819.577.577,0,0,1,.705-.915,54.229,54.229,0,0,0,5.412,3.741.578.578,0,0,1-.294,1.074Zm-10.553-8.064a.569.569,0,0,1-.388-.151c-1.616-1.465-3.234-3.032-4.8-4.653a.578.578,0,1,1,.829-.806c1.555,1.6,3.153,3.156,4.75,4.605a.574.574,0,0,1,.039.814A.583.583,0,0,1,2174.7,1438.465Zm-9.266-9.541a.582.582,0,0,1-.438-.2c-1.458-1.691-2.873-3.439-4.21-5.2a.578.578,0,1,1,.922-.7c1.319,1.737,2.722,3.466,4.164,5.141a.578.578,0,0,1-.438.954Zm-8-10.607a.573.573,0,0,1-.484-.264,62.739,62.739,0,0,1-3.342-5.819.578.578,0,0,1,.255-.775.567.567,0,0,1,.775.256,61.9,61.9,0,0,0,3.28,5.711.578.578,0,0,1-.484.892Zm-5.777-11.93a.572.572,0,0,1-.551-.407,59.207,59.207,0,0,1-1.6-6.509.574.574,0,0,1,.457-.674.55.55,0,0,1,.674.457,59.415,59.415,0,0,0,1.57,6.385.575.575,0,0,1-.38.722A.569.569,0,0,1,2151.651,1406.387Zm-2.447-13.034a.582.582,0,0,1-.577-.535c-.108-1.462-.163-2.947-.163-4.416,0-.764.016-1.527.047-2.3a.575.575,0,0,1,.6-.554.582.582,0,0,1,.554.6c-.031.752-.047,1.5-.047,2.249,0,1.443.055,2.9.163,4.33a.584.584,0,0,1-.535.621Zm.547-13.251a.6.6,0,0,1-.57-.671,50.788,50.788,0,0,1,1.524-6.544.562.562,0,0,1,.717-.384.572.572,0,0,1,.384.718,49.268,49.268,0,0,0-1.485,6.4A.578.578,0,0,1,2149.751,1380.1Zm3.9-12.662a.58.58,0,0,1-.52-.826,41.394,41.394,0,0,1,3.377-5.82.577.577,0,0,1,.946.659,40.644,40.644,0,0,0-3.284,5.656A.571.571,0,0,1,2153.651,1367.44Zm46.092-2.458a9.217,9.217,0,0,1-2.749-.411,11.411,11.411,0,0,1-2.485-1.117.576.576,0,0,1-.2-.791.583.583,0,0,1,.791-.2,10.58,10.58,0,0,0,2.237,1.008,7.15,7.15,0,0,0,2.4.356,7.435,7.435,0,0,0,1.33-.12.579.579,0,0,1,.2,1.14A9.02,9.02,0,0,1,2199.744,1364.982Zm6.843-3.66a.582.582,0,0,1-.314-.093.575.575,0,0,1-.17-.8,6.382,6.382,0,0,0,1.019-3.459,7.29,7.29,0,0,0-.4-2.326.615.615,0,0,1,.338-.771.537.537,0,0,1,.713.3l-.539.2.566-.139a8.53,8.53,0,0,1,.473,2.737,7.545,7.545,0,0,1-1.206,4.087A.574.574,0,0,1,2206.587,1361.322Zm-16.458-2.427a.571.571,0,0,1-.484-.264q-.408-.628-.764-1.28a27.222,27.222,0,0,1-2.016-4.9.578.578,0,0,1,1.1-.349,26.174,26.174,0,0,0,1.927,4.7c.225.407.466.81.721,1.205a.577.577,0,0,1-.17.8A.584.584,0,0,1,2190.129,1358.895Zm-28.836-2.241a.586.586,0,0,1-.43-.19.58.58,0,0,1,.043-.818,39.489,39.489,0,0,1,5.42-4.013.577.577,0,0,1,.613.977,38.247,38.247,0,0,0-5.257,3.9A.591.591,0,0,1,2161.293,1356.654Zm11.185-7.106a.578.578,0,0,1-.245-1.1,57.554,57.554,0,0,1,6.242-2.481.553.553,0,0,1,.729.364.574.574,0,0,1-.364.729,56.893,56.893,0,0,0-6.118,2.435A.609.609,0,0,1,2172.478,1349.548Zm31.367-.24a.567.567,0,0,1-.411-.175,13.527,13.527,0,0,0-5.384-3.3.577.577,0,1,1,.372-1.093,14.653,14.653,0,0,1,5.834,3.582.572.572,0,0,1-.007.814A.565.565,0,0,1,2203.845,1349.308Zm-18.152-2.873a.575.575,0,0,1-.558-.434c-.05-.19-.1-.384-.147-.577a.579.579,0,0,1-.268-1.016,41.628,41.628,0,0,0-1.454-4.547c-.174-.446-.022-.78.276-.9a.567.567,0,0,1,.744.333,44.241,44.241,0,0,1,1.559,4.842,34.815,34.815,0,0,1,5.455-.465l.415,0a.58.58,0,0,1,.562.593.525.525,0,0,1-.593.562l-.384,0a34.03,34.03,0,0,0-5.165.43c.043.156.082.307.116.454a.574.574,0,0,1-.415.7A.631.631,0,0,1,2185.694,1346.434Zm-3.958-12.682a.579.579,0,0,1-.562-.438,52.868,52.868,0,0,1-1.19-6.606.577.577,0,0,1,.508-.639.53.53,0,0,1,.64.508,50.856,50.856,0,0,0,1.167,6.458.583.583,0,0,1-.423.7A.564.564,0,0,1,2181.736,1333.753Zm-1.555-13.169a.577.577,0,0,1-.577-.582,55.694,55.694,0,0,1,.426-6.7.536.536,0,0,1,.648-.5.58.58,0,0,1,.5.647,54.127,54.127,0,0,0-.419,6.56A.576.576,0,0,1,2180.181,1320.583Zm1.612-13.162c-.446-.093-.635-.4-.562-.713a55.128,55.128,0,0,1,1.989-6.412.569.569,0,0,1,.745-.334.576.576,0,0,1,.333.745,54.475,54.475,0,0,0-1.942,6.273A.583.583,0,0,1,2181.793,1307.421Zm4.7-12.406a.622.622,0,0,1-.271-.066.584.584,0,0,1-.24-.783,51,51,0,0,1,3.528-5.715.578.578,0,0,1,.938.675,48.967,48.967,0,0,0-3.442,5.583A.586.586,0,0,1,2186.489,1295.015Zm7.7-10.77a.589.589,0,0,1-.4-.158.581.581,0,0,1-.02-.818,45.694,45.694,0,0,1,4.986-4.517.578.578,0,1,1,.705.915,43.9,43.9,0,0,0-4.853,4.4A.587.587,0,0,1,2194.192,1284.245Zm10.445-8.134a.577.577,0,0,1-.283-1.081,43.868,43.868,0,0,1,6.1-2.83.561.561,0,0,1,.74.338.571.571,0,0,1-.337.74,43.47,43.47,0,0,0-5.935,2.761A.568.568,0,0,1,2204.637,1276.111Zm12.378-4.675a.577.577,0,0,1-.124-1.14,50.279,50.279,0,0,1,6.642-.992.583.583,0,0,1,.62.527.573.573,0,0,1-.528.621,49.861,49.861,0,0,0-6.486.969A.476.476,0,0,1,2217.015,1271.436Zm19.815-.515a65.283,65.283,0,0,0-6.638-.61.577.577,0,0,1-.554-.6.564.564,0,0,1,.6-.555,63.874,63.874,0,0,1,6.671.617.577.577,0,0,1-.081,1.148Z" transform="translate(-2148.464 -1269.149)"/>
      </g>
      <g id="Grupo_9844" data-name="Grupo 9844" transform="translate(2370.223 1296.904)">
        <path id="Trazado_19040" data-name="Trazado 19040" d="M2507.1,1441.637a.578.578,0,0,1-.577-.577v-20.2a.578.578,0,0,1,1.155,0v20.2A.579.579,0,0,1,2507.1,1441.637Z" transform="translate(-2506.523 -1420.284)"/>
      </g>
      <g id="Grupo_9845" data-name="Grupo 9845" transform="translate(2340.004 1258.277)">
        <path id="Trazado_19041" data-name="Trazado 19041" d="M2458.306,1383.616c-.458-.1-.64-.418-.559-.724,1.039-3.9,3.8-5.668,6.471-7.378a16.73,16.73,0,0,0,5.152-4.408c3.195-4.66,1.178-12.391,1.155-12.468a.579.579,0,0,1,.407-.709.6.6,0,0,1,.709.407c.089.337,2.179,8.323-1.318,13.422a17.663,17.663,0,0,1-5.481,4.729c-2.6,1.663-5.056,3.233-5.979,6.7A.577.577,0,0,1,2458.306,1383.616Z" transform="translate(-2457.729 -1357.915)"/>
      </g>
      <g id="Grupo_9846" data-name="Grupo 9846" transform="translate(2386.686 1258.184)">
        <path id="Trazado_19042" data-name="Trazado 19042" d="M2547.133,1383.559a.579.579,0,0,1-.559-.43c-.922-3.466-3.376-5.036-5.978-6.7a17.665,17.665,0,0,1-5.482-4.729c-3.5-5.1-1.387-13.174-1.294-13.515a.6.6,0,0,1,.71-.407.582.582,0,0,1,.407.709c-.024.077-2.067,7.9,1.132,12.562a16.718,16.718,0,0,0,5.152,4.408c2.671,1.71,5.432,3.474,6.47,7.378a.576.576,0,0,1-.411.705A.6.6,0,0,1,2547.133,1383.559Z" transform="translate(-2533.103 -1357.765)"/>
      </g>
      <g id="Grupo_9847" data-name="Grupo 9847" transform="translate(2420.31 1172.009)">
        <path id="Trazado_19043" data-name="Trazado 19043" d="M2595.077,1219.78h-7.107a.578.578,0,0,1,0-1.155h7.107a.578.578,0,1,1,0,1.155Z" transform="translate(-2587.393 -1218.625)"/>
      </g>
      <g id="Grupo_9848" data-name="Grupo 9848" transform="translate(2319.909 1172.009)">
        <path id="Trazado_19044" data-name="Trazado 19044" d="M2502.957,1219.78h-77.1a.578.578,0,1,1,0-1.155h77.1a.578.578,0,1,1,0,1.155Z" transform="translate(-2425.283 -1218.625)"/>
      </g>
      <g id="Grupo_9849" data-name="Grupo 9849" transform="translate(2319.909 1200.508)">
        <path id="Trazado_19045" data-name="Trazado 19045" d="M2533.368,1265.8H2425.861a.578.578,0,1,1,0-1.156h107.507a.578.578,0,0,1,0,1.156Z" transform="translate(-2425.283 -1264.64)"/>
      </g>
      <g id="Grupo_9850" data-name="Grupo 9850" transform="translate(2534.993 1280.379)">
        <path id="Trazado_19046" data-name="Trazado 19046" d="M2773.14,1408.611c-.458-.1-.639-.419-.558-.725l3.664-13.86a.6.6,0,0,1,.706-.411.577.577,0,0,1,.411.706l-3.664,13.86A.577.577,0,0,1,2773.14,1408.611Z" transform="translate(-2772.563 -1393.602)"/>
      </g>
      <g id="Grupo_9851" data-name="Grupo 9851" transform="translate(2575.095 1306.233)">
        <path id="Trazado_19047" data-name="Trazado 19047" d="M2849.75,1456.082c-.093,0-.185,0-.283-.007a5.233,5.233,0,0,1-3.834-1.551c-1.322-1.521-1.128-3.745-.985-5.374.036-.407.07-.783.07-1.1.012-1.846-2.253-5.87-5.068-7.343a.578.578,0,0,1-.244-.779.563.563,0,0,1,.779-.245c3.082,1.613,5.7,5.955,5.687,8.374,0,.342-.034.745-.077,1.19-.128,1.5-.292,3.361.709,4.512a4.129,4.129,0,0,0,3.023,1.156,2.9,2.9,0,0,0,2.688-1.225c1.826-2.59.977-8.343-.342-11.5-2.023-4.869-7.009-5.6-9.056-5.683a5.15,5.15,0,0,0-4.408,2.709.59.59,0,0,1-.771.268.578.578,0,0,1-.267-.772c.069-.147,1.794-3.543,5.493-3.361,2.271.1,7.8.911,10.08,6.4,1.361,3.276,2.373,9.549.214,12.611A3.989,3.989,0,0,1,2849.75,1456.082Z" transform="translate(-2837.314 -1435.346)"/>
      </g>
      <g id="Grupo_9852" data-name="Grupo 9852" transform="translate(2553.451 1194.403)">
        <path id="Trazado_19048" data-name="Trazado 19048" d="M2859.135,1322.174c-.473-.116-.644-.438-.554-.745,2.473-8.23-1.823-10.359-6.365-12.611-3.357-1.667-6.832-3.385-7.444-7.6-.709-4.88,1.663-9.851,3.958-14.658,2.237-4.692,4.555-9.542,3.974-14.244-1.131-9.189-19.1-11.821-19.279-11.848a.555.555,0,0,1-.377-.221c-1.814-2.372-8.583-4.717-15.368-4.253-5.555.368-9.726,2.528-11.75,6.076-5.4,9.479-.058,18.652,0,18.745a.577.577,0,0,1-.992.589c-.059-.1-5.742-9.847,0-19.908,2.218-3.892,6.723-6.257,12.678-6.653,6.475-.43,13.767,1.629,16.21,4.517,2.252.349,18.853,3.237,20.035,12.817.62,5.032-1.768,10.037-4.078,14.88-2.326,4.865-4.521,9.46-3.861,14,.531,3.617,3.582,5.129,6.815,6.734,4.552,2.256,9.712,4.811,6.964,13.98A.585.585,0,0,1,2859.135,1322.174Z" transform="translate(-2802.366 -1254.783)"/>
      </g>
      <g id="Grupo_9853" data-name="Grupo 9853" transform="translate(2557.965 1243.064)">
        <path id="Trazado_19049" data-name="Trazado 19049" d="M2811.634,1343.192a.576.576,0,0,1-.493-.275c-3.683-5.979.632-9.413.675-9.448a.577.577,0,0,1,.71.911c-.147.116-3.524,2.857-.4,7.932a.58.58,0,0,1-.19.8A.573.573,0,0,1,2811.634,1343.192Z" transform="translate(-2809.655 -1333.351)"/>
      </g>
      <g id="Grupo_9854" data-name="Grupo 9854" transform="translate(2604.273 1323.351)">
        <path id="Trazado_19050" data-name="Trazado 19050" d="M2887.794,1491.56a.569.569,0,0,1-.45-.217c-5.35-6.661-3.152-17.012,5-23.557,5.873-4.714,12.821-6.056,18.574-3.582a.583.583,0,0,1,.3.76.6.6,0,0,1-.76.3c-5.358-2.307-11.86-1.028-17.4,3.419-7.649,6.141-9.766,15.776-4.823,21.936a.578.578,0,0,1-.45.938Z" transform="translate(-2884.424 -1462.986)"/>
      </g>
      <g id="Grupo_9855" data-name="Grupo 9855" transform="translate(2617.172 1124.658)">
        <path id="Trazado_19051" data-name="Trazado 19051" d="M2907.337,1263.695a.578.578,0,0,1-.527-.814c.845-1.888,1.709-3.947,2.567-6.118a.58.58,0,0,1,1.078.427c-.865,2.183-1.737,4.257-2.59,6.164A.579.579,0,0,1,2907.337,1263.695Zm4.908-12.379c-.5-.14-.652-.473-.543-.772.71-1.985,1.423-4.1,2.117-6.285a.577.577,0,0,1,1.1.349c-.7,2.2-1.418,4.327-2.132,6.323A.578.578,0,0,1,2912.245,1251.316Zm4.032-12.674c-.465-.109-.643-.426-.554-.733.6-2.124,1.167-4.28,1.69-6.416a.6.6,0,0,1,.7-.422.586.586,0,0,1,.423.7c-.528,2.144-1.1,4.315-1.707,6.447A.575.575,0,0,1,2916.277,1238.642Zm3.172-12.914c-.43-.077-.632-.383-.566-.694.45-2.171.86-4.361,1.221-6.52a.578.578,0,0,1,1.14.194c-.365,2.171-.775,4.377-1.229,6.559A.579.579,0,0,1,2919.448,1225.728Zm2.178-13.119a.6.6,0,0,1-.574-.652c.275-2.155.5-4.373.675-6.587a.535.535,0,0,1,.62-.527.572.572,0,0,1,.528.621c-.175,2.229-.4,4.466-.674,6.641A.581.581,0,0,1,2921.627,1212.609Zm1.028-13.251a.583.583,0,0,1-.578-.6c.035-1.128.05-2.264.05-3.4q.006-1.6-.043-3.214a.577.577,0,0,1,.562-.593c.272-.062.586.245.594.562.031,1.081.047,2.167.042,3.249q0,1.722-.05,3.434A.58.58,0,0,1,2922.655,1199.357Zm-.376-13.282a.572.572,0,0,1-.574-.527c-.193-2.206-.465-4.412-.8-6.556a.578.578,0,0,1,.481-.659.588.588,0,0,1,.659.481c.341,2.167.617,4.4.81,6.633a.572.572,0,0,1-.523.624A.228.228,0,0,1,2922.278,1186.075Zm-2.078-13.12a.576.576,0,0,1-.563-.446c-.516-2.179-1.108-4.319-1.767-6.354a.58.58,0,0,1,.372-.729.587.587,0,0,1,.729.372c.666,2.067,1.267,4.237,1.79,6.448a.577.577,0,0,1-.43.694A.5.5,0,0,1,2920.2,1172.956Zm-4.1-12.627a.574.574,0,0,1-.531-.353c-.873-2.051-1.83-4.051-2.85-5.939a.578.578,0,1,1,1.016-.55c1.035,1.923,2.012,3.954,2.9,6.04a.575.575,0,0,1-.307.755A.581.581,0,0,1,2916.1,1160.329Zm-6.3-11.681a.575.575,0,0,1-.48-.256c-1.21-1.806-2.536-3.582-3.935-5.276a.578.578,0,1,1,.891-.737c1.423,1.726,2.772,3.532,4,5.37a.577.577,0,0,1-.481.9Z" transform="translate(-2905.252 -1142.171)"/>
      </g>
      <g id="Grupo_9856" data-name="Grupo 9856" transform="translate(2482.856 1096.165)">
        <path id="Trazado_19052" data-name="Trazado 19052" d="M2688.959,1127.65a.594.594,0,0,1-.419-.178.581.581,0,0,1,.019-.818c.02-.016,1.854-1.76,5.114-4.361a.576.576,0,0,1,.721.9c-3.218,2.57-5.021,4.28-5.036,4.3A.585.585,0,0,1,2688.959,1127.65Zm10.394-8.336a.577.577,0,0,1-.333-1.047c1.778-1.271,3.64-2.532,5.528-3.749a.577.577,0,0,1,.628.969c-1.873,1.206-3.722,2.458-5.49,3.718A.559.559,0,0,1,2699.353,1119.314Zm11.188-7.191a.578.578,0,0,1-.287-1.078c1.939-1.117,3.916-2.186,5.87-3.183a.579.579,0,0,1,.527,1.031c-1.943.985-3.9,2.047-5.823,3.152A.55.55,0,0,1,2710.541,1112.123Zm11.853-6.021a.577.577,0,0,1-.233-1.1c2.035-.9,4.117-1.748,6.191-2.524a.563.563,0,0,1,.74.338.571.571,0,0,1-.337.74c-2.052.772-4.114,1.613-6.13,2.5A.55.55,0,0,1,2722.394,1106.1Zm70.928-2.124a.587.587,0,0,1-.229-.047c-2.031-.884-4.1-1.683-6.152-2.384a.577.577,0,1,1,.372-1.093c2.083.709,4.18,1.524,6.238,2.415a.578.578,0,0,1-.228,1.109Zm-58.476-2.528a.577.577,0,0,1-.171-1.128c2.148-.659,4.319-1.245,6.459-1.745a.564.564,0,0,1,.694.43.578.578,0,0,1-.43.694c-2.113.492-4.261,1.074-6.381,1.722A.538.538,0,0,1,2734.846,1101.449Zm45.906-1.756c-2.28-.554-4.451-1-6.6-1.349a.58.58,0,0,1-.478-.663.6.6,0,0,1,.663-.477c2.178.352,4.385.806,6.552,1.353a.577.577,0,0,1-.139,1.136Zm-32.974-1.264a.578.578,0,0,1-.093-1.148c2.187-.353,4.42-.628,6.641-.814a.582.582,0,0,1,.624.523.575.575,0,0,1-.523.625c-2.194.186-4.4.457-6.556.807A.823.823,0,0,1,2747.779,1098.429Zm19.87-.868q-3.129-.239-6.238-.24h-.4a.578.578,0,0,1,0-1.156h.4c2.1,0,4.214.081,6.284.245a.577.577,0,0,1-.046,1.151Z" transform="translate(-2688.381 -1096.165)"/>
      </g>
      <g id="Grupo_9857" data-name="Grupo 9857" transform="translate(2596.391 1105.051)">
        <path id="Trazado_19053" data-name="Trazado 19053" d="M2881.135,1129.389a9.438,9.438,0,1,1,9.44-9.44A9.448,9.448,0,0,1,2881.135,1129.389Zm0-17.721a8.283,8.283,0,1,0,8.285,8.281A8.29,8.29,0,0,0,2881.135,1111.668Z" transform="translate(-2871.698 -1110.513)"/>
      </g>
    </g>
  </g>
</svg>
