<svg xmlns="http://www.w3.org/2000/svg" width="755" height="366.457" viewBox="0 0 755 366.457">
  <g id="Grupo_10191" data-name="Grupo 10191" transform="translate(-583 -3531.543)">
    <g id="Grupo_9868" data-name="Grupo 9868" transform="translate(-1435.85 2490.407)" opacity="0.662">
      <path id="Trazado_19054" data-name="Trazado 19054" d="M2252.717,1405.1a1.15,1.15,0,0,1-1.149-1.129l-.251-14.259-9.908-16.438c-2.823.445-12.259,1.464-18.311-3.5-3.437-2.82-5.159-7.046-5.122-12.563a15.746,15.746,0,0,1,9.685-14.633c6-2.438,12.572-.862,17.571,4.213,9.389,9.531,3.506,19.811,1.7,22.471l4.572,7.9.7-45.94-11.671-26.055c-4.2.574-21.464,1.952-24.707-13.952-1.336-6.551-.112-12.8,3.447-17.586a21.09,21.09,0,0,1,15.33-8.2,15.212,15.212,0,0,1,11.507,3.718,23.207,23.207,0,0,1,7.5,16.013c.528,8.457-5.219,14.306-7.281,16.121l10.963,24.882,8.635-6.11c-.832-2.773-2.884-11.589,2.749-16.753a14.515,14.515,0,0,1,15.847-2.847c4.846,2.234,7.617,7.069,7.411,12.934-.159,4.547-1.719,7.854-4.634,9.828-5.4,3.658-13.662,1.429-15.89.727l-12.179,8.044-.235,34.384,8.65-7.06c-.413-1.812-1.119-6.459,1.3-10.3,1.791-2.848,4.872-4.609,9.158-5.235,4.7-.687,8.5.654,10.7,3.772a11.776,11.776,0,0,1,.428,12.018,9.958,9.958,0,0,1-9.018,5.541,28.168,28.168,0,0,1-9.282-1.352l-11.563,9.679.252,30.254a1.15,1.15,0,0,1-2.3.02l-.256-30.8a1.152,1.152,0,0,1,.412-.892l12.519-10.479a1.151,1.151,0,0,1,1.292-.126c.016.009,2.529,1.3,8.788,1.393a7.747,7.747,0,0,0,7.122-4.313,9.561,9.561,0,0,0-.273-9.618c-1.7-2.409-4.639-3.385-8.49-2.823-3.582.522-6.119,1.926-7.537,4.171-2.448,3.879-.872,9.122-.855,9.175a1.152,1.152,0,0,1-.371,1.231l-11.115,9.072a1.149,1.149,0,0,1-1.876-.9l.256-37.443a1.147,1.147,0,0,1,.516-.952l13.157-8.689a1.145,1.145,0,0,1,1.022-.123c.09.032,9.2,3.227,14.384-.284,2.271-1.542,3.49-4.234,3.622-8,.175-4.981-2.039-8.9-6.075-10.763a12.229,12.229,0,0,0-13.331,2.452c-5.48,5.027-1.9,15.013-1.868,15.113a1.148,1.148,0,0,1-.415,1.335l-10.475,7.413a1.139,1.139,0,0,1-.97.17,1.154,1.154,0,0,1-.746-.645l-11.879-26.965a1.15,1.15,0,0,1,.358-1.379c.076-.059,7.634-5.917,7.083-14.731-.353-5.647-2.921-11.17-6.7-14.41a12.963,12.963,0,0,0-9.8-3.174,18.823,18.823,0,0,0-13.694,7.278c-3.164,4.257-4.243,9.854-3.04,15.755,3.22,15.788,22.115,12.173,22.915,12.009a1.159,1.159,0,0,1,1.278.658l12.135,27.092a1.143,1.143,0,0,1,.1.487l-.766,50.35a1.15,1.15,0,0,1-2.145.559l-7.026-12.141a1.154,1.154,0,0,1,.1-1.3c.344-.425,8.307-10.542-1.075-20.065-4.325-4.391-9.958-5.773-15.069-3.7a13.285,13.285,0,0,0-8.25,12.517c-.033,4.787,1.4,8.409,4.274,10.766,6.18,5.077,17.1,2.912,17.2,2.89a1.152,1.152,0,0,1,1.217.532l10.475,17.378a1.162,1.162,0,0,1,.164.574l.256,14.567a1.15,1.15,0,0,1-1.129,1.17Z" transform="translate(-0.19 -95.191)" fill="#d6d6d6"/>
      <g id="Grupo_9859" data-name="Grupo 9859" transform="translate(2232.223 1305.454)">
        <path id="Trazado_19055" data-name="Trazado 19055" d="M2253.312,1504.889h36.281a3.833,3.833,0,0,1,3.833,3.833v14.947a12.775,12.775,0,0,1-12.775,12.775h-18.4a12.775,12.775,0,0,1-12.775-12.775v-14.947A3.832,3.832,0,0,1,2253.312,1504.889Z" transform="translate(-2246.925 -1502.334)" fill="#fff" fill-rule="evenodd"/>
        <path id="Trazado_19056" data-name="Trazado 19056" d="M2287.708,1503a3.833,3.833,0,0,1,3.833,3.833v14.947a12.775,12.775,0,0,1-12.775,12.775h-18.4a12.775,12.775,0,0,1-12.775-12.775v-14.947a3.832,3.832,0,0,1,3.832-3.833Zm0-2.555h-36.281a6.4,6.4,0,0,0-6.387,6.388v14.947a15.347,15.347,0,0,0,15.33,15.33h18.4a15.347,15.347,0,0,0,15.331-15.33v-14.947a6.4,6.4,0,0,0-6.388-6.388Z" transform="translate(-2245.04 -1500.449)" fill="#d6d6d6"/>
      </g>
      <path id="Trazado_19058" data-name="Trazado 19058" d="M2303.883,1171.862a1.784,1.784,0,0,1-1.742-2.2,45.876,45.876,0,0,1,4.648-11.073,1.788,1.788,0,0,1,3.11,1.767,43.225,43.225,0,0,0-4.276,10.124A1.79,1.79,0,0,1,2303.883,1171.862Zm168.229-5.974h-.537c-3.628,0-7.344-.095-11.046-.282a1.788,1.788,0,1,1,.179-3.571c3.642.182,7.3.276,10.866.276h.537a1.789,1.789,0,1,1,0,3.578Zm13.784-.508a1.789,1.789,0,0,1-.127-3.573c3.858-.28,7.665-.678,11.315-1.188a1.788,1.788,0,0,1,.494,3.542c-3.729.519-7.615.927-11.551,1.214C2485.984,1165.378,2485.94,1165.38,2485.9,1165.38Zm-39-1.055a1.8,1.8,0,0,1-.265-.019c-3.715-.551-7.561-1.292-11.43-2.2a1.788,1.788,0,1,1,.819-3.481c3.773.888,7.52,1.611,11.136,2.146a1.789,1.789,0,0,1-.26,3.558Zm64-2.659a1.788,1.788,0,0,1-.407-3.529c3.782-.891,7.448-1.932,10.893-3.095a1.789,1.789,0,0,1,1.144,3.39c-3.552,1.2-7.326,2.27-11.218,3.186A1.8,1.8,0,0,1,2510.894,1161.666Zm-88.566-3.234a1.772,1.772,0,0,1-.547-.086c-3.4-1.09-6.978-2.334-10.935-3.8a1.789,1.789,0,1,1,1.242-3.355c3.907,1.446,7.436,2.672,10.785,3.748a1.788,1.788,0,0,1-.545,3.491Zm112.349-5.21a1.789,1.789,0,0,1-.813-3.383,69.084,69.084,0,0,0,9.549-5.834,1.788,1.788,0,1,1,2.118,2.881,72.627,72.627,0,0,1-10.043,6.141A1.789,1.789,0,0,1,2534.677,1153.222Zm-217.958-2.873a1.788,1.788,0,0,1-1.249-3.068,47.343,47.343,0,0,1,9.5-7.187,1.788,1.788,0,1,1,1.781,3.1,43.867,43.867,0,0,0-8.781,6.646A1.783,1.783,0,0,1,2316.718,1150.35Zm81.876-.662a1.762,1.762,0,0,1-.657-.125l-.836-.33c-3.335-1.318-6.616-2.616-9.853-3.844a1.788,1.788,0,1,1,1.27-3.343c3.251,1.234,6.548,2.536,9.9,3.861l.835.33a1.789,1.789,0,0,1-.658,3.452Zm-23.736-8.722a1.774,1.774,0,0,1-.525-.079,102.863,102.863,0,0,0-10.949-2.77,1.788,1.788,0,1,1,.67-3.513,106.294,106.294,0,0,1,11.328,2.864,1.789,1.789,0,0,1-.524,3.5Zm-36.219-2.567a1.789,1.789,0,0,1-.418-3.528c1.822-.439,3.727-.8,5.66-1.06a54.455,54.455,0,0,1,6.092-.478,1.769,1.769,0,0,1,1.829,1.747,1.787,1.787,0,0,1-1.747,1.828,51.316,51.316,0,0,0-5.69.449,53.856,53.856,0,0,0-5.305.993A1.789,1.789,0,0,1,2338.638,1138.4Zm215.787-.639a1.788,1.788,0,0,1-1.4-2.9,37.835,37.835,0,0,0,5.493-9.443,1.788,1.788,0,1,1,3.324,1.32,41.31,41.31,0,0,1-6.01,10.338A1.785,1.785,0,0,1,2554.425,1137.759Zm8.357-23.339a1.793,1.793,0,0,1-1.79-1.807l0-.394a44.047,44.047,0,0,0-1.343-10.538,1.789,1.789,0,0,1,3.472-.86,47.6,47.6,0,0,1,1.447,11.4l0,.431A1.789,1.789,0,0,1,2562.783,1114.42Zm-85.646-22.115a67.534,67.534,0,0,1-8.764-.5,1.789,1.789,0,0,1,.461-3.548,60.259,60.259,0,0,0,8.3.475q1.427,0,2.892-.047a1.751,1.751,0,0,1,1.843,1.732,1.788,1.788,0,0,1-1.732,1.843Q2478.615,1092.3,2477.136,1092.306Zm77.744-1.043a1.785,1.785,0,0,1-1.048-.341c-2.421-1.757-5.667-2.912-9.919-3.531a1.788,1.788,0,1,1,.514-3.539c4.839.7,8.6,2.069,11.5,4.174a1.789,1.789,0,0,1-1.052,3.237Zm-61.044-.076a1.788,1.788,0,0,1-.2-3.566c3.846-.43,7.729-.939,11.376-1.422a1.788,1.788,0,0,1,.471,3.546c-3.666.487-7.57,1-11.449,1.43A1.88,1.88,0,0,1,2493.836,1091.187Zm25.1-3.171a1.789,1.789,0,0,1-.2-3.566c4.458-.508,8.242-.839,11.564-1.012a1.788,1.788,0,1,1,.188,3.571c-3.25.17-6.961.5-11.347.994A1.877,1.877,0,0,1,2518.94,1088.016Zm-63.183-.793a1.782,1.782,0,0,1-1.078-.363,17.418,17.418,0,0,1-5.526-7.031,1.788,1.788,0,1,1,3.28-1.424,13.708,13.708,0,0,0,4.4,5.6,1.789,1.789,0,0,1-1.081,3.214Z" transform="translate(-37.038 -15.365)" fill="#d6d6d6"/>
      <path id="Trazado_19059" data-name="Trazado 19059" d="M2454.863,1197.829l2-14.827s-5.133-11.223-6.068-11.172-2.129-3.129-4.033-3.565-16.076-5.605-17.41-5.605-6.169,1.042-7.837,2.689-5.335,2.98-5.835,6.981-.116,6.372-.948,7.936-3.832-.159-4.4,5.9.948,7.179,2.042,8.958S2450.36,1205.488,2454.863,1197.829Z" transform="translate(-82.939 -51.592)" fill="#f5f5f5" fill-rule="evenodd"/>
      <path id="Trazado_19060" data-name="Trazado 19060" d="M2653.956,1226.412s1.022-31.615,2.555-33.331,17.374-11.936,17.374-11.936l12.264,8.688s5.164,9.077,5.137,11.436,6.451,32.254,6.451,32.254a5.979,5.979,0,0,1-3.226,4.088C2691.77,1238.887,2653.956,1226.412,2653.956,1226.412Z" transform="translate(-186.416 -59.438)" fill="#f5f5f5" fill-rule="evenodd"/>
      <g id="Grupo_9860" data-name="Grupo 9860" transform="translate(2393.823 1041.136)">
        <path id="Trazado_19061" data-name="Trazado 19061" d="M2549.222,1043.356a21.147,21.147,0,1,1-21.146,21.147A21.146,21.146,0,0,1,2549.222,1043.356Z" transform="translate(-2526.798 -1042.078)" fill="#fff" fill-rule="evenodd"/>
        <path id="Trazado_19062" data-name="Trazado 19062" d="M2548.28,1085.984a22.424,22.424,0,1,1,22.425-22.423A22.448,22.448,0,0,1,2548.28,1085.984Zm0-42.294a19.87,19.87,0,1,0,19.87,19.871A19.892,19.892,0,0,0,2548.28,1043.69Z" transform="translate(-2525.856 -1041.136)" fill="#d6d6d6"/>
      </g>
      <path id="Trazado_19063" data-name="Trazado 19063" d="M2554.094,1359.657s-4.287-8.615,6.387-8.815,52.505-.767,52.505-.767,8.021-1.253,9.453,4.6,9.837,38.836,9.837,38.836,2.5,4.54-2.427,5.876-59.148.767-59.148.767-5.026.593-6.9-5.876-3.322-13.8-3.322-13.8,6.07,1.9,6.132,0-2.172-2.81-2.172-2.81,3.041-.348,2.044-2.683a23.5,23.5,0,0,0-3.96-5.366s3.653-.711,1.66-3.322-4.721-5.345-6.387-5.493A12.906,12.906,0,0,1,2554.094,1359.657Z" transform="translate(-143.66 -131.108)" fill="#d6d6d6" fill-rule="evenodd"/>
      <path id="Trazado_19064" data-name="Trazado 19064" d="M2662.515,1223.393s-1.222,12.16-4.343,12.647-17.187-2.165-21.079-.767-4.727,1.405-4.727,1.405a17.226,17.226,0,0,1,4.088-15.074c6.29-7.274,7.483-10.745,7.92-12.392s1.277-10.475,1.277-10.475-6.82-10.615.532-16.005c7.753-5.683,23.184-16.531,39.07-13.633,15.989,2.918,21.855,18.478,20.568,29a27.2,27.2,0,0,1-3.96,11.369c-3.305,5.3-4.582,9.331-4.216,11.242.559,2.923,5.746,12.854,6.9,17.374a90.765,90.765,0,0,1,1.788,10.987s-5.919-3.532-16.735-4.854-13.749-3.206-14.308-6.388,4.216-20.312,4.216-20.312,10.621.964,11.5-4.344c1.452-8.8-7.41-5.238-7.41-5.238s-11.658-4.2-14.82-11.753a27.714,27.714,0,0,1-2.043-14.053,20.934,20.934,0,0,0-12.008,5.622c-5.026,5.078-4.216,6.386-4.216,6.386s-6.984,18.115,2.172,24.784S2662.515,1223.393,2662.515,1223.393Z" transform="translate(-177.092 -54.12)" fill="#d6d6d6" fill-rule="evenodd"/>
      <path id="Trazado_19065" data-name="Trazado 19065" d="M2717.049,1207.659a25.664,25.664,0,0,0,7.921-20.7,19.468,19.468,0,0,0-11.115-16.48,35.937,35.937,0,0,0-6.388-1.277c-3.1-.269-11.114,1.022-11.114,1.022a22.067,22.067,0,0,1,13.03,3.96c15.213,10.578,5.622,32.449,5.622,32.449Z" transform="translate(-204.416 -54.355)" fill-rule="evenodd"/>
      <path id="Trazado_19066" data-name="Trazado 19066" d="M2450.615,1259.935s-.472,8.249-.766,10.347-1.532,6.129,2.3,7.154,5.622.512,5.622.512a40.049,40.049,0,0,1-2.172-10.348c-.227-3.82-.383-7.793-.383-7.793a4.159,4.159,0,0,1-2.3.128A5.114,5.114,0,0,0,2450.615,1259.935Z" transform="translate(-99.585 -92.834)" fill="#1c54ff" fill-rule="evenodd"/>
      <path id="Trazado_19067" data-name="Trazado 19067" d="M2639.765,1329.081c2.474,5.554,9.964,37.942,9.964,37.942s3.861,7.125-2.683,7.665-22.739,1.406-22.739,1.406-15.15,19.687-19.418,33.086c-5.72,17.961-9.1,55.714-9.635,61.962h117.563c-.344-2.141-5.217-32.238-8.412-39.094-3.313-7.11-9.836-21.718-9.836-21.718s-8.728-.245-21.59-20.823c-6.633-10.612-11.8-17.932-13.8-22.229-1.872-4.035-.766-5.365-.766-5.365s-2.927-5.19-2.939-9.07-.361-5.375-1.277-7.538-4.15-8.444-2.172-9.07c3.408-1.079,9.2,8.048,9.2,8.048l4.6-2.811s-1.934-2.008-1.662-3.321,2.683-2.3,2.683-2.3-5.294-4.292-4.215-6.259,5.875,0,5.875,0a11.186,11.186,0,0,0-1.15-4.216c-.981-1.63-2.387-5.718.256-5.493s5.054,3.02,6.515,8.048a60.728,60.728,0,0,1,1.917,8.943,27.616,27.616,0,0,0,.766,5.749,24.782,24.782,0,0,1,.383,6.77l3.45-2.811,4.216,14.692s6.577-5.221,11.625-5.493a43.877,43.877,0,0,1,10.859,1.15l-5.749-37.047s-3.19-14.981-10.476-18.652a49.733,49.733,0,0,0-13.8-4.6s-19.234,13.224-33.726,6.132c-12.732-6.231-11.625-10.731-11.625-10.731s-12.76-3.186-18.524,5.748-9.709,26.828-9.709,26.828l26.189.383S2637.29,1323.528,2639.765,1329.081Z" transform="translate(-161.495 -106.281)" fill="#1c54ff" fill-rule="evenodd"/>
      <path id="Trazado_19068" data-name="Trazado 19068" d="M2321.193,1420.656a25.045,25.045,0,0,0,18.907-3.7l16.48-12.775s-4.391.011-6.516-9.071c-2.1-9,4.335-15.921,2.938-15.969,0,0-9.635,3.678-12.647,5.876a24.589,24.589,0,0,1-6,3.194l-6.515-35.386s-3.653-11.06,3.065-13.541,50.079-8.815,50.079-8.815,6.816-1.919,9.325,3.961,3.833,19.929,3.833,19.929,5.092-2.1,5.621.894a9.269,9.269,0,0,1-.255,4.854,11.044,11.044,0,0,1,1.405,6c-.064,3.837.178,6.2-.639,7.665s-2.044,3.833-2.044,3.833l5.365,30.787s2.323,7.779-3.832,9.454-51.866,10.092-51.866,10.092-2.849.826-4.471-1.149a32.144,32.144,0,0,1-2.811-4.088s-8.072,14.811-10.347,27.083-3.322,22.611-3.322,22.611l1.153,0h119.353c-1.038-4.373-11.022-46.118-18.178-64.9-7.557-19.834-12.9-27.211-12.9-27.211l2.3-11.242s11.923,23.259,22.484,28.233,20.948.145,24.528-6.771a21.384,21.384,0,0,0,1.661-14.053s-1.973.843-4.088-1.405a15.087,15.087,0,0,1-3.194-6.643s-8.662-.287-12.263-2.3-8.3-5.11-8.3-5.11-.8-9.441-.512-13.285.895-13.286.895-13.286-7.417-25.477-11.115-30.022-12.008-9.964-12.008-9.964a43.3,43.3,0,0,1-33.088,23.761c-24.317,3.28-45.479-11.242-45.479-11.242a25.258,25.258,0,0,0-13.159,18.013c-2.445,13.219-12.647,74.606-12.647,74.606S2310.057,1418.449,2321.193,1420.656Z" transform="translate(-41.319 -107.536)" fill-rule="evenodd"/>
      <path id="Trazado_19069" data-name="Trazado 19069" d="M2356.259,1250.162s14.538-20.981,16.607-40.88-4.653-47.071,29.51-49.439c26.714-1.852,30.532,25.039,30.532,25.039l-6.388-1.916s-1.9-3.1-3.322-5.748a76.163,76.163,0,0,0-4.216-6.516s1.01,3.945.639,6.259-.767,3.833-.767,3.833-11.47.4-16.608,2.939-8.3,4.471-8.3,4.471l-1.278-7.282-.255,13.67s-7.93-11.529-10.858-2.044c-3.286,10.641,10.092,11.753,10.092,11.753a7.924,7.924,0,0,1,3.194,7.027c-.439,4.582-.406,21.931-6.388,25.933S2356.259,1250.162,2356.259,1250.162Z" transform="translate(-60.033 -50.357)" fill="#1c54ff" fill-rule="evenodd"/>
      <g id="Grupo_9861" data-name="Grupo 9861" transform="translate(2287.668 1218.328)">
        <path id="Trazado_19070" data-name="Trazado 19070" d="M2350.686,1362.251l49.667-8.669a5.557,5.557,0,0,1,6.608,4.231l13.143,75.355a5.561,5.561,0,0,1-4.785,6.22l-49.667,8.669a5.559,5.559,0,0,1-6.607-4.232l-13.142-75.355A5.56,5.56,0,0,1,2350.686,1362.251Z" transform="translate(-2343.273 -1350.932)" fill="#efefef" fill-rule="evenodd"/>
        <path id="Trazado_19071" data-name="Trazado 19071" d="M2399.555,1351.6a5.449,5.449,0,0,1,5.521,4.326l13.143,75.356a5.561,5.561,0,0,1-4.785,6.22l-49.667,8.669a6.306,6.306,0,0,1-1.087.095,5.45,5.45,0,0,1-5.521-4.327l-13.142-75.355a5.56,5.56,0,0,1,4.784-6.22l49.667-8.669a6.4,6.4,0,0,1,1.087-.094Zm0-2.555a8.9,8.9,0,0,0-1.527.132l-49.668,8.669a8.12,8.12,0,0,0-6.862,9.176l13.142,75.356a8,8,0,0,0,8.038,6.442,8.9,8.9,0,0,0,1.526-.133l49.667-8.669a8.12,8.12,0,0,0,6.863-9.175l-13.143-75.357a8,8,0,0,0-8.037-6.442Z" transform="translate(-2341.389 -1349.047)" fill="#fff"/>
      </g>
      <path id="Trazado_19072" data-name="Trazado 19072" d="M2394.462,1357.074a5.449,5.449,0,0,1,5.521,4.326l13.144,75.334a5.559,5.559,0,0,1-4.785,6.219l-49.673,8.667a6.3,6.3,0,0,1-1.086.095,5.448,5.448,0,0,1-5.521-4.326l-13.144-75.335a5.558,5.558,0,0,1,4.784-6.218l49.673-8.667a6.337,6.337,0,0,1,1.088-.095Zm0-2.555a8.913,8.913,0,0,0-1.527.133l-49.673,8.667a8.565,8.565,0,0,0-5.347,3.191,7.583,7.583,0,0,0-1.516,5.982l13.144,75.335a7.993,7.993,0,0,0,8.038,6.441,8.882,8.882,0,0,0,1.525-.132l49.673-8.667a8.119,8.119,0,0,0,6.863-9.175L2402.5,1360.96a8,8,0,0,0-8.038-6.441Z" transform="translate(-51.554 -133.042)" fill="#1a1a1a"/>
      <g id="Grupo_9862" data-name="Grupo 9862" transform="translate(2402.257 1049.572)">
        <path id="Trazado_19073" data-name="Trazado 19073" d="M2555.445,1058.016a12.711,12.711,0,1,1-12.711,12.71A12.71,12.71,0,0,1,2555.445,1058.016Z" transform="translate(-2541.456 -1056.739)" fill="#fff" fill-rule="evenodd"/>
        <path id="Trazado_19074" data-name="Trazado 19074" d="M2554.5,1083.773a13.988,13.988,0,1,1,13.989-13.988A14,14,0,0,1,2554.5,1083.773Zm0-25.423a11.434,11.434,0,1,0,11.434,11.434A11.446,11.446,0,0,0,2554.5,1058.35Z" transform="translate(-2540.513 -1055.796)" fill="#d6d6d6"/>
      </g>
      <path id="Trazado_19075" data-name="Trazado 19075" d="M2559.211,1066.888a7.605,7.605,0,1,1-7.605,7.6A7.605,7.605,0,0,1,2559.211,1066.888Z" transform="translate(-142.965 -10.933)" fill="#ffed00" fill-rule="evenodd"/>
      <path id="Trazado_19076" data-name="Trazado 19076" d="M2746.636,1093.312a11.434,11.434,0,1,1-11.434,11.434A11.433,11.433,0,0,1,2746.636,1093.312Z" transform="translate(-220.908 -22.151)" fill="#ffed00" fill-rule="evenodd"/>
      <path id="Trazado_19077" data-name="Trazado 19077" d="M2575.257,1205.2a11.434,11.434,0,1,1-11.434,11.434A11.434,11.434,0,0,1,2575.257,1205.2Z" transform="translate(-148.151 -69.65)" fill="#ffed00" fill-rule="evenodd"/>
      <path id="Trazado_19078" data-name="Trazado 19078" d="M2296.8,1238.274a9.134,9.134,0,1,1-9.134,9.134A9.135,9.135,0,0,1,2296.8,1238.274Z" transform="translate(-30.911 -83.692)" fill="#ffed00" fill-rule="evenodd"/>
      <path id="Trazado_19079" data-name="Trazado 19079" d="M2341.779,1453.483l19.3-10.281-1.046,8.371,1.046,7.79,6.046,8.138-20.579,14.882-8.487-12.789Z" transform="translate(-52.307 -170.691)" fill-rule="evenodd"/>
      <g id="Grupo_9863" data-name="Grupo 9863" transform="translate(2269.556 1105.3)">
        <path id="Trazado_19080" data-name="Trazado 19080" d="M2384.926,1152.636h1.277c18.406.455,28.631,10.37,32.444,26.058.516,2.122,1.629,5.7-.128,6.514-1.574.734-3.03-1.264-4.343-.894-.029,14.448-4.534,24.419-13.667,29.762.132,3.352-.238,7.335.638,10.474a21.9,21.9,0,0,0,1.661,4.088c.551,1.052,1.651,3.16,2.427,3.449,1.137.422,3.651.137,4.727.255,11.152,1.225,16.226,6.822,20.31,14.945a119.121,119.121,0,0,1,8.047,22.1c.359,1.313,2.753,7.237.255,7.281-1.5.026-1.906-3.408-2.427-5.365a129.7,129.7,0,0,0-5.875-17.5c-3.2-7.564-6.312-14.593-13.923-17.372-7.3,12.016-16.641,21.658-34.232,23.375-18.79,1.833-33.008-5.636-45.6-11.5-10.085,5.615-11.966,20.3-14.178,33.849-2.263,13.858-3.983,28.808-6.387,41.77-1.231,6.637-3.163,13.434-3.576,20.437-.461,7.8,2.77,13.12,9.069,15.073,6.86,2.126,13.649-2.194,18.01-4.982,5.1-3.265,9.267-6.648,13.924-10.219-.879-1.38-2.262-2.56-3.45-4.088a15.971,15.971,0,0,1-2.81-5.109c-1.349-4.33-.157-9.58,1.023-13.285a161.558,161.558,0,0,0-16.1,8.686c-1.424.915-3.332,3.3-5.237,1.789-.009-2.164,2.457-3.019,3.96-3.96a152.264,152.264,0,0,1,26.441-13.156c1.709-.663,3.912-1.216,5.875-2.044a28.274,28.274,0,0,1,2.939-1.021c1.178-.329,1.544-.132,2.171,1.021-.469,1.691-2.435,1.831-3.831,2.3-4.632,1.554-9.361,3.448-13.54,5.237.409,1.852-.679,3.75-1.15,5.748-1.761,7.467,1.6,12.75,5.875,15.967,5.013-3.717,9.887-8.1,14.434-12.135.612-.543,1.249-1.429,2.171-1.405a3.013,3.013,0,0,0,1.405,1.405c-2.273,2.7-5.136,4.749-7.792,7.025a296.22,296.22,0,0,1-25.164,19.543c-5.364,3.688-14.408,8.063-22.226,4.216-6.89-3.393-9.573-10.043-8.047-20.694,1.149-8.023,3.178-16.393,4.6-25.163,2.735-16.89,4.557-35.906,8.43-51.093,1.544-6.053,3.756-11.083,7.536-14.69,1.212-1.157,2.835-2,4.088-3.449a38.942,38.942,0,0,0,3.449-5.492,119.008,119.008,0,0,0,8.813-18.011c3.373-9.084,4.949-18.7,5.621-30.144.7-11.894,1-22.283,6.642-29.124C2364.934,1156.527,2373.676,1153.221,2384.926,1152.636Zm-1.916,2.682c-10.062.591-18.424,4.71-22.609,10.73-4.568,6.572-4.34,17.381-4.982,27.846-.635,10.36-2.153,19.363-5.109,27.718-2.991,8.452-6.952,15.215-10.729,22.1,8.424-3.995,18.543-4.744,25.93-9.069,6.078-3.559,7.234-9.479,7.664-18.521.131-2.732.706-5.642.511-8.3-.122-1.669-1.017-4.3-2.554-5.109a17.135,17.135,0,0,0-2.811-.638c-4.041-1.213-7.99-3.576-8.43-8.3-.356-3.821,1.787-8.613,5.365-8.941,2.342-.215,4.089,1.462,5.11,2.555.362.387.615,1.154,1.149,1.021-.159-2.769.207-6.674,0-9.324-.084-1.083-.676-2.819.639-3.066,2.656-.5,2.113,5.849,3.194,6.9,6.312-3.524,12.966-6.7,22.992-6.515a35.125,35.125,0,0,0,.255-3.7c-.1-2.182-2.174-6.156-.128-6.514,1.256-.22,2.367,1.474,2.938,2.171a28.654,28.654,0,0,1,5.365,10.347,87.176,87.176,0,0,1,9.964,3.576C2413.965,1165.541,2403.409,1154.12,2383.01,1155.318Zm16.86,23.375c-.987.551-2.867.2-4.087.255-8.8.371-16.223,4.254-21.715,7.792-.144,2.721.883,7.188-2.043,6.77-1.188-.17-2.054-2.681-2.939-3.7-.778-.9-2.231-2.483-3.448-2.427-1.012.045-1.917,1.328-2.3,2.043-2.353,4.411.19,7.619,3.449,9.2,1.714.83,3.7.933,5.365,1.661a7.46,7.46,0,0,1,2.682,2.938c2.039,3.33,1.25,8.578,1.022,13.412-.458,9.685-2.333,16.245-8.558,20.055-8.179,5-19.062,5.294-27.974,10.09,11.637,5.364,25.307,12.2,42.535,10.475,16.151-1.622,25.493-10.5,31.679-21.715a48.984,48.984,0,0,0-6.9-.767c-2.745-.074-6.146-.134-9.2-.383-2.366-.193-4.667-.478-6.132-1.4-4.62-2.926-1.2-12.3-1.789-19.033a15.744,15.744,0,0,1-3.576-1.66c-.848-.5-2.78-1.516-2.682-2.682.239-2.84,3.94.463,4.471.767a15.955,15.955,0,0,0,7.536,2.3c5.756-.085,9.515-4.813,12.007-9.069,2.759-4.71,3.74-9.69,4.344-16.733-1.987-.943-4.4-1.821-6.387-1.149-4.132,1.4-4.7,7.872-3.065,11.624.543,1.244,1.579,2.876-.255,3.194-1.854.32-3.192-4.425-3.321-6.77-.292-5.3,2.93-10.562,7.664-10.857,2.378-.148,3.777.857,5.365.766.22-.841-.815-.975-1.277-1.15-.542-.2-1.228-.466-1.789-.639-1.132-.349-2.909-.417-3.7-1.15s-1.033-2.975-1.533-4.215a15.582,15.582,0,0,0-2.172-3.96C2400.825,1174.38,2401.607,1177.724,2399.871,1178.694Zm-8.43,49.688c.484,3.887,5.818,3.331,10.219,3.577a26.066,26.066,0,0,1-3.577-17.116,11.828,11.828,0,0,1-6,0C2392.564,1218.453,2391.041,1225.172,2391.44,1228.382Z" transform="translate(-2309.914 -1152.636)" fill-rule="evenodd"/>
        <path id="Trazado_19081" data-name="Trazado 19081" d="M2669.7,1358.523c7.732,16.142,14.675,34.624,16.222,57.864.09,1.348.109,3.044-1.916,2.682-1.362-11.99-2.936-23.072-6-33.211a162.556,162.556,0,0,0-11.369-27.718c-9.8-2.439-15.187-10.431-20.438-19.032-3.554-5.824-7.865-12.006-11.878-17.755a32.372,32.372,0,0,1-3.7-6.131c-.524-1.343-.338-2.925-.639-4.6a28.664,28.664,0,0,0-1.405-3.449,15.218,15.218,0,0,1-.894-3.832c-.157-2.156.533-4.629.127-6.9-.481-2.7-2.074-4.673-3.065-7.152-.787-1.972-1.911-6.858.9-7.281,2.173-.327,3.9,1.818,5.109,3.194a19.811,19.811,0,0,1,3.449,4.854c.927-.152,1.654-1.572,2.682-2.044-2.146-1.33-1.15-5.184,1.021-5.748-1.772-1.058-4.731-4.753-2.682-7.025.9-.993,3.267-.955,4.854-.383-.142-2.177-2.862-3.115-2.682-5.748a3.294,3.294,0,0,1,4.471-2.554c4.405,1.508,7.184,9.389,7.919,15.073.126.967-.11,1.947,0,2.938.107.958.676,2.074.895,3.193a19.986,19.986,0,0,1,.638,6.259c1.647-1.231,3.324-4.961,4.087-8.3.269-1.172.117-2.984,1.661-2.809,2.073.234.256,4.594-.128,5.748a20.792,20.792,0,0,1-2.427,5.364c1.3,4.153,2.388,8.512,3.7,12.645,2.429-1.4,5.365-3.486,9.069-4.47a26.131,26.131,0,0,1,12.263.128c-2.964-11.645-3.608-24.356-6.642-36.4-1.369-5.44-3.486-10.674-7.409-14.179a26.318,26.318,0,0,0-10.6-5.492c-1.182-.329-3.3-1.226-4.344-1.022-.529.1-1.691,1.308-2.3,1.661-5.46,3.16-12.458,6.347-20.693,6.386-13.1.062-21.907-6.507-25.036-17.5-23.87-2.537-23.365,20.4-29.762,35.766,3.768-.022,7.356-.223,11.112-.256a21.542,21.542,0,0,1,7.408-10.219c.922-.714,2.3-2.253,3.7-1.277.624,1.546-1.084,2.185-1.917,2.811a17.665,17.665,0,0,0-6.514,8.43c7.816,1.29,20.272-2.489,25.419,2.044,2.253,1.984,3.208,6.825,4.215,10.857,2.079,8.322,3.808,15.805,6.131,24.014,1.4,4.958,5.2,12.832-1.021,14.817-3.705,1.184-8.994.828-14.179,1.022s-10.391.377-14.69.384c-20.058,21.921-25.163,58.8-28.1,97.843a3.262,3.262,0,0,1-2.172-.127c2.15-32.508,6.322-64.1,19.16-86.348-9.583.215-13.271-5.464-16.477-11.624-6.928.115-11.273-2.353-12.007-8.431a26.743,26.743,0,0,1-17.882-5.365c-1.329-.954-2.984-1.786-3.449-3.321,1.055-2.812,3.749.234,5.237,1.277a26.009,26.009,0,0,0,15.456,4.981c-.713-3.672-1.681-7.09-2.683-10.474.6-.1,2.145.023,2.555-.128.771,3.036,1.539,5.248,2.171,7.919.787,3.33,1.071,8.308,3.832,9.836,3.348,1.853,10.564,1.533,15.711,1.533,13.744,0,27.84,0,41.9-.639,2.694-.123,6.149-.763,6.642-1.916.56-1.31-.442-4.308-.894-5.876-3.2-11.094-5.83-21.51-8.686-33.211-.725-2.969-1.572-5.252-4.087-6.132-3.876-1.355-10.942-.383-15.839-.383-13.218,0-26.478.687-39.853,1.149-2.471.085-6.021.01-6.9,1.278-1.4,2.03.776,5.375.894,7.537a19.617,19.617,0,0,1-2.682-.128c-.812-3.682-2.149-8.332,1.15-10.092,2.572-1.372,7.458-1.138,11.879-1.277,4.614-.145,9.241-.319,12.773-.383,4.6-9.9,5.53-23.409,12.39-31.423.793-.926,2.849-2.4,3.065-3.193a15.294,15.294,0,0,0-.127-3.193,24.048,24.048,0,0,1,6-16.733c2.818-3.382,6.157-6.568,7.154-12.391a19.059,19.059,0,0,0,.383-6.13c-.232-1.311-1.584-3.052-2.172-4.471-1.05-2.535-2.089-6.478-.767-9.708,1.527-3.732,5.524-6.354,8.941-8.431a59.39,59.39,0,0,1,26.7-8.558c15.81-.928,26.488,4.626,30.784,15.328a34.313,34.313,0,0,1,1.149,19.8,35.16,35.16,0,0,1-3.193,8.3c-1.714,3.124-4.607,5.657-4.088,10.474.244,2.253,1.569,4.52,2.555,6.514a69.008,69.008,0,0,1,6,16.606,29.967,29.967,0,0,0,.639,3.833c.405.975,2.322,2.071,3.194,3.065,5.048,5.756,6.961,14.759,8.43,24.142,1.407,8.991,3.11,18.527,4.981,27.463,1.815,8.667,4.008,17.749,5.11,27.463,1.243,10.952.153,20.415-6.642,25.036C2677.689,1357.408,2674.4,1358.21,2669.7,1358.523Zm-22.1-175.762c2.372,6.6,1.829,15.616-.767,22.609,3.394-4.185,7.22-9.335,7.408-16.351.193-7.2-3.5-12.229-7.792-15.583-1.358-1.062-3.2-2.73-4.727-3.193-2.667-.81-5.368-.295-8.43-.383C2640.526,1171.725,2645.134,1175.9,2647.6,1182.761Zm-3.449-2.171a16.318,16.318,0,0,0-7.792-7.154c-3.164-1.357-8.97-2.974-12.9-2.3a47.684,47.684,0,0,0-11.88,3.96c-4.97,2.338-10.455,5.147-12.9,9.324-1.663,2.84-.58,7.059.511,9.453.549,1.2,1.719,2.443,2.044,3.96a21.15,21.15,0,0,1-.128,6.258c-.883,7.218-4.692,10.743-8.3,15.2-3.427,4.23-5.556,8.764-4.982,16.478,5.146-3.21,13.47-2.74,20.182-1.533,2.069.372,5.347,1.224,7.154.383,2.856-1.329,2.645-7.841,3.449-11.113-11.88-1.075-17.057-14.53-12.773-26.569-4.254.31.219-4.939,1.4-6.515a24.781,24.781,0,0,1,10.092-8.3c1.664-.757,5.29-2.6,6.9-2.043,1.136.392,1.023,2.306,1.023,3.96-.011,12.777,6.248,18.432,14.945,22.353,1.214-.528,2.544-1.488,4.215-1.149C2647.414,1197.715,2647.669,1187.026,2644.154,1180.591Zm12.39,9.835c-.521,7.159-4.817,12.585-8.047,16.861.9,1.347,1.765,2.841,1.277,4.854-1.051,4.341-7.063,6.7-12.518,5.876-.652,2.562-1.564,5.51-2.171,8.558-.62,3.113-1.421,6.648-1.15,9.708.352,3.968,3.49,4.551,7.281,5.11,8.14,1.2,15.915,2.136,21.587,5.365a55.232,55.232,0,0,0-3.96-13.412c-1.81-4.044-5.457-8.6-4.981-14.051.445-5.1,4.076-8.275,5.875-12.518,5.711-13.465,1.141-30.033-10.346-34.233-.078.007-.151.019-.128.128A20.184,20.184,0,0,1,2656.543,1190.425Zm-45.473-.639c4.22,1.23,7.739,4.332,7.537,9.708a10.128,10.128,0,0,1-2.684,6c-.279.315-4.4,5.007-4.853,2.045-.191-1.248,2.029-2.251,3.065-3.45a10.8,10.8,0,0,0,1.661-2.554c1.931-4.79-1.953-8.958-5.748-9.58-1.732,4.807-3.666,9.891-3.321,15.455.534,8.611,6.363,13.617,15.072,14.051,1.407.07,3.648-.445,3.7,1.15.065,1.835-3.172,1.2-4.47,1.15-1.061,4.554-.779,9.71-3.7,12.262s-8.435.543-12.263.256c2.5,7.7,8.465,12.536,17.372,14.051,9.779,1.664,18.425-1.845,24.781-5.747-5.69-1.185-11.325-.358-14.179-3.833-2.6-3.169-1.307-9.126-.255-14.433.37-1.867.67-3.688,1.277-5.876.465-1.677,1.25-4.746,2.171-4.982a11.534,11.534,0,0,1,2.171.255,19.744,19.744,0,0,0,3.066,0c2.41-.27,6.269-2.208,6-5.109a3.835,3.835,0,0,0-3.833-3.065c-1.127.063-2.131,1.735-3.448,1.66-.425-.024-1.015-.654-1.66-1.023s-1.436-.631-1.917-.894c-8.461-4.615-14.456-11.395-13.8-24.653h-.255C2617.932,1184.216,2613.6,1186.1,2611.07,1189.786Zm33.721,83.411c-1.06-2.053-2.855-5.068-4.981-4.088.958,2.534,2.872,4.111,3.321,7.154a9.051,9.051,0,0,1,2.043,1.405c.583.5,1.208,1.409,1.661,1.277A27.088,27.088,0,0,0,2644.792,1273.2Zm-7.792,3.832c1.075,4.673,6.928,4.568,10.091,7.154C2645.849,1280.625,2641.074,1276.393,2637,1277.029Zm6.387,33.211c-.563-.314-.442-1.187-.128-1.916a7.5,7.5,0,0,1,1.021-1.916c2.781-4.722,7.5-14.143,2.555-19.288-1.249-1.3-6.917-4.993-8.814-1.532,1.382,1.113,2.365.883,3.576,1.532a6.383,6.383,0,0,1,3.066,4.982c1,10.273-12.935,10.189-12.39,19.927.189,3.375,2.646,5.728,4.343,8.174,4.176,6.023,7.616,11.244,11.5,17.628,2.5,4.112,4.793,8.035,8.047,11.368,2.981,3.053,7.582,6.494,12.646,6.9a16.865,16.865,0,0,0,9.963-2.3c6.621-3.949,7.149-13.3,6-23.248-1.057-9.177-3.013-17.421-4.6-25.8-8.3-2.267-16.9.214-21.2,4.6.665,2.762,1.756,6.093,2.683,9.325.982,3.421,1.476,6.957,2.682,9.452.326.674,4.113,4.475,1.278,4.726-1.118.1-1.959-1.776-2.683-2.682-5.747-7.2-11.631-14.186-17.244-21.076C2645.269,1309.209,2644.631,1310.935,2643.387,1310.24Zm-17.245-25.292c.095,4.782,3.664,7.209,4.088,11.752.294,3.155-.823,7.97.766,10.219,1.135-4.234,8.95-6.876,10.857-11.368,1.074-2.528.063-6.94-2.427-6.642-.538.064-1.521,1.2-2.044,1.66a16.793,16.793,0,0,0-1.917,1.916c.249.987.877,1.594.767,2.938-1.756,2.031-2.467-1-3.065-2.3-1.642-3.568-4.1-6.877-6.642-8.558h-.383Zm24.269,13.668c-.658,1.234-.918,2.922-1.532,4.343s-1.427,2.675-2.044,3.959c4.285,4.841,8.6,10.466,12.773,15.329.157.184.361.852.767.639-2.677-8.777-4.972-17.935-7.792-26.568C2652.136,1297.275,2650.942,1297.625,2650.412,1298.616Zm-67.571,34.489c1.582-2.088,3.183-4.674,4.727-6.77.5-.681,1.382-1.276,1.278-2.044-7.184.031-14.311,0-21.2-.256C2570.322,1329.361,2574.365,1334,2582.841,1333.1Z" transform="translate(-2403.982 -1158.875)" fill-rule="evenodd"/>
        <path id="Trazado_19082" data-name="Trazado 19082" d="M2435.3,1206.244c-2.057-2.4,4.188-4.561,7.409-4.343,2.284.154,6.575,1.3,6.386,3.066-.169,1.585-2.1.806-3.193.383a11.8,11.8,0,0,0-3.832-.895C2438.982,1204.47,2437.884,1206.477,2435.3,1206.244Z" transform="translate(-2362.973 -1173.544)" fill-rule="evenodd"/>
        <path id="Trazado_19083" data-name="Trazado 19083" d="M2447.1,1211.588c1.818-.531,2.388.748,2.683,2.171a10.113,10.113,0,0,1,.255,2.555,2.083,2.083,0,0,1-3.321.894C2445.6,1216.1,2445.341,1212.1,2447.1,1211.588Z" transform="translate(-2367.616 -1177.611)" fill-rule="evenodd"/>
        <path id="Trazado_19084" data-name="Trazado 19084" d="M2475.673,1216.117c2.476-.123,3.022,5.559.128,5.492C2473.505,1221.557,2472.65,1216.267,2475.673,1216.117Z" transform="translate(-2379.458 -1179.585)" fill-rule="evenodd"/>
        <path id="Trazado_19085" data-name="Trazado 19085" d="M2670.007,1217.644c3.469-.564,2.511,5.332.255,5.62C2666.8,1223.707,2667.543,1218.044,2670.007,1217.644Z" transform="translate(-2461.896 -1180.218)" fill-rule="evenodd"/>
        <path id="Trazado_19086" data-name="Trazado 19086" d="M2406.035,1218.239c1.41-.649,2.324,1.237,3.194,2.3.808.989,3.38,3.757.894,4.087-.955.127-4.593-3.888-4.727-4.982C2405.272,1218.62,2405.636,1218.424,2406.035,1218.239Z" transform="translate(-2350.439 -1180.431)" fill-rule="evenodd"/>
        <path id="Trazado_19087" data-name="Trazado 19087" d="M2694.207,1229.568c3.774-1.029,2.751,4.823.51,5.109C2691.434,1235.1,2692.042,1230.159,2694.207,1229.568Z" transform="translate(-2472.301 -1185.245)" fill-rule="evenodd"/>
        <path id="Trazado_19088" data-name="Trazado 19088" d="M2448.353,1235.345c1.272-.5,1.86.78,2.682,1.533a9.2,9.2,0,0,0,2.044,1.533c1.219.62,4.88.753,5.109,1.916.569,2.885-4.95,1.017-6,.511-1.606-.772-4.521-2.789-4.6-4.215A1.124,1.124,0,0,1,2448.353,1235.345Z" transform="translate(-2368.359 -1187.701)" fill-rule="evenodd"/>
        <path id="Trazado_19089" data-name="Trazado 19089" d="M2725.089,1241.176c.7,1.373-.664,1.828-2.172,2.427-1.391.553-3.937,1.918-4.087,0-.073-.922.98-1.37,2.043-1.789C2722.318,1241.246,2723.776,1240.35,2725.089,1241.176Z" transform="translate(-2483.512 -1190.082)" fill-rule="evenodd"/>
        <path id="Trazado_19090" data-name="Trazado 19090" d="M2674.292,1247.65c1.533-.878,5.264.423,6.131-1.661a11.78,11.78,0,0,1-5.748-.511c-.68-.251-1.925-.807-2.043-1.532-.47-2.867,2.974-.456,4.6-.256,3.221.4,5.768-1.035,6.258,1.023.709,2.969-4.058,5.068-6.13,5.11C2675.66,1249.855,2673.559,1249.52,2674.292,1247.65Z" transform="translate(-2463.882 -1190.808)" fill-rule="evenodd"/>
        <path id="Trazado_19091" data-name="Trazado 19091" d="M2487.135,1325.031c1.716-.653,5.254,2.088,6.643,3.066,5.66,3.984,11.607,10.353,10.857,20.82-.377,5.255-2.752,9.057-5.109,12.518-.772,1.134-2.019,2.316-2.427,3.322-.758,1.865-.87,4.674-1.277,7.025-.818,4.717-1.65,8.878-2.555,13.8-.421,2.288-1.336,5.223-1.15,7.026.162,1.566,1.875,4.139,2.555,5.492a282.542,282.542,0,0,1,23.119,63.995c1.4,5.952,2.879,12.9,4.216,19.543.261,1.3,1.723,5.792,0,6.132-1.911.377-2.26-4.063-2.554-5.493-5.12-24.855-11.038-47.359-20.055-67.826-2.327-5.283-4.806-11.048-7.536-16.478-.622-1.237-2.618-4.18-2.682-5.237-.049-.806.643-2.209.894-3.577,1.372-7.453,2.7-14.755,4.088-22.226a20.322,20.322,0,0,1,.639-3.7c.48-1.127,1.43-1.457,2.044-2.3,2.711-3.728,4.883-7.386,5.236-12.645a18.278,18.278,0,0,0-4.981-13.923,35.266,35.266,0,0,0-8.047-6.132C2487.842,1327.526,2485.519,1326.391,2487.135,1325.031Z" transform="translate(-2384.916 -1225.781)" fill-rule="evenodd"/>
        <path id="Trazado_19092" data-name="Trazado 19092" d="M2350.729,1510.891c-.117.722.467,3.217.383,3.958-.135,1.19-2.041,4.118-2.683,5.492-5.5,11.8-9.042,26.177-10.6,42.153-.082.837.006,2.6-1.4,2.555-2.055-.073-.755-6.208-.639-7.154,1.921-15.653,5.691-29.39,11.5-41.13a58.45,58.45,0,0,1,3.065-5.749C2350.552,1511.054,2350.565,1510.9,2350.729,1510.891Z" transform="translate(-2320.679 -1304.728)" fill-rule="evenodd"/>
      </g>
      <g id="Grupo_9864" data-name="Grupo 9864" transform="translate(2376.901 1173.617)">
        <path id="Trazado_19093" data-name="Trazado 19093" d="M2548.021,1318.077a8.755,8.755,0,0,0-2.044.766c-1.974-5.458-2.335-13.5.894-17.371,4.472-5.367,14.35-5.943,15.072-15.328a22.717,22.717,0,0,0-1.661-10.475c-1.838,1.29-.712,3.152-.894,5.365-.485,5.917-5.257,8.823-10.346,10.091-2.042.509-4.4.814-6,2.044-1.794,1.373-2.92,3.9-3.7,6.769-.273,1-.333,2.084-1.533,1.916-1.973-.275.222-5.5.639-6.386a11.926,11.926,0,0,1,3.959-4.726c2.494-1.468,5.477-1.493,8.047-2.427,3.723-1.354,6.612-3.54,6.642-8.686-5.394,2.4-10.753,5.938-16.222,8.686.095,1.187.786,2.424-.255,3.065-1.9.128-2.018-2.338-2.3-3.7-1.01-4.891-.992-10.849-4.471-13.157-.166,2.731.908,4.471.894,7.025-.019,3.37-1.441,5.733-2.3,8.431a24.145,24.145,0,0,0-1.4,9.324c.174,2.87,1.253,5.633,1.661,8.686,1.24,9.3-.753,19.581-.767,29.379a125.184,125.184,0,0,0,2.554,23.375c.162.814.644,2.211-.383,2.427-.454.095-.832.548-1.405-1.532-3.056-11.074-2.683-26.134-2.043-38.96.169-3.412.265-7.535.127-10.984-.14-3.513-1.086-6.613-1.66-9.58a24.919,24.919,0,0,1,.383-10.219c.925-4.044,3.182-7.158,2.811-11.368-.194-2.188-2.13-8.218,1.022-8.558,1.951-.211,4.053,2.587,4.854,4.215,1.365,2.779,1.469,6.2,2.043,9.708a14.905,14.905,0,0,0,4.215-2.043c4.052-2.273,8.28-4.713,12.519-6.9.158-2.39,2.743-4.611,4.981-2.938,2.308-1.8,10.385-5.139,11.114.383,3.763,2.707-2.42,7.177-4.215,9.069-2.419,2.548-3.913,4.924-5.621,7.025-1.746,7.022-11.621,7.685-15.2,13.284C2545.791,1307.257,2546.626,1313.367,2548.021,1318.077Zm14.944-42.152c.046.635.358,1,.384,1.66,2.077-1.583,4.106-3.217,7.408-3.576C2567.847,1272.878,2565.054,1274.978,2562.965,1275.924Zm1.022,4.344a35.11,35.11,0,0,1,.255,4.854c2.366-3.042,5.413-5.4,7.665-8.558C2568.085,1276.119,2565.971,1278.453,2563.987,1280.268Z" transform="translate(-2510.162 -1271.351)" fill-rule="evenodd"/>
        <path id="Trazado_19094" data-name="Trazado 19094" d="M2544.655,1428.482a3.938,3.938,0,0,0,2.044.128c1.013,11.7-3.344,20.01-11.24,23.247-7.34,3.009-14.352-.406-19.032-3.96-7.642-5.8-13.51-14.168-18.01-23.119-.886-1.761-2.241-3.713-1.917-5.748,1.855-.969,3,3.164,3.7,4.6a81.872,81.872,0,0,0,9.325,14.433c4.133,5.188,10.539,12.349,18.777,12.9a14.316,14.316,0,0,0,11.623-4.6C2543.572,1442.634,2545.246,1436.32,2544.655,1428.482Z" transform="translate(-2496.45 -1333.984)" fill-rule="evenodd"/>
      </g>
      <path id="Trazado_19095" data-name="Trazado 19095" d="M2447.438,1398.843l8.149-1.105s1.152.829,1.152,1.105v4.651s.691,3.04.691,3.271.185,7.323.277,7.461a32.3,32.3,0,0,1-.6,5.38c-.23.286-3.823,2.4-4.284,2.727s-4.284.6-4.836-1.105S2447.438,1398.843,2447.438,1398.843Z" transform="translate(-98.742 -151.39)" fill="#efefef" fill-rule="evenodd"/>
      <g id="Grupo_9865" data-name="Grupo 9865" transform="translate(2325.106 1240.548)">
        <path id="Trazado_19096" data-name="Trazado 19096" d="M2423.082,1395.465a96.691,96.691,0,0,1,11.113-2.682,14.628,14.628,0,0,1,4.087-.511c2.5.418,4.322,4.321,2.3,7.025,1.539,1.632.8,4.134,1.022,6.132.076.7.432,1.338.51,2.043a28.322,28.322,0,0,1-.127,5.493c-.34,2.63-3.586,4.984-6.132,6.9-5.39,4.053-11.445,6.631-18.9,9.2-1.033.356-4.081,1.846-4.216-.255-.125-1.941,5.219-2.816,7.025-3.449a47.38,47.38,0,0,0,19.033-12.007c1.006-4.07-.167-8.469-.128-12.135-.986-.581-2.626-.412-2.427-1.788.113-.785.809-.8,1.66-1.149.477-.867,1.271-2.461.256-3.194-.764-.551-3.679.432-5.365.767-3.591.711-7.635,1.338-10.347,2.937-1.434.846-4.215,3.688-5.237,1.661-.908-1.8,1.97-2.269,2.81-3.322.3-2.456.722-5.38-1.021-6.642a18.7,18.7,0,0,1-4.344,10.346,19.02,19.02,0,0,0-2.427,2.811,33.852,33.852,0,0,0-1.916,5.237c-.576,1.876-1.214,6.186-3.7,4.471-.543-2.172.424-4.3,1.021-6.131a24.148,24.148,0,0,1,2.171-5.365,35.09,35.09,0,0,1,2.428-2.554,18.153,18.153,0,0,0,4.088-10.857C2420.051,1385.674,2423.951,1390.8,2423.082,1395.465Z" transform="translate(-2406.445 -1387.66)" fill-rule="evenodd"/>
      </g>
      <g id="Grupo_9866" data-name="Grupo 9866" transform="translate(2404.483 1228.051)">
        <path id="Trazado_19097" data-name="Trazado 19097" d="M2561.087,1377.079c1.278,1.551,4.469,5.116,1.916,7.281,1.9,1.932.5,4.643-2.427,4.726-1.952.056-6.543-1.48-5.493-3.833,2.176-.672,3.532,2.082,6.259,1.277-1.643-3.041-5.607-3.759-8.431-5.619-2.3.943-2.563,3.98-1.277,5.748a6.392,6.392,0,0,0,2.938,1.916c.825.33,2.91.719,2.938,1.789.053,2.053-3.558.6-4.087.383a10.126,10.126,0,0,1-3.577-2.427c-1.148-1.425-.951-2.9-1.405-4.6-.387-1.444-1.551-2.467-1.916-4.087-.106-.474,0-.925-.127-1.406-.818-3.03-3.428-6.972-1.023-10.09,1.084-1.4,3.56-2.357,6.26-2.171a10.953,10.953,0,0,1,6.9,3.193C2560.446,1370.9,2564.238,1374.975,2561.087,1377.079Zm-9.58-8.685c-4.083-.255-5.622,2.338-4.215,6a19.552,19.552,0,0,1,1.534-1.277,11.313,11.313,0,0,1,2.043-1.149c.75-.123,1.15.331,1.789.511,2.868.808,4.581,1.6,7.153,2.427C2558.724,1372.248,2555.569,1368.647,2551.507,1368.394Zm5.11,8.174a38.007,38.007,0,0,0-4.6-1.66c-3.156-.38-3.863,3.243-2.427,5.748a4.282,4.282,0,0,1,4.215-2.171c3.089.241,4.915,3.066,7.537,3.577C2560.607,1380.588,2558.661,1377.243,2556.617,1376.568Z" transform="translate(-2544.381 -1365.944)" fill-rule="evenodd"/>
      </g>
      <g id="Grupo_9867" data-name="Grupo 9867" transform="translate(2376.241 1218.089)">
        <path id="Trazado_19098" data-name="Trazado 19098" d="M2558.894,1348.632c.425.511.641,1.232,1.533,1.277-.123.643-1,.534-1.278,1.021A8.245,8.245,0,0,1,2558.894,1348.632Z" transform="translate(-2522.3 -1348.632)" fill-rule="evenodd"/>
        <path id="Trazado_19099" data-name="Trazado 19099" d="M2531.315,1349.516c.109-.024.12.05.128.128.321,2.695,1.534,5.617,1.661,8.431.138,3.043-.511,6.658-.511,10.347a130.031,130.031,0,0,0,2.3,24.908c.123.65,1.141,3.579-.51,3.832-1.941.3-2.173-3.909-2.428-5.366-2.194-12.558-2.333-27.134-1.277-41.385C2531.053,1350.275,2531.121,1349.832,2531.315,1349.516Z" transform="translate(-2510.049 -1349.005)" fill-rule="evenodd"/>
        <path id="Trazado_19100" data-name="Trazado 19100" d="M2543.521,1429.53c.592-.078,1.639.488,2.81.255.193,7.913-.8,13.02-3.959,17.244a17,17,0,0,1-13.923,7.152c-9.23.021-16.362-7.484-20.821-12.9a95.914,95.914,0,0,1-9.963-15.328c-.51-.951-4.13-6.557-1.278-6.514,1.643.025,2.723,3.578,3.322,4.726,4.625,8.864,9.61,16.645,17.372,22.608,3.286,2.525,6.7,4.682,11.24,4.726a15,15,0,0,0,12.263-6.514C2543.217,1441.144,2543.946,1436.062,2543.521,1429.53Z" transform="translate(-2495.303 -1378.692)" fill-rule="evenodd"/>
      </g>
    </g>
    <rect id="Rectángulo_2150" data-name="Rectángulo 2150" width="755" height="42" transform="translate(583 3856)" fill="rgba(255,237,0,0.55)"/>
  </g>
</svg>
